<?xml version="1.0" encoding="UTF-8" standalone="no"?>
<!-- Created with Inkscape (http://www.inkscape.org/) -->

<svg
   xmlns:dc="http://purl.org/dc/elements/1.1/"
   xmlns:cc="http://creativecommons.org/ns#"
   xmlns:rdf="http://www.w3.org/1999/02/22-rdf-syntax-ns#"
   xmlns:svg="http://www.w3.org/2000/svg"
   xmlns="http://www.w3.org/2000/svg"
   xmlns:xlink="http://www.w3.org/1999/xlink"
   xmlns:sodipodi="http://sodipodi.sourceforge.net/DTD/sodipodi-0.dtd"
   xmlns:inkscape="http://www.inkscape.org/namespaces/inkscape"
   width="210mm"
   height="297mm"
   id="svg2"
   version="1.1"
   inkscape:version="0.48.3.1 r9886"
   sodipodi:docname="lidiaColorsLayers.svg">
  <defs
     id="defs4" />
  <sodipodi:namedview
     id="base"
     pagecolor="#ffffff"
     bordercolor="#666666"
     borderopacity="1.0"
     inkscape:pageopacity="0.0"
     inkscape:pageshadow="2"
     inkscape:zoom="0.35"
     inkscape:cx="909.67033"
     inkscape:cy="633.92893"
     inkscape:document-units="px"
     inkscape:current-layer="layer1"
     showgrid="false"
     inkscape:window-width="955"
     inkscape:window-height="621"
     inkscape:window-x="291"
     inkscape:window-y="226"
     inkscape:window-maximized="0">
    <inkscape:grid
       type="xygrid"
       id="grid3795" />
  </sodipodi:namedview>
  <metadata
     id="metadata7">
    <rdf:RDF>
      <cc:Work
         rdf:about="">
        <dc:format>image/svg+xml</dc:format>
        <dc:type
           rdf:resource="http://purl.org/dc/dcmitype/StillImage" />
      </cc:Work>
    </rdf:RDF>
  </metadata>
  <g
     inkscape:label="Calque 1"
     inkscape:groupmode="layer"
     id="layer1"
     style="display:inline">
    <path
       inkscape:connector-curvature="0"
       id="path3826"
       d="m 90.62926,967.24992 -55.072775,0 15.797266,-17.45578 15.797265,-17.45578 23.478244,0 23.47824,0 15.79727,17.45578 15.79726,17.45578 -55.07277,0 z m 113.46258,0 -55.07277,0 15.79726,-17.45578 15.79726,-17.45578 23.47825,0 23.47824,0 15.79727,17.45578 15.79726,17.45578 -55.07277,0 z m 113.46258,0 -55.07277,0 15.79726,-17.45578 15.79727,-17.45578 23.47824,0 23.47825,0 15.79726,17.45578 15.79727,17.45578 -55.07278,0 z m 113.46258,0 -55.07277,0 15.79726,-17.45578 15.79727,-17.45578 23.47824,0 23.47825,0 15.79726,17.45578 15.79727,17.45578 -55.07278,0 z m 113.46259,0 -55.07278,0 15.79727,-17.45578 15.79726,-17.45578 23.47825,0 23.47824,0 15.79727,17.45578 15.79726,17.45578 -55.07277,0 z m 113.46258,0 -55.07278,0 15.79727,-17.45578 15.79726,-17.45578 23.47825,0 23.47824,0 15.79727,17.45578 15.79726,17.45578 -55.07277,0 z m -567.31291,-61.09524 -55.072775,0 15.797266,-17.45578 15.797265,-17.45578 23.478244,0 23.47824,0 15.79727,17.45578 15.79726,17.45578 -55.07277,0 z m 113.46258,0 -55.07277,0 15.79726,-17.45578 15.79726,-17.45578 23.47825,0 23.47824,0 15.79727,17.45578 15.79726,17.45578 -55.07277,0 z m 113.46258,0 -55.07277,0 15.79726,-17.45578 15.79727,-17.45578 23.47824,0 23.47825,0 15.79726,17.45578 15.79727,17.45578 -55.07278,0 z m 113.46258,0 -55.07277,0 15.79726,-17.45578 15.79727,-17.45578 23.47824,0 23.47825,0 15.79726,17.45578 15.79727,17.45578 -55.07278,0 z m 113.46259,0 -55.07278,0 15.79727,-17.45578 15.79726,-17.45578 23.47825,0 23.47824,0 15.79727,17.45578 15.79726,17.45578 -55.07277,0 z m 113.46258,0 -55.07278,0 15.79727,-17.45578 15.79726,-17.45578 23.47825,0 23.47824,0 15.79727,17.45578 15.79726,17.45578 -55.07277,0 z m -567.31291,-61.09523 -55.072775,0 15.797266,-17.45578 15.797265,-17.45578 23.478244,0 23.47824,0 15.79727,17.45578 15.79726,17.45578 -55.07277,0 z m 113.46258,0 -55.07277,0 15.79726,-17.45578 15.79726,-17.45578 23.47825,0 23.47824,0 15.79727,17.45578 15.79726,17.45578 -55.07277,0 z m 113.46258,0 -55.07277,0 15.79726,-17.45578 15.79727,-17.45578 23.47824,0 23.47825,0 15.79726,17.45578 15.79727,17.45578 -55.07278,0 z m 113.46258,0 -55.07277,0 15.79726,-17.45578 15.79727,-17.45578 23.47824,0 23.47825,0 15.79726,17.45578 15.79727,17.45578 -55.07278,0 z m 113.46259,0 -55.07278,0 15.79727,-17.45578 15.79726,-17.45578 23.47825,0 23.47824,0 15.79727,17.45578 15.79726,17.45578 -55.07277,0 z m 113.46258,0 -55.07278,0 15.79727,-17.45578 15.79726,-17.45578 23.47825,0 23.47824,0 15.79727,17.45578 15.79726,17.45578 -55.07277,0 z m -567.31291,-61.09524 -55.072775,0 15.797266,-17.45578 15.797265,-17.45578 23.478244,0 23.47824,0 15.79727,17.45578 15.79726,17.45578 -55.07277,0 z m 113.46258,0 -55.07277,0 15.79726,-17.45578 15.79726,-17.45578 23.47825,0 23.47824,0 15.79727,17.45578 15.79726,17.45578 -55.07277,0 z m 113.46258,0 -55.07277,0 15.79726,-17.45578 15.79727,-17.45578 23.47824,0 23.47825,0 15.79726,17.45578 15.79727,17.45578 -55.07278,0 z m 113.46258,0 -55.07277,0 15.79726,-17.45578 15.79727,-17.45578 23.47824,0 23.47825,0 15.79726,17.45578 15.79727,17.45578 -55.07278,0 z m 113.46259,0 -55.07278,0 15.79727,-17.45578 15.79726,-17.45578 23.47825,0 23.47824,0 15.79727,17.45578 15.79726,17.45578 -55.07277,0 z m 113.46258,0 -55.07278,0 15.79727,-17.45578 15.79726,-17.45578 23.47825,0 23.47824,0 15.79727,17.45578 15.79726,17.45578 -55.07277,0 z m -567.31291,-61.09523 -55.072775,0 15.797266,-17.45578 15.797265,-17.45578 23.478244,0 23.47824,0 15.79727,17.45578 15.79726,17.45578 -55.07277,0 z m 113.46258,0 -55.07277,0 15.79726,-17.45578 15.79726,-17.45578 23.47825,0 23.47824,0 15.79727,17.45578 15.79726,17.45578 -55.07277,0 z m 113.46258,0 -55.07277,0 15.79726,-17.45578 15.79727,-17.45578 23.47824,0 23.47825,0 15.79726,17.45578 15.79727,17.45578 -55.07278,0 z m 113.46258,0 -55.07277,0 15.79726,-17.45578 15.79727,-17.45578 23.47824,0 23.47825,0 15.79726,17.45578 15.79727,17.45578 -55.07278,0 z m 113.46259,0 -55.07278,0 15.79727,-17.45578 15.79726,-17.45578 23.47825,0 23.47824,0 15.79727,17.45578 15.79726,17.45578 -55.07277,0 z m 113.46258,0 -55.07278,0 15.79727,-17.45578 15.79726,-17.45578 23.47825,0 23.47824,0 15.79727,17.45578 15.79726,17.45578 -55.07277,0 z m -567.31291,-61.09524 -55.072775,0 15.797266,-17.45578 15.797265,-17.45578 23.478244,0 23.47824,0 15.79727,17.45578 15.79726,17.45578 -55.07277,0 z m 113.46258,0 -55.07277,0 15.79726,-17.45578 15.79726,-17.45578 23.47825,0 23.47824,0 15.79727,17.45578 15.79726,17.45578 -55.07277,0 z m 113.46258,0 -55.07277,0 15.79726,-17.45578 15.79727,-17.45578 23.47824,0 23.47825,0 15.79726,17.45578 15.79727,17.45578 -55.07278,0 z m 113.46258,0 -55.07277,0 15.79726,-17.45578 15.79727,-17.45578 23.47824,0 23.47825,0 15.79726,17.45578 15.79727,17.45578 -55.07278,0 z m 113.46259,0 -55.07278,0 15.79727,-17.45578 15.79726,-17.45578 23.47825,0 23.47824,0 15.79727,17.45578 15.79726,17.45578 -55.07277,0 z m 113.46258,0 -55.07278,0 15.79727,-17.45578 15.79726,-17.45578 23.47825,0 23.47824,0 15.79727,17.45578 15.79726,17.45578 -55.07277,0 z m -567.31291,-61.09523 -55.072775,0 15.797266,-17.45578 15.797265,-17.45579 23.478244,0 23.47824,0 15.79727,17.45579 15.79726,17.45578 -55.07277,0 z m 113.46258,0 -55.07277,0 15.79726,-17.45578 15.79726,-17.45579 23.47825,0 23.47824,0 15.79727,17.45579 15.79726,17.45578 -55.07277,0 z m 113.46258,0 -55.07277,0 15.79726,-17.45578 15.79727,-17.45579 23.47824,0 23.47825,0 15.79726,17.45579 15.79727,17.45578 -55.07278,0 z m 113.46258,0 -55.07277,0 15.79726,-17.45578 15.79727,-17.45579 23.47824,0 23.47825,0 15.79726,17.45579 15.79727,17.45578 -55.07278,0 z m 113.46259,0 -55.07278,0 15.79727,-17.45578 15.79726,-17.45579 23.47825,0 23.47824,0 15.79727,17.45579 15.79726,17.45578 -55.07277,0 z m 113.46258,0 -55.07278,0 15.79727,-17.45578 15.79726,-17.45579 23.47825,0 23.47824,0 15.79727,17.45579 15.79726,17.45578 -55.07277,0 z m -567.31291,-61.09524 -55.072775,0 15.797266,-17.45578 15.797265,-17.45578 23.478244,0 23.47824,0 15.79727,17.45578 15.79726,17.45578 -55.07277,0 z m 113.46258,0 -55.07277,0 15.79726,-17.45578 15.79726,-17.45578 23.47825,0 23.47824,0 15.79727,17.45578 15.79726,17.45578 -55.07277,0 z m 113.46258,0 -55.07277,0 15.79726,-17.45578 15.79727,-17.45578 23.47824,0 23.47825,0 15.79726,17.45578 15.79727,17.45578 -55.07278,0 z m 113.46258,0 -55.07277,0 15.79726,-17.45578 15.79727,-17.45578 23.47824,0 23.47825,0 15.79726,17.45578 15.79727,17.45578 -55.07278,0 z m 113.46259,0 -55.07278,0 15.79727,-17.45578 15.79726,-17.45578 23.47825,0 23.47824,0 15.79727,17.45578 15.79726,17.45578 -55.07277,0 z m 113.46258,0 -55.07278,0 15.79727,-17.45578 15.79726,-17.45578 23.47825,0 23.47824,0 15.79727,17.45578 15.79726,17.45578 -55.07277,0 z m -567.31291,-61.09523 -55.072775,0 15.797266,-17.45578 15.797265,-17.45579 23.478244,0 23.47824,0 15.79727,17.45579 15.79726,17.45578 -55.07277,0 z m 113.46258,0 -55.07277,0 15.79726,-17.45578 15.79726,-17.45579 23.47825,0 23.47824,0 15.79727,17.45579 15.79726,17.45578 -55.07277,0 z m 113.46258,0 -55.07277,0 15.79726,-17.45578 15.79727,-17.45579 23.47824,0 23.47825,0 15.79726,17.45579 15.79727,17.45578 -55.07278,0 z m 113.46258,0 -55.07277,0 15.79726,-17.45578 15.79727,-17.45579 23.47824,0 23.47825,0 15.79726,17.45579 15.79727,17.45578 -55.07278,0 z m 113.46259,0 -55.07278,0 15.79727,-17.45578 15.79726,-17.45579 23.47825,0 23.47824,0 15.79727,17.45579 15.79726,17.45578 -55.07277,0 z m 113.46258,0 -55.07278,0 15.79727,-17.45578 15.79726,-17.45579 23.47825,0 23.47824,0 15.79727,17.45579 15.79726,17.45578 -55.07277,0 z M 90.62926,417.3928 l -55.072775,0 15.797266,-17.45578 15.797265,-17.45578 23.478244,0 23.47824,0 15.79727,17.45578 15.79726,17.45578 -55.07277,0 z m 113.46258,0 -55.07277,0 15.79726,-17.45578 15.79726,-17.45578 23.47825,0 23.47824,0 15.79727,17.45578 15.79726,17.45578 -55.07277,0 z m 113.46258,0 -55.07277,0 15.79726,-17.45578 15.79727,-17.45578 23.47824,0 23.47825,0 15.79726,17.45578 15.79727,17.45578 -55.07278,0 z m 113.46258,0 -55.07277,0 15.79726,-17.45578 15.79727,-17.45578 23.47824,0 23.47825,0 15.79726,17.45578 15.79727,17.45578 -55.07278,0 z m 113.46259,0 -55.07278,0 15.79727,-17.45578 15.79726,-17.45578 23.47825,0 23.47824,0 15.79727,17.45578 15.79726,17.45578 -55.07277,0 z m 113.46258,0 -55.07278,0 15.79727,-17.45578 15.79726,-17.45578 23.47825,0 23.47824,0 15.79727,17.45578 15.79726,17.45578 -55.07277,0 z m -567.31291,-61.09523 -55.072775,0 15.797266,-17.45579 15.797265,-17.45578 23.478244,0 23.47824,0 15.79727,17.45578 15.79726,17.45579 -55.07277,0 z m 113.46258,0 -55.07277,0 15.79726,-17.45579 15.79726,-17.45578 23.47825,0 23.47824,0 15.79727,17.45578 15.79726,17.45579 -55.07277,0 z m 113.46258,0 -55.07277,0 15.79726,-17.45579 15.79727,-17.45578 23.47824,0 23.47825,0 15.79726,17.45578 15.79727,17.45579 -55.07278,0 z m 113.46258,0 -55.07277,0 15.79726,-17.45579 15.79727,-17.45578 23.47824,0 23.47825,0 15.79726,17.45578 15.79727,17.45579 -55.07278,0 z m 113.46259,0 -55.07278,0 15.79727,-17.45579 15.79726,-17.45578 23.47825,0 23.47824,0 15.79727,17.45578 15.79726,17.45579 -55.07277,0 z m 113.46258,0 -55.07278,0 15.79727,-17.45579 15.79726,-17.45578 23.47825,0 23.47824,0 15.79727,17.45578 15.79726,17.45579 -55.07277,0 z m -567.31291,-61.09524 -55.072775,0 15.797266,-17.45578 15.797265,-17.45578 23.478244,0 23.47824,0 15.79727,17.45578 15.79726,17.45578 -55.07277,0 z m 113.46258,0 -55.07277,0 15.79726,-17.45578 15.79726,-17.45578 23.47825,0 23.47824,0 15.79727,17.45578 15.79726,17.45578 -55.07277,0 z m 113.46258,0 -55.07277,0 15.79726,-17.45578 15.79727,-17.45578 23.47824,0 23.47825,0 15.79726,17.45578 15.79727,17.45578 -55.07278,0 z m 113.46258,0 -55.07277,0 15.79726,-17.45578 15.79727,-17.45578 23.47824,0 23.47825,0 15.79726,17.45578 15.79727,17.45578 -55.07278,0 z m 113.46259,0 -55.07278,0 15.79727,-17.45578 15.79726,-17.45578 23.47825,0 23.47824,0 15.79727,17.45578 15.79726,17.45578 -55.07277,0 z m 113.46258,0 -55.07278,0 15.79727,-17.45578 15.79726,-17.45578 23.47825,0 23.47824,0 15.79727,17.45578 15.79726,17.45578 -55.07277,0 z M 90.62926,234.1071 l -55.072775,0 15.797266,-17.45579 15.797265,-17.45578 23.478244,0 23.47824,0 15.79727,17.45578 15.79726,17.45579 -55.07277,0 z m 113.46258,0 -55.07277,0 15.79726,-17.45579 15.79726,-17.45578 23.47825,0 23.47824,0 15.79727,17.45578 15.79726,17.45579 -55.07277,0 z m 113.46258,0 -55.07277,0 15.79726,-17.45579 15.79727,-17.45578 23.47824,0 23.47825,0 15.79726,17.45578 15.79727,17.45579 -55.07278,0 z m 113.46258,0 -55.07277,0 15.79726,-17.45579 15.79727,-17.45578 23.47824,0 23.47825,0 15.79726,17.45578 15.79727,17.45579 -55.07278,0 z m 113.46259,0 -55.07278,0 15.79727,-17.45579 15.79726,-17.45578 23.47825,0 23.47824,0 15.79727,17.45578 15.79726,17.45579 -55.07277,0 z m 113.46258,0 -55.07278,0 15.79727,-17.45579 15.79726,-17.45578 23.47825,0 23.47824,0 15.79727,17.45578 15.79726,17.45579 -55.07277,0 z m -567.31291,-61.09524 -55.072775,0 15.797266,-17.45578 15.797265,-17.45578 23.478244,0 23.47824,0 15.79727,17.45578 15.79726,17.45578 -55.07277,0 z m 113.46258,0 -55.07277,0 15.79726,-17.45578 15.79726,-17.45578 23.47825,0 23.47824,0 15.79727,17.45578 15.79726,17.45578 -55.07277,0 z m 113.46258,0 -55.07277,0 15.79726,-17.45578 15.79727,-17.45578 23.47824,0 23.47825,0 15.79726,17.45578 15.79727,17.45578 -55.07278,0 z m 113.46258,0 -55.07277,0 15.79726,-17.45578 15.79727,-17.45578 23.47824,0 23.47825,0 15.79726,17.45578 15.79727,17.45578 -55.07278,0 z m 113.46259,0 -55.07278,0 15.79727,-17.45578 15.79726,-17.45578 23.47825,0 23.47824,0 15.79727,17.45578 15.79726,17.45578 -55.07277,0 z m 113.46258,0 -55.07278,0 15.79727,-17.45578 15.79726,-17.45578 23.47825,0 23.47824,0 15.79727,17.45578 15.79726,17.45578 -55.07277,0 z m -567.31291,-61.09523 -55.072775,0 15.797266,-17.455786 15.797265,-17.455782 23.478244,0 23.47824,0 15.79727,17.455782 15.79726,17.455786 -55.07277,0 z m 113.46258,0 -55.07277,0 15.79726,-17.455786 15.79726,-17.455782 23.47825,0 23.47824,0 15.79727,17.455782 15.79726,17.455786 -55.07277,0 z m 113.46258,0 -55.07277,0 15.79726,-17.455786 15.79727,-17.455782 23.47824,0 23.47825,0 15.79726,17.455782 15.79727,17.455786 -55.07278,0 z m 113.46258,0 -55.07277,0 15.79726,-17.455786 15.79727,-17.455782 23.47824,0 23.47825,0 15.79726,17.455782 15.79727,17.455786 -55.07278,0 z m 113.46259,0 -55.07278,0 15.79727,-17.455786 15.79726,-17.455782 23.47825,0 23.47824,0 15.79727,17.455782 15.79726,17.455786 -55.07277,0 z m 113.46258,0 -55.07278,0 15.79727,-17.455786 15.79726,-17.455782 23.47825,0 23.47824,0 15.79727,17.455782 15.79726,17.455786 -55.07277,0 z"
       style="fill:none;stroke:#00ffff;stroke-opacity:1" />
    <path
       inkscape:connector-curvature="0"
       id="path3824"
       d="m 108.08504,993.43359 -17.45578,0 0,-13.09183 0,-13.09184 17.45578,0 17.45578,0 0,13.09184 0,13.09183 -17.45578,0 z m 87.27891,0 -17.45578,0 0,-13.09183 0,-13.09184 17.45578,0 17.45578,0 0,13.09184 0,13.09183 -17.45578,0 z m 87.27891,0 -17.45578,0 0,-13.09183 0,-13.09184 17.45578,0 17.45578,0 0,13.09184 0,13.09183 -17.45578,0 z m 87.27891,0 -17.45578,0 0,-13.09183 0,-13.09184 17.45578,0 17.45578,0 0,13.09184 0,13.09183 -17.45578,0 z m 87.27891,0 -17.45579,0 0,-13.09183 0,-13.09184 17.45579,0 17.45578,0 0,13.09184 0,13.09183 -17.45578,0 z m 87.27891,0 -17.45579,0 0,-13.09183 0,-13.09184 17.45579,0 17.45578,0 0,13.09184 0,13.09183 -17.45578,0 z m 87.27891,0 -17.45579,0 0,-13.09183 0,-13.09184 17.45579,0 17.45578,0 0,13.09184 0,13.09183 -17.45578,0 z m -523.67346,-61.09523 -17.45578,0 0,-13.09184 0,-13.09184 17.45578,0 17.45578,0 0,13.09184 0,13.09184 -17.45578,0 z m 87.27891,0 -17.45578,0 0,-13.09184 0,-13.09184 17.45578,0 17.45578,0 0,13.09184 0,13.09184 -17.45578,0 z m 87.27891,0 -17.45578,0 0,-13.09184 0,-13.09184 17.45578,0 17.45578,0 0,13.09184 0,13.09184 -17.45578,0 z m 87.27891,0 -17.45578,0 0,-13.09184 0,-13.09184 17.45578,0 17.45578,0 0,13.09184 0,13.09184 -17.45578,0 z m 87.27891,0 -17.45579,0 0,-13.09184 0,-13.09184 17.45579,0 17.45578,0 0,13.09184 0,13.09184 -17.45578,0 z m 87.27891,0 -17.45579,0 0,-13.09184 0,-13.09184 17.45579,0 17.45578,0 0,13.09184 0,13.09184 -17.45578,0 z m 87.27891,0 -17.45579,0 0,-13.09184 0,-13.09184 17.45579,0 17.45578,0 0,13.09184 0,13.09184 -17.45578,0 z m -523.67346,-61.09524 -17.45578,0 0,-13.09183 0,-13.09184 17.45578,0 17.45578,0 0,13.09184 0,13.09183 -17.45578,0 z m 87.27891,0 -17.45578,0 0,-13.09183 0,-13.09184 17.45578,0 17.45578,0 0,13.09184 0,13.09183 -17.45578,0 z m 87.27891,0 -17.45578,0 0,-13.09183 0,-13.09184 17.45578,0 17.45578,0 0,13.09184 0,13.09183 -17.45578,0 z m 87.27891,0 -17.45578,0 0,-13.09183 0,-13.09184 17.45578,0 17.45578,0 0,13.09184 0,13.09183 -17.45578,0 z m 87.27891,0 -17.45579,0 0,-13.09183 0,-13.09184 17.45579,0 17.45578,0 0,13.09184 0,13.09183 -17.45578,0 z m 87.27891,0 -17.45579,0 0,-13.09183 0,-13.09184 17.45579,0 17.45578,0 0,13.09184 0,13.09183 -17.45578,0 z m 87.27891,0 -17.45579,0 0,-13.09183 0,-13.09184 17.45579,0 17.45578,0 0,13.09184 0,13.09183 -17.45578,0 z m -523.67346,-61.09523 -17.45578,0 0,-13.09184 0,-13.09184 17.45578,0 17.45578,0 0,13.09184 0,13.09184 -17.45578,0 z m 87.27891,0 -17.45578,0 0,-13.09184 0,-13.09184 17.45578,0 17.45578,0 0,13.09184 0,13.09184 -17.45578,0 z m 87.27891,0 -17.45578,0 0,-13.09184 0,-13.09184 17.45578,0 17.45578,0 0,13.09184 0,13.09184 -17.45578,0 z m 87.27891,0 -17.45578,0 0,-13.09184 0,-13.09184 17.45578,0 17.45578,0 0,13.09184 0,13.09184 -17.45578,0 z m 87.27891,0 -17.45579,0 0,-13.09184 0,-13.09184 17.45579,0 17.45578,0 0,13.09184 0,13.09184 -17.45578,0 z m 87.27891,0 -17.45579,0 0,-13.09184 0,-13.09184 17.45579,0 17.45578,0 0,13.09184 0,13.09184 -17.45578,0 z m 87.27891,0 -17.45579,0 0,-13.09184 0,-13.09184 17.45579,0 17.45578,0 0,13.09184 0,13.09184 -17.45578,0 z m -523.67346,-61.09524 -17.45578,0 0,-13.09184 0,-13.09183 17.45578,0 17.45578,0 0,13.09183 0,13.09184 -17.45578,0 z m 87.27891,0 -17.45578,0 0,-13.09184 0,-13.09183 17.45578,0 17.45578,0 0,13.09183 0,13.09184 -17.45578,0 z m 87.27891,0 -17.45578,0 0,-13.09184 0,-13.09183 17.45578,0 17.45578,0 0,13.09183 0,13.09184 -17.45578,0 z m 87.27891,0 -17.45578,0 0,-13.09184 0,-13.09183 17.45578,0 17.45578,0 0,13.09183 0,13.09184 -17.45578,0 z m 87.27891,0 -17.45579,0 0,-13.09184 0,-13.09183 17.45579,0 17.45578,0 0,13.09183 0,13.09184 -17.45578,0 z m 87.27891,0 -17.45579,0 0,-13.09184 0,-13.09183 17.45579,0 17.45578,0 0,13.09183 0,13.09184 -17.45578,0 z m 87.27891,0 -17.45579,0 0,-13.09184 0,-13.09183 17.45579,0 17.45578,0 0,13.09183 0,13.09184 -17.45578,0 z m -523.67346,-61.09523 -17.45578,0 0,-13.09184 0,-13.09184 17.45578,0 17.45578,0 0,13.09184 0,13.09184 -17.45578,0 z m 87.27891,0 -17.45578,0 0,-13.09184 0,-13.09184 17.45578,0 17.45578,0 0,13.09184 0,13.09184 -17.45578,0 z m 87.27891,0 -17.45578,0 0,-13.09184 0,-13.09184 17.45578,0 17.45578,0 0,13.09184 0,13.09184 -17.45578,0 z m 87.27891,0 -17.45578,0 0,-13.09184 0,-13.09184 17.45578,0 17.45578,0 0,13.09184 0,13.09184 -17.45578,0 z m 87.27891,0 -17.45579,0 0,-13.09184 0,-13.09184 17.45579,0 17.45578,0 0,13.09184 0,13.09184 -17.45578,0 z m 87.27891,0 -17.45579,0 0,-13.09184 0,-13.09184 17.45579,0 17.45578,0 0,13.09184 0,13.09184 -17.45578,0 z m 87.27891,0 -17.45579,0 0,-13.09184 0,-13.09184 17.45579,0 17.45578,0 0,13.09184 0,13.09184 -17.45578,0 z m -523.67346,-61.09524 -17.45578,0 0,-13.09184 0,-13.09183 17.45578,0 17.45578,0 0,13.09183 0,13.09184 -17.45578,0 z m 87.27891,0 -17.45578,0 0,-13.09184 0,-13.09183 17.45578,0 17.45578,0 0,13.09183 0,13.09184 -17.45578,0 z m 87.27891,0 -17.45578,0 0,-13.09184 0,-13.09183 17.45578,0 17.45578,0 0,13.09183 0,13.09184 -17.45578,0 z m 87.27891,0 -17.45578,0 0,-13.09184 0,-13.09183 17.45578,0 17.45578,0 0,13.09183 0,13.09184 -17.45578,0 z m 87.27891,0 -17.45579,0 0,-13.09184 0,-13.09183 17.45579,0 17.45578,0 0,13.09183 0,13.09184 -17.45578,0 z m 87.27891,0 -17.45579,0 0,-13.09184 0,-13.09183 17.45579,0 17.45578,0 0,13.09183 0,13.09184 -17.45578,0 z m 87.27891,0 -17.45579,0 0,-13.09184 0,-13.09183 17.45579,0 17.45578,0 0,13.09183 0,13.09184 -17.45578,0 z m -523.67346,-61.09524 -17.45578,0 0,-13.09183 0,-13.09184 17.45578,0 17.45578,0 0,13.09184 0,13.09183 -17.45578,0 z m 87.27891,0 -17.45578,0 0,-13.09183 0,-13.09184 17.45578,0 17.45578,0 0,13.09184 0,13.09183 -17.45578,0 z m 87.27891,0 -17.45578,0 0,-13.09183 0,-13.09184 17.45578,0 17.45578,0 0,13.09184 0,13.09183 -17.45578,0 z m 87.27891,0 -17.45578,0 0,-13.09183 0,-13.09184 17.45578,0 17.45578,0 0,13.09184 0,13.09183 -17.45578,0 z m 87.27891,0 -17.45579,0 0,-13.09183 0,-13.09184 17.45579,0 17.45578,0 0,13.09184 0,13.09183 -17.45578,0 z m 87.27891,0 -17.45579,0 0,-13.09183 0,-13.09184 17.45579,0 17.45578,0 0,13.09184 0,13.09183 -17.45578,0 z m 87.27891,0 -17.45579,0 0,-13.09183 0,-13.09184 17.45579,0 17.45578,0 0,13.09184 0,13.09183 -17.45578,0 z m -523.67346,-61.09523 -17.45578,0 0,-13.09184 0,-13.09183 17.45578,0 17.45578,0 0,13.09183 0,13.09184 -17.45578,0 z m 87.27891,0 -17.45578,0 0,-13.09184 0,-13.09183 17.45578,0 17.45578,0 0,13.09183 0,13.09184 -17.45578,0 z m 87.27891,0 -17.45578,0 0,-13.09184 0,-13.09183 17.45578,0 17.45578,0 0,13.09183 0,13.09184 -17.45578,0 z m 87.27891,0 -17.45578,0 0,-13.09184 0,-13.09183 17.45578,0 17.45578,0 0,13.09183 0,13.09184 -17.45578,0 z m 87.27891,0 -17.45579,0 0,-13.09184 0,-13.09183 17.45579,0 17.45578,0 0,13.09183 0,13.09184 -17.45578,0 z m 87.27891,0 -17.45579,0 0,-13.09184 0,-13.09183 17.45579,0 17.45578,0 0,13.09183 0,13.09184 -17.45578,0 z m 87.27891,0 -17.45579,0 0,-13.09184 0,-13.09183 17.45579,0 17.45578,0 0,13.09183 0,13.09184 -17.45578,0 z m -523.67346,-61.09524 -17.45578,0 0,-13.09183 0,-13.09184 17.45578,0 17.45578,0 0,13.09184 0,13.09183 -17.45578,0 z m 87.27891,0 -17.45578,0 0,-13.09183 0,-13.09184 17.45578,0 17.45578,0 0,13.09184 0,13.09183 -17.45578,0 z m 87.27891,0 -17.45578,0 0,-13.09183 0,-13.09184 17.45578,0 17.45578,0 0,13.09184 0,13.09183 -17.45578,0 z m 87.27891,0 -17.45578,0 0,-13.09183 0,-13.09184 17.45578,0 17.45578,0 0,13.09184 0,13.09183 -17.45578,0 z m 87.27891,0 -17.45579,0 0,-13.09183 0,-13.09184 17.45579,0 17.45578,0 0,13.09184 0,13.09183 -17.45578,0 z m 87.27891,0 -17.45579,0 0,-13.09183 0,-13.09184 17.45579,0 17.45578,0 0,13.09184 0,13.09183 -17.45578,0 z m 87.27891,0 -17.45579,0 0,-13.09183 0,-13.09184 17.45579,0 17.45578,0 0,13.09184 0,13.09183 -17.45578,0 z m -523.67346,-61.09523 -17.45578,0 0,-13.09184 0,-13.09183 17.45578,0 17.45578,0 0,13.09183 0,13.09184 -17.45578,0 z m 87.27891,0 -17.45578,0 0,-13.09184 0,-13.09183 17.45578,0 17.45578,0 0,13.09183 0,13.09184 -17.45578,0 z m 87.27891,0 -17.45578,0 0,-13.09184 0,-13.09183 17.45578,0 17.45578,0 0,13.09183 0,13.09184 -17.45578,0 z m 87.27891,0 -17.45578,0 0,-13.09184 0,-13.09183 17.45578,0 17.45578,0 0,13.09183 0,13.09184 -17.45578,0 z m 87.27891,0 -17.45579,0 0,-13.09184 0,-13.09183 17.45579,0 17.45578,0 0,13.09183 0,13.09184 -17.45578,0 z m 87.27891,0 -17.45579,0 0,-13.09184 0,-13.09183 17.45579,0 17.45578,0 0,13.09183 0,13.09184 -17.45578,0 z m 87.27891,0 -17.45579,0 0,-13.09184 0,-13.09183 17.45579,0 17.45578,0 0,13.09183 0,13.09184 -17.45578,0 z M 108.08504,321.386 l -17.45578,0 0,-13.09183 0,-13.09184 17.45578,0 17.45578,0 0,13.09184 0,13.09183 -17.45578,0 z m 87.27891,0 -17.45578,0 0,-13.09183 0,-13.09184 17.45578,0 17.45578,0 0,13.09184 0,13.09183 -17.45578,0 z m 87.27891,0 -17.45578,0 0,-13.09183 0,-13.09184 17.45578,0 17.45578,0 0,13.09184 0,13.09183 -17.45578,0 z m 87.27891,0 -17.45578,0 0,-13.09183 0,-13.09184 17.45578,0 17.45578,0 0,13.09184 0,13.09183 -17.45578,0 z m 87.27891,0 -17.45579,0 0,-13.09183 0,-13.09184 17.45579,0 17.45578,0 0,13.09184 0,13.09183 -17.45578,0 z m 87.27891,0 -17.45579,0 0,-13.09183 0,-13.09184 17.45579,0 17.45578,0 0,13.09184 0,13.09183 -17.45578,0 z m 87.27891,0 -17.45579,0 0,-13.09183 0,-13.09184 17.45579,0 17.45578,0 0,13.09184 0,13.09183 -17.45578,0 z m -523.67346,-61.09523 -17.45578,0 0,-13.09184 0,-13.09183 17.45578,0 17.45578,0 0,13.09183 0,13.09184 -17.45578,0 z m 87.27891,0 -17.45578,0 0,-13.09184 0,-13.09183 17.45578,0 17.45578,0 0,13.09183 0,13.09184 -17.45578,0 z m 87.27891,0 -17.45578,0 0,-13.09184 0,-13.09183 17.45578,0 17.45578,0 0,13.09183 0,13.09184 -17.45578,0 z m 87.27891,0 -17.45578,0 0,-13.09184 0,-13.09183 17.45578,0 17.45578,0 0,13.09183 0,13.09184 -17.45578,0 z m 87.27891,0 -17.45579,0 0,-13.09184 0,-13.09183 17.45579,0 17.45578,0 0,13.09183 0,13.09184 -17.45578,0 z m 87.27891,0 -17.45579,0 0,-13.09184 0,-13.09183 17.45579,0 17.45578,0 0,13.09183 0,13.09184 -17.45578,0 z m 87.27891,0 -17.45579,0 0,-13.09184 0,-13.09183 17.45579,0 17.45578,0 0,13.09183 0,13.09184 -17.45578,0 z m -523.67346,-61.09524 -17.45578,0 0,-13.09183 0,-13.09184 17.45578,0 17.45578,0 0,13.09184 0,13.09183 -17.45578,0 z m 87.27891,0 -17.45578,0 0,-13.09183 0,-13.09184 17.45578,0 17.45578,0 0,13.09184 0,13.09183 -17.45578,0 z m 87.27891,0 -17.45578,0 0,-13.09183 0,-13.09184 17.45578,0 17.45578,0 0,13.09184 0,13.09183 -17.45578,0 z m 87.27891,0 -17.45578,0 0,-13.09183 0,-13.09184 17.45578,0 17.45578,0 0,13.09184 0,13.09183 -17.45578,0 z m 87.27891,0 -17.45579,0 0,-13.09183 0,-13.09184 17.45579,0 17.45578,0 0,13.09184 0,13.09183 -17.45578,0 z m 87.27891,0 -17.45579,0 0,-13.09183 0,-13.09184 17.45579,0 17.45578,0 0,13.09184 0,13.09183 -17.45578,0 z m 87.27891,0 -17.45579,0 0,-13.09183 0,-13.09184 17.45579,0 17.45578,0 0,13.09184 0,13.09183 -17.45578,0 z m -523.67346,-61.09523 -17.45578,0 0,-13.09184 0,-13.09183 17.45578,0 17.45578,0 0,13.09183 0,13.09184 -17.45578,0 z m 87.27891,0 -17.45578,0 0,-13.09184 0,-13.09183 17.45578,0 17.45578,0 0,13.09183 0,13.09184 -17.45578,0 z m 87.27891,0 -17.45578,0 0,-13.09184 0,-13.09183 17.45578,0 17.45578,0 0,13.09183 0,13.09184 -17.45578,0 z m 87.27891,0 -17.45578,0 0,-13.09184 0,-13.09183 17.45578,0 17.45578,0 0,13.09183 0,13.09184 -17.45578,0 z m 87.27891,0 -17.45579,0 0,-13.09184 0,-13.09183 17.45579,0 17.45578,0 0,13.09183 0,13.09184 -17.45578,0 z m 87.27891,0 -17.45579,0 0,-13.09184 0,-13.09183 17.45579,0 17.45578,0 0,13.09183 0,13.09184 -17.45578,0 z m 87.27891,0 -17.45579,0 0,-13.09184 0,-13.09183 17.45579,0 17.45578,0 0,13.09183 0,13.09184 -17.45578,0 z"
       style="fill:none;stroke:#33cccc;stroke-opacity:1" />
    <path
       inkscape:connector-curvature="0"
       id="path3822"
       d="m 64.445587,993.43359 -26.183673,0 0,-13.09183 0,-13.09184 26.183673,0 26.183673,0 0,13.09184 0,13.09183 -26.183673,0 z m 87.278903,0 -26.18367,0 0,-13.09183 0,-13.09184 26.18367,0 26.18368,0 0,13.09184 0,13.09183 -26.18368,0 z m 87.27891,0 -26.18367,0 0,-13.09183 0,-13.09184 26.18367,0 26.18368,0 0,13.09184 0,13.09183 -26.18368,0 z m 87.27891,0 -26.18367,0 0,-13.09183 0,-13.09184 26.18367,0 26.18368,0 0,13.09184 0,13.09183 -26.18368,0 z m 87.27891,0 -26.18367,0 0,-13.09183 0,-13.09184 26.18367,0 26.18367,0 0,13.09184 0,13.09183 -26.18367,0 z m 87.27891,0 -26.18367,0 0,-13.09183 0,-13.09184 26.18367,0 26.18367,0 0,13.09184 0,13.09183 -26.18367,0 z m 87.27891,0 -26.18367,0 0,-13.09183 0,-13.09184 26.18367,0 26.18367,0 0,13.09184 0,13.09183 -26.18367,0 z m 87.27891,0 -26.18367,0 0,-13.09183 0,-13.09184 26.18367,0 26.18367,0 0,13.09184 0,13.09183 -26.18367,0 z m -610.952363,-61.09523 -26.183673,0 0,-13.09184 0,-13.09184 26.183673,0 26.183673,0 0,13.09184 0,13.09184 -26.183673,0 z m 87.278903,0 -26.18367,0 0,-13.09184 0,-13.09184 26.18367,0 26.18368,0 0,13.09184 0,13.09184 -26.18368,0 z m 87.27891,0 -26.18367,0 0,-13.09184 0,-13.09184 26.18367,0 26.18368,0 0,13.09184 0,13.09184 -26.18368,0 z m 87.27891,0 -26.18367,0 0,-13.09184 0,-13.09184 26.18367,0 26.18368,0 0,13.09184 0,13.09184 -26.18368,0 z m 87.27891,0 -26.18367,0 0,-13.09184 0,-13.09184 26.18367,0 26.18367,0 0,13.09184 0,13.09184 -26.18367,0 z m 87.27891,0 -26.18367,0 0,-13.09184 0,-13.09184 26.18367,0 26.18367,0 0,13.09184 0,13.09184 -26.18367,0 z m 87.27891,0 -26.18367,0 0,-13.09184 0,-13.09184 26.18367,0 26.18367,0 0,13.09184 0,13.09184 -26.18367,0 z m 87.27891,0 -26.18367,0 0,-13.09184 0,-13.09184 26.18367,0 26.18367,0 0,13.09184 0,13.09184 -26.18367,0 z m -610.952363,-61.09524 -26.183673,0 0,-13.09183 0,-13.09184 26.183673,0 26.183673,0 0,13.09184 0,13.09183 -26.183673,0 z m 87.278903,0 -26.18367,0 0,-13.09183 0,-13.09184 26.18367,0 26.18368,0 0,13.09184 0,13.09183 -26.18368,0 z m 87.27891,0 -26.18367,0 0,-13.09183 0,-13.09184 26.18367,0 26.18368,0 0,13.09184 0,13.09183 -26.18368,0 z m 87.27891,0 -26.18367,0 0,-13.09183 0,-13.09184 26.18367,0 26.18368,0 0,13.09184 0,13.09183 -26.18368,0 z m 87.27891,0 -26.18367,0 0,-13.09183 0,-13.09184 26.18367,0 26.18367,0 0,13.09184 0,13.09183 -26.18367,0 z m 87.27891,0 -26.18367,0 0,-13.09183 0,-13.09184 26.18367,0 26.18367,0 0,13.09184 0,13.09183 -26.18367,0 z m 87.27891,0 -26.18367,0 0,-13.09183 0,-13.09184 26.18367,0 26.18367,0 0,13.09184 0,13.09183 -26.18367,0 z m 87.27891,0 -26.18367,0 0,-13.09183 0,-13.09184 26.18367,0 26.18367,0 0,13.09184 0,13.09183 -26.18367,0 z m -610.952363,-61.09523 -26.183673,0 0,-13.09184 0,-13.09184 26.183673,0 26.183673,0 0,13.09184 0,13.09184 -26.183673,0 z m 87.278903,0 -26.18367,0 0,-13.09184 0,-13.09184 26.18367,0 26.18368,0 0,13.09184 0,13.09184 -26.18368,0 z m 87.27891,0 -26.18367,0 0,-13.09184 0,-13.09184 26.18367,0 26.18368,0 0,13.09184 0,13.09184 -26.18368,0 z m 87.27891,0 -26.18367,0 0,-13.09184 0,-13.09184 26.18367,0 26.18368,0 0,13.09184 0,13.09184 -26.18368,0 z m 87.27891,0 -26.18367,0 0,-13.09184 0,-13.09184 26.18367,0 26.18367,0 0,13.09184 0,13.09184 -26.18367,0 z m 87.27891,0 -26.18367,0 0,-13.09184 0,-13.09184 26.18367,0 26.18367,0 0,13.09184 0,13.09184 -26.18367,0 z m 87.27891,0 -26.18367,0 0,-13.09184 0,-13.09184 26.18367,0 26.18367,0 0,13.09184 0,13.09184 -26.18367,0 z m 87.27891,0 -26.18367,0 0,-13.09184 0,-13.09184 26.18367,0 26.18367,0 0,13.09184 0,13.09184 -26.18367,0 z m -610.952363,-61.09524 -26.183673,0 0,-13.09184 0,-13.09183 26.183673,0 26.183673,0 0,13.09183 0,13.09184 -26.183673,0 z m 87.278903,0 -26.18367,0 0,-13.09184 0,-13.09183 26.18367,0 26.18368,0 0,13.09183 0,13.09184 -26.18368,0 z m 87.27891,0 -26.18367,0 0,-13.09184 0,-13.09183 26.18367,0 26.18368,0 0,13.09183 0,13.09184 -26.18368,0 z m 87.27891,0 -26.18367,0 0,-13.09184 0,-13.09183 26.18367,0 26.18368,0 0,13.09183 0,13.09184 -26.18368,0 z m 87.27891,0 -26.18367,0 0,-13.09184 0,-13.09183 26.18367,0 26.18367,0 0,13.09183 0,13.09184 -26.18367,0 z m 87.27891,0 -26.18367,0 0,-13.09184 0,-13.09183 26.18367,0 26.18367,0 0,13.09183 0,13.09184 -26.18367,0 z m 87.27891,0 -26.18367,0 0,-13.09184 0,-13.09183 26.18367,0 26.18367,0 0,13.09183 0,13.09184 -26.18367,0 z m 87.27891,0 -26.18367,0 0,-13.09184 0,-13.09183 26.18367,0 26.18367,0 0,13.09183 0,13.09184 -26.18367,0 z m -610.952363,-61.09523 -26.183673,0 0,-13.09184 0,-13.09184 26.183673,0 26.183673,0 0,13.09184 0,13.09184 -26.183673,0 z m 87.278903,0 -26.18367,0 0,-13.09184 0,-13.09184 26.18367,0 26.18368,0 0,13.09184 0,13.09184 -26.18368,0 z m 87.27891,0 -26.18367,0 0,-13.09184 0,-13.09184 26.18367,0 26.18368,0 0,13.09184 0,13.09184 -26.18368,0 z m 87.27891,0 -26.18367,0 0,-13.09184 0,-13.09184 26.18367,0 26.18368,0 0,13.09184 0,13.09184 -26.18368,0 z m 87.27891,0 -26.18367,0 0,-13.09184 0,-13.09184 26.18367,0 26.18367,0 0,13.09184 0,13.09184 -26.18367,0 z m 87.27891,0 -26.18367,0 0,-13.09184 0,-13.09184 26.18367,0 26.18367,0 0,13.09184 0,13.09184 -26.18367,0 z m 87.27891,0 -26.18367,0 0,-13.09184 0,-13.09184 26.18367,0 26.18367,0 0,13.09184 0,13.09184 -26.18367,0 z m 87.27891,0 -26.18367,0 0,-13.09184 0,-13.09184 26.18367,0 26.18367,0 0,13.09184 0,13.09184 -26.18367,0 z m -610.952363,-61.09524 -26.183673,0 0,-13.09184 0,-13.09183 26.183673,0 26.183673,0 0,13.09183 0,13.09184 -26.183673,0 z m 87.278903,0 -26.18367,0 0,-13.09184 0,-13.09183 26.18367,0 26.18368,0 0,13.09183 0,13.09184 -26.18368,0 z m 87.27891,0 -26.18367,0 0,-13.09184 0,-13.09183 26.18367,0 26.18368,0 0,13.09183 0,13.09184 -26.18368,0 z m 87.27891,0 -26.18367,0 0,-13.09184 0,-13.09183 26.18367,0 26.18368,0 0,13.09183 0,13.09184 -26.18368,0 z m 87.27891,0 -26.18367,0 0,-13.09184 0,-13.09183 26.18367,0 26.18367,0 0,13.09183 0,13.09184 -26.18367,0 z m 87.27891,0 -26.18367,0 0,-13.09184 0,-13.09183 26.18367,0 26.18367,0 0,13.09183 0,13.09184 -26.18367,0 z m 87.27891,0 -26.18367,0 0,-13.09184 0,-13.09183 26.18367,0 26.18367,0 0,13.09183 0,13.09184 -26.18367,0 z m 87.27891,0 -26.18367,0 0,-13.09184 0,-13.09183 26.18367,0 26.18367,0 0,13.09183 0,13.09184 -26.18367,0 z m -610.952363,-61.09524 -26.183673,0 0,-13.09183 0,-13.09184 26.183673,0 26.183673,0 0,13.09184 0,13.09183 -26.183673,0 z m 87.278903,0 -26.18367,0 0,-13.09183 0,-13.09184 26.18367,0 26.18368,0 0,13.09184 0,13.09183 -26.18368,0 z m 87.27891,0 -26.18367,0 0,-13.09183 0,-13.09184 26.18367,0 26.18368,0 0,13.09184 0,13.09183 -26.18368,0 z m 87.27891,0 -26.18367,0 0,-13.09183 0,-13.09184 26.18367,0 26.18368,0 0,13.09184 0,13.09183 -26.18368,0 z m 87.27891,0 -26.18367,0 0,-13.09183 0,-13.09184 26.18367,0 26.18367,0 0,13.09184 0,13.09183 -26.18367,0 z m 87.27891,0 -26.18367,0 0,-13.09183 0,-13.09184 26.18367,0 26.18367,0 0,13.09184 0,13.09183 -26.18367,0 z m 87.27891,0 -26.18367,0 0,-13.09183 0,-13.09184 26.18367,0 26.18367,0 0,13.09184 0,13.09183 -26.18367,0 z m 87.27891,0 -26.18367,0 0,-13.09183 0,-13.09184 26.18367,0 26.18367,0 0,13.09184 0,13.09183 -26.18367,0 z m -610.952363,-61.09523 -26.183673,0 0,-13.09184 0,-13.09183 26.183673,0 26.183673,0 0,13.09183 0,13.09184 -26.183673,0 z m 87.278903,0 -26.18367,0 0,-13.09184 0,-13.09183 26.18367,0 26.18368,0 0,13.09183 0,13.09184 -26.18368,0 z m 87.27891,0 -26.18367,0 0,-13.09184 0,-13.09183 26.18367,0 26.18368,0 0,13.09183 0,13.09184 -26.18368,0 z m 87.27891,0 -26.18367,0 0,-13.09184 0,-13.09183 26.18367,0 26.18368,0 0,13.09183 0,13.09184 -26.18368,0 z m 87.27891,0 -26.18367,0 0,-13.09184 0,-13.09183 26.18367,0 26.18367,0 0,13.09183 0,13.09184 -26.18367,0 z m 87.27891,0 -26.18367,0 0,-13.09184 0,-13.09183 26.18367,0 26.18367,0 0,13.09183 0,13.09184 -26.18367,0 z m 87.27891,0 -26.18367,0 0,-13.09184 0,-13.09183 26.18367,0 26.18367,0 0,13.09183 0,13.09184 -26.18367,0 z m 87.27891,0 -26.18367,0 0,-13.09184 0,-13.09183 26.18367,0 26.18367,0 0,13.09183 0,13.09184 -26.18367,0 z m -610.952363,-61.09524 -26.183673,0 0,-13.09183 0,-13.09184 26.183673,0 26.183673,0 0,13.09184 0,13.09183 -26.183673,0 z m 87.278903,0 -26.18367,0 0,-13.09183 0,-13.09184 26.18367,0 26.18368,0 0,13.09184 0,13.09183 -26.18368,0 z m 87.27891,0 -26.18367,0 0,-13.09183 0,-13.09184 26.18367,0 26.18368,0 0,13.09184 0,13.09183 -26.18368,0 z m 87.27891,0 -26.18367,0 0,-13.09183 0,-13.09184 26.18367,0 26.18368,0 0,13.09184 0,13.09183 -26.18368,0 z m 87.27891,0 -26.18367,0 0,-13.09183 0,-13.09184 26.18367,0 26.18367,0 0,13.09184 0,13.09183 -26.18367,0 z m 87.27891,0 -26.18367,0 0,-13.09183 0,-13.09184 26.18367,0 26.18367,0 0,13.09184 0,13.09183 -26.18367,0 z m 87.27891,0 -26.18367,0 0,-13.09183 0,-13.09184 26.18367,0 26.18367,0 0,13.09184 0,13.09183 -26.18367,0 z m 87.27891,0 -26.18367,0 0,-13.09183 0,-13.09184 26.18367,0 26.18367,0 0,13.09184 0,13.09183 -26.18367,0 z m -610.952363,-61.09523 -26.183673,0 0,-13.09184 0,-13.09183 26.183673,0 26.183673,0 0,13.09183 0,13.09184 -26.183673,0 z m 87.278903,0 -26.18367,0 0,-13.09184 0,-13.09183 26.18367,0 26.18368,0 0,13.09183 0,13.09184 -26.18368,0 z m 87.27891,0 -26.18367,0 0,-13.09184 0,-13.09183 26.18367,0 26.18368,0 0,13.09183 0,13.09184 -26.18368,0 z m 87.27891,0 -26.18367,0 0,-13.09184 0,-13.09183 26.18367,0 26.18368,0 0,13.09183 0,13.09184 -26.18368,0 z m 87.27891,0 -26.18367,0 0,-13.09184 0,-13.09183 26.18367,0 26.18367,0 0,13.09183 0,13.09184 -26.18367,0 z m 87.27891,0 -26.18367,0 0,-13.09184 0,-13.09183 26.18367,0 26.18367,0 0,13.09183 0,13.09184 -26.18367,0 z m 87.27891,0 -26.18367,0 0,-13.09184 0,-13.09183 26.18367,0 26.18367,0 0,13.09183 0,13.09184 -26.18367,0 z m 87.27891,0 -26.18367,0 0,-13.09184 0,-13.09183 26.18367,0 26.18367,0 0,13.09183 0,13.09184 -26.18367,0 z M 64.445587,321.386 l -26.183673,0 0,-13.09183 0,-13.09184 26.183673,0 26.183673,0 0,13.09184 0,13.09183 -26.183673,0 z m 87.278903,0 -26.18367,0 0,-13.09183 0,-13.09184 26.18367,0 26.18368,0 0,13.09184 0,13.09183 -26.18368,0 z m 87.27891,0 -26.18367,0 0,-13.09183 0,-13.09184 26.18367,0 26.18368,0 0,13.09184 0,13.09183 -26.18368,0 z m 87.27891,0 -26.18367,0 0,-13.09183 0,-13.09184 26.18367,0 26.18368,0 0,13.09184 0,13.09183 -26.18368,0 z m 87.27891,0 -26.18367,0 0,-13.09183 0,-13.09184 26.18367,0 26.18367,0 0,13.09184 0,13.09183 -26.18367,0 z m 87.27891,0 -26.18367,0 0,-13.09183 0,-13.09184 26.18367,0 26.18367,0 0,13.09184 0,13.09183 -26.18367,0 z m 87.27891,0 -26.18367,0 0,-13.09183 0,-13.09184 26.18367,0 26.18367,0 0,13.09184 0,13.09183 -26.18367,0 z m 87.27891,0 -26.18367,0 0,-13.09183 0,-13.09184 26.18367,0 26.18367,0 0,13.09184 0,13.09183 -26.18367,0 z m -610.952363,-61.09523 -26.183673,0 0,-13.09184 0,-13.09183 26.183673,0 26.183673,0 0,13.09183 0,13.09184 -26.183673,0 z m 87.278903,0 -26.18367,0 0,-13.09184 0,-13.09183 26.18367,0 26.18368,0 0,13.09183 0,13.09184 -26.18368,0 z m 87.27891,0 -26.18367,0 0,-13.09184 0,-13.09183 26.18367,0 26.18368,0 0,13.09183 0,13.09184 -26.18368,0 z m 87.27891,0 -26.18367,0 0,-13.09184 0,-13.09183 26.18367,0 26.18368,0 0,13.09183 0,13.09184 -26.18368,0 z m 87.27891,0 -26.18367,0 0,-13.09184 0,-13.09183 26.18367,0 26.18367,0 0,13.09183 0,13.09184 -26.18367,0 z m 87.27891,0 -26.18367,0 0,-13.09184 0,-13.09183 26.18367,0 26.18367,0 0,13.09183 0,13.09184 -26.18367,0 z m 87.27891,0 -26.18367,0 0,-13.09184 0,-13.09183 26.18367,0 26.18367,0 0,13.09183 0,13.09184 -26.18367,0 z m 87.27891,0 -26.18367,0 0,-13.09184 0,-13.09183 26.18367,0 26.18367,0 0,13.09183 0,13.09184 -26.18367,0 z m -610.952363,-61.09524 -26.183673,0 0,-13.09183 0,-13.09184 26.183673,0 26.183673,0 0,13.09184 0,13.09183 -26.183673,0 z m 87.278903,0 -26.18367,0 0,-13.09183 0,-13.09184 26.18367,0 26.18368,0 0,13.09184 0,13.09183 -26.18368,0 z m 87.27891,0 -26.18367,0 0,-13.09183 0,-13.09184 26.18367,0 26.18368,0 0,13.09184 0,13.09183 -26.18368,0 z m 87.27891,0 -26.18367,0 0,-13.09183 0,-13.09184 26.18367,0 26.18368,0 0,13.09184 0,13.09183 -26.18368,0 z m 87.27891,0 -26.18367,0 0,-13.09183 0,-13.09184 26.18367,0 26.18367,0 0,13.09184 0,13.09183 -26.18367,0 z m 87.27891,0 -26.18367,0 0,-13.09183 0,-13.09184 26.18367,0 26.18367,0 0,13.09184 0,13.09183 -26.18367,0 z m 87.27891,0 -26.18367,0 0,-13.09183 0,-13.09184 26.18367,0 26.18367,0 0,13.09184 0,13.09183 -26.18367,0 z m 87.27891,0 -26.18367,0 0,-13.09183 0,-13.09184 26.18367,0 26.18367,0 0,13.09184 0,13.09183 -26.18367,0 z M 64.445587,138.1003 l -26.183673,0 0,-13.09184 0,-13.09183 26.183673,0 26.183673,0 0,13.09183 0,13.09184 -26.183673,0 z m 87.278903,0 -26.18367,0 0,-13.09184 0,-13.09183 26.18367,0 26.18368,0 0,13.09183 0,13.09184 -26.18368,0 z m 87.27891,0 -26.18367,0 0,-13.09184 0,-13.09183 26.18367,0 26.18368,0 0,13.09183 0,13.09184 -26.18368,0 z m 87.27891,0 -26.18367,0 0,-13.09184 0,-13.09183 26.18367,0 26.18368,0 0,13.09183 0,13.09184 -26.18368,0 z m 87.27891,0 -26.18367,0 0,-13.09184 0,-13.09183 26.18367,0 26.18367,0 0,13.09183 0,13.09184 -26.18367,0 z m 87.27891,0 -26.18367,0 0,-13.09184 0,-13.09183 26.18367,0 26.18367,0 0,13.09183 0,13.09184 -26.18367,0 z m 87.27891,0 -26.18367,0 0,-13.09184 0,-13.09183 26.18367,0 26.18367,0 0,13.09183 0,13.09184 -26.18367,0 z m 87.27891,0 -26.18367,0 0,-13.09184 0,-13.09183 26.18367,0 26.18367,0 0,13.09183 0,13.09184 -26.18367,0 z"
       style="fill:none;stroke:#ff0033;stroke-opacity:1" />
    <path
       inkscape:connector-curvature="0"
       id="path3820"
       d="m 20.806132,993.43359 -17.4557815,0 0,-27.53641 0,-27.53636 17.4557815,15.79726 17.455782,15.79731 0,11.7391 0,11.7391 -17.455782,0 z m 702.595218,0 -21.81973,0 0.27423,-10.90986 0.27423,-10.90986 21.54546,-15.68123 21.54554,-15.68132 0,26.59118 0,26.59109 -21.81973,0 z m -702.595218,-61.09523 -17.4557815,0 0,-27.53639 0,-27.53639 17.4557815,15.79727 17.455782,15.79726 0,11.73913 0,11.73912 -17.455782,0 z m 702.595218,0 -21.81973,0 0.27423,-10.90987 0.27423,-10.90986 21.54546,-15.68127 21.54554,-15.68127 0,26.59113 0,26.59114 -21.81973,0 z m -702.595218,-61.09524 -17.4557815,0 0,-27.53639 0,-27.53638 17.4557815,15.79726 17.455782,15.79727 0,11.73912 0,11.73912 -17.455782,0 z m 702.595218,0 -21.81973,0 0.27423,-10.90986 0.27423,-10.90987 21.54546,-15.68127 21.54554,-15.68127 0,26.59114 0,26.59113 -21.81973,0 z m -702.595218,-61.09523 -17.4557815,0 0,-27.53639 0,-27.53639 17.4557815,15.79727 17.455782,15.79726 0,11.73913 0,11.73912 -17.455782,0 z m 702.595218,0 -21.81973,0 0.27423,-10.90987 0.27423,-10.90986 21.54546,-15.68127 21.54554,-15.68127 0,26.59113 0,26.59114 -21.81973,0 z m -702.595218,-61.09524 -17.4557815,0 0,-27.53639 0,-27.53638 17.4557815,15.79726 17.455782,15.79727 0,11.73912 0,11.73912 -17.455782,0 z m 702.595218,0 -21.81973,0 0.27423,-10.90986 0.27423,-10.90987 21.54546,-15.68127 21.54554,-15.68127 0,26.59114 0,26.59113 -21.81973,0 z m -702.595218,-61.09523 -17.4557815,0 0,-27.5364 0,-27.53638 17.4557815,15.79727 17.455782,15.79726 0,11.73913 0,11.73912 -17.455782,0 z m 702.595218,0 -21.81973,0 0.27423,-10.90987 0.27423,-10.90986 21.54546,-15.68127 21.54554,-15.68127 0,26.59113 0,26.59114 -21.81973,0 z m -702.595218,-61.09524 -17.4557815,0 0,-27.53639 0,-27.53638 17.4557815,15.79726 17.455782,15.79727 0,11.73912 0,11.73912 -17.455782,0 z m 702.595218,0 -21.81973,0 0.27423,-10.90986 0.27423,-10.90987 21.54546,-15.68127 21.54554,-15.68127 0,26.59114 0,26.59113 -21.81973,0 z m -702.595218,-61.09524 -17.4557815,0 0,-27.53639 0,-27.53638 17.4557815,15.79727 17.455782,15.79726 0,11.73913 0,11.73911 -17.455782,0 z m 702.595218,0 -21.81973,0 0.27423,-10.90986 0.27423,-10.90986 21.54546,-15.68127 21.54554,-15.68127 0,26.59113 0,26.59113 -21.81973,0 z m -702.595218,-61.09523 -17.4557815,0 0,-27.53639 0,-27.53638 17.4557815,15.79726 17.455782,15.79726 0,11.73913 0,11.73912 -17.455782,0 z m 702.595218,0 -21.81973,0 0.27423,-10.90986 0.27423,-10.90987 21.54546,-15.68127 21.54554,-15.68127 0,26.59114 0,26.59113 -21.81973,0 z m -702.595218,-61.09524 -17.4557815,0 0,-27.53639 0,-27.53638 17.4557815,15.79727 17.455782,15.79726 0,11.73913 0,11.73911 -17.455782,0 z m 702.595218,0 -21.81973,0 0.27423,-10.90986 0.27423,-10.90986 21.54546,-15.68127 21.54554,-15.68127 0,26.59113 0,26.59113 -21.81973,0 z m -702.595218,-61.09523 -17.4557815,0 0,-27.53639 0,-27.53638 17.4557815,15.79726 17.455782,15.79726 0,11.73913 0,11.73912 -17.455782,0 z m 702.595218,0 -21.81973,0 0.27423,-10.90986 0.27423,-10.90987 21.54546,-15.68127 21.54554,-15.68127 0,26.59113 0,26.59114 -21.81973,0 z M 20.806132,321.386 l -17.4557815,0 0,-27.53639 0,-27.53638 17.4557815,15.79726 17.455782,15.79727 0,11.73913 0,11.73911 -17.455782,0 z m 702.595218,0 -21.81973,0 0.27423,-10.90986 0.27423,-10.90986 21.54546,-15.68127 21.54554,-15.68127 0,26.59113 0,26.59113 -21.81973,0 z m -702.595218,-61.09523 -17.4557815,0 0,-27.53639 0,-27.53638 17.4557815,15.79726 17.455782,15.79726 0,11.73913 0,11.73912 -17.455782,0 z m 702.595218,0 -21.81973,0 0.27423,-10.90987 0.27423,-10.90986 21.54546,-15.68127 21.54554,-15.68127 0,26.59113 0,26.59114 -21.81973,0 z m -702.595218,-61.09524 -17.4557815,0 0,-27.53639 0,-27.53638 17.4557815,15.79726 17.455782,15.79727 0,11.73912 0,11.73912 -17.455782,0 z m 702.595218,0 -21.81973,0 0.27428,-10.90986 0.27427,-10.90986 21.54545,-15.68127 21.54546,-15.68128 0,26.59114 0,26.59113 -21.81973,0 z M 20.806132,138.1003 l -17.4557815,0 0,-27.53639 0,-27.536386 17.4557815,15.797265 17.455782,15.797261 0,11.73913 0,11.73912 -17.455782,0 z m 702.595218,0 -21.81973,0 0.27428,-10.90987 0.27427,-10.90986 21.54545,-15.68127 21.54546,-15.68127 0,26.59113 0,26.59114 -21.81973,0 z"
       style="fill:none;stroke:#cc0034;stroke-opacity:1" />
    <path
       inkscape:connector-curvature="0"
       id="path3818"
       d="m 33.897969,967.24992 c -0.912184,0 -8.767286,-7.8551 -17.455782,-17.45578 l -15.7972655,-17.45578 33.2530475,0 33.253047,0 -15.797265,17.45578 c -8.688496,9.60068 -16.543598,17.45578 -17.455782,17.45578 z m 113.462581,0 c -0.91219,0 -8.76729,-7.8551 -17.45578,-17.45578 l -15.79727,-17.45578 33.25305,0 33.25304,0 -15.79726,17.45578 c -8.68849,9.60068 -16.5436,17.45578 -17.45578,17.45578 z m 113.46258,0 c -0.91219,0 -8.76729,-7.8551 -17.45578,-17.45578 l -15.79727,-17.45578 33.25305,0 33.25305,0 -15.79727,17.45578 c -8.68849,9.60068 -16.54359,17.45578 -17.45578,17.45578 z m 113.46258,0 c -0.91218,0 -8.76729,-7.8551 -17.45578,-17.45578 l -15.79726,-17.45578 33.25304,0 33.25305,0 -15.79727,17.45578 c -8.68849,9.60068 -16.54359,17.45578 -17.45578,17.45578 z m 113.46258,0 c -0.91218,0 -8.76728,-7.8551 -17.45578,-17.45578 l -15.79726,-17.45578 33.25304,0 33.25305,0 -15.79726,17.45578 c -8.6885,9.60068 -16.5436,17.45578 -17.45579,17.45578 z m 113.46259,0 c -0.91219,0 -8.76729,-7.8551 -17.45578,-17.45578 l -15.79727,-17.45578 33.25305,0 33.25304,0 -15.79726,17.45578 c -8.68849,9.60068 -16.5436,17.45578 -17.45578,17.45578 z m 113.46258,0 c -0.91219,0 -8.76729,-7.8551 -17.45578,-17.45578 l -15.79727,-17.45578 33.25305,0 33.25305,0 -15.79727,17.45578 c -8.68849,9.60068 -16.54359,17.45578 -17.45578,17.45578 z M 33.897969,906.15468 c -0.912184,0 -8.767286,-7.8551 -17.455782,-17.45578 l -15.7972655,-17.45578 33.2530475,0 33.253047,0 -15.797265,17.45578 c -8.688496,9.60068 -16.543598,17.45578 -17.455782,17.45578 z m 113.462581,0 c -0.91219,0 -8.76729,-7.8551 -17.45578,-17.45578 l -15.79727,-17.45578 33.25305,0 33.25304,0 -15.79726,17.45578 c -8.68849,9.60068 -16.5436,17.45578 -17.45578,17.45578 z m 113.46258,0 c -0.91219,0 -8.76729,-7.8551 -17.45578,-17.45578 l -15.79727,-17.45578 33.25305,0 33.25305,0 -15.79727,17.45578 c -8.68849,9.60068 -16.54359,17.45578 -17.45578,17.45578 z m 113.46258,0 c -0.91218,0 -8.76729,-7.8551 -17.45578,-17.45578 l -15.79726,-17.45578 33.25304,0 33.25305,0 -15.79727,17.45578 c -8.68849,9.60068 -16.54359,17.45578 -17.45578,17.45578 z m 113.46258,0 c -0.91218,0 -8.76728,-7.8551 -17.45578,-17.45578 l -15.79726,-17.45578 33.25304,0 33.25305,0 -15.79726,17.45578 c -8.6885,9.60068 -16.5436,17.45578 -17.45579,17.45578 z m 113.46259,0 c -0.91219,0 -8.76729,-7.8551 -17.45578,-17.45578 l -15.79727,-17.45578 33.25305,0 33.25304,0 -15.79726,17.45578 c -8.68849,9.60068 -16.5436,17.45578 -17.45578,17.45578 z m 113.46258,0 c -0.91219,0 -8.76729,-7.8551 -17.45578,-17.45578 l -15.79727,-17.45578 33.25305,0 33.25305,0 -15.79727,17.45578 c -8.68849,9.60068 -16.54359,17.45578 -17.45578,17.45578 z M 33.897969,845.05945 c -0.912184,0 -8.767286,-7.8551 -17.455782,-17.45578 l -15.7972655,-17.45578 33.2530475,0 33.253047,0 -15.797265,17.45578 c -8.688496,9.60068 -16.543598,17.45578 -17.455782,17.45578 z m 113.462581,0 c -0.91219,0 -8.76729,-7.8551 -17.45578,-17.45578 l -15.79727,-17.45578 33.25305,0 33.25304,0 -15.79726,17.45578 c -8.68849,9.60068 -16.5436,17.45578 -17.45578,17.45578 z m 113.46258,0 c -0.91219,0 -8.76729,-7.8551 -17.45578,-17.45578 l -15.79727,-17.45578 33.25305,0 33.25305,0 -15.79727,17.45578 c -8.68849,9.60068 -16.54359,17.45578 -17.45578,17.45578 z m 113.46258,0 c -0.91218,0 -8.76729,-7.8551 -17.45578,-17.45578 l -15.79726,-17.45578 33.25304,0 33.25305,0 -15.79727,17.45578 c -8.68849,9.60068 -16.54359,17.45578 -17.45578,17.45578 z m 113.46258,0 c -0.91218,0 -8.76728,-7.8551 -17.45578,-17.45578 l -15.79726,-17.45578 33.25304,0 33.25305,0 -15.79726,17.45578 c -8.6885,9.60068 -16.5436,17.45578 -17.45579,17.45578 z m 113.46259,0 c -0.91219,0 -8.76729,-7.8551 -17.45578,-17.45578 l -15.79727,-17.45578 33.25305,0 33.25304,0 -15.79726,17.45578 c -8.68849,9.60068 -16.5436,17.45578 -17.45578,17.45578 z m 113.46258,0 c -0.91219,0 -8.76729,-7.8551 -17.45578,-17.45578 l -15.79727,-17.45578 33.25305,0 33.25305,0 -15.79727,17.45578 c -8.68849,9.60068 -16.54359,17.45578 -17.45578,17.45578 z M 33.897969,783.96421 c -0.912184,0 -8.767286,-7.8551 -17.455782,-17.45578 l -15.7972655,-17.45578 33.2530475,0 33.253047,0 -15.797265,17.45578 c -8.688496,9.60068 -16.543598,17.45578 -17.455782,17.45578 z m 113.462581,0 c -0.91219,0 -8.76729,-7.8551 -17.45578,-17.45578 l -15.79727,-17.45578 33.25305,0 33.25304,0 -15.79726,17.45578 c -8.68849,9.60068 -16.5436,17.45578 -17.45578,17.45578 z m 113.46258,0 c -0.91219,0 -8.76729,-7.8551 -17.45578,-17.45578 l -15.79727,-17.45578 33.25305,0 33.25305,0 -15.79727,17.45578 c -8.68849,9.60068 -16.54359,17.45578 -17.45578,17.45578 z m 113.46258,0 c -0.91218,0 -8.76729,-7.8551 -17.45578,-17.45578 l -15.79726,-17.45578 33.25304,0 33.25305,0 -15.79727,17.45578 c -8.68849,9.60068 -16.54359,17.45578 -17.45578,17.45578 z m 113.46258,0 c -0.91218,0 -8.76728,-7.8551 -17.45578,-17.45578 l -15.79726,-17.45578 33.25304,0 33.25305,0 -15.79726,17.45578 c -8.6885,9.60068 -16.5436,17.45578 -17.45579,17.45578 z m 113.46259,0 c -0.91219,0 -8.76729,-7.8551 -17.45578,-17.45578 l -15.79727,-17.45578 33.25305,0 33.25304,0 -15.79726,17.45578 c -8.68849,9.60068 -16.5436,17.45578 -17.45578,17.45578 z m 113.46258,0 c -0.91219,0 -8.76729,-7.8551 -17.45578,-17.45578 l -15.79727,-17.45578 33.25305,0 33.25305,0 -15.79727,17.45578 c -8.68849,9.60068 -16.54359,17.45578 -17.45578,17.45578 z M 33.897969,722.86898 c -0.912184,0 -8.767286,-7.8551 -17.455782,-17.45578 l -15.7972655,-17.45578 33.2530475,0 33.253047,0 -15.797265,17.45578 c -8.688496,9.60068 -16.543598,17.45578 -17.455782,17.45578 z m 113.462581,0 c -0.91219,0 -8.76729,-7.8551 -17.45578,-17.45578 l -15.79727,-17.45578 33.25305,0 33.25304,0 -15.79726,17.45578 c -8.68849,9.60068 -16.5436,17.45578 -17.45578,17.45578 z m 113.46258,0 c -0.91219,0 -8.76729,-7.8551 -17.45578,-17.45578 l -15.79727,-17.45578 33.25305,0 33.25305,0 -15.79727,17.45578 c -8.68849,9.60068 -16.54359,17.45578 -17.45578,17.45578 z m 113.46258,0 c -0.91218,0 -8.76729,-7.8551 -17.45578,-17.45578 l -15.79726,-17.45578 33.25304,0 33.25305,0 -15.79727,17.45578 c -8.68849,9.60068 -16.54359,17.45578 -17.45578,17.45578 z m 113.46258,0 c -0.91218,0 -8.76728,-7.8551 -17.45578,-17.45578 l -15.79726,-17.45578 33.25304,0 33.25305,0 -15.79726,17.45578 c -8.6885,9.60068 -16.5436,17.45578 -17.45579,17.45578 z m 113.46259,0 c -0.91219,0 -8.76729,-7.8551 -17.45578,-17.45578 l -15.79727,-17.45578 33.25305,0 33.25304,0 -15.79726,17.45578 c -8.68849,9.60068 -16.5436,17.45578 -17.45578,17.45578 z m 113.46258,0 c -0.91219,0 -8.76729,-7.8551 -17.45578,-17.45578 l -15.79727,-17.45578 33.25305,0 33.25305,0 -15.79727,17.45578 c -8.68849,9.60068 -16.54359,17.45578 -17.45578,17.45578 z M 33.897969,661.77374 c -0.912184,0 -8.767286,-7.8551 -17.455782,-17.45578 l -15.7972655,-17.45578 33.2530475,0 33.253047,0 -15.797265,17.45578 c -8.688496,9.60068 -16.543598,17.45578 -17.455782,17.45578 z m 113.462581,0 c -0.91219,0 -8.76729,-7.8551 -17.45578,-17.45578 l -15.79727,-17.45578 33.25305,0 33.25304,0 -15.79726,17.45578 c -8.68849,9.60068 -16.5436,17.45578 -17.45578,17.45578 z m 113.46258,0 c -0.91219,0 -8.76729,-7.8551 -17.45578,-17.45578 l -15.79727,-17.45578 33.25305,0 33.25305,0 -15.79727,17.45578 c -8.68849,9.60068 -16.54359,17.45578 -17.45578,17.45578 z m 113.46258,0 c -0.91218,0 -8.76729,-7.8551 -17.45578,-17.45578 l -15.79726,-17.45578 33.25304,0 33.25305,0 -15.79727,17.45578 c -8.68849,9.60068 -16.54359,17.45578 -17.45578,17.45578 z m 113.46258,0 c -0.91218,0 -8.76728,-7.8551 -17.45578,-17.45578 l -15.79726,-17.45578 33.25304,0 33.25305,0 -15.79726,17.45578 c -8.6885,9.60068 -16.5436,17.45578 -17.45579,17.45578 z m 113.46259,0 c -0.91219,0 -8.76729,-7.8551 -17.45578,-17.45578 l -15.79727,-17.45578 33.25305,0 33.25304,0 -15.79726,17.45578 c -8.68849,9.60068 -16.5436,17.45578 -17.45578,17.45578 z m 113.46258,0 c -0.91219,0 -8.76729,-7.8551 -17.45578,-17.45578 l -15.79727,-17.45578 33.25305,0 33.25305,0 -15.79727,17.45578 c -8.68849,9.60068 -16.54359,17.45578 -17.45578,17.45578 z M 33.897969,600.67851 c -0.912184,0 -8.767286,-7.8551 -17.455782,-17.45578 l -15.7972655,-17.45579 33.2530475,0 33.253047,0 -15.797265,17.45579 c -8.688496,9.60068 -16.543598,17.45578 -17.455782,17.45578 z m 113.462581,0 c -0.91219,0 -8.76729,-7.8551 -17.45578,-17.45578 l -15.79727,-17.45579 33.25305,0 33.25304,0 -15.79726,17.45579 c -8.68849,9.60068 -16.5436,17.45578 -17.45578,17.45578 z m 113.46258,0 c -0.91219,0 -8.76729,-7.8551 -17.45578,-17.45578 l -15.79727,-17.45579 33.25305,0 33.25305,0 -15.79727,17.45579 c -8.68849,9.60068 -16.54359,17.45578 -17.45578,17.45578 z m 113.46258,0 c -0.91218,0 -8.76729,-7.8551 -17.45578,-17.45578 l -15.79726,-17.45579 33.25304,0 33.25305,0 -15.79727,17.45579 c -8.68849,9.60068 -16.54359,17.45578 -17.45578,17.45578 z m 113.46258,0 c -0.91218,0 -8.76728,-7.8551 -17.45578,-17.45578 l -15.79726,-17.45579 33.25304,0 33.25305,0 -15.79726,17.45579 c -8.6885,9.60068 -16.5436,17.45578 -17.45579,17.45578 z m 113.46259,0 c -0.91219,0 -8.76729,-7.8551 -17.45578,-17.45578 l -15.79727,-17.45579 33.25305,0 33.25304,0 -15.79726,17.45579 c -8.68849,9.60068 -16.5436,17.45578 -17.45578,17.45578 z m 113.46258,0 c -0.91219,0 -8.76729,-7.8551 -17.45578,-17.45578 l -15.79727,-17.45579 33.25305,0 33.25305,0 -15.79727,17.45579 c -8.68849,9.60068 -16.54359,17.45578 -17.45578,17.45578 z M 33.897969,539.58327 c -0.912184,0 -8.767286,-7.8551 -17.455782,-17.45578 l -15.7972655,-17.45578 33.2530475,0 33.253047,0 -15.797265,17.45578 c -8.688496,9.60068 -16.543598,17.45578 -17.455782,17.45578 z m 113.462581,0 c -0.91219,0 -8.76729,-7.8551 -17.45578,-17.45578 l -15.79727,-17.45578 33.25305,0 33.25304,0 -15.79726,17.45578 c -8.68849,9.60068 -16.5436,17.45578 -17.45578,17.45578 z m 113.46258,0 c -0.91219,0 -8.76729,-7.8551 -17.45578,-17.45578 l -15.79727,-17.45578 33.25305,0 33.25305,0 -15.79727,17.45578 c -8.68849,9.60068 -16.54359,17.45578 -17.45578,17.45578 z m 113.46258,0 c -0.91218,0 -8.76729,-7.8551 -17.45578,-17.45578 l -15.79726,-17.45578 33.25304,0 33.25305,0 -15.79727,17.45578 c -8.68849,9.60068 -16.54359,17.45578 -17.45578,17.45578 z m 113.46258,0 c -0.91218,0 -8.76728,-7.8551 -17.45578,-17.45578 l -15.79726,-17.45578 33.25304,0 33.25305,0 -15.79726,17.45578 c -8.6885,9.60068 -16.5436,17.45578 -17.45579,17.45578 z m 113.46259,0 c -0.91219,0 -8.76729,-7.8551 -17.45578,-17.45578 l -15.79727,-17.45578 33.25305,0 33.25304,0 -15.79726,17.45578 c -8.68849,9.60068 -16.5436,17.45578 -17.45578,17.45578 z m 113.46258,0 c -0.91219,0 -8.76729,-7.8551 -17.45578,-17.45578 l -15.79727,-17.45578 33.25305,0 33.25305,0 -15.79727,17.45578 c -8.68849,9.60068 -16.54359,17.45578 -17.45578,17.45578 z M 33.897969,478.48804 c -0.912184,0 -8.767286,-7.8551 -17.455782,-17.45578 l -15.7972655,-17.45579 33.2530475,0 33.253047,0 -15.797265,17.45579 c -8.688496,9.60068 -16.543598,17.45578 -17.455782,17.45578 z m 113.462581,0 c -0.91219,0 -8.76729,-7.8551 -17.45578,-17.45578 l -15.79727,-17.45579 33.25305,0 33.25304,0 -15.79726,17.45579 c -8.68849,9.60068 -16.5436,17.45578 -17.45578,17.45578 z m 113.46258,0 c -0.91219,0 -8.76729,-7.8551 -17.45578,-17.45578 l -15.79727,-17.45579 33.25305,0 33.25305,0 -15.79727,17.45579 c -8.68849,9.60068 -16.54359,17.45578 -17.45578,17.45578 z m 113.46258,0 c -0.91218,0 -8.76729,-7.8551 -17.45578,-17.45578 l -15.79726,-17.45579 33.25304,0 33.25305,0 -15.79727,17.45579 c -8.68849,9.60068 -16.54359,17.45578 -17.45578,17.45578 z m 113.46258,0 c -0.91218,0 -8.76728,-7.8551 -17.45578,-17.45578 l -15.79726,-17.45579 33.25304,0 33.25305,0 -15.79726,17.45579 c -8.6885,9.60068 -16.5436,17.45578 -17.45579,17.45578 z m 113.46259,0 c -0.91219,0 -8.76729,-7.8551 -17.45578,-17.45578 l -15.79727,-17.45579 33.25305,0 33.25304,0 -15.79726,17.45579 c -8.68849,9.60068 -16.5436,17.45578 -17.45578,17.45578 z m 113.46258,0 c -0.91219,0 -8.76729,-7.8551 -17.45578,-17.45578 l -15.79727,-17.45579 33.25305,0 33.25305,0 -15.79727,17.45579 c -8.68849,9.60068 -16.54359,17.45578 -17.45578,17.45578 z M 33.897969,417.3928 c -0.912184,0 -8.767286,-7.8551 -17.455782,-17.45578 l -15.7972655,-17.45578 33.2530475,0 33.253047,0 -15.797265,17.45578 C 42.665255,409.5377 34.810153,417.3928 33.897969,417.3928 z m 113.462581,0 c -0.91219,0 -8.76729,-7.8551 -17.45578,-17.45578 l -15.79727,-17.45578 33.25305,0 33.25304,0 -15.79726,17.45578 c -8.68849,9.60068 -16.5436,17.45578 -17.45578,17.45578 z m 113.46258,0 c -0.91219,0 -8.76729,-7.8551 -17.45578,-17.45578 l -15.79727,-17.45578 33.25305,0 33.25305,0 -15.79727,17.45578 c -8.68849,9.60068 -16.54359,17.45578 -17.45578,17.45578 z m 113.46258,0 c -0.91218,0 -8.76729,-7.8551 -17.45578,-17.45578 l -15.79726,-17.45578 33.25304,0 33.25305,0 -15.79727,17.45578 C 383.053,409.5377 375.1979,417.3928 374.28571,417.3928 z m 113.46258,0 c -0.91218,0 -8.76728,-7.8551 -17.45578,-17.45578 l -15.79726,-17.45578 33.25304,0 33.25305,0 -15.79726,17.45578 c -8.6885,9.60068 -16.5436,17.45578 -17.45579,17.45578 z m 113.46259,0 c -0.91219,0 -8.76729,-7.8551 -17.45578,-17.45578 l -15.79727,-17.45578 33.25305,0 33.25304,0 -15.79726,17.45578 c -8.68849,9.60068 -16.5436,17.45578 -17.45578,17.45578 z m 113.46258,0 c -0.91219,0 -8.76729,-7.8551 -17.45578,-17.45578 l -15.79727,-17.45578 33.25305,0 33.25305,0 -15.79727,17.45578 c -8.68849,9.60068 -16.54359,17.45578 -17.45578,17.45578 z M 33.897969,356.29757 c -0.912184,0 -8.767286,-7.85511 -17.455782,-17.45579 L 0.6449215,321.386 l 33.2530475,0 33.253047,0 -15.797265,17.45578 c -8.688496,9.60068 -16.543598,17.45579 -17.455782,17.45579 z m 113.462581,0 c -0.91219,0 -8.76729,-7.85511 -17.45578,-17.45579 L 114.1075,321.386 l 33.25305,0 33.25304,0 -15.79726,17.45578 c -8.68849,9.60068 -16.5436,17.45579 -17.45578,17.45579 z m 113.46258,0 c -0.91219,0 -8.76729,-7.85511 -17.45578,-17.45579 l -15.79727,-17.45578 33.25305,0 33.25305,0 -15.79727,17.45578 c -8.68849,9.60068 -16.54359,17.45579 -17.45578,17.45579 z m 113.46258,0 c -0.91218,0 -8.76729,-7.85511 -17.45578,-17.45579 l -15.79726,-17.45578 33.25304,0 33.25305,0 -15.79727,17.45578 c -8.68849,9.60068 -16.54359,17.45579 -17.45578,17.45579 z m 113.46258,0 c -0.91218,0 -8.76728,-7.85511 -17.45578,-17.45579 l -15.79726,-17.45578 33.25304,0 33.25305,0 -15.79726,17.45578 c -8.6885,9.60068 -16.5436,17.45579 -17.45579,17.45579 z m 113.46259,0 c -0.91219,0 -8.76729,-7.85511 -17.45578,-17.45579 l -15.79727,-17.45578 33.25305,0 33.25304,0 -15.79726,17.45578 c -8.68849,9.60068 -16.5436,17.45579 -17.45578,17.45579 z m 113.46258,0 c -0.91219,0 -8.76729,-7.85511 -17.45578,-17.45579 l -15.79727,-17.45578 33.25305,0 33.25305,0 -15.79727,17.45578 c -8.68849,9.60068 -16.54359,17.45579 -17.45578,17.45579 z M 33.897969,295.20233 c -0.912184,0 -8.767286,-7.8551 -17.455782,-17.45578 l -15.7972655,-17.45578 33.2530475,0 33.253047,0 -15.797265,17.45578 c -8.688496,9.60068 -16.543598,17.45578 -17.455782,17.45578 z m 113.462581,0 c -0.91219,0 -8.76729,-7.8551 -17.45578,-17.45578 l -15.79727,-17.45578 33.25305,0 33.25304,0 -15.79726,17.45578 c -8.68849,9.60068 -16.5436,17.45578 -17.45578,17.45578 z m 113.46258,0 c -0.91219,0 -8.76729,-7.8551 -17.45578,-17.45578 l -15.79727,-17.45578 33.25305,0 33.25305,0 -15.79727,17.45578 c -8.68849,9.60068 -16.54359,17.45578 -17.45578,17.45578 z m 113.46258,0 c -0.91218,0 -8.76729,-7.8551 -17.45578,-17.45578 l -15.79726,-17.45578 33.25304,0 33.25305,0 -15.79727,17.45578 c -8.68849,9.60068 -16.54359,17.45578 -17.45578,17.45578 z m 113.46258,0 c -0.91218,0 -8.76728,-7.8551 -17.45578,-17.45578 l -15.79726,-17.45578 33.25304,0 33.25305,0 -15.79726,17.45578 c -8.6885,9.60068 -16.5436,17.45578 -17.45579,17.45578 z m 113.46259,0 c -0.91219,0 -8.76729,-7.8551 -17.45578,-17.45578 l -15.79727,-17.45578 33.25305,0 33.25304,0 -15.79726,17.45578 c -8.68849,9.60068 -16.5436,17.45578 -17.45578,17.45578 z m 113.46258,0 c -0.91219,0 -8.76729,-7.8551 -17.45578,-17.45578 l -15.79727,-17.45578 33.25305,0 33.25305,0 -15.79727,17.45578 c -8.68849,9.60068 -16.54359,17.45578 -17.45578,17.45578 z M 33.897969,234.1071 c -0.912184,0 -8.767286,-7.85511 -17.455782,-17.45579 l -15.7972655,-17.45578 33.2530475,0 33.253047,0 -15.797265,17.45578 c -8.688496,9.60068 -16.543598,17.45579 -17.455782,17.45579 z m 113.462581,0 c -0.91219,0 -8.76729,-7.85511 -17.45578,-17.45579 l -15.79727,-17.45578 33.25305,0 33.25304,0 -15.79726,17.45578 c -8.68849,9.60068 -16.5436,17.45579 -17.45578,17.45579 z m 113.46258,0 c -0.91219,0 -8.76729,-7.85511 -17.45578,-17.45579 l -15.79727,-17.45578 33.25305,0 33.25305,0 -15.79727,17.45578 c -8.68849,9.60068 -16.54359,17.45579 -17.45578,17.45579 z m 113.46258,0 c -0.91218,0 -8.76729,-7.85511 -17.45578,-17.45579 l -15.79726,-17.45578 33.25304,0 33.25305,0 -15.79727,17.45578 c -8.68849,9.60068 -16.54359,17.45579 -17.45578,17.45579 z m 113.46258,0 c -0.91218,0 -8.76728,-7.85511 -17.45578,-17.45579 l -15.79726,-17.45578 33.25304,0 33.25305,0 -15.79726,17.45578 c -8.6885,9.60068 -16.5436,17.45579 -17.45579,17.45579 z m 113.46259,0 c -0.91219,0 -8.76729,-7.85511 -17.45578,-17.45579 l -15.79727,-17.45578 33.25305,0 33.25304,0 -15.79726,17.45578 c -8.68849,9.60068 -16.5436,17.45579 -17.45578,17.45579 z m 113.46258,0 c -0.91219,0 -8.76729,-7.85511 -17.45578,-17.45579 l -15.79727,-17.45578 33.25305,0 33.25305,0 -15.79727,17.45578 c -8.68849,9.60068 -16.54359,17.45579 -17.45578,17.45579 z M 33.897969,173.01186 c -0.912184,0 -8.767286,-7.8551 -17.455782,-17.45578 L 0.6449215,138.1003 l 33.2530475,0 33.253047,0 -15.797265,17.45578 c -8.688496,9.60068 -16.543598,17.45578 -17.455782,17.45578 z m 113.462581,0 c -0.91219,0 -8.76729,-7.8551 -17.45578,-17.45578 l -15.79727,-17.45578 33.25305,0 33.25304,0 -15.79726,17.45578 c -8.68849,9.60068 -16.5436,17.45578 -17.45578,17.45578 z m 113.46258,0 c -0.91219,0 -8.76729,-7.8551 -17.45578,-17.45578 l -15.79727,-17.45578 33.25305,0 33.25305,0 -15.79727,17.45578 c -8.68849,9.60068 -16.54359,17.45578 -17.45578,17.45578 z m 113.46258,0 c -0.91218,0 -8.76729,-7.8551 -17.45578,-17.45578 l -15.79726,-17.45578 33.25304,0 33.25305,0 -15.79727,17.45578 c -8.68849,9.60068 -16.54359,17.45578 -17.45578,17.45578 z m 113.46258,0 c -0.91218,0 -8.76728,-7.8551 -17.45578,-17.45578 l -15.79726,-17.45578 33.25304,0 33.25305,0 -15.79726,17.45578 c -8.6885,9.60068 -16.5436,17.45578 -17.45579,17.45578 z m 113.46259,0 c -0.91219,0 -8.76729,-7.8551 -17.45578,-17.45578 l -15.79727,-17.45578 33.25305,0 33.25304,0 -15.79726,17.45578 c -8.68849,9.60068 -16.5436,17.45578 -17.45578,17.45578 z m 113.46258,0 c -0.91219,0 -8.76729,-7.8551 -17.45578,-17.45578 l -15.79727,-17.45578 33.25305,0 33.25305,0 -15.79727,17.45578 c -8.68849,9.60068 -16.54359,17.45578 -17.45578,17.45578 z M 33.897969,111.91663 c -0.912184,0 -8.767286,-7.85511 -17.455782,-17.455786 L 0.6449215,77.005062 l 33.2530475,0 33.253047,0 -15.797265,17.455782 C 42.665255,104.06152 34.810153,111.91663 33.897969,111.91663 z m 113.462581,0 c -0.91219,0 -8.76729,-7.85511 -17.45578,-17.455786 l -15.79727,-17.455782 33.25305,0 33.25304,0 -15.79726,17.455782 c -8.68849,9.600676 -16.5436,17.455786 -17.45578,17.455786 z m 113.46258,0 c -0.91219,0 -8.76729,-7.85511 -17.45578,-17.455786 l -15.79727,-17.455782 33.25305,0 33.25305,0 -15.79727,17.455782 c -8.68849,9.600676 -16.54359,17.455786 -17.45578,17.455786 z m 113.46258,0 c -0.91218,0 -8.76729,-7.85511 -17.45578,-17.455786 l -15.79726,-17.455782 33.25304,0 33.25305,0 -15.79727,17.455782 C 383.053,104.06152 375.1979,111.91663 374.28571,111.91663 z m 113.46258,0 c -0.91218,0 -8.76728,-7.85511 -17.45578,-17.455786 l -15.79726,-17.455782 33.25304,0 33.25305,0 -15.79726,17.455782 c -8.6885,9.600676 -16.5436,17.455786 -17.45579,17.455786 z m 113.46259,0 c -0.91219,0 -8.76729,-7.85511 -17.45578,-17.455786 l -15.79727,-17.455782 33.25305,0 33.25304,0 -15.79726,17.455782 c -8.68849,9.600676 -16.5436,17.455786 -17.45578,17.455786 z m 113.46258,0 c -0.91219,0 -8.76729,-7.85511 -17.45578,-17.455786 l -15.79727,-17.455782 33.25305,0 33.25305,0 -15.79727,17.455782 c -8.68849,9.600676 -16.54359,17.455786 -17.45578,17.455786 z"
       style="fill:none;stroke:#330000;stroke-opacity:1;fill-opacity:1" />
  </g>
  <g
     inkscape:groupmode="layer"
     id="layer3"
     inkscape:label="triangles" />
  <g
     inkscape:groupmode="layer"
     id="layer4"
     inkscape:label="recb" />
  <g
     inkscape:groupmode="layer"
     id="layer5"
     inkscape:label="recR" />
  <g
     inkscape:groupmode="layer"
     id="layer6"
     inkscape:label="trapze" />
  <g
     inkscape:groupmode="layer"
     id="layer2"
     inkscape:label="layers"
     sodipodi:insensitive="true"
     style="display:none">
    <image
       y="66.848282"
       x="-1.2195324"
       id="image2993"
       xlink:href="file:///home/stephoux/relearn.off-grid/lidia-test.xpm"
       height="916.42853"
       width="741.87073" />
  </g>
</svg>
