<?xml version="1.0" encoding="UTF-8" standalone="no"?>
<!-- Created with Inkscape (http://www.inkscape.org/) -->

<svg
   xmlns:dc="http://purl.org/dc/elements/1.1/"
   xmlns:cc="http://creativecommons.org/ns#"
   xmlns:rdf="http://www.w3.org/1999/02/22-rdf-syntax-ns#"
   xmlns:svg="http://www.w3.org/2000/svg"
   xmlns="http://www.w3.org/2000/svg"
   xmlns:xlink="http://www.w3.org/1999/xlink"
   xmlns:sodipodi="http://sodipodi.sourceforge.net/DTD/sodipodi-0.dtd"
   xmlns:inkscape="http://www.inkscape.org/namespaces/inkscape"
   width="210mm"
   height="297mm"
   id="svg2"
   version="1.1"
   inkscape:version="0.48.3.1 r9886"
   sodipodi:docname="dessin1.png">
  <defs
     id="defs4" />
  <sodipodi:namedview
     id="base"
     pagecolor="#ffffff"
     bordercolor="#666666"
     borderopacity="1.0"
     inkscape:pageopacity="0.0"
     inkscape:pageshadow="2"
     inkscape:zoom="0.35"
     inkscape:cx="269.76109"
     inkscape:cy="734.42282"
     inkscape:document-units="px"
     inkscape:current-layer="layer1"
     showgrid="false"
     inkscape:window-width="1366"
     inkscape:window-height="744"
     inkscape:window-x="0"
     inkscape:window-y="24"
     inkscape:window-maximized="1" />
  <metadata
     id="metadata7">
    <rdf:RDF>
      <cc:Work
         rdf:about="">
        <dc:format>image/svg+xml</dc:format>
        <dc:type
           rdf:resource="http://purl.org/dc/dcmitype/StillImage" />
        <dc:title></dc:title>
      </cc:Work>
    </rdf:RDF>
  </metadata>
  <g
     inkscape:label="Calque 1"
     inkscape:groupmode="layer"
     id="layer1">
    <image
       y="222.07838"
       x="-1184.5361"
       id="image3004"
       xlink:href="file:///home/stephoux/relearn.off-grid/testColor.xpm"
       height="218.13763"
       width="654.4129" />
    <g
       id="g3298"
       transform="matrix(0.52740629,0,0,0.52740629,910.70179,284.80379)">
      <path
         style="fill:#fcd8b7"
         d="m -1002.8572,613.48129 -456.2143,0 0,-152.07143 0,-152.07142 456.2143,0 456.21429,0 0,152.07142 0,152.07143 -456.21429,0 z"
         id="path3304"
         inkscape:connector-curvature="0" />
      <path
         style="fill:#e6dd77"
         d="m -1263.5511,613.48129 -195.5204,0 0,-152.07143 0,-152.07142 195.5204,0 195.5204,0 0,152.07142 0,152.07143 -195.5204,0 z m 267.93541,-14.48299 -28.96601,28.96598 0,-57.93197 0,-57.93197 28.96601,28.96598 28.96595,28.96599 -28.96595,28.96599 z m 253.45237,14.48299 -195.52041,0 0,-152.07143 0,-152.07142 195.52041,0 195.52041,0 0,152.07142 0,152.07143 -195.52041,0 z m -253.45237,-231.72788 -28.96601,28.96598 0,-57.93197 0,-57.93197 28.96601,28.96598 28.96595,28.96599 -28.96595,28.96599 z"
         id="path3302"
         inkscape:connector-curvature="0" />
      <path
         style="fill:#090907"
         d="m -1328.7246,613.48129 -130.3469,0 0,-152.07143 0,-152.07142 130.3469,0 130.347,0 0,152.07142 0,152.07143 -130.347,0 z m 333.10891,-14.48299 -28.96601,28.96598 0,-57.93197 0,-57.93197 28.96601,28.96598 28.96595,28.96599 -28.96595,28.96599 z m 318.62584,14.48299 -130.34694,0 0,-152.07143 0,-152.07142 130.34694,0 130.34694,0 0,152.07142 0,152.07143 -130.34694,0 z m -318.62584,-231.72788 -28.96601,28.96598 0,-57.93197 0,-57.93197 28.96601,28.96598 28.96595,28.96599 -28.96595,28.96599 z"
         id="path3300"
         inkscape:connector-curvature="0" />
    </g>
    <path
       style="fill:#000000"
       d="m -2187.1227,-444.58465 -21.6395,53.48431 1.61,-130.34693 1.61,-130.34694 20.0294,76.86263 c 11.0162,42.27444 10.2917,100.93056 -1.6099,130.34693 z m 188.7451,31.75982 -43.449,0 0,-108.62244 0,-108.62245 43.449,0 43.449,0 0,108.62245 0,108.62244 -43.449,0 z m 158.8467,-31.75982 -21.6394,53.48431 1.6099,-130.34693 1.61,-130.34694 20.0295,76.86263 c 11.0162,42.27444 10.2917,100.93056 -1.61,130.34693 z m 86.898,0 -21.6394,53.48431 1.6098,-130.34693 1.6097,-130.34694 20.0295,76.86263 c 11.0162,42.27444 10.2917,100.93056 -1.6098,130.34693 z m 145.2961,31.75982 -43.4489,0 0,-108.62244 0,-108.62245 43.4489,0 43.449,0 0,108.62245 0,108.62244 -43.449,0 z m 202.2957,-31.75982 -21.6394,53.48431 1.6098,-130.34693 1.6098,-130.34694 20.0295,76.86263 c 11.0161,42.27444 10.2917,100.93056 -1.6098,130.34693 z"
       id="path3218"
       inkscape:connector-curvature="0" />
    <g
       id="g3306"
       transform="matrix(0.5274063,0,0,0.5274063,910.70177,439.51883)">
      <path
         style="fill:#fefefe"
         d="m -1002.8572,613.48129 -456.2143,0 0,-152.07143 0,-152.07142 456.2143,0 456.21429,0 0,152.07142 0,152.07143 -456.21429,0 z"
         id="path3318"
         inkscape:connector-curvature="0" />
      <path
         style="fill:#fcb694"
         d="m -1263.5511,613.48129 -195.5204,0 0,-152.07143 0,-152.07142 191.8997,0 191.8996,0 21.9151,54.31122 21.915,54.31123 4.0955,-65.17347 4.0956,-65.17347 42.11829,65.17347 42.11831,65.17347 0.66533,-54.31123 0.66534,-54.31122 195.52041,0 195.52041,0 0,152.07142 0,152.07143 -195.52041,0 -195.52041,0 -0.66534,-54.31122 -0.66533,-54.31123 -37.52411,59.22759 -37.52409,59.22759 -23.5539,-59.22759 -23.5538,-59.22759 -3.4302,54.31123 -3.4302,54.31122 -195.5204,0 z"
         id="path3316"
         inkscape:connector-curvature="0" />
      <path
         style="fill:#e6dd77"
         d="m -1263.5511,613.48129 -195.5204,0 0,-152.07143 0,-152.07142 195.5204,0 195.5204,0 0,152.07142 0,152.07143 -195.5204,0 z m 267.93541,-14.48299 -28.96601,28.96598 0,-57.93197 0,-57.93197 28.96601,28.96598 28.96595,28.96599 -28.96595,28.96599 z m 253.45237,14.48299 -195.52041,0 0,-152.07143 0,-152.07142 195.52041,0 195.52041,0 0,152.07142 0,152.07143 -195.52041,0 z m -253.45237,-231.72788 -28.96601,28.96598 0,-57.93197 0,-57.93197 28.96601,28.96598 28.96595,28.96599 -28.96595,28.96599 z"
         id="path3314"
         inkscape:connector-curvature="0" />
      <path
         style="fill:#fe0000"
         d="m -1328.7246,613.48129 -130.3469,0 0,-152.07143 0,-152.07142 130.3469,0 130.347,0 0,152.07142 0,152.07143 -130.347,0 z m 333.10891,-14.48299 -28.96601,28.96598 0,-57.93197 0,-57.93197 28.96601,28.96598 28.96595,28.96599 -28.96595,28.96599 z m 318.62584,14.48299 -130.34694,0 0,-152.07143 0,-152.07142 130.34694,0 130.34694,0 0,152.07142 0,152.07143 -130.34694,0 z m -318.62584,-231.72788 -28.96601,28.96598 0,-57.93197 0,-57.93197 28.96601,28.96598 28.96595,28.96599 -28.96595,28.96599 z"
         id="path3312"
         inkscape:connector-curvature="0" />
      <path
         style="fill:#0000fe"
         d="m -1328.7246,613.48129 -130.3469,0 0,-152.07143 0,-152.07142 130.3469,0 130.347,0 0,152.07142 0,152.07143 -130.347,0 z m 651.73475,0 -130.34694,0 0,-152.07143 0,-152.07142 130.34694,0 130.34694,0 0,152.07142 0,152.07143 -130.34694,0 z"
         id="path3310"
         inkscape:connector-curvature="0" />
      <path
         style="fill:#090907"
         d="m -1307.0001,613.48129 -108.6224,0 0,-152.07143 0,-152.07142 108.6224,0 108.6225,0 0,152.07142 0,152.07143 -108.6225,0 z m 608.28576,0 -108.62245,0 0,-152.07143 0,-152.07142 108.62245,0 108.62245,0 0,152.07142 0,152.07143 -108.62245,0 z"
         id="path3308"
         inkscape:connector-curvature="0" />
    </g>
    <g
       id="g3276"
       transform="matrix(-0.5274063,0,0,-0.5274063,-147.12463,1075.6795)">
      <path
         style="fill:#fefefe"
         d="m -1002.8572,613.48129 -456.2143,0 0,-152.07143 0,-152.07142 456.2143,0 456.21429,0 0,152.07142 0,152.07143 -456.21429,0 z"
         id="path3296"
         inkscape:connector-curvature="0" />
      <path
         style="fill:#f9ef7f"
         d="m -1263.5511,613.48129 -195.5204,0 0,-152.07143 0,-152.07142 191.8997,0 191.8996,0 21.9151,54.31122 21.915,54.31123 4.0955,-65.17347 4.0956,-65.17347 42.11829,65.17347 42.11831,65.17347 0.66533,-54.31123 0.66534,-54.31122 195.52041,0 195.52041,0 0,152.07142 0,152.07143 -195.52041,0 -195.52041,0 -0.66534,-54.31122 -0.66533,-54.31123 -37.52411,59.22759 -37.52409,59.22759 -23.5539,-59.22759 -23.5538,-59.22759 -3.4302,54.31123 -3.4302,54.31122 -195.5204,0 z"
         id="path3294"
         inkscape:connector-curvature="0" />
      <path
         style="fill:#fad98f"
         d="m -1328.7246,613.48129 -130.3469,0 0,-152.07143 0,-152.07142 130.3469,0 130.347,0 0,43.44898 0,43.44898 83.2772,0 83.2772,0 21.9151,-54.31123 21.91501,-54.31122 3.43021,54.31122 3.43017,54.31123 86.89796,0 86.89796,0 0,-43.44898 0,-43.44898 130.34694,0 130.34694,0 0,152.07142 0,152.07143 -130.34694,0 -130.34694,0 0,-43.44898 0,-43.44898 -83.27723,0 -83.27718,0 -21.91506,54.31123 -21.91504,54.31122 -3.4302,-54.31122 -3.4302,-54.31123 -86.898,0 -86.8979,0 0,43.44898 0,43.44898 -130.347,0 z"
         id="path3292"
         inkscape:connector-curvature="0" />
      <path
         style="fill:#fcb694"
         d="m -1347.3455,613.48129 -111.726,0 0,-152.07143 0,-152.07142 111.726,0 111.7259,0 62.07,62.06997 c 34.1385,34.13848 62.0699,74.63914 62.0699,90.00145 0,15.36232 -27.9314,55.86298 -62.0699,90.00146 l -62.07,62.06997 -111.7259,0 z m 374.03669,-58.97268 -40.92439,73.1278 -29.5484,-93.09875 -29.5484,-93.09874 40.9244,-73.1278 40.92438,-73.1278 29.54839,93.09875 29.54839,93.09874 -40.92437,73.1278 z m 307.1812,57.32 -119.48469,-1.65268 -54.31123,-61.68697 c -29.87117,-33.92783 -54.31122,-73.68478 -54.31122,-88.34877 0,-14.664 27.93148,-54.5933 62.06995,-88.73178 l 62.07,-62.06997 111.72592,0 111.72597,0 0,152.07142 0,152.07143 -119.4847,-1.65268 z"
         id="path3290"
         inkscape:connector-curvature="0" />
      <path
         style="fill:#ded77f"
         d="m -1347.3455,613.48129 -111.726,0 0,-152.07143 0,-152.07142 111.726,0 111.7259,0 62.07,62.06997 c 34.1385,34.13848 62.0699,74.63914 62.0699,90.00145 0,15.36232 -27.9314,55.86298 -62.0699,90.00146 l -62.07,62.06997 -111.7259,0 z m 351.72981,-14.48299 -28.96601,28.96598 0,-57.93197 0,-57.93197 28.96601,28.96598 28.96595,28.96599 -28.96595,28.96599 z m 329.48808,12.83031 -119.48469,-1.65268 -54.31123,-61.68697 c -29.87117,-33.92783 -54.31122,-73.68478 -54.31122,-88.34877 0,-14.664 27.93148,-54.5933 62.06995,-88.73178 l 62.07,-62.06997 111.72592,0 111.72597,0 0,152.07142 0,152.07143 -119.4847,-1.65268 z m -329.48808,-230.0752 -28.96601,28.96598 0,-57.93197 0,-57.93197 28.96601,28.96598 28.96595,28.96599 -28.96595,28.96599 z"
         id="path3288"
         inkscape:connector-curvature="0" />
      <path
         style="fill:#a29c53"
         d="m -1331.6525,613.48129 -127.419,0 0,-152.07143 0,-152.07142 125.6984,0 125.6984,0 27.3582,71.29445 27.3583,71.29444 -25.6376,80.77698 -25.6377,80.77698 -127.419,0 z m 336.03681,-14.48299 -28.96601,28.96598 0,-57.93197 0,-57.93197 28.96601,28.96598 28.96595,28.96599 -28.96595,28.96599 z m 321.55378,14.48299 -127.41905,0 -25.63759,-80.77698 -25.63763,-80.77698 27.35825,-71.29444 27.35826,-71.29445 125.69838,0 125.69838,0 0,152.07142 0,152.07143 -127.419,0 z m -321.55378,-231.72788 -28.96601,28.96598 0,-57.93197 0,-57.93197 28.96601,28.96598 28.96595,28.96599 -28.96595,28.96599 z"
         id="path3286"
         inkscape:connector-curvature="0" />
      <path
         style="fill:#fe0000"
         d="m -1328.7246,613.48129 -130.3469,0 0,-152.07143 0,-152.07142 130.3469,0 130.347,0 0,152.07142 0,152.07143 -130.347,0 z m 333.10891,-14.48299 -28.96601,28.96598 0,-57.93197 0,-57.93197 28.96601,28.96598 28.96595,28.96599 -28.96595,28.96599 z m 318.62584,14.48299 -130.34694,0 0,-152.07143 0,-152.07142 130.34694,0 130.34694,0 0,152.07142 0,152.07143 -130.34694,0 z m -318.62584,-231.72788 -28.96601,28.96598 0,-57.93197 0,-57.93197 28.96601,28.96598 28.96595,28.96599 -28.96595,28.96599 z"
         id="path3284"
         inkscape:connector-curvature="0" />
      <path
         style="fill:#0000fe"
         d="m -1328.7246,613.48129 -130.3469,0 0,-152.07143 0,-152.07142 130.3469,0 130.347,0 0,152.07142 0,152.07143 -130.347,0 z m 651.73475,0 -130.34694,0 0,-152.07143 0,-152.07142 130.34694,0 130.34694,0 0,152.07142 0,152.07143 -130.34694,0 z"
         id="path3282"
         inkscape:connector-curvature="0" />
      <path
         style="fill:#56522b"
         d="m -1307.0001,613.48129 -108.6224,0 0,-152.07143 0,-152.07142 108.6224,0 108.6225,0 0,152.07142 0,152.07143 -108.6225,0 z m 608.28576,0 -108.62245,0 0,-152.07143 0,-152.07142 108.62245,0 108.62245,0 0,152.07142 0,152.07143 -108.62245,0 z"
         id="path3280"
         inkscape:connector-curvature="0" />
      <path
         style="fill:#020203"
         d="m -1315.6899,613.48129 -99.9326,0 0,-152.07143 0,-152.07142 99.9326,0 99.9327,0 0,152.07142 0,152.07143 -99.9327,0 z m 625.66535,0 -99.93265,0 0,-152.07143 0,-152.07142 99.93265,0 99.93266,0 0,152.07142 0,152.07143 -99.93266,0 z"
         id="path3278"
         inkscape:connector-curvature="0" />
    </g>
    <g
       id="g3171"
       transform="matrix(0.5274063,0,0,-0.5274063,497.81801,930.06648)">
      <path
         style="fill:#fefefe"
         d="m -220.00007,53.48129 -456.21429,0 0,-152.071425 0,-152.071425 456.21429,0 456.2143,0 0,152.071425 0,152.071425 -456.2143,0 z"
         id="path3197"
         inkscape:connector-curvature="0" />
      <path
         style="fill:#f9ef7f"
         d="m -480.69395,53.48129 -195.52041,0 0,-152.071425 0,-152.071425 191.89967,0 191.89966,0 21.91505,54.31122 21.91506,54.31123 4.09551,-65.17347 4.09552,-65.17347 42.11832,65.17347 42.11831,65.17347 0.66533,-54.31123 0.66534,-54.31122 195.520408,0 195.520412,0 0,152.071425 0,152.071425 -195.520412,0 -195.520408,0 -0.66534,-54.31122321 -0.66533,-54.31122279 -37.52411,59.2275877 -37.5241,59.2275883 -23.55386,-59.2275883 -23.55384,-59.2275877 -3.43018,54.31122279 -3.43019,54.31122321 -195.52041,0 z"
         id="path3195"
         inkscape:connector-curvature="0" />
      <path
         style="fill:#fad98f"
         d="m -545.86742,53.48129 -130.34694,0 0,-152.071425 0,-152.071425 130.34694,0 130.34694,0 0,43.44898 0,43.44898 83.27722,0 83.27721,0 21.91504,-54.31123 21.91506,-54.31122 3.43021,54.31122 3.43017,54.31123 86.89796,0 86.897957,0 0,-43.44898 0,-43.44898 130.346943,0 130.34694,0 0,152.071425 0,152.071425 -130.34694,0 -130.346943,0 0,-43.448979 0,-43.448978 -83.277227,0 -83.27718,0 -21.91506,54.311223 -21.91506,54.311223 -3.43021,-54.311223 -3.43017,-54.311223 -86.89796,0 -86.89796,0 0,43.448978 0,43.448979 -130.34694,0 z"
         id="path3193"
         inkscape:connector-curvature="0" />
      <path
         style="fill:#fcbc95"
         d="m -564.48841,53.48129 -111.72595,0 0,-152.071425 0,-152.071425 111.72595,0 111.72595,0 62.06997,62.06997 c 34.13849,34.13848 62.06997,74.63914 62.06997,90.001455 0,15.362316 -27.93148,55.862973 -62.06997,90.0014569 l -62.06997,62.0699681 -111.72595,0 z m 374.03674,-58.9726773 -40.92438,73.1277943 -29.54839,-93.098744 -29.54839,-93.098743 40.92437,-73.1278 40.92438,-73.1278 29.54839,93.09875 29.54839,93.098744 -40.92437,73.1277987 z M 116.72953,51.828613 -2.7551626,50.175931 -57.066388,-11.511039 c -29.871174,-33.92783 -54.311222,-73.68478 -54.311222,-88.348775 0,-14.663996 27.931477,-54.593296 62.06995,-88.731776 l 62.069997,-62.06997 111.725923,0 111.72597,0 0,152.071425 0,152.071425 -119.4847,-1.652677 z"
         id="path3191"
         inkscape:connector-curvature="0" />
      <path
         style="fill:#fcac94"
         d="m -564.48841,53.48129 -111.72595,0 0,-152.071425 0,-152.071425 111.72595,0 111.72595,0 62.06997,62.06997 c 34.13849,34.13848 62.06997,74.63914 62.06997,90.001455 0,15.362316 -27.93148,55.862973 -62.06997,90.0014569 l -62.06997,62.0699681 -111.72595,0 z m 352.61678,-53.80464288 -19.77263,75.52913188 0.8768,-173.795914 0.8768,-173.795915 18.89583,98.26678 c 10.39269,54.04673 9.99813,132.254892 -0.8768,173.79591712 z M 116.72953,51.828613 -2.7551626,50.175931 -57.066388,-11.511039 c -29.871174,-33.92783 -54.311222,-73.68478 -54.311222,-88.348775 0,-14.663996 27.931477,-54.593296 62.06995,-88.731776 l 62.069997,-62.06997 111.725923,0 111.72597,0 0,152.071425 0,152.071425 -119.4847,-1.652677 z"
         id="path3189"
         inkscape:connector-curvature="0" />
      <path
         style="fill:#ded77f"
         d="m -564.48841,53.48129 -111.72595,0 0,-152.071425 0,-152.071425 111.72595,0 111.72595,0 62.06997,62.06997 c 34.13849,34.13848 62.06997,74.63914 62.06997,90.001455 0,15.362316 -27.93148,55.862973 -62.06997,90.0014569 l -62.06997,62.0699681 -111.72595,0 z m 351.72986,-14.482991 -28.96601,28.965982 0,-57.93197 0,-57.93197 28.96601,28.965983 28.96595,28.965987 -28.96595,28.965988 z M 116.72953,51.828613 -2.7551626,50.175931 -57.066388,-11.511039 c -29.871174,-33.92783 -54.311222,-73.68478 -54.311222,-88.348775 0,-14.663996 27.931477,-54.593296 62.06995,-88.731776 l 62.069997,-62.06997 111.725923,0 111.72597,0 0,152.071425 0,152.071425 -119.4847,-1.652677 z m -329.48808,-230.075203 -28.96601,28.96598 0,-57.93197 0,-57.93197 28.96601,28.96598 28.96595,28.96599 -28.96595,28.96599 z"
         id="path3187"
         inkscape:connector-curvature="0" />
      <path
         style="fill:#a29c53"
         d="m -548.79535,53.48129 -127.41901,0 0,-152.071425 0,-152.071425 125.69839,0 125.69838,0 27.35825,71.29445 27.35825,71.29444 -25.63762,80.776982 -25.63762,80.776978 -127.41902,0 z m 336.0368,-14.482991 -28.96601,28.965982 0,-57.93197 0,-57.93197 28.96601,28.965983 28.96595,28.965987 -28.96595,28.965988 z m 321.55378,14.482991 -127.419047,0 -25.637592,-80.776978 -25.637636,-80.776982 27.358259,-71.29444 27.358259,-71.29445 125.698377,0 125.69838,0 0,152.071425 0,152.071425 -127.419,0 z m -321.55378,-231.72788 -28.96601,28.96598 0,-57.93197 0,-57.93197 28.96601,28.96598 28.96595,28.96599 -28.96595,28.96599 z"
         id="path3185"
         inkscape:connector-curvature="0" />
      <path
         style="fill:#fe0000"
         d="m -545.86742,53.48129 -130.34694,0 0,-152.071425 0,-152.071425 130.34694,0 130.34694,0 0,152.071425 0,152.071425 -130.34694,0 z m 333.10887,-14.482991 -28.96601,28.965982 0,-57.93197 0,-57.93197 28.96601,28.965983 28.96595,28.965987 -28.96595,28.965988 z m 318.62584,14.482991 -130.346943,0 0,-152.071425 0,-152.071425 130.346943,0 130.34694,0 0,152.071425 0,152.071425 -130.34694,0 z m -318.62584,-231.72788 -28.96601,28.96598 0,-57.93197 0,-57.93197 28.96601,28.96598 28.96595,28.96599 -28.96595,28.96599 z"
         id="path3183"
         inkscape:connector-curvature="0" />
      <path
         style="fill:#0000fe"
         d="m -545.86742,53.48129 -130.34694,0 0,-152.071425 0,-152.071425 130.34694,0 130.34694,0 0,152.071425 0,152.071425 -130.34694,0 z m 651.73471,0 -130.346943,0 0,-152.071425 0,-152.071425 130.346943,0 130.34694,0 0,152.071425 0,152.071425 -130.34694,0 z"
         id="path3181"
         inkscape:connector-curvature="0" />
      <path
         style="fill:#56522b"
         d="m -524.14293,53.48129 -108.62245,0 0,-152.071425 0,-152.071425 108.62245,0 108.62245,0 0,152.071425 0,152.071425 -108.62245,0 z m 608.285728,0 -108.622451,0 0,-152.071425 0,-152.071425 108.622451,0 108.622452,0 0,152.071425 0,152.071425 -108.622452,0 z"
         id="path3179"
         inkscape:connector-curvature="0" />
      <path
         style="fill:#1a190d"
         d="m -532.83272,53.48129 -99.93266,0 0,-152.071425 0,-152.071425 99.93266,0 99.93265,0 0,152.071425 0,152.071425 -99.93265,0 z m 625.665314,0 -99.9326547,0 0,-152.071425 0,-152.071425 99.9326547,0 99.932656,0 0,152.071425 0,152.071425 -99.932656,0 z"
         id="path3177"
         inkscape:connector-curvature="0" />
      <path
         style="fill:#00001b"
         d="m -524.14293,53.48129 -108.62245,0 0,-152.071425 0,-152.071425 108.62245,0 108.62245,0 0,43.44898 c 0,23.89694 -19.55204,43.44898 -43.44898,43.44898 l -43.44898,0 0,65.173465 0,65.173468 43.44898,0 c 23.89694,0 43.44898,19.55204 43.44898,43.448978 l 0,43.448979 -108.62245,0 z m 608.285728,0 -108.622451,0 0,-43.448979 c 0,-23.896938 19.5520414,-43.448978 43.448981,-43.448978 l 43.44898,0 0,-65.173468 0,-65.173465 -43.44898,0 c -23.8969396,0 -43.448981,-19.55204 -43.448981,-43.44898 l 0,-43.44898 108.622451,0 108.622452,0 0,152.071425 0,152.071425 -108.622452,0 z"
         id="path3175"
         inkscape:connector-curvature="0" />
      <path
         style="fill:#000000"
         d="m -524.14293,53.48129 -108.62245,0 0,-152.071425 0,-152.071425 108.62245,0 108.62245,0 0,43.44898 c 0,23.89694 -19.55204,43.44898 -43.44898,43.44898 l -43.44898,0 0,65.173465 0,65.173468 43.44898,0 c 23.89694,0 43.44898,19.55204 43.44898,43.448978 l 0,43.448979 -108.62245,0 z m -38.92304,-98.665387 26.25042,-26.250426 -22.82024,-57.026787 -22.82025,-57.02678 -3.43018,83.27721 -3.43018,83.277204 26.25043,-26.250421 z m 647.208768,98.665387 -108.622451,0 0,-43.448979 c 0,-23.896938 19.5520414,-43.448978 43.448981,-43.448978 l 43.44898,0 0,-65.173468 0,-65.173465 -43.44898,0 c -23.8969396,0 -43.448981,-19.55204 -43.448981,-43.44898 l 0,-43.44898 108.622451,0 108.622452,0 0,152.071425 0,152.071425 -108.622452,0 z m 47.974932,-98.665387 26.2504,-26.250426 -22.82023,-57.026787 -22.82023,-57.02678 -3.43021,83.27721 -3.43017,83.277204 26.25044,-26.250421 z"
         id="path3173"
         inkscape:connector-curvature="0" />
    </g>
    <path
       style="fill:#000000"
       d="m 1096.8713,-15.090138 -121.65707,0 0,-152.071432 0,-152.07142 121.65707,0 121.6572,0 0,152.07142 0,152.071432 -121.6572,0 z m -8.5087,-98.665392 26.2504,-26.25043 -22.8202,-57.02678 -22.8203,-57.02679 -3.4302,83.27722 -3.4301,83.277202 26.2504,-26.250422 z m 335.3072,97.012712 c -19.6297,-0.90897 -60.1303,-29.41182 -90.0015,-63.33965 -29.8712,-33.927832 -54.3112,-73.684782 -54.3112,-88.348782 0,-14.66399 27.9314,-54.59329 62.0699,-88.73177 34.1385,-34.13848 74.6392,-62.06997 90.0015,-62.06997 15.3623,0 55.863,27.93149 90.0015,62.06997 34.1384,34.13848 62.0699,74.63914 62.0699,90.00145 0,15.36232 -27.9315,55.86298 -62.0699,90.001462 -34.1385,34.13848 -78.1306,61.32626 -97.7602,60.41729 z m 342.3158,1.65268 -121.6571,0 0,-152.071432 0,-152.07142 121.6571,0 121.6572,0 0,152.07142 0,152.071432 -121.6572,0 z m 17.5607,-98.665392 26.2504,-26.25043 -22.8202,-57.02678 -22.8203,-57.02679 -3.4302,83.27722 -3.4302,83.277202 26.2505,-26.250422 z"
       id="path3151"
       inkscape:connector-curvature="0" />
    <path
       style="fill:#000000"
       d="m 975.21416,-544.30442 0,-152.07143 121.65714,0 121.6572,0 0,152.07143 0,152.07143 -121.6572,0 -121.65714,0 0,-152.07143 z m 116.57864,-29.87117 -22.8203,-57.02679 -3.4302,83.27722 -3.4301,83.2772 26.2504,-26.25042 c 14.4377,-14.43774 15.9813,-51.91248 3.4302,-83.27721 z m 241.8755,116.95027 c -69.2103,-78.60943 -68.225,-101.09678 7.7587,-177.08055 77.582,-77.58198 102.421,-77.58198 180.003,0 77.582,77.58197 77.582,102.42093 0,180.00291 -76.829,76.82893 -118.1118,76.1864 -187.7617,-2.92236 z m 310.6602,-87.0791 0,-152.07143 121.6571,0 121.6572,0 0,152.07143 0,152.07143 -121.6572,0 -121.6571,0 0,-152.07143 z m 142.648,-29.87117 -22.8203,-57.02679 -3.4302,83.27722 -3.4302,83.2772 26.2505,-26.25042 c 14.4377,-14.43774 15.9813,-51.91248 3.4302,-83.27721 z"
       id="path3149"
       inkscape:connector-curvature="0" />
    <g
       id="g3135"
       transform="translate(-3428.5714,-337.14284)">
      <path
         style="fill:#fefefe"
         d="m 1577.2121,198.55272 0.8769,-173.795912 18.8958,98.266782 c 10.3927,54.04673 9.9981,132.25489 -0.8768,173.79591 l -19.7727,75.52914 0.8768,-173.79592 z m 86.898,0 0.8768,-173.795912 18.8958,98.266782 c 10.3927,54.04673 9.9981,132.25489 -0.8768,173.79591 l -19.7726,75.52914 0.8768,-173.79592 z"
         id="path3145"
         inkscape:connector-curvature="0" />
      <path
         style="fill:#f9ef7f"
         d="m 1435.9081,198.55272 0,-152.071423 65.1735,0 65.1734,0 0,152.071423 0,152.07143 -65.1734,0 -65.1735,0 0,-152.07143 z m 260.6939,0 0,-152.071423 65.1734,0 65.1735,0 0,152.071423 0,152.07143 -65.1735,0 -65.1734,0 0,-152.07143 z"
         id="path3143"
         inkscape:connector-curvature="0" />
      <path
         style="fill:#fe0000"
         d="m 1620.6611,198.55272 0.8768,-173.795912 18.8958,98.266782 c 10.3927,54.04673 9.9982,132.25489 -0.8768,173.79591 l -19.7726,75.52914 0.8768,-173.79592 z"
         id="path3141"
         inkscape:connector-curvature="0" />
      <path
         style="fill:#0000fe"
         d="m 1186.1713,198.55272 0.8768,-173.795912 18.8959,98.266782 c 10.3927,54.04673 9.9981,132.25489 -0.8769,173.79591 l -19.7726,75.52914 0.8768,-173.79592 z m 868.9796,0 0.8768,-173.795912 18.8958,98.266782 c 10.3927,54.04673 9.9982,132.25489 -0.8768,173.79591 l -19.7726,75.52914 0.8768,-173.79592 z"
         id="path3139"
         inkscape:connector-curvature="0" />
      <path
         style="fill:#000000"
         d="m 1218.6632,198.55272 0,-152.071423 108.6224,0 108.6225,0 0,152.071423 0,152.07143 -108.6225,0 -108.6224,0 0,-152.07143 z m 608.2857,0 0,-152.071423 108.6225,0 108.6224,0 0,152.071423 0,152.07143 -108.6224,0 -108.6225,0 0,-152.07143 z"
         id="path3137"
         inkscape:connector-curvature="0" />
    </g>
    <g
       id="g3123"
       transform="translate(-2434.2857,-382.85714)">
      <path
         style="fill:#fefefe"
         d="m 1577.2121,198.55272 c 0.4823,-95.58775 9.38,-129.575861 19.7727,-75.52913 10.3927,54.04673 9.9981,132.25489 -0.8769,173.79591 -10.8749,41.54103 -19.378,-2.67903 -18.8958,-98.26678 z m 86.898,0 c 0.4823,-95.58775 9.38,-129.575861 19.7727,-75.52913 10.3926,54.04673 9.9981,132.25489 -0.8768,173.79591 -10.875,41.54103 -19.3782,-2.67903 -18.8959,-98.26678 z"
         id="path3133"
         inkscape:connector-curvature="0" />
      <path
         style="fill:#f9ef7f"
         d="m 1435.9081,198.55272 c 0,-106.20861 19.6555,-152.071423 65.1735,-152.071423 45.5179,0 65.1734,45.862813 65.1734,152.071423 0,106.20861 -19.6555,152.07143 -65.1734,152.07143 -45.518,0 -65.1735,-45.86282 -65.1735,-152.07143 z m 260.6939,0 c 0,-106.20861 19.6555,-152.071423 65.1734,-152.071423 45.518,0 65.1735,45.862813 65.1735,152.071423 0,106.20861 -19.6555,152.07143 -65.1735,152.07143 -45.5179,0 -65.1734,-45.86282 -65.1734,-152.07143 z"
         id="path3131"
         inkscape:connector-curvature="0" />
      <path
         style="fill:#fe0000"
         d="m 1620.6611,198.55272 c 0.4823,-95.58775 9.38,-129.575861 19.7727,-75.52913 10.3927,54.04673 9.9981,132.25489 -0.8768,173.79591 -10.875,41.54103 -19.3781,-2.67903 -18.8959,-98.26678 z"
         id="path3129"
         inkscape:connector-curvature="0" />
      <path
         style="fill:#0000fe"
         d="m 1186.1713,198.55272 c 0.4823,-95.58775 9.38,-129.575861 19.7727,-75.52913 10.3927,54.04673 9.9981,132.25489 -0.8769,173.79591 -10.8749,41.54103 -19.378,-2.67903 -18.8958,-98.26678 z m 868.9796,0 c 0.4823,-95.58775 9.38,-129.575861 19.7727,-75.52913 10.3927,54.04673 9.9981,132.25489 -0.8768,173.79591 -10.875,41.54103 -19.3781,-2.67903 -18.8959,-98.26678 z"
         id="path3127"
         inkscape:connector-curvature="0" />
      <path
         style="fill:#000000"
         d="m 1218.6632,198.55272 c 0,-133.243532 13.4485,-152.071423 108.6224,-152.071423 95.174,0 108.6225,18.827891 108.6225,152.071423 0,133.24354 -13.4485,152.07143 -108.6225,152.07143 -95.1739,0 -108.6224,-18.82789 -108.6224,-152.07143 z m 608.2857,0 c 0,-133.243532 13.4485,-152.071423 108.6225,-152.071423 95.1739,0 108.6224,18.827891 108.6224,152.071423 0,133.24354 -13.4485,152.07143 -108.6224,152.07143 -95.174,0 -108.6225,-18.82789 -108.6225,-152.07143 z"
         id="path3125"
         inkscape:connector-curvature="0" />
    </g>
    <g
       id="g3087"
       transform="translate(-1168.5714,-940)">
      <path
         style="fill:#fefefe"
         d="m 308.64079,434.26702 c 0.48224,-95.58776 9.37995,-129.57587 19.77265,-75.52914 10.3927,54.04673 9.99813,132.25489 -0.87684,173.79592 -10.87495,41.54102 -19.37807,-2.67903 -18.89581,-98.26678 z m 86.89794,0 c 0.48229,-95.58776 9.37999,-129.57587 19.77268,-75.52914 10.39269,54.04673 9.99813,132.25489 -0.8768,173.79592 -10.87498,41.54102 -19.37812,-2.67903 -18.89588,-98.26678 z"
         id="path3097"
         inkscape:connector-curvature="0" />
      <path
         style="fill:#f9ef7f"
         d="m 167.33674,434.26702 c 0,-106.20862 19.65549,-152.07143 65.17347,-152.07143 45.51797,0 65.17347,45.86281 65.17347,152.07143 0,106.20861 -19.6555,152.07142 -65.17347,152.07142 -45.51798,0 -65.17347,-45.86281 -65.17347,-152.07142 z m 260.69388,0 c 0,-106.20862 19.65549,-152.07143 65.17347,-152.07143 45.51798,0 65.17347,45.86281 65.17347,152.07143 0,106.20861 -19.65549,152.07142 -65.17347,152.07142 -45.51798,0 -65.17347,-45.86281 -65.17347,-152.07142 z"
         id="path3095"
         inkscape:connector-curvature="0" />
      <path
         style="fill:#fe0000"
         d="m 352.08975,434.26702 c 0.48229,-95.58776 9.37999,-129.57587 19.77268,-75.52914 10.39269,54.04673 9.99813,132.25489 -0.8768,173.79592 -10.87498,41.54102 -19.37812,-2.67903 -18.89588,-98.26678 z"
         id="path3093"
         inkscape:connector-curvature="0" />
      <path
         style="fill:#0000fe"
         d="m -82.400035,434.26702 c 0.482257,-95.58776 9.37995,-129.57587 19.772652,-75.52914 10.392701,54.04673 9.998127,132.25489 -0.876831,173.79592 -10.874959,41.54102 -19.378078,-2.67903 -18.895821,-98.26678 z m 868.979595,0 c 0.48228,-95.58776 9.37998,-129.57587 19.77267,-75.52914 10.39269,54.04673 9.99813,132.25489 -0.8768,173.79592 -10.87497,41.54102 -19.37811,-2.67903 -18.89587,-98.26678 z"
         id="path3091"
         inkscape:connector-curvature="0" />
      <path
         style="fill:#000000"
         d="m -49.908167,434.26702 c 0,-133.24354 13.448494,-152.07143 108.622452,-152.07143 95.173955,0 108.622455,18.82789 108.622455,152.07143 0,133.24353 -13.4485,152.07142 -108.622455,152.07142 -95.173958,0 -108.622452,-18.82789 -108.622452,-152.07142 z m 608.285727,0 c 0,-133.24354 13.4485,-152.07143 108.62245,-152.07143 95.17395,0 108.62245,18.82789 108.62245,152.07143 0,133.24353 -13.4485,152.07142 -108.62245,152.07142 -95.17395,0 -108.62245,-18.82789 -108.62245,-152.07142 z"
         id="path3089"
         inkscape:connector-curvature="0" />
    </g>
    <g
       id="g3111"
       transform="translate(-82.857137,-901.42856)">
      <path
         style="fill:#0000fe"
         d="m -145.25718,369.9813 c 0.48226,-95.58776 9.37995,-129.57587 19.77265,-75.52914 10.3927,54.04673 9.99813,132.25489 -0.87683,173.79592 -10.87496,41.54102 -19.37808,-2.67903 -18.89582,-98.26678 z m 868.97959,0 c 0.48229,-95.58776 9.37999,-129.57587 19.77268,-75.52914 10.39269,54.04673 9.99813,132.25489 -0.8768,173.79592 -10.87498,41.54102 -19.37812,-2.67903 -18.89588,-98.26678 z"
         id="path3121"
         inkscape:connector-curvature="0" />
      <path
         style="fill:#56522b"
         d="m 64.460796,366.36055 c 2.084852,-50.61559 12.380366,-60.9111 26.250423,-26.25043 12.551131,31.36473 11.007551,68.83948 -3.430179,83.27721 -14.437736,14.43773 -24.706846,-11.22432 -22.820244,-57.02678 z m 434.489784,0 c 2.08469,-50.61559 12.3804,-60.9111 26.25044,-26.25043 12.55115,31.36473 11.00754,68.83948 -3.43029,83.27721 -14.43775,14.43773 -24.70687,-11.22432 -22.82028,-57.02678 z"
         id="path3119"
         inkscape:connector-curvature="0" />
      <path
         style="fill:#1a190d"
         d="m 21.011816,366.36055 c 2.084851,-50.61559 12.380365,-60.9111 26.250423,-26.25043 12.551133,31.36473 11.007551,68.83948 -3.43018,83.27721 -14.437736,14.43773 -24.706846,-11.22432 -22.820243,-57.02678 z m 521.387744,0 c 2.08469,-50.61559 12.3804,-60.9111 26.25044,-26.25043 12.55115,31.36473 11.00754,68.83948 -3.43029,83.27721 -14.43775,14.43773 -24.70687,-11.22432 -22.82028,-57.02678 z"
         id="path3117"
         inkscape:connector-curvature="0" />
      <path
         style="fill:#00001b"
         d="m -65.886145,366.36055 c 2.084852,-50.61559 12.380366,-60.9111 26.250423,-26.25043 12.551133,31.36473 11.007551,68.83948 -3.43018,83.27721 -14.437735,14.43773 -24.706846,-11.22432 -22.820243,-57.02678 z m 695.183675,0 c 2.08468,-50.61559 12.38039,-60.9111 26.25044,-26.25043 12.55115,31.36473 11.00753,68.83948 -3.4303,83.27721 -14.43775,14.43773 -24.70687,-11.22432 -22.82028,-57.02678 z"
         id="path3115"
         inkscape:connector-curvature="0" />
      <path
         style="fill:#000000"
         d="m -112.76531,369.9813 c 0,-133.24354 13.448494,-152.07143 108.6224517,-152.07143 59.7423483,0 108.6224483,19.55204 108.6224483,43.44898 0,23.89694 -19.552038,43.44898 -43.448978,43.44898 -23.896939,0 -43.44898,29.32806 -43.44898,65.17347 0,35.8454 19.552041,65.17346 43.44898,65.17346 23.89694,0 43.448978,19.55204 43.448978,43.44898 0,23.89694 -48.8801,43.44898 -108.6224483,43.44898 -95.1739577,0 -108.6224517,-18.82789 -108.6224517,-152.07142 z m 73.129588,-29.87118 c -13.870057,-34.66067 -24.165571,-24.36516 -26.250423,26.25043 -1.886603,45.80246 8.382508,71.46451 22.820243,57.02678 14.437731,-14.43773 15.981313,-51.91248 3.43018,-83.27721 z M 495.52042,478.60374 c 0,-23.89694 19.55204,-43.44898 43.44898,-43.44898 23.89694,0 43.44898,-29.32806 43.44898,-65.17346 0,-35.84541 -19.55204,-65.17347 -43.44898,-65.17347 -23.89694,0 -43.44898,-19.55204 -43.44898,-43.44898 0,-23.89694 48.8801,-43.44898 108.62245,-43.44898 95.17395,0 108.62245,18.82789 108.62245,152.07143 0,133.24353 -13.4485,152.07142 -108.62245,152.07142 -59.74235,0 -108.62245,-19.55204 -108.62245,-43.44898 z M 655.54797,340.11012 c -13.87005,-34.66067 -24.16559,-24.36516 -26.25044,26.25043 -1.88656,45.80246 8.38252,71.46451 22.82027,57.02678 14.4377,-14.43773 15.98132,-51.91248 3.43017,-83.27721 z"
         id="path3113"
         inkscape:connector-curvature="0" />
    </g>
    <g
       id="g3444"
       transform="matrix(0.735347,0,0,0.735347,104.59498,-480.16813)">
      <g
         id="g3446"
         transform="matrix(0.71722098,0,0,0.71722098,1096.2264,419.1184)">
        <path
           style="fill:#fefefe"
           d="m -1002.8572,613.48129 -456.2143,0 0,-152.07143 0,-152.07142 456.2143,0 456.21429,0 0,152.07142 0,152.07143 -456.21429,0 z"
           id="path3448"
           inkscape:connector-curvature="0" />
        <path
           style="fill:#fcb694"
           d="m -1263.5511,613.48129 -195.5204,0 0,-152.07143 0,-152.07142 191.8997,0 191.8996,0 21.9151,54.31122 21.915,54.31123 4.0955,-65.17347 4.0956,-65.17347 42.11829,65.17347 42.11831,65.17347 0.66533,-54.31123 0.66534,-54.31122 195.52041,0 195.52041,0 0,152.07142 0,152.07143 -195.52041,0 -195.52041,0 -0.66534,-54.31122 -0.66533,-54.31123 -37.52411,59.22759 -37.52409,59.22759 -23.5539,-59.22759 -23.5538,-59.22759 -3.4302,54.31123 -3.4302,54.31122 -195.5204,0 z"
           id="path3450"
           inkscape:connector-curvature="0" />
        <path
           style="fill:#e6dd77"
           d="m -1263.5511,613.48129 -195.5204,0 0,-152.07143 0,-152.07142 195.5204,0 195.5204,0 0,152.07142 0,152.07143 -195.5204,0 z m 267.93541,-14.48299 -28.96601,28.96598 0,-57.93197 0,-57.93197 28.96601,28.96598 28.96595,28.96599 -28.96595,28.96599 z m 253.45237,14.48299 -195.52041,0 0,-152.07143 0,-152.07142 195.52041,0 195.52041,0 0,152.07142 0,152.07143 -195.52041,0 z m -253.45237,-231.72788 -28.96601,28.96598 0,-57.93197 0,-57.93197 28.96601,28.96598 28.96595,28.96599 -28.96595,28.96599 z"
           id="path3452"
           inkscape:connector-curvature="0" />
        <path
           style="fill:#fe0000"
           d="m -1328.7246,613.48129 -130.3469,0 0,-152.07143 0,-152.07142 130.3469,0 130.347,0 0,152.07142 0,152.07143 -130.347,0 z m 333.10891,-14.48299 -28.96601,28.96598 0,-57.93197 0,-57.93197 28.96601,28.96598 28.96595,28.96599 -28.96595,28.96599 z m 318.62584,14.48299 -130.34694,0 0,-152.07143 0,-152.07142 130.34694,0 130.34694,0 0,152.07142 0,152.07143 -130.34694,0 z m -318.62584,-231.72788 -28.96601,28.96598 0,-57.93197 0,-57.93197 28.96601,28.96598 28.96595,28.96599 -28.96595,28.96599 z"
           id="path3454"
           inkscape:connector-curvature="0" />
        <path
           style="fill:#0000fe"
           d="m -1328.7246,613.48129 -130.3469,0 0,-152.07143 0,-152.07142 130.3469,0 130.347,0 0,152.07142 0,152.07143 -130.347,0 z m 651.73475,0 -130.34694,0 0,-152.07143 0,-152.07142 130.34694,0 130.34694,0 0,152.07142 0,152.07143 -130.34694,0 z"
           id="path3456"
           inkscape:connector-curvature="0" />
        <path
           style="fill:#090907"
           d="m -1307.0001,613.48129 -108.6224,0 0,-152.07143 0,-152.07142 108.6224,0 108.6225,0 0,152.07142 0,152.07143 -108.6225,0 z m 608.28576,0 -108.62245,0 0,-152.07143 0,-152.07142 108.62245,0 108.62245,0 0,152.07142 0,152.07143 -108.62245,0 z"
           id="path3458"
           inkscape:connector-curvature="0" />
      </g>
      <g
         id="g3460"
         transform="matrix(-0.71722098,0,0,-0.71722098,-342.31405,1286.9545)">
        <path
           style="fill:#fefefe"
           d="m -1002.8572,613.48129 -456.2143,0 0,-152.07143 0,-152.07142 456.2143,0 456.21429,0 0,152.07142 0,152.07143 -456.21429,0 z"
           id="path3462"
           inkscape:connector-curvature="0" />
        <path
           style="fill:#f9ef7f"
           d="m -1263.5511,613.48129 -195.5204,0 0,-152.07143 0,-152.07142 191.8997,0 191.8996,0 21.9151,54.31122 21.915,54.31123 4.0955,-65.17347 4.0956,-65.17347 42.11829,65.17347 42.11831,65.17347 0.66533,-54.31123 0.66534,-54.31122 195.52041,0 195.52041,0 0,152.07142 0,152.07143 -195.52041,0 -195.52041,0 -0.66534,-54.31122 -0.66533,-54.31123 -37.52411,59.22759 -37.52409,59.22759 -23.5539,-59.22759 -23.5538,-59.22759 -3.4302,54.31123 -3.4302,54.31122 -195.5204,0 z"
           id="path3464"
           inkscape:connector-curvature="0" />
        <path
           style="fill:#fad98f"
           d="m -1328.7246,613.48129 -130.3469,0 0,-152.07143 0,-152.07142 130.3469,0 130.347,0 0,43.44898 0,43.44898 83.2772,0 83.2772,0 21.9151,-54.31123 21.91501,-54.31122 3.43021,54.31122 3.43017,54.31123 86.89796,0 86.89796,0 0,-43.44898 0,-43.44898 130.34694,0 130.34694,0 0,152.07142 0,152.07143 -130.34694,0 -130.34694,0 0,-43.44898 0,-43.44898 -83.27723,0 -83.27718,0 -21.91506,54.31123 -21.91504,54.31122 -3.4302,-54.31122 -3.4302,-54.31123 -86.898,0 -86.8979,0 0,43.44898 0,43.44898 -130.347,0 z"
           id="path3466"
           inkscape:connector-curvature="0" />
        <path
           style="fill:#fcb694"
           d="m -1347.3455,613.48129 -111.726,0 0,-152.07143 0,-152.07142 111.726,0 111.7259,0 62.07,62.06997 c 34.1385,34.13848 62.0699,74.63914 62.0699,90.00145 0,15.36232 -27.9314,55.86298 -62.0699,90.00146 l -62.07,62.06997 -111.7259,0 z m 374.03669,-58.97268 -40.92439,73.1278 -29.5484,-93.09875 -29.5484,-93.09874 40.9244,-73.1278 40.92438,-73.1278 29.54839,93.09875 29.54839,93.09874 -40.92437,73.1278 z m 307.1812,57.32 -119.48469,-1.65268 -54.31123,-61.68697 c -29.87117,-33.92783 -54.31122,-73.68478 -54.31122,-88.34877 0,-14.664 27.93148,-54.5933 62.06995,-88.73178 l 62.07,-62.06997 111.72592,0 111.72597,0 0,152.07142 0,152.07143 -119.4847,-1.65268 z"
           id="path3468"
           inkscape:connector-curvature="0" />
        <path
           style="fill:#ded77f"
           d="m -1347.3455,613.48129 -111.726,0 0,-152.07143 0,-152.07142 111.726,0 111.7259,0 62.07,62.06997 c 34.1385,34.13848 62.0699,74.63914 62.0699,90.00145 0,15.36232 -27.9314,55.86298 -62.0699,90.00146 l -62.07,62.06997 -111.7259,0 z m 351.72981,-14.48299 -28.96601,28.96598 0,-57.93197 0,-57.93197 28.96601,28.96598 28.96595,28.96599 -28.96595,28.96599 z m 329.48808,12.83031 -119.48469,-1.65268 -54.31123,-61.68697 c -29.87117,-33.92783 -54.31122,-73.68478 -54.31122,-88.34877 0,-14.664 27.93148,-54.5933 62.06995,-88.73178 l 62.07,-62.06997 111.72592,0 111.72597,0 0,152.07142 0,152.07143 -119.4847,-1.65268 z m -329.48808,-230.0752 -28.96601,28.96598 0,-57.93197 0,-57.93197 28.96601,28.96598 28.96595,28.96599 -28.96595,28.96599 z"
           id="path3470"
           inkscape:connector-curvature="0" />
        <path
           style="fill:#a29c53"
           d="m -1331.6525,613.48129 -127.419,0 0,-152.07143 0,-152.07142 125.6984,0 125.6984,0 27.3582,71.29445 27.3583,71.29444 -25.6376,80.77698 -25.6377,80.77698 -127.419,0 z m 336.03681,-14.48299 -28.96601,28.96598 0,-57.93197 0,-57.93197 28.96601,28.96598 28.96595,28.96599 -28.96595,28.96599 z m 321.55378,14.48299 -127.41905,0 -25.63759,-80.77698 -25.63763,-80.77698 27.35825,-71.29444 27.35826,-71.29445 125.69838,0 125.69838,0 0,152.07142 0,152.07143 -127.419,0 z m -321.55378,-231.72788 -28.96601,28.96598 0,-57.93197 0,-57.93197 28.96601,28.96598 28.96595,28.96599 -28.96595,28.96599 z"
           id="path3472"
           inkscape:connector-curvature="0" />
        <path
           style="fill:#fe0000"
           d="m -1328.7246,613.48129 -130.3469,0 0,-152.07143 0,-152.07142 130.3469,0 130.347,0 0,152.07142 0,152.07143 -130.347,0 z m 333.10891,-14.48299 -28.96601,28.96598 0,-57.93197 0,-57.93197 28.96601,28.96598 28.96595,28.96599 -28.96595,28.96599 z m 318.62584,14.48299 -130.34694,0 0,-152.07143 0,-152.07142 130.34694,0 130.34694,0 0,152.07142 0,152.07143 -130.34694,0 z m -318.62584,-231.72788 -28.96601,28.96598 0,-57.93197 0,-57.93197 28.96601,28.96598 28.96595,28.96599 -28.96595,28.96599 z"
           id="path3474"
           inkscape:connector-curvature="0" />
        <path
           style="fill:#0000fe"
           d="m -1328.7246,613.48129 -130.3469,0 0,-152.07143 0,-152.07142 130.3469,0 130.347,0 0,152.07142 0,152.07143 -130.347,0 z m 651.73475,0 -130.34694,0 0,-152.07143 0,-152.07142 130.34694,0 130.34694,0 0,152.07142 0,152.07143 -130.34694,0 z"
           id="path3476"
           inkscape:connector-curvature="0" />
        <path
           style="fill:#56522b"
           d="m -1307.0001,613.48129 -108.6224,0 0,-152.07143 0,-152.07142 108.6224,0 108.6225,0 0,152.07142 0,152.07143 -108.6225,0 z m 608.28576,0 -108.62245,0 0,-152.07143 0,-152.07142 108.62245,0 108.62245,0 0,152.07142 0,152.07143 -108.62245,0 z"
           id="path3478"
           inkscape:connector-curvature="0" />
        <path
           style="fill:#020203"
           d="m -1315.6899,613.48129 -99.9326,0 0,-152.07143 0,-152.07142 99.9326,0 99.9327,0 0,152.07142 0,152.07143 -99.9327,0 z m 625.66535,0 -99.93265,0 0,-152.07143 0,-152.07142 99.93265,0 99.93266,0 0,152.07142 0,152.07143 -99.93266,0 z"
           id="path3480"
           inkscape:connector-curvature="0" />
      </g>
      <g
         id="g3482"
         transform="matrix(0.71722098,0,0,0.71722098,534.74486,1230.3569)">
        <path
           style="fill:#fefefe"
           d="m -220.00007,53.48129 -456.21429,0 0,-152.071425 0,-152.071425 456.21429,0 456.2143,0 0,152.071425 0,152.071425 -456.2143,0 z"
           id="path3484"
           inkscape:connector-curvature="0" />
        <path
           style="fill:#f9ef7f"
           d="m -480.69395,53.48129 -195.52041,0 0,-152.071425 0,-152.071425 191.89967,0 191.89966,0 21.91505,54.31122 21.91506,54.31123 4.09551,-65.17347 4.09552,-65.17347 42.11832,65.17347 42.11831,65.17347 0.66533,-54.31123 0.66534,-54.31122 195.520408,0 195.520412,0 0,152.071425 0,152.071425 -195.520412,0 -195.520408,0 -0.66534,-54.31122321 -0.66533,-54.31122279 -37.52411,59.2275877 -37.5241,59.2275883 -23.55386,-59.2275883 -23.55384,-59.2275877 -3.43018,54.31122279 -3.43019,54.31122321 -195.52041,0 z"
           id="path3486"
           inkscape:connector-curvature="0" />
        <path
           style="fill:#fad98f"
           d="m -545.86742,53.48129 -130.34694,0 0,-152.071425 0,-152.071425 130.34694,0 130.34694,0 0,43.44898 0,43.44898 83.27722,0 83.27721,0 21.91504,-54.31123 21.91506,-54.31122 3.43021,54.31122 3.43017,54.31123 86.89796,0 86.897957,0 0,-43.44898 0,-43.44898 130.346943,0 130.34694,0 0,152.071425 0,152.071425 -130.34694,0 -130.346943,0 0,-43.448979 0,-43.448978 -83.277227,0 -83.27718,0 -21.91506,54.311223 -21.91506,54.311223 -3.43021,-54.311223 -3.43017,-54.311223 -86.89796,0 -86.89796,0 0,43.448978 0,43.448979 -130.34694,0 z"
           id="path3488"
           inkscape:connector-curvature="0" />
        <path
           style="fill:#fcbc95"
           d="m -564.48841,53.48129 -111.72595,0 0,-152.071425 0,-152.071425 111.72595,0 111.72595,0 62.06997,62.06997 c 34.13849,34.13848 62.06997,74.63914 62.06997,90.001455 0,15.362316 -27.93148,55.862973 -62.06997,90.0014569 l -62.06997,62.0699681 -111.72595,0 z m 374.03674,-58.9726773 -40.92438,73.1277943 -29.54839,-93.098744 -29.54839,-93.098743 40.92437,-73.1278 40.92438,-73.1278 29.54839,93.09875 29.54839,93.098744 -40.92437,73.1277987 z M 116.72953,51.828613 -2.7551626,50.175931 -57.066388,-11.511039 c -29.871174,-33.92783 -54.311222,-73.68478 -54.311222,-88.348775 0,-14.663996 27.931477,-54.593296 62.06995,-88.731776 l 62.069997,-62.06997 111.725923,0 111.72597,0 0,152.071425 0,152.071425 -119.4847,-1.652677 z"
           id="path3490"
           inkscape:connector-curvature="0" />
        <path
           style="fill:#fcac94"
           d="m -564.48841,53.48129 -111.72595,0 0,-152.071425 0,-152.071425 111.72595,0 111.72595,0 62.06997,62.06997 c 34.13849,34.13848 62.06997,74.63914 62.06997,90.001455 0,15.362316 -27.93148,55.862973 -62.06997,90.0014569 l -62.06997,62.0699681 -111.72595,0 z m 352.61678,-53.80464288 -19.77263,75.52913188 0.8768,-173.795914 0.8768,-173.795915 18.89583,98.26678 c 10.39269,54.04673 9.99813,132.254892 -0.8768,173.79591712 z M 116.72953,51.828613 -2.7551626,50.175931 -57.066388,-11.511039 c -29.871174,-33.92783 -54.311222,-73.68478 -54.311222,-88.348775 0,-14.663996 27.931477,-54.593296 62.06995,-88.731776 l 62.069997,-62.06997 111.725923,0 111.72597,0 0,152.071425 0,152.071425 -119.4847,-1.652677 z"
           id="path3492"
           inkscape:connector-curvature="0" />
        <path
           style="fill:#ded77f"
           d="m -564.48841,53.48129 -111.72595,0 0,-152.071425 0,-152.071425 111.72595,0 111.72595,0 62.06997,62.06997 c 34.13849,34.13848 62.06997,74.63914 62.06997,90.001455 0,15.362316 -27.93148,55.862973 -62.06997,90.0014569 l -62.06997,62.0699681 -111.72595,0 z m 351.72986,-14.482991 -28.96601,28.965982 0,-57.93197 0,-57.93197 28.96601,28.965983 28.96595,28.965987 -28.96595,28.965988 z M 116.72953,51.828613 -2.7551626,50.175931 -57.066388,-11.511039 c -29.871174,-33.92783 -54.311222,-73.68478 -54.311222,-88.348775 0,-14.663996 27.931477,-54.593296 62.06995,-88.731776 l 62.069997,-62.06997 111.725923,0 111.72597,0 0,152.071425 0,152.071425 -119.4847,-1.652677 z m -329.48808,-230.075203 -28.96601,28.96598 0,-57.93197 0,-57.93197 28.96601,28.96598 28.96595,28.96599 -28.96595,28.96599 z"
           id="path3494"
           inkscape:connector-curvature="0" />
        <path
           style="fill:#a29c53"
           d="m -548.79535,53.48129 -127.41901,0 0,-152.071425 0,-152.071425 125.69839,0 125.69838,0 27.35825,71.29445 27.35825,71.29444 -25.63762,80.776982 -25.63762,80.776978 -127.41902,0 z m 336.0368,-14.482991 -28.96601,28.965982 0,-57.93197 0,-57.93197 28.96601,28.965983 28.96595,28.965987 -28.96595,28.965988 z m 321.55378,14.482991 -127.419047,0 -25.637592,-80.776978 -25.637636,-80.776982 27.358259,-71.29444 27.358259,-71.29445 125.698377,0 125.69838,0 0,152.071425 0,152.071425 -127.419,0 z m -321.55378,-231.72788 -28.96601,28.96598 0,-57.93197 0,-57.93197 28.96601,28.96598 28.96595,28.96599 -28.96595,28.96599 z"
           id="path3496"
           inkscape:connector-curvature="0" />
        <path
           style="fill:#fe0000"
           d="m -545.86742,53.48129 -130.34694,0 0,-152.071425 0,-152.071425 130.34694,0 130.34694,0 0,152.071425 0,152.071425 -130.34694,0 z m 333.10887,-14.482991 -28.96601,28.965982 0,-57.93197 0,-57.93197 28.96601,28.965983 28.96595,28.965987 -28.96595,28.965988 z m 318.62584,14.482991 -130.346943,0 0,-152.071425 0,-152.071425 130.346943,0 130.34694,0 0,152.071425 0,152.071425 -130.34694,0 z m -318.62584,-231.72788 -28.96601,28.96598 0,-57.93197 0,-57.93197 28.96601,28.96598 28.96595,28.96599 -28.96595,28.96599 z"
           id="path3498"
           inkscape:connector-curvature="0" />
        <path
           style="fill:#0000fe"
           d="m -545.86742,53.48129 -130.34694,0 0,-152.071425 0,-152.071425 130.34694,0 130.34694,0 0,152.071425 0,152.071425 -130.34694,0 z m 651.73471,0 -130.346943,0 0,-152.071425 0,-152.071425 130.346943,0 130.34694,0 0,152.071425 0,152.071425 -130.34694,0 z"
           id="path3500"
           inkscape:connector-curvature="0" />
        <path
           style="fill:#56522b"
           d="m -524.14293,53.48129 -108.62245,0 0,-152.071425 0,-152.071425 108.62245,0 108.62245,0 0,152.071425 0,152.071425 -108.62245,0 z m 608.285728,0 -108.622451,0 0,-152.071425 0,-152.071425 108.622451,0 108.622452,0 0,152.071425 0,152.071425 -108.622452,0 z"
           id="path3502"
           inkscape:connector-curvature="0" />
        <path
           style="fill:#1a190d"
           d="m -532.83272,53.48129 -99.93266,0 0,-152.071425 0,-152.071425 99.93266,0 99.93265,0 0,152.071425 0,152.071425 -99.93265,0 z m 625.665314,0 -99.9326547,0 0,-152.071425 0,-152.071425 99.9326547,0 99.932656,0 0,152.071425 0,152.071425 -99.932656,0 z"
           id="path3504"
           inkscape:connector-curvature="0" />
        <path
           style="fill:#00001b"
           d="m -524.14293,53.48129 -108.62245,0 0,-152.071425 0,-152.071425 108.62245,0 108.62245,0 0,43.44898 c 0,23.89694 -19.55204,43.44898 -43.44898,43.44898 l -43.44898,0 0,65.173465 0,65.173468 43.44898,0 c 23.89694,0 43.44898,19.55204 43.44898,43.448978 l 0,43.448979 -108.62245,0 z m 608.285728,0 -108.622451,0 0,-43.448979 c 0,-23.896938 19.5520414,-43.448978 43.448981,-43.448978 l 43.44898,0 0,-65.173468 0,-65.173465 -43.44898,0 c -23.8969396,0 -43.448981,-19.55204 -43.448981,-43.44898 l 0,-43.44898 108.622451,0 108.622452,0 0,152.071425 0,152.071425 -108.622452,0 z"
           id="path3506"
           inkscape:connector-curvature="0" />
        <path
           style="fill:#000000"
           d="m -524.14293,53.48129 -108.62245,0 0,-152.071425 0,-152.071425 108.62245,0 108.62245,0 0,43.44898 c 0,23.89694 -19.55204,43.44898 -43.44898,43.44898 l -43.44898,0 0,65.173465 0,65.173468 43.44898,0 c 23.89694,0 43.44898,19.55204 43.44898,43.448978 l 0,43.448979 -108.62245,0 z m -38.92304,-98.665387 26.25042,-26.250426 -22.82024,-57.026787 -22.82025,-57.02678 -3.43018,83.27721 -3.43018,83.277204 26.25043,-26.250421 z m 647.208768,98.665387 -108.622451,0 0,-43.448979 c 0,-23.896938 19.5520414,-43.448978 43.448981,-43.448978 l 43.44898,0 0,-65.173468 0,-65.173465 -43.44898,0 c -23.8969396,0 -43.448981,-19.55204 -43.448981,-43.44898 l 0,-43.44898 108.622451,0 108.622452,0 0,152.071425 0,152.071425 -108.622452,0 z m 47.974932,-98.665387 26.2504,-26.250426 -22.82023,-57.026787 -22.82023,-57.02678 -3.43021,83.27721 -3.43017,83.277204 26.25044,-26.250421 z"
           id="path3508"
           inkscape:connector-curvature="0" />
      </g>
    </g>
  </g>
</svg>
