<?xml version="1.0" encoding="UTF-8" standalone="no"?>
<!-- Created with Inkscape (http://www.inkscape.org/) -->

<svg
   xmlns:dc="http://purl.org/dc/elements/1.1/"
   xmlns:cc="http://creativecommons.org/ns#"
   xmlns:rdf="http://www.w3.org/1999/02/22-rdf-syntax-ns#"
   xmlns:svg="http://www.w3.org/2000/svg"
   xmlns="http://www.w3.org/2000/svg"
   xmlns:xlink="http://www.w3.org/1999/xlink"
   xmlns:sodipodi="http://sodipodi.sourceforge.net/DTD/sodipodi-0.dtd"
   xmlns:inkscape="http://www.inkscape.org/namespaces/inkscape"
   id="svg3039"
   version="1.1"
   inkscape:version="0.48.3.1 r9886"
   width="51"
   height="20"
   sodipodi:docname="Empty_grid.xpm">
  <metadata
     id="metadata3045">
    <rdf:RDF>
      <cc:Work
         rdf:about="">
        <dc:format>image/svg+xml</dc:format>
        <dc:type
           rdf:resource="http://purl.org/dc/dcmitype/StillImage" />
        <dc:title></dc:title>
      </cc:Work>
    </rdf:RDF>
  </metadata>
  <defs
     id="defs3043" />
  <sodipodi:namedview
     pagecolor="#ffffff"
     bordercolor="#666666"
     borderopacity="1"
     objecttolerance="10"
     gridtolerance="10"
     guidetolerance="10"
     inkscape:pageopacity="0"
     inkscape:pageshadow="2"
     inkscape:window-width="1193"
     inkscape:window-height="749"
     id="namedview3041"
     showgrid="false"
     inkscape:zoom="7.2097162"
     inkscape:cx="35.796435"
     inkscape:cy="-5.7430074"
     inkscape:window-x="0"
     inkscape:window-y="24"
     inkscape:window-maximized="0"
     inkscape:current-layer="svg3039" />
  <image
     width="51"
     height="20"
     xlink:href="file:///home/erg-libre/relearn/relearn.off-grid/Empty_grid.xpm"
     id="image3047"
     x="0"
     y="0" />
  <path
     style="fill:#000000"
     d=""
     id="path3079"
     inkscape:connector-curvature="0" />
  <g
     id="g3069"
     transform="translate(-51.458336,30.375676)">
    <path
       style="fill:#efe58b"
       d="M 0,10 0,0 25.5,0 51,0 51,10 51,20 25.5,20 0,20 0,10 z"
       id="path3073"
       inkscape:connector-curvature="0" />
    <path
       style="fill:#04870f"
       d="M 0.48817752,10.004902 0.52589479,0.5 25.5,0.5 l 24.974105,0 0.03772,9.504902 0.03772,9.504902 -25.04954,0 -25.04953975,0 0.0377173,-9.504902 z M 49.513068,9.989636 l 0.04194,-8.4998398 -24.055007,0 -24.0550071,0 0.1597357,8.5051021 c 0.087855,4.6778057 0.2127312,8.5098417 0.2775035,8.5156347 0.064772,0.0058 10.7987719,0.0034 23.8533329,-0.0053 l 23.735564,-0.0158 0.04194,-8.499839 z M 2.4854638,10.005319 2.5327644,2.5 25.5,2.5 l 22.967236,0 0.0473,7.505319 0.0473,7.505319 -23.061837,0 -23.0618367,0 0.0473,-7.505319 z m 45.0309882,-0.016618 0.05416,-6.499812 -22.070614,0 -22.0706137,0 0.1697621,6.5055555 c 0.093369,3.5780555 0.2217572,6.5107325 0.2853068,6.5170585 0.06355,0.0063 9.8945598,0.0037 21.8466898,-0.0057 l 21.731146,-0.01725 0.05416,-6.499812 z M 4.4812034,10.005814 4.5447236,4.5 25.5,4.5 l 20.955276,0 0.06352,5.505814 0.06352,5.505814 -21.082317,0 -21.0823167,0 0.06352,-5.505814 z m 41.0408396,-0.01823 0.07668,-4.4997795 -20.098722,0 -20.0987215,0 0.1880896,4.5060975 c 0.1034493,2.478354 0.2381616,4.5118 0.2993608,4.518768 0.061199,0.007 8.9864781,0.0041 19.8339531,-0.0063 L 45.445365,14.48738 45.522045,9.9876 z M 6.4738904,10.00641 6.5712157,6.5 25.5,6.5 l 18.928784,0 0.09733,3.50641 0.09732,3.506411 -19.123435,0 -19.1234348,0 0.097325,-3.506411 z m 37.0577306,-0.020169 0.133533,-2.4997543 -18.165154,0 -18.1651541,0 0.2333837,2.5067567 c 0.1283611,1.3787156 0.2780207,2.5131026 0.3325771,2.5208576 0.054556,0.0078 8.0637633,0.0046 17.7982373,-0.007 l 17.699044,-0.0211 0.133533,-2.499754 z M 8.469457,10.007143 8.6906586,8.5 25.5,8.5 l 16.809341,0 0.221202,1.507143 0.221202,1.507143 -17.251745,0 -17.2517446,0 0.2212016,-1.507143 z m 32.878925,-0.022192 0.500103,-0.5001029 -16.333433,0 -16.3334331,0 0.3236041,0.5236029 c 0.4130526,0.668333 31.174027,0.645632 31.843159,-0.0235 z"
       id="path3071"
       inkscape:connector-curvature="0" />
  </g>
  <g
     id="g3049"
     transform="translate(1.2483154,28.849957)">
    <path
       style="fill:#efe58b"
       d="M 0,10 0,0 25.5,0 51,0 51,10 51,20 25.5,20 0,20 0,10 z"
       id="path3057"
       inkscape:connector-curvature="0" />
    <path
       style="fill:#7ab64d"
       d="M 0.48817752,10.004902 0.52589479,0.5 25.5,0.5 l 24.974105,0 0.03772,9.504902 0.03772,9.504902 -25.04954,0 -25.04953975,0 0.0377173,-9.504902 z"
       id="path3055"
       inkscape:connector-curvature="0" />
    <path
       style="fill:#78b54c"
       d="M 0.48817752,10.004902 0.52589479,0.5 25.5,0.5 l 24.974105,0 0.03772,9.504902 0.03772,9.504902 -25.04954,0 -25.04953975,0 0.0377173,-9.504902 z M 3,18 C 3,17.45 2.5234424,17 1.940983,17 1.3585237,17 1.1600813,17.45 1.5,18 1.8399187,18.55 2.3164763,19 2.559017,19 2.8015576,19 3,18.55 3,18 z m 3,0 c 0.027223,1.333333 0.1383338,1.333333 1,0 0.8616662,-1.333333 0.9727773,-1.333333 1,0 0.027223,1.333333 0.1383338,1.333333 1,0 0.8616662,-1.333333 0.9727773,-1.333333 1,0 0.02722,1.333333 0.138334,1.333333 1,0 0.861666,-1.333333 0.972777,-1.333333 1,0 0.02722,1.333333 0.138334,1.333333 1,0 0.861666,-1.333333 0.972777,-1.333333 1,0 0.02722,1.333333 0.138334,1.333333 1,0 0.861666,-1.333333 0.972777,-1.333333 1,0 0.02722,1.333333 0.138334,1.333333 1,0 0.861666,-1.333333 0.972777,-1.333333 1,0 0.02722,1.333333 0.138334,1.333333 1,0 0.861666,-1.333333 0.972777,-1.333333 1,0 0.02722,1.333333 0.138334,1.333333 1,0 0.861666,-1.333333 0.972777,-1.333333 1,0 0.02722,1.333333 0.138334,1.333333 1,0 0.861666,-1.333333 0.972777,-1.333333 1,0 0.02722,1.333333 0.138334,1.333333 1,0 0.861666,-1.333333 0.972777,-1.333333 1,0 0.02722,1.333333 0.138334,1.333333 1,0 0.861666,-1.333333 0.972777,-1.333333 1,0 0.02722,1.333333 0.138334,1.333333 1,0 0.861666,-1.333333 0.972777,-1.333333 1,0 0.02722,1.333333 0.138334,1.333333 1,0 0.861666,-1.333333 0.972777,-1.333333 1,0 0.02722,1.333333 0.138334,1.333333 1,0 0.861666,-1.333333 0.972777,-1.333333 1,0 0.02722,1.333333 0.138334,1.333333 1,0 0.861666,-1.333333 0.972777,-1.333333 1,0 0.02722,1.333333 0.138334,1.333333 1,0 0.861666,-1.333333 0.972777,-1.333333 1,0 0.02722,1.333333 0.138334,1.333333 1,0 0.861666,-1.333333 0.972777,-1.333333 1,0 0.02722,1.333333 0.138334,1.333333 1,0 0.861666,-1.333333 0.972777,-1.333333 1,0 0.02722,1.333333 0.138334,1.333333 1,0 0.861666,-1.333333 0.972777,-1.333333 1,0 0.02722,1.333333 0.138334,1.333333 1,0 0.64625,-1 0.974479,-1.083333 0.984687,-0.25 0.01004,0.819732 0.636622,0.647624 1.820317,-0.5 1.179699,-1.14375 1.439521,-2.004517 0.75,-2.484687 C 47.898771,14.308323 48.06697,14.01905 49,14 c 1.333333,-0.02722 1.333333,-0.138334 0,-1 -1.333333,-0.861666 -1.333333,-0.972777 0,-1 1.333333,-0.02722 1.333333,-0.138334 0,-1 -1.333333,-0.861666 -1.333333,-0.972777 0,-1 C 50.333333,9.972777 50.333333,9.8616662 49,9 47.666667,8.1383338 47.666667,8.0272227 49,8 50.333333,7.9727773 50.333333,7.8616662 49,7 47.666667,6.1383338 47.666667,6.0272227 49,6 50.333333,5.9727773 50.333333,5.8616662 49,5 47.939001,4.3143299 47.877373,4.026144 48.789427,4.0153128 c 1.052568,-0.0125 1.052568,-0.2705231 0,-1.4046482 -0.93409,-1.0064659 -1.49189,-1.0753602 -2.024114,-0.25 C 46.270806,3.1275345 46.020614,3.0096279 46,2 45.972777,0.66666667 45.861666,0.66666667 45,2 44.138334,3.3333333 44.027223,3.3333333 44,2 43.972777,0.66666667 43.861666,0.66666667 43,2 42.138334,3.3333333 42.027223,3.3333333 42,2 41.972777,0.66666667 41.861666,0.66666667 41,2 40.138334,3.3333333 40.027223,3.3333333 40,2 39.972777,0.66666667 39.861666,0.66666667 39,2 38.138334,3.3333333 38.027223,3.3333333 38,2 37.972777,0.66666667 37.861666,0.66666667 37,2 36.138334,3.3333333 36.027223,3.3333333 36,2 35.972777,0.66666667 35.861666,0.66666667 35,2 34.138334,3.3333333 34.027223,3.3333333 34,2 33.972777,0.66666667 33.861666,0.66666667 33,2 32.138334,3.3333333 32.027223,3.3333333 32,2 31.972777,0.66666667 31.861666,0.66666667 31,2 30.138334,3.3333333 30.027223,3.3333333 30,2 29.972777,0.66666667 29.861666,0.66666667 29,2 28.138334,3.3333333 28.027223,3.3333333 28,2 27.972777,0.66666667 27.861666,0.66666667 27,2 26.138334,3.3333333 26.027223,3.3333333 26,2 25.972777,0.66666667 25.861666,0.66666667 25,2 24.138334,3.3333333 24.027223,3.3333333 24,2 23.972777,0.66666667 23.861666,0.66666667 23,2 22.138334,3.3333333 22.027223,3.3333333 22,2 21.972777,0.66666667 21.861666,0.66666667 21,2 20.138334,3.3333333 20.027223,3.3333333 20,2 19.972777,0.66666667 19.861666,0.66666667 19,2 18.138334,3.3333333 18.027223,3.3333333 18,2 17.972777,0.66666667 17.861666,0.66666667 17,2 16.138334,3.3333333 16.027223,3.3333333 16,2 15.972777,0.66666667 15.861666,0.66666667 15,2 14.138334,3.3333333 14.027223,3.3333333 14,2 13.972777,0.66666667 13.861666,0.66666667 13,2 12.138334,3.3333333 12.027223,3.3333333 12,2 11.972777,0.66666667 11.861666,0.66666667 11,2 10.138334,3.3333333 10.027223,3.3333333 10,2 9.9727773,0.66666667 9.8616662,0.66666667 9,2 8.1383338,3.3333333 8.0272227,3.3333333 8,2 7.9727773,0.66666667 7.8616662,0.66666667 7,2 6.1383338,3.3333333 6.0272227,3.3333333 6,2 5.9727773,0.66666667 5.8616662,0.66666667 5,2 4.3143299,3.0609987 4.026144,3.1226267 4.0153128,2.2105734 c -0.0125,-1.0525687 -0.2705231,-1.0525687 -1.4046482,0 -1.0064659,0.9340898 -1.0753602,1.4918898 -0.25,2.0241138 C 3.1275345,4.7291944 3.0096279,4.9793864 2,5 0.66666667,5.0272227 0.66666667,5.1383338 2,6 3.3333333,6.8616662 3.3333333,6.9727773 2,7 0.66666667,7.0272227 0.66666667,7.1383338 2,8 3.3333333,8.8616662 3.3333333,8.9727773 2,9 0.66666667,9.027223 0.66666667,9.1383338 2,10 c 1.3333333,0.861666 1.3333333,0.972777 0,1 -1.33333333,0.02722 -1.33333333,0.138334 0,1 1.3333333,0.861666 1.3333333,0.972777 0,1 -1.33333333,0.02722 -1.33333333,0.138334 0,1 1,0.64625 1.0833333,0.974479 0.25,0.984687 -0.8197316,0.01004 -0.6476242,0.636622 0.5,1.820317 1.1437495,1.179699 2.0045168,1.439521 2.4846872,0.75 C 5.6916771,16.898771 5.9809503,17.06697 6,18 z M 3.8844552,16.511503 C 3.8209056,16.505177 3.6925175,13.5725 3.5991484,9.9944444 l -0.1697621,-6.5055555 22.0706137,0 22.070614,0 -0.05416,6.499812 -0.05416,6.4998121 -21.731146,0.01725 c -11.95213,0.0095 -21.7831402,0.01207 -21.8466898,0.0057 z M 46.518797,10.005814 46.455276,4.5 25.5,4.5 l -20.9552764,0 -0.06352,5.505814 -0.06352,5.505814 21.0823164,0 21.082317,0 -0.06352,-5.505814 z M 5.8887289,14.51267 C 5.8275299,14.50567 5.6928174,12.472256 5.5893681,9.9939024 l -0.1880896,-4.5060975 20.0987215,0 20.098722,0 -0.07668,4.4997795 -0.07668,4.4997796 -19.722682,0.01899 c -10.847475,0.01044 -19.772754,0.01329 -19.8339531,0.0063 z M 44.52611,10.00641 44.428784,6.5 25.5,6.5 l -18.9287843,0 -0.097325,3.50641 -0.097325,3.506411 19.1234343,0 19.123435,0 -0.09732,-3.506411 z M 7.9008067,12.514101 c -0.054556,-0.0078 -0.204216,-1.142142 -0.3325771,-2.5208578 l -0.2333837,-2.5067567 18.1651541,0 18.165154,0 -0.133533,2.4997543 -0.133533,2.4997542 -17.699044,0.0211 c -9.734474,0.01161 -17.743681,0.01476 -17.7982373,0.007 z M 42.530543,10.007143 C 42.343514,8.7328327 39.712531,8.5 25.5,8.5 11.287469,8.5 8.6564861,8.7328327 8.469457,10.007143 8.2796609,11.300307 10.697598,11.514286 25.5,11.514286 c 14.802402,0 17.220339,-0.213979 17.030543,-1.507143 z m -33.02532,0.0013 C 9.3272407,9.7204696 16.531664,9.4848485 25.515052,9.4848485 c 8.983388,0 16.108387,0.2250463 15.83333,0.5001029 C 40.67925,10.654083 9.9182756,10.676784 9.505223,10.008451 z M 50,17.440983 C 50,17.198442 49.55,17 49,17 c -0.55,0 -1,0.476558 -1,1.059017 0,0.582459 0.45,0.780902 1,0.440983 0.55,-0.339919 1,-0.816476 1,-1.059017 z"
       id="path3053"
       inkscape:connector-curvature="0" />
    <path
       style="fill:#04870f"
       d="M 0.48817752,10.004902 0.52589479,0.5 25.5,0.5 l 24.974105,0 0.03772,9.504902 0.03772,9.504902 -25.04954,0 -25.04953975,0 0.0377173,-9.504902 z M 49.513068,9.989636 l 0.04194,-8.4998398 -24.055007,0 -24.0550071,0 0.1597357,8.5051021 c 0.087855,4.6778057 0.2127312,8.5098417 0.2775035,8.5156347 0.064772,0.0058 10.7987719,0.0034 23.8533329,-0.0053 l 23.735564,-0.0158 0.04194,-8.499839 z"
       id="path3051"
       inkscape:connector-curvature="0" />
  </g>
</svg>
