<?xml version="1.0" encoding="UTF-8" standalone="no"?>
<!-- Created with Inkscape (http://www.inkscape.org/) -->

<svg
   xmlns:dc="http://purl.org/dc/elements/1.1/"
   xmlns:cc="http://creativecommons.org/ns#"
   xmlns:rdf="http://www.w3.org/1999/02/22-rdf-syntax-ns#"
   xmlns:svg="http://www.w3.org/2000/svg"
   xmlns="http://www.w3.org/2000/svg"
   xmlns:xlink="http://www.w3.org/1999/xlink"
   xmlns:sodipodi="http://sodipodi.sourceforge.net/DTD/sodipodi-0.dtd"
   xmlns:inkscape="http://www.inkscape.org/namespaces/inkscape"
   id="svg3039"
   version="1.1"
   inkscape:version="0.48.3.1 r9886"
   width="51"
   height="20"
   sodipodi:docname="Empty_grid2.xpm">
  <metadata
     id="metadata3045">
    <rdf:RDF>
      <cc:Work
         rdf:about="">
        <dc:format>image/svg+xml</dc:format>
        <dc:type
           rdf:resource="http://purl.org/dc/dcmitype/StillImage" />
        <dc:title></dc:title>
      </cc:Work>
    </rdf:RDF>
  </metadata>
  <defs
     id="defs3043" />
  <sodipodi:namedview
     pagecolor="#ffffff"
     bordercolor="#666666"
     borderopacity="1"
     objecttolerance="10"
     gridtolerance="10"
     guidetolerance="10"
     inkscape:pageopacity="0"
     inkscape:pageshadow="2"
     inkscape:window-width="1417"
     inkscape:window-height="755"
     id="namedview3041"
     showgrid="false"
     inkscape:zoom="8.9012265"
     inkscape:cx="41.496899"
     inkscape:cy="-18.501216"
     inkscape:window-x="0"
     inkscape:window-y="24"
     inkscape:window-maximized="1"
     inkscape:current-layer="svg3039" />
  <g
     id="g4376"
     transform="translate(0.44937533,47.409196)">
    <path
       style="fill:#ededed"
       d="m 1.0327103,9.9205607 0,-9.99999995 25.4999997,0 25.5,0 0,9.99999995 0,10.0000003 -25.5,0 -25.4999997,0 0,-10.0000003 z"
       id="path4392"
       inkscape:connector-curvature="0" />
    <path
       style="fill:#dcdcdc"
       d="m 1.5208878,9.9254627 0.037717,-9.50490195 24.9741052,0 24.974105,0 0.03772,9.50490195 0.03772,9.5049023 -25.04954,0 -25.0495397,0 0.037717,-9.5049023 z"
       id="path4390"
       inkscape:connector-curvature="0" />
    <path
       style="fill:#dadada"
       d="m 1.5208878,9.9254627 0.037717,-9.50490195 24.9741052,0 24.974105,0 0.03772,9.50490195 0.03772,9.5049023 -25.04954,0 -25.0495397,0 0.037717,-9.5049023 z M 23.53271,12.920561 c -0.339919,-0.55 -0.816476,-1 -1.059017,-1 -0.242541,0 -0.440983,0.45 -0.440983,1 0,0.55 0.476558,1 1.059017,1 0.582459,0 0.780902,-0.45 0.440983,-1 z m -13.5,-1.671259 c 0,-0.919193 0.744745,-2.4941933 1.654988,-3.5000006 1.553872,-1.7170099 1.525473,-1.8287407 -0.464817,-1.8287407 -1.165891,0 -2.569702,0.8406436 -3.1195783,1.8680969 -0.6793547,1.2693858 -1.7589393,1.7229735 -3.3685171,1.4152832 -1.6092559,-0.3076287 -2.368742,0.0113 -2.368742,0.9946992 0,0.876791 0.6783446,1.270122 1.7204744,0.997599 0.946261,-0.247453 2.0228186,0.03929 2.3923504,0.637204 1.0451407,1.691073 3.5538416,1.278721 3.5538416,-0.584141 z m 21,0.09793 c 0,-0.931239 -0.68037,-1.4413736 -1.667134,-1.25 -2.508769,0.486556 -2.853244,2.823329 -0.416199,2.823329 1.228337,0 2.083333,-0.645689 2.083333,-1.573324 z m 5.5,-2.4266713 c -0.339919,-0.55 -1.266476,-1 -2.059017,-1 -0.792541,0 -1.440983,0.45 -1.440983,1 0,0.55 0.926558,1 2.059017,1 1.132459,0 1.780902,-0.45 1.440983,-1 z m -19.5,-3 c 0,-0.55 -0.476558,-1 -1.059017,-1 -0.582459,0 -0.780902,0.45 -0.440983,1 0.339919,0.55 0.816476,1 1.059017,1 0.242541,0 0.440983,-0.45 0.440983,-1 z"
       id="path4388"
       inkscape:connector-curvature="0" />
    <path
       style="fill:#d7d7d7"
       d="m 1.5208878,9.9254627 0.037717,-9.50490195 24.9741052,0 24.974105,0 0.03772,9.50490195 0.03772,9.5049023 -25.04954,0 -25.0495397,0 0.037717,-9.5049023 z M 25.03271,12.822736 c 0,-0.496196 -0.704584,-0.902175 -1.565741,-0.902175 -2.322474,0 -5.572479,1.967338 -4.940162,2.990448 0.666484,1.078394 6.505903,-0.79595 6.505903,-2.088273 z m 6.297307,-0.916252 c 0.775893,-1.107743 2.26391,-1.895243 3.306704,-1.75 2.608961,0.363381 3.288187,-1.2774606 1.08742,-2.6269368 C 34.292337,6.6515875 33.641758,6.7887437 32.601196,8.1879317 31.157845,10.12873 28.526325,9.6492835 27.617092,7.2798598 27.303451,6.4625251 26.571806,6.087381 25.991215,6.4462063 c -0.7311,0.4518441 -0.706805,1.0727082 0.07903,2.0195772 0.624056,0.7519421 0.84435,1.8368795 0.489541,2.4109725 -0.354812,0.574093 -0.366995,1.493805 -0.02708,2.043805 1.005873,1.627536 3.284408,1.145889 4.797307,-1.014077 z M 10.03271,11.280804 c 0,-0.901867 0.7875,-2.221573 1.75,-2.9326801 1.321828,-0.9765828 1.46863,-1.5785303 0.6,-2.4602426 C 11.508597,5.0006031 10.674608,5.2786633 8.9063321,7.0469389 7.6183005,8.3349705 5.6395436,9.2500824 4.4729987,9.097214 3.194498,8.9296746 2.3660436,9.3765139 2.3660436,10.233632 c 0,0.877388 0.6945577,1.23089 1.8333334,0.933094 1.0083333,-0.263685 1.8333333,0.02306 1.8333333,0.637204 0,0.614147 0.9,1.116631 2,1.116631 1.1868716,0 1.9999997,-0.666667 1.9999997,-1.639757 z M 22.479924,5.8351505 C 22.157948,5.314183 21.468267,5.1513715 20.9473,5.4733471 c -0.520968,0.3219756 -0.683779,1.0116563 -0.361804,1.5326238 0.321976,0.5209675 1.011657,0.683779 1.532624,0.3618034 0.520968,-0.3219756 0.683779,-1.0116563 0.361804,-1.5326238 z m -5,-1 C 17.157948,4.314183 16.468267,4.1513715 15.9473,4.4733471 c -0.520968,0.3219756 -0.683779,1.0116563 -0.361804,1.5326238 0.321976,0.5209675 1.011657,0.683779 1.532624,0.3618034 0.520968,-0.3219756 0.683779,-1.0116563 0.361804,-1.5326238 z"
       id="path4386"
       inkscape:connector-curvature="0" />
    <path
       style="fill:#d4d4d4"
       d="m 1.5208878,9.9254627 0.037717,-9.50490195 24.9741052,0 24.974105,0 0.03772,9.50490195 0.03772,9.5049023 -25.04954,0 -25.0495397,0 0.037717,-9.5049023 z M 24.800883,13.116041 c 0.492711,-1.478131 -1.744625,-1.535131 -5.419189,-0.138064 -2.041819,0.776298 -2.426532,1.276623 -1.447084,1.881955 1.675037,1.03523 6.334357,-0.148141 6.866273,-1.743891 z m -9.459156,-0.69548 c -0.105041,-0.55 -1.177268,-1.23283 -2.382728,-1.517401 -1.780753,-0.420378 -1.932458,-0.719426 -0.809017,-1.5947654 2.626791,-2.0466869 4.971078,-2.3477742 9.956016,-1.2786962 4.263561,0.9143701 4.913807,1.3561624 4.39623,2.9869026 -0.842044,2.653045 1.763834,3.435261 5.228706,1.56952 1.540977,-0.829775 3.639957,-1.774304 4.6644,-2.098954 C 37.919038,10.0043 38.033227,9.62611 37.022889,8.4087276 35.44544,6.5080173 34.123892,6.5280666 31.960927,8.485523 30.385051,9.9116714 30.067613,9.8805087 28.382187,8.1342006 24.641722,4.2586209 10.548424,3.5878143 6.3348145,7.0847996 5.6326656,7.6675314 4.4674495,7.9176274 3.7454452,7.6405684 2.8935404,7.3136618 2.4327103,7.953806 2.4327103,9.4641029 c 0,1.2800031 0.2531468,2.1708251 0.5625485,1.9796041 0.3094017,-0.19122 1.6819017,0.283359 3.05,1.054622 2.7550041,1.553129 9.5970102,1.495893 9.2964682,-0.07777 z"
       id="path4384"
       inkscape:connector-curvature="0" />
    <path
       style="fill:#d0d0d0"
       d="m 1.5208878,9.9254627 0.037717,-9.50490195 24.9741052,0 24.974105,0 0.03772,9.50490195 0.03772,9.5049023 -25.04954,0 -25.0495397,0 0.037717,-9.5049023 z M 26.926141,14.848561 c 2.416386,-0.506651 5.055539,-1.470686 5.864783,-2.142298 0.809243,-0.671613 2.424154,-1.235647 3.58869,-1.253408 1.20137,-0.01832 2.264701,-0.78809 2.45798,-1.7793807 C 39.307648,7.2626615 34.265486,5.3126649 31.69102,6.9096209 30.255148,7.8003 29.594094,7.736392 28.69102,6.6195926 27.036786,4.573862 17.13017,2.8836651 12.678577,3.8876625 10.648521,4.3455144 7.8600129,5.4589217 6.4818925,6.3619009 5.1037721,7.26488 3.5983918,7.7701711 3.136603,7.4847699 2.6748142,7.1993687 2.3500247,7.9681666 2.4148486,9.1932097 c 0.1514523,2.8621473 6.710886,6.1587463 10.6763504,5.3656533 1.814318,-0.362863 3.203449,-0.02761 4.034435,0.973665 0.793687,0.956334 2.04097,1.286036 3.337219,0.882148 1.138422,-0.354712 4.046901,-1.059464 6.463288,-1.566115 z M 16.426225,11.748264 c -0.281352,-0.455237 -1.70642,-0.827703 -3.166818,-0.827703 -2.451838,0 -2.530677,-0.124591 -1.029043,-1.626226 1.303818,-1.3038173 2.730965,-1.4881976 7.198523,-0.9300131 3.064764,0.3829169 5.772315,1.0198482 6.016782,1.4154027 0.244466,0.3955544 -1.569802,1.1865274 -4.031706,1.7577164 -2.461904,0.57119 -4.706386,0.66606 -4.987738,0.210823 z"
       id="path4382"
       inkscape:connector-curvature="0" />
    <path
       style="fill:#cdcdcd"
       d="m 1.5208878,9.9254627 0.037717,-9.50490195 24.9741052,0 24.974105,0 0.03772,9.50490195 0.03772,9.5049023 -25.04954,0 -25.0495397,0 0.037717,-9.5049023 z M 27.201943,15.304695 c 3.481922,-0.888727 6.555767,-1.96836 6.830767,-2.399185 0.275,-0.430825 1.620403,-0.941185 2.989784,-1.134134 3.315137,-0.467109 3.856773,-3.5532284 0.831421,-4.7372435 C 36.577252,6.5344922 31.184982,5.3643796 25.871092,4.4338822 17.908317,3.0395473 15.226847,2.9460617 10.621093,3.9022126 7.5474824,4.5402916 5.0327103,5.4804523 5.0327103,5.9914585 c 0,0.5110062 -0.5785714,0.9291022 -1.2857143,0.9291022 -0.7974738,0 -1.2857143,1.3012187 -1.2857143,3.4265813 0,1.88462 0.2989132,3.241843 0.6642515,3.016051 0.3653384,-0.225791 2.1022369,0.306832 3.8597746,1.183607 1.9360117,0.96581 4.3487782,1.363486 6.1214622,1.008949 1.634073,-0.326815 2.92594,-0.154704 2.92594,0.389812 0,1.423665 3.974006,1.195645 11.169233,-0.640866 z M 19.03271,10.420561 c 0.684689,-0.8250003 1.671932,-1.5000003 2.193873,-1.5000003 0.521941,0 0.273984,0.675 -0.551016,1.5000003 -0.825,0.825 -1.812243,1.5 -2.193873,1.5 -0.38163,0 -0.133673,-0.675 0.551016,-1.5 z"
       id="path4380"
       inkscape:connector-curvature="0" />
    <path
       style="fill:#aeaeae"
       d="m 1.5208878,9.9254627 0.037717,-9.50490195 24.9741052,0 24.974105,0 0.03772,9.50490195 0.03772,9.5049023 -25.04954,0 -25.0495397,0 0.037717,-9.5049023 z m 49.0248902,-0.015266 0.04194,-8.4998398 -24.055007,0 -24.0550068,0 0.1597357,8.5051021 c 0.087855,4.677806 0.2127312,8.509842 0.2775035,8.515635 0.064772,0.0058 10.7987716,0.0034 23.8533326,-0.0053 l 23.735564,-0.0158 0.04194,-8.4998393 z"
       id="path4378"
       inkscape:connector-curvature="0" />
  </g>
  <path
     inkscape:connector-curvature="0"
     id="path4356"
     d="m 1.8191188,33.865673 0,-10 25.4999992,0 25.5,0 0,10 0,10 -25.5,0 -25.4999992,0 0,-10 z"
     style="fill:#e2e4ce;fill-opacity:0.63013695" />
  <path
     inkscape:connector-curvature="0"
     id="path4354"
     d="m 1.8568288,34.360771 0.03772,-9.504902 24.9741042,0 24.974105,0 0.03772,9.504902 0.03772,9.504902 -25.04954,0 -25.0495392,0 0.03772,-9.504902 z"
     style="fill:#a8c0b3;fill-opacity:0.28310499" />
  <path
     inkscape:connector-curvature="0"
     id="path4352"
     d="m 1.8568313,34.360771 0.037717,-9.504902 24.9741047,0 24.974105,0 0.03772,9.504902 0.03772,9.504902 -25.04954,0 -25.0495392,0 0.037717,-9.504902 z m 22.0118217,2.995098 c -0.339919,-0.55 -0.816476,-1 -1.059017,-1 -0.242541,0 -0.440983,0.45 -0.440983,1 0,0.55 0.476558,1 1.059017,1 0.582459,0 0.780902,-0.45 0.440983,-1 z m -13.5,-1.671259 c 0,-0.919193 0.744745,-2.494193 1.654988,-3.500001 1.553872,-1.71701 1.525473,-1.82874 -0.464817,-1.82874 -1.165891,0 -2.5697018,0.840643 -3.1195778,1.868097 -0.679355,1.269385 -1.758939,1.722973 -3.3685171,1.415283 -1.6092559,-0.307629 -2.368742,0.0113 -2.368742,0.994699 0,0.876791 0.6783446,1.270122 1.7204744,0.997599 0.946261,-0.247453 2.0228186,0.03929 2.3923507,0.637204 1.04514,1.691073 3.5538408,1.278721 3.5538408,-0.584141 z m 21,0.09793 c 0,-0.931239 -0.68037,-1.441374 -1.667134,-1.25 -2.508769,0.486556 -2.853244,2.823329 -0.416199,2.823329 1.228337,0 2.083333,-0.645689 2.083333,-1.573324 z m 5.5,-2.426671 c -0.339919,-0.55 -1.266476,-1 -2.059017,-1 -0.792541,0 -1.440983,0.45 -1.440983,1 0,0.55 0.926558,1 2.059017,1 1.132459,0 1.780902,-0.45 1.440983,-1 z m -19.5,-3 c 0,-0.55 -0.476558,-1 -1.059017,-1 -0.582459,0 -0.780902,0.45 -0.440983,1 0.339919,0.55 0.816476,1 1.059017,1 0.242541,0 0.440983,-0.45 0.440983,-1 z"
     style="fill:#b78534;fill-opacity:0.10045663" />
  <path
     inkscape:connector-curvature="0"
     id="path4350"
     d="m 1.8568888,34.360771 0.0377,-9.504902 24.9741102,0 24.974104,0 0.0377,9.504902 0.0377,9.504902 -25.049544,0 -25.0495402,0 0.0377,-9.504902 z m 23.5118202,2.897273 c 0,-0.496196 -0.70459,-0.902175 -1.56574,-0.902175 -2.32248,0 -5.57248,1.967338 -4.94017,2.990448 0.66649,1.078394 6.50591,-0.79595 6.50591,-2.088273 z m 6.2973,-0.916252 c 0.7759,-1.107743 2.26391,-1.895243 3.30671,-1.75 2.60896,0.363381 3.28819,-1.277461 1.08742,-2.626937 -1.43181,-0.87796 -2.08238,-0.740803 -3.12295,0.658385 -1.44335,1.940798 -4.07487,1.461352 -4.9841,-0.908072 -0.31364,-0.817335 -1.04529,-1.192479 -1.62588,-0.833654 -0.7311,0.451844 -0.7068,1.072709 0.079,2.019578 0.62406,0.751942 0.84435,1.836879 0.48954,2.410972 -0.35481,0.574093 -0.36699,1.493805 -0.0271,2.043805 1.00588,1.627536 3.28441,1.145889 4.79731,-1.014077 z m -21.2973,-0.62568 c 0,-0.901867 0.7875,-2.221573 1.75,-2.93268 1.32183,-0.976583 1.46863,-1.57853 0.6,-2.460243 -0.87412,-0.887278 -1.7081,-0.609218 -3.4763802,1.159058 -1.28803,1.288032 -3.26679,2.203143 -4.43333,2.050275 -1.2785,-0.167539 -2.10696,0.2793 -2.10696,1.136418 0,0.877388 0.69456,1.23089 1.83333,0.933094 1.00834,-0.263685 1.83334,0.02306 1.83334,0.637204 0,0.614147 0.9,1.116631 2,1.116631 1.18687,0 2.0000002,-0.666667 2.0000002,-1.639757 z m 12.44721,-5.445653 c -0.32197,-0.520968 -1.01166,-0.68378 -1.53262,-0.361804 -0.52097,0.321976 -0.68378,1.011656 -0.36181,1.532624 0.32198,0.520967 1.01166,0.683779 1.53263,0.361803 0.52097,-0.321975 0.68378,-1.011656 0.3618,-1.532624 z m -5,-1 c -0.32197,-0.520968 -1.01166,-0.68378 -1.53262,-0.361804 -0.52097,0.321976 -0.68378,1.011656 -0.36181,1.532624 0.32198,0.520967 1.01166,0.683779 1.53263,0.361803 0.52097,-0.321975 0.68378,-1.011656 0.3618,-1.532624 z"
     style="fill:#999384;fill-opacity:0.27397257" />
  <path
     inkscape:connector-curvature="0"
     id="path4344"
     d="m 1.8568313,34.360771 0.037717,-9.504902 24.9741047,0 24.974105,0 0.03772,9.504902 0.03772,9.504902 -25.04954,0 -25.0495392,0 0.037717,-9.504902 z m 25.6810547,5.379232 c 3.481922,-0.888727 6.555767,-1.96836 6.830767,-2.399185 0.275,-0.430825 1.620403,-0.941185 2.989784,-1.134134 3.315137,-0.467109 3.856773,-3.553228 0.831421,-4.737244 C 36.913195,30.9698 31.520925,29.799688 26.207035,28.86919 18.24426,27.474855 15.56279,27.38137 10.957036,28.337521 7.8834257,28.9756 5.3686538,29.91576 5.3686538,30.426766 c 0,0.511007 -0.5785714,0.929103 -1.2857143,0.929103 -0.7974738,0 -1.2857143,1.301218 -1.2857143,3.426581 0,1.88462 0.2989132,3.241843 0.6642515,3.016051 0.3653384,-0.225791 2.1022369,0.306832 3.8597746,1.183607 1.9360114,0.96581 4.3487777,1.363486 6.1214617,1.008949 1.634073,-0.326815 2.92594,-0.154704 2.92594,0.389812 0,1.423665 3.974006,1.195645 11.169233,-0.640866 z m -8.169233,-4.884134 c 0.684689,-0.825 1.671932,-1.5 2.193873,-1.5 0.521941,0 0.273984,0.675 -0.551016,1.5 -0.825,0.825 -1.812243,1.5 -2.193873,1.5 -0.38163,0 -0.133673,-0.675 0.551016,-1.5 z"
     style="fill:#e2f3e5;fill-opacity:1" />
  <path
     inkscape:connector-curvature="0"
     id="path4342"
     d="m 1.8568278,34.360771 0.03772,-9.504902 24.9741042,0 24.974106,0 0.03772,9.504902 0.03772,9.504902 -25.049541,0 -25.0495382,0 0.03772,-9.504902 z m 49.0248902,-0.01527 0.04194,-8.49984 -24.055008,0 -24.0550052,0 0.159735,8.505102 c 0.08786,4.677806 0.212731,8.509842 0.277504,8.515635 0.06477,0.0058 10.7987702,0.0034 23.8533312,-0.0053 l 23.735565,-0.0158 0.04194,-8.499839 z"
     style="fill:#aba79a;fill-opacity:0.41095892" />
  <path
     style="fill:#000000"
     d=""
     id="path4338"
     inkscape:connector-curvature="0" />
  <path
     style="fill:#000000"
     d=""
     id="path3105"
     inkscape:connector-curvature="0" />
  <path
     style="fill:#000000"
     d=""
     id="path3101"
     inkscape:connector-curvature="0" />
  <g
     id="g3051"
     transform="translate(56.242991,0.31775685)">
    <path
       style="fill:#fef9fe"
       d="m 0.07943925,10.158879 0,-10.00000049 25.49999975,0 25.5,0 0,10.00000049 0,10 -25.5,0 -25.49999975,0 0,-10 z"
       id="path3057"
       inkscape:connector-curvature="0" />
    <path
       style="fill:#fefece"
       d="m 0.07943925,10.158879 0,-10.00000049 25.49999975,0 25.5,0 0,10.00000049 0,10 -25.5,0 -25.49999975,0 0,-10 z M 22.506324,14.26346 24.43321,13.508611 22.756324,12.86513 l -1.676885,-0.643481 0,0.968615 0,0.968615 -1.885693,0 c -1.037131,0 -3.055321,-0.60681 -4.484866,-1.348467 l -2.599173,-1.348467 0.734866,-0.734867 0.734866,-0.7348662 -1.44061,0.3333342 -1.44061,0.333333 L 10.340405,9.0381731 9.9825907,7.4174677 11.946687,6.903845 13.910783,6.3902223 15.141815,7.5245504 16.372848,8.6588785 15.607714,7.3127469 14.84258,5.9666153 l 1.868429,0.4055217 1.86843,0.4055218 -0.321429,1.4406099 -0.321428,1.4406098 1.271428,-1.25 c 0.699286,-0.6875 1.882987,-1.25 2.630446,-1.25 l 1.359017,0 -0.506204,0.8190559 -0.506205,0.8190559 3.197188,-0.4963607 3.197187,-0.4963606 -6.5,-1.3475671 -6.5,-1.347567 -4.52046,0.9650883 C 8.5727259,6.6050218 5.2554108,7.7049959 3.6871678,8.5186101 l -2.85135093,1.4792987 4.61340203,2.1016482 4.6134021,2.101647 2.399314,-0.602189 2.399315,-0.60219 0.668112,1.081027 0.668111,1.081027 2.190983,-0.07029 c 1.205041,-0.03866 3.058081,-0.409967 4.117868,-0.825134 z M 8.2858581,11.742212 C 7.8973277,11.146379 7.0169393,10.658879 6.3294393,10.658879 l -1.25,0 0,-1.0000005 c 0,-0.55 0.3375,-1.0068907 0.75,-1.0153128 0.4125,-0.00842 1.3125,-0.3724796 2,-0.809017 l 1.25,-0.7937042 0,1.2302763 c 0,0.676652 0.6768703,1.9782102 1.5041557,2.8923512 l 1.504157,1.662074 -1.547738,0 -1.5477372,0 -0.7064187,-1.083334 z m 23.1578879,-0.08949 c 1.575369,-0.821611 3.600369,-1.50073 4.5,-1.509152 l 1.635693,-0.01532 -1.5,-0.9693745 -1.5,-0.9693745 -2.5,0.054972 -2.5,0.054973 2,0.8223793 2,0.8223793 -1.75,0.7143234 -1.75,0.714326 -1.255264,-0.481691 -1.255263,-0.48169 -1.284163,1.374701 -1.284163,1.374701 1.789426,-0.0062 c 0.984185,-0.0034 3.078365,-0.678388 4.653734,-1.5 z"
       id="path3055"
       inkscape:connector-curvature="0" />
    <path
       style="fill:#0efefe"
       d="m 0.56761677,10.163781 0.0377173,-9.50490249 24.97410493,0 24.974105,0 0.03772,9.50490249 0.03772,9.504902 -25.04954,0 -25.04953947,0 0.0377173,-9.504902 z m 49.02489023,-0.01527 0.04194,-8.4998403 -24.055007,0 -24.0550068,0 0.1597357,8.5051023 c 0.087855,4.677806 0.2127312,8.509842 0.2775035,8.515635 0.064772,0.0058 10.7987716,0.0034 23.8533326,-0.0053 l 23.735564,-0.0158 0.04194,-8.499839 z m -47.0844963,4.339102 0,-3.1819 0.716616,0.442893 0.716616,0.442893 L 4.4993305,11.288498 5.0574183,10.385493 3.7225655,9.2776627 2.3877126,8.1698332 2.5349062,5.4143558 2.6820999,2.6588785 l 22.9322871,0 22.932288,0 0.0473,7.5053195 0.0473,7.505319 -23.066633,0 -23.0666323,0 0,-3.1819 z m 45.0878803,-4.340037 0.05416,-6.4998123 -22.11782,0 -22.1178195,0 0.11981,2.2428526 0.1198099,2.2428526 1.3594074,1.262703 L 6.3728481,10.658879 5.6518139,9.3841019 4.9307798,8.1093253 5.7551095,8.3841019 C 6.2084909,8.535229 6.6919393,8.3213785 6.8294393,7.9088785 7.3778006,6.2637945 7.0157072,5.966882 5.746106,7.0205575 l -1.3333334,1.1065683 0,-1.394609 0,-1.394609 L 6.272816,5.6961195 8.1328594,6.0543311 7.6795682,5.3208905 7.226277,4.5874499 l 3.355152,0 3.355153,0 -0.178572,0.9902598 -0.178571,0.9902597 2,0 2,0 -0.178571,-0.9902597 -0.178572,-0.9902598 3.355153,0 3.355152,0 -0.363763,0.5885815 -0.363763,0.5885815 6.874364,-0.1057344 6.874364,-0.1057344 -0.414533,0.6707288 -0.414533,0.6707289 2.186552,-0.1178616 2.186552,-0.1178617 0.104731,3.5861835 0.10473,3.586182 -3.776055,-0.179406 -3.776056,-0.179406 0.412482,0.667409 0.412481,0.667408 -4.900715,-0.14837 -4.900715,-0.14837 0.385768,0.624185 0.385767,0.624185 -2.368743,0 -2.368744,0 0.183334,-1.004545 0.183333,-1.004546 -2,0 -2,0 0.274777,1.278875 0.274776,1.278876 -1.274776,-0.79621 c -0.701128,-0.437915 -1.83942,-0.88186 -2.52954,-0.986545 l -1.254763,-0.190335 0.440173,0.712215 0.440173,0.712215 -2.37082,0 -2.3708201,0 0.4621203,-0.747726 0.4621202,-0.747727 -1.8600434,0.358212 -1.8600434,0.358212 0,-1.394609 0,-1.394609 1.2443057,1.032682 1.2443056,1.032682 0.4038937,-0.798559 C 8.6629954,12.750176 8.6397062,11.832617 8.2044393,9.4845645 8.1356893,9.1136918 6.9995498,9.8247539 5.6796849,11.064703 l -2.3997543,2.254452 0.3232431,1.669862 c 0.1777837,0.918424 0.3576731,1.675039 0.3997543,1.681365 0.042081,0.0063 9.855526,0.0037 21.807656,-0.0057 l 21.731146,-0.01725 0.05416,-6.499813 z m -12.869016,5.03053 c 0.285577,-0.285577 1.944231,-0.519231 3.685897,-0.519231 l 3.166667,0 0.06135,-3.5 0.06135,-3.5000005 L 40.777485,6.419889 39.852825,5.1808995 39.03523,5.6862009 38.217636,6.1915023 37.711618,5.3727483 37.2056,4.5539944 l 4.66487,0.079492 4.66487,0.079492 0.06336,5.4921806 0.06336,5.492182 -6.22721,0 -6.227211,0 0.519231,-0.519231 z m 10.876807,-5.160764 0.07597,-4.4584675 -2.256569,0 -2.256568,0 0.7902,1.05 0.7902,1.05 -0.149011,3.6344045 -0.14901,3.634403 1.539404,-0.225937 1.539405,-0.225936 0.07597,-4.458467 z m -1.631398,3.891533 c -0.05894,-0.1375 -0.202059,-1.930625 -0.318054,-3.9847217 l -0.2109,-3.7347211 0.540946,0.5409463 c 0.573642,0.5736418 0.955341,7.4284965 0.413642,7.4284965 -0.175164,0 -0.366699,-0.1125 -0.425634,-0.25 z M 11.375356,12.839781 C 10.970168,12.190285 10.586327,10.721379 10.522377,9.5755452 l -0.116273,-2.0833334 1.281112,0 1.281112,0 -0.194445,1.0833334 -0.194444,1.0833333 2.265393,-0.1210101 2.265392,-0.12101 -1.006716,1.2130196 -1.006717,1.21302 0.741324,0.875023 c 0.407728,0.481262 -0.04618,0.272258 -1.008676,-0.464454 -0.9625,-0.736713 -1.75,-1.059377 -1.75,-0.717033 0,0.342345 0,0.959945 0,1.372445 0,0.893633 2.092131,1.098654 3.5,0.342986 0.55,-0.29521 1.54284,-0.619196 2.206312,-0.71997 l 1.206312,-0.183224 1.156995,1.394093 1.156995,1.394094 0.935251,-0.578017 0.935252,-0.578017 L 23.01469,12.580862 21.852825,11.1809 21.03523,11.686201 20.217636,12.191503 19.426658,10.925191 C 18.99162,10.228719 18.559542,9.159054 18.466485,8.5481573 l -0.169195,-1.1107212 1.641075,0.1107212 1.641074,0.1107212 0.25,-1 0.25,-1 -1.25,-0.063406 c -0.6875,-0.034873 -1.925,0.4955602 -2.75,1.1787406 -2.363456,1.9571718 -2.678169,1.9789381 -4.645012,0.3212594 l -1.854988,-1.5634057 -1.5,0.063406 -1.4999997,0.063406 -0.064866,1.5 c -0.035676,0.825 0.182433,1.95 0.4846873,2.5 0.3022542,0.5500002 0.6126939,1.7875002 0.6898659,2.7500002 0.077172,0.9625 0.1965628,2.001558 0.2653128,2.309017 l 0.1249997,0.559017 1.016312,-0.628115 1.016312,-0.628116 -0.736707,-1.180901 z m 4.704083,-1.288552 c 0,-0.150874 0.418906,-0.533214 0.930902,-0.849645 l 0.930901,-0.575329 0.52511,0.849645 0.52511,0.849646 -1.456012,0 c -0.800806,0 -1.456011,-0.123443 -1.456011,-0.274317 z m 12.904508,1.175021 1.404509,-0.876388 -0.659272,1.066724 -0.659271,1.066723 1.754763,-0.335704 c 0.96512,-0.184637 1.867263,-0.426384 2.004763,-0.537215 0.1375,-0.110831 1.689401,-0.257761 3.44867,-0.326511 l 3.198669,-0.125 0.140917,-2.637973 0.140917,-2.6379724 -1.089587,0.1660928 c -0.599272,0.091351 -1.620992,0.4982789 -2.270488,0.9042843 l -1.180901,0.7381916 -0.723607,-1.1708204 -0.723607,-1.1708204 1.309017,0.809017 1.309017,0.809017 -0.586679,-0.9492666 -0.586679,-0.9492665 -5.435768,0.062712 -5.435768,0.062712 -1.785756,1.482046 c -0.982166,0.8151253 -1.941594,1.369546 -2.132062,1.232046 -0.190468,-0.1375 -0.233805,0.0875 -0.09631,0.5 0.1375,0.4125006 0.533919,0.6553606 0.880931,0.5396906 0.347012,-0.115671 1.38927,0.627644 2.316128,1.65181 l 1.685196,1.862121 1.183872,-0.179931 c 0.65113,-0.09896 1.815902,-0.574305 2.588381,-1.056319 z m 2.289068,-0.602644 0.306424,-1.373818 -1,-0.06077 c -0.55,-0.03342 -1.5625,-0.417931 -2.25,-0.8544693 l -1.25,-0.7937042 -0.118421,0.809017 c -0.06513,0.4449595 -0.07909,1.1046515 -0.03101,1.4659825 l 0.08741,0.656964 -1.479111,-0.217087 c -0.813514,-0.119398 -2.014558,-0.752532 -2.668991,-1.406965 l -1.189877,-1.1898775 0.7,-0.125 c 0.385,-0.06875 1.6,-0.2375 2.7,-0.375 1.1,-0.1375 2.1125,-0.3406801 2.25,-0.4515113 0.1375,-0.1108312 1.023545,-0.3502152 1.968988,-0.5319646 l 1.718988,-0.3304533 -0.218988,1.1115101 -0.218988,1.11151 1,0.060767 c 0.55,0.033422 1.45,0.3080663 2,0.6103206 0.55,0.302254 1.675,0.499909 2.5,0.439232 l 1.5,-0.110319 -0.333333,-1.454546 -0.333334,-1.4545455 0.778945,0.7789444 c 0.428419,0.4284193 0.865507,1.3687332 0.971305,2.0895871 l 0.192362,1.310642 -2.637973,-0.183254 -2.637972,-0.183255 -1.306424,1.012941 -1.306424,1.01294 0.306424,-1.373818 z m -5.796582,-1.79806 0.515029,-0.8333342 -1.412023,0 -1.412023,0 0.515029,0.8333342 c 0.283265,0.458333 0.686913,0.833333 0.896994,0.833333 0.210081,0 0.613729,-0.375 0.896994,-0.833333 z m -12.939699,0.902431 0.575329,-0.930901 -0.849645,-0.5251105 -0.849646,-0.5251097 0,1.4560122 c 0,1.686167 0.315337,1.833491 1.123962,0.525109 z"
       id="path3053"
       inkscape:connector-curvature="0" />
  </g>
  <path
     style="fill:#000000"
     d=""
     id="path3049"
     inkscape:connector-curvature="0" />
  <g
     inkscape:groupmode="layer"
     id="layer2"
     inkscape:label="Layer1">
    <path
       inkscape:connector-curvature="0"
       id="path4346-7"
       d="m 1.8568888,34.360771 0.0377,-9.504902 24.9740992,0 24.97411,0 0.0377,9.504902 0.0377,9.504902 -25.04954,0 -25.0495392,0 0.0377,-9.504902 z m 25.4052492,4.923098 c 2.41639,-0.506651 5.05554,-1.470686 5.86479,-2.142298 0.80924,-0.671613 2.42415,-1.235647 3.58869,-1.253408 1.20137,-0.01832 2.2647,-0.78809 2.45798,-1.779381 0.47005,-2.410813 -4.57211,-4.360809 -7.14658,-2.763853 -1.43587,0.890679 -2.09692,0.826771 -3,-0.290028 -1.65423,-2.045731 -11.56085,-3.735928 -16.01244,-2.73193 -2.03006,0.457851 -4.8185692,1.571259 -6.1966892,2.474238 -1.37812,0.902979 -2.8835,1.40827 -3.34529,1.122869 -0.46178,-0.285401 -0.78657,0.483397 -0.72175,1.70844 0.15145,2.862147 6.71089,6.158746 10.6763492,5.365653 1.81432,-0.362863 3.20345,-0.02761 4.03444,0.973665 0.79368,0.956334 2.04097,1.286036 3.33721,0.882148 1.13843,-0.354712 4.04691,-1.059464 6.46329,-1.566115 z m -10.49991,-3.100297 c -0.28136,-0.455237 -1.70642,-0.827703 -3.16682,-0.827703 -2.45184,0 -2.53068,-0.124591 -1.02904,-1.626226 1.30381,-1.303817 2.73096,-1.488198 7.19852,-0.930013 3.06476,0.382917 5.77231,1.019848 6.01678,1.415403 0.24447,0.395554 -1.5698,1.186527 -4.03171,1.757716 -2.4619,0.57119 -4.70638,0.66606 -4.98773,0.210823 z"
       style="fill:#b4a7b0;fill-opacity:0.64840178" />
  </g>
  <path
     inkscape:connector-curvature="0"
     id="path4348"
     d="m 1.8568888,34.360771 0.0377,-9.504902 24.9740992,0 24.97411,0 0.0377,9.504902 0.0377,9.504902 -25.04954,0 -25.0495392,0 0.0377,-9.504902 z m 23.2799892,3.190578 c 0.49272,-1.478131 -1.74462,-1.535131 -5.41918,-0.138064 -2.04182,0.776298 -2.42654,1.276623 -1.44709,1.881955 1.67504,1.03523 6.33436,-0.148141 6.86627,-1.743891 z m -9.45915,-0.69548 c -0.10504,-0.55 -1.17727,-1.23283 -2.38273,-1.517401 -1.78075,-0.420378 -1.93246,-0.719426 -0.80902,-1.594765 2.62679,-2.046687 4.97108,-2.347775 9.95602,-1.278697 4.26356,0.91437 4.91381,1.356163 4.39623,2.986903 -0.84204,2.653045 1.76383,3.435261 5.22871,1.56952 1.54097,-0.829775 3.63995,-1.774304 4.6644,-2.098954 1.5237,-0.482867 1.63789,-0.861057 0.62755,-2.078439 -1.57745,-1.900711 -2.899,-1.880661 -5.06196,0.0768 -1.57588,1.426148 -1.89332,1.394986 -3.57874,-0.351322 -3.74047,-3.87558 -17.83376,-4.546387 -22.0473692,-1.049401 -0.70215,0.582731 -1.86737,0.832827 -2.58937,0.555768 -0.85191,-0.326906 -1.31274,0.313238 -1.31274,1.823535 0,1.280003 0.25315,2.170825 0.56255,1.979604 0.3094,-0.19122 1.6819,0.283359 3.05,1.054622 2.755,1.553129 9.5970092,1.495893 9.2964692,-0.07777 z"
     style="fill:#c8b8a1;fill-opacity:0.62100459" />
  <g
     inkscape:groupmode="layer"
     id="layer3"
     inkscape:label="Layer_base">
    <image
       width="51"
       height="20"
       xlink:href="file:///home/erg-libre/relearn/relearn.off-grid/Empty_grid2.xpm"
       id="image3047"
       x="56.960545"
       y="24.829416" />
    <g
       id="g4984"
       transform="translate(-56.846098,-24.715695)">
      <path
         style="fill:#fdfdce"
         d="m 56.960545,34.829416 0,-10 25.5,0 25.499995,0 0,10 0,10 -25.499995,0 -25.5,0 0,-10 z"
         id="path5000"
         inkscape:connector-curvature="0" />
      <path
         style="fill:#a8fbf2"
         d="m 57.448723,34.834318 0.03772,-9.504902 24.974105,0 24.974102,0 0.0377,9.504902 0.0377,9.504902 -25.049537,0 -25.04954,0 0.03772,-9.504902 z"
         id="path4998"
         inkscape:connector-curvature="0" />
      <path
         style="fill:#a5fced"
         d="m 57.448723,34.834318 0.03772,-9.504902 24.974105,0 24.974102,0 0.0377,9.504902 0.0377,9.504902 -25.049537,0 -25.04954,0 0.03772,-9.504902 z m 22.011822,2.995098 c -0.339919,-0.55 -0.816476,-1 -1.059017,-1 -0.242541,0 -0.440983,0.45 -0.440983,1 0,0.55 0.476558,1 1.059017,1 0.582459,0 0.780902,-0.45 0.440983,-1 z m -13.5,-1.671259 c 0,-0.919193 0.744744,-2.494193 1.654988,-3.5 1.553872,-1.71701 1.525473,-1.828741 -0.464817,-1.828741 -1.165892,0 -2.569702,0.840644 -3.119579,1.868097 -0.679354,1.269386 -1.758939,1.722973 -3.368517,1.415283 -1.609256,-0.307629 -2.368742,0.0113 -2.368742,0.994699 0,0.876791 0.678345,1.270122 1.720475,0.997599 0.946261,-0.247453 2.022818,0.03929 2.39235,0.637204 1.045141,1.691073 3.553842,1.278721 3.553842,-0.584141 z m 21,0.09793 c 0,-0.931239 -0.68037,-1.441373 -1.667134,-1.25 -2.508769,0.486556 -2.853244,2.823329 -0.416199,2.823329 1.228337,0 2.083333,-0.645689 2.083333,-1.573324 z m 5.5,-2.426671 c -0.339919,-0.55 -1.266476,-1 -2.059017,-1 -0.792541,0 -1.440983,0.45 -1.440983,1 0,0.55 0.926558,1 2.059017,1 1.132459,0 1.780902,-0.45 1.440983,-1 z m -19.5,-3 c 0,-0.55 -0.476558,-1 -1.059017,-1 -0.582459,0 -0.780902,0.45 -0.440983,1 0.339919,0.55 0.816476,1 1.059017,1 0.242541,0 0.440983,-0.45 0.440983,-1 z"
         id="path4996"
         inkscape:connector-curvature="0" />
      <path
         style="fill:#99fbf2"
         d="m 57.448723,34.834318 0.03772,-9.504902 24.974105,0 24.974102,0 0.0377,9.504902 0.0377,9.504902 -25.049537,0 -25.04954,0 0.03772,-9.504902 z m 23.511822,2.897273 c 0,-0.496196 -0.704584,-0.902175 -1.565741,-0.902175 -2.322474,0 -5.572479,1.967338 -4.940162,2.990448 0.666484,1.078394 6.505903,-0.79595 6.505903,-2.088273 z m 6.297307,-0.916252 c 0.775893,-1.107743 2.26391,-1.895243 3.306704,-1.75 2.608961,0.363381 3.288187,-1.27746 1.08742,-2.626937 -1.431804,-0.877959 -2.082383,-0.740803 -3.122945,0.658385 -1.443351,1.940798 -4.074871,1.461352 -4.984104,-0.908072 -0.313641,-0.817335 -1.045286,-1.192479 -1.625877,-0.833653 -0.7311,0.451844 -0.706805,1.072708 0.07903,2.019577 0.624056,0.751942 0.84435,1.836879 0.489541,2.410972 -0.354812,0.574093 -0.366995,1.493805 -0.02708,2.043805 1.005873,1.627536 3.284408,1.145889 4.797307,-1.014077 z m -21.297307,-0.62568 c 0,-0.901867 0.7875,-2.221573 1.75,-2.93268 1.321828,-0.976583 1.46863,-1.57853 0.6,-2.460242 -0.874113,-0.887279 -1.708103,-0.609218 -3.476378,1.159057 -1.288032,1.288032 -3.266789,2.203144 -4.433334,2.050275 -1.2785,-0.167539 -2.106955,0.2793 -2.106955,1.136418 0,0.877388 0.694558,1.23089 1.833334,0.933094 1.008333,-0.263685 1.833333,0.02306 1.833333,0.637204 0,0.614147 0.9,1.116631 2,1.116631 1.186872,0 2,-0.666667 2,-1.639757 z m 12.447214,-5.445653 c -0.321976,-0.520968 -1.011657,-0.683779 -1.532624,-0.361804 -0.520968,0.321976 -0.683779,1.011657 -0.361804,1.532624 0.321976,0.520968 1.011657,0.683779 1.532624,0.361804 0.520968,-0.321976 0.683779,-1.011657 0.361804,-1.532624 z m -5,-1 c -0.321976,-0.520968 -1.011657,-0.683779 -1.532624,-0.361804 -0.520968,0.321976 -0.683779,1.011657 -0.361804,1.532624 0.321976,0.520968 1.011657,0.683779 1.532624,0.361804 0.520968,-0.321976 0.683779,-1.011657 0.361804,-1.532624 z"
         id="path4994"
         inkscape:connector-curvature="0" />
      <path
         style="fill:#96fceb"
         d="m 57.448723,34.834318 0.03772,-9.504902 24.974105,0 24.974102,0 0.0377,9.504902 0.0377,9.504902 -25.049537,0 -25.04954,0 0.03772,-9.504902 z m 23.279995,3.190578 c 0.492711,-1.478131 -1.744625,-1.535131 -5.419189,-0.138064 -2.041819,0.776298 -2.426532,1.276623 -1.447084,1.881955 1.675037,1.03523 6.334357,-0.148141 6.866273,-1.743891 z m -9.459156,-0.69548 c -0.105041,-0.55 -1.177268,-1.23283 -2.382728,-1.517401 -1.780753,-0.420378 -1.932458,-0.719426 -0.809017,-1.594765 2.626791,-2.046687 4.971078,-2.347774 9.956016,-1.278696 4.263561,0.91437 4.913807,1.356162 4.39623,2.986902 -0.842044,2.653045 1.763834,3.435261 5.228706,1.56952 1.540977,-0.829775 3.639957,-1.774304 4.6644,-2.098954 1.523704,-0.482867 1.637893,-0.861057 0.627555,-2.078439 -1.577449,-1.90071 -2.898997,-1.880661 -5.061962,0.0768 -1.575876,1.426149 -1.893314,1.394986 -3.57874,-0.351322 -3.740465,-3.87558 -17.833763,-4.546386 -22.047373,-1.049401 -0.702149,0.582732 -1.867365,0.832828 -2.589369,0.555769 -0.851905,-0.326907 -1.312735,0.313237 -1.312735,1.823534 0,1.280003 0.253147,2.170825 0.562548,1.979604 0.309402,-0.19122 1.681902,0.283359 3.050001,1.054622 2.755004,1.553129 9.59701,1.495893 9.296468,-0.07777 z"
         id="path4992"
         inkscape:connector-curvature="0" />
      <path
         style="fill:#8bfcea"
         d="m 57.448723,34.834318 0.03772,-9.504902 24.974105,0 24.974102,0 0.0377,9.504902 0.0377,9.504902 -25.049537,0 -25.04954,0 0.03772,-9.504902 z m 25.405253,4.923098 c 2.416386,-0.506651 5.055539,-1.470686 5.864783,-2.142298 0.809243,-0.671613 2.424154,-1.235647 3.58869,-1.253408 1.20137,-0.01832 2.264701,-0.78809 2.45798,-1.77938 0.470054,-2.410813 -4.572108,-4.36081 -7.146574,-2.763854 -1.435872,0.890679 -2.096926,0.826771 -3,-0.290028 -1.654234,-2.045731 -11.56085,-3.735928 -16.012443,-2.73193 -2.030056,0.457852 -4.818564,1.571259 -6.196685,2.474238 -1.37812,0.902979 -2.8835,1.40827 -3.345289,1.122869 -0.461789,-0.285401 -0.786579,0.483397 -0.721755,1.70844 0.151453,2.862147 6.710886,6.158746 10.676351,5.365653 1.814318,-0.362863 3.203449,-0.02761 4.034435,0.973665 0.793687,0.956334 2.04097,1.286036 3.337219,0.882148 1.138422,-0.354712 4.046901,-1.059464 6.463288,-1.566115 z M 72.35406,36.657119 c -0.281352,-0.455237 -1.70642,-0.827703 -3.166818,-0.827703 -2.451838,0 -2.530677,-0.124591 -1.029043,-1.626226 1.303818,-1.303817 2.730965,-1.488197 7.198523,-0.930013 3.064764,0.382917 5.772315,1.019848 6.016782,1.415403 0.244466,0.395554 -1.569802,1.186527 -4.031706,1.757716 -2.461904,0.57119 -4.706386,0.66606 -4.987738,0.210823 z"
         id="path4990"
         inkscape:connector-curvature="0" />
      <path
         style="fill:#85fde5"
         d="m 57.448723,34.834318 0.03772,-9.504902 24.974105,0 24.974102,0 0.0377,9.504902 0.0377,9.504902 -25.049537,0 -25.04954,0 0.03772,-9.504902 z m 25.681055,5.379232 c 3.481922,-0.888727 6.555767,-1.96836 6.830767,-2.399185 0.275,-0.430825 1.620403,-0.941185 2.989784,-1.134134 3.315137,-0.467109 3.856773,-3.553228 0.831421,-4.737243 -1.276663,-0.499641 -6.668933,-1.669753 -11.982823,-2.600251 -7.962775,-1.394334 -10.644245,-1.48782 -15.249999,-0.531669 -3.073611,0.638079 -5.588383,1.57824 -5.588383,2.089246 0,0.511006 -0.578571,0.929102 -1.285714,0.929102 -0.797474,0 -1.285715,1.301219 -1.285715,3.426581 0,1.88462 0.298914,3.241843 0.664252,3.016051 0.365338,-0.225791 2.102237,0.306832 3.859775,1.183607 1.936011,0.96581 4.348778,1.363486 6.121462,1.008949 1.634073,-0.326815 2.92594,-0.154704 2.92594,0.389812 0,1.423665 3.974006,1.195645 11.169233,-0.640866 z m -8.169233,-4.884134 c 0.684689,-0.825 1.671932,-1.5 2.193873,-1.5 0.521941,0 0.273984,0.675 -0.551016,1.5 -0.825,0.825 -1.812243,1.5 -2.193873,1.5 -0.38163,0 -0.133673,-0.675 0.551016,-1.5 z"
         id="path4988"
         inkscape:connector-curvature="0" />
      <path
         style="fill:#0efefe"
         d="m 57.448723,34.834318 0.03772,-9.504902 24.974105,0 24.974102,0 0.0377,9.504902 0.0377,9.504902 -25.049537,0 -25.04954,0 0.03772,-9.504902 z m 49.024887,-0.01527 0.0419,-8.49984 -24.055004,0 -24.055007,0 0.159736,8.505102 c 0.08785,4.677806 0.212731,8.509842 0.277503,8.515635 0.06477,0.0058 10.798772,0.0034 23.853333,-0.0053 l 23.735569,-0.0158 0.0419,-8.499839 z"
         id="path4986"
         inkscape:connector-curvature="0" />
    </g>
  </g>
</svg>
