<?xml version="1.0" encoding="UTF-8" standalone="no"?>
<!-- Created with Inkscape (http://www.inkscape.org/) -->

<svg
   xmlns:dc="http://purl.org/dc/elements/1.1/"
   xmlns:cc="http://creativecommons.org/ns#"
   xmlns:rdf="http://www.w3.org/1999/02/22-rdf-syntax-ns#"
   xmlns:svg="http://www.w3.org/2000/svg"
   xmlns="http://www.w3.org/2000/svg"
   xmlns:sodipodi="http://sodipodi.sourceforge.net/DTD/sodipodi-0.dtd"
   xmlns:inkscape="http://www.inkscape.org/namespaces/inkscape"
   id="svg3476"
   version="1.1"
   inkscape:version="0.48.3.1 r9886"
   width="51"
   height="20"
   sodipodi:docname="Empty_grid2_mono_colour.png"
   inkscape:export-filename="/home/wendy/01_git/relearn/relearn.off-grid/Empty_grid2_mono_colour.svg.png"
   inkscape:export-xdpi="90"
   inkscape:export-ydpi="90">
  <metadata
     id="metadata3482">
    <rdf:RDF>
      <cc:Work
         rdf:about="">
        <dc:format>image/svg+xml</dc:format>
        <dc:type
           rdf:resource="http://purl.org/dc/dcmitype/StillImage" />
        <dc:title></dc:title>
      </cc:Work>
    </rdf:RDF>
  </metadata>
  <defs
     id="defs3480" />
  <sodipodi:namedview
     pagecolor="#ffffff"
     bordercolor="#666666"
     borderopacity="1"
     objecttolerance="10"
     gridtolerance="10"
     guidetolerance="10"
     inkscape:pageopacity="0"
     inkscape:pageshadow="2"
     inkscape:window-width="1366"
     inkscape:window-height="718"
     id="namedview3478"
     showgrid="false"
     inkscape:zoom="15.040492"
     inkscape:cx="25.499206"
     inkscape:cy="3.6461545"
     inkscape:window-x="0"
     inkscape:window-y="0"
     inkscape:window-maximized="1"
     inkscape:current-layer="svg3476" />
  <path
     style="fill:#000000"
     d="m 0.24265323,10.086744 0.0377173,-9.50490208 24.97410447,0 24.974105,0 0.03772,9.50490208 0.03772,9.504902 -25.04954,0 -25.04953901,0 0.0377173,-9.504902 z m 49.02488977,-0.01527 0.04194,-8.4998401 -24.055007,0 -24.0550064,0 0.1597357,8.5051021 c 0.087855,4.677806 0.2127312,8.509842 0.2775035,8.515635 0.064772,0.0058 10.7987712,0.0034 23.8533322,-0.0053 l 23.735564,-0.0158 0.04194,-8.499839 z m -47.0844959,4.339102 0,-3.1819 0.716616,0.442893 0.716616,0.442893 0.5580878,-0.903005 0.5580878,-0.903005 -1.3348528,-1.1078301 -1.3348529,-1.10783 0.1471936,-2.755477 0.1471937,-2.755477 22.9322867,0 22.932288,0 0.0473,7.5053191 0.0473,7.505319 -23.066633,0 -23.0666319,0 0,-3.1819 z m 45.0878799,-4.340037 0.05416,-6.4998121 -22.11782,0 -22.1178191,0 0.11981,2.242853 0.1198099,2.242852 1.3594074,1.262703 L 6.0478845,10.581838 5.3268503,9.3070649 4.6058162,8.0322889 5.4301459,8.3070649 C 5.8835273,8.4581919 6.3669757,8.2443419 6.5044757,7.8318419 7.052837,6.1867579 6.6907436,5.8898449 5.4211424,6.9435209 l -1.3333334,1.106568 0,-1.394609 0,-1.394609 1.8600434,0.358212 1.8600434,0.358211 -0.4532912,-0.73344 -0.4532912,-0.733441 3.3551516,0 3.355153,0 -0.178572,0.99026 -0.178571,0.99026 2,0 2,0 -0.178571,-0.99026 -0.178572,-0.99026 3.355153,0 3.355152,0 -0.363763,0.588582 -0.363763,0.588581 6.874364,-0.105734 6.874364,-0.105735 -0.414533,0.670729 -0.414533,0.670729 2.186552,-0.117862 2.186552,-0.117861 0.104731,3.5861831 0.10473,3.586182 -3.776055,-0.179406 -3.776056,-0.179406 0.412482,0.667409 0.412481,0.667408 -4.900715,-0.14837 -4.900715,-0.14837 0.385768,0.624185 0.385767,0.624185 -2.368743,0 -2.368744,0 0.183334,-1.004545 0.183333,-1.004546 -2,0 -2,0 0.274777,1.278875 0.274776,1.278876 -1.274776,-0.79621 c -0.701128,-0.437915 -1.83942,-0.88186 -2.52954,-0.986545 l -1.254763,-0.190335 0.440173,0.712215 0.440173,0.712215 -2.37082,0 -2.3708197,0 0.4621203,-0.747726 0.4621202,-0.747727 -1.8600434,0.358212 -1.8600434,0.358212 0,-1.394609 0,-1.394609 1.2443057,1.032682 1.2443056,1.032682 L 7.980314,13.3804 C 8.3380318,12.673139 8.3147426,11.75558 7.8794757,9.4075279 7.8107257,9.0366549 6.6745862,9.7477169 5.3547213,10.987666 L 2.954967,13.242118 3.2782101,14.91198 c 0.1777837,0.918424 0.3576731,1.675039 0.3997543,1.681365 0.042081,0.0063 9.8555256,0.0037 21.8076556,-0.0057 l 21.731146,-0.01725 0.05416,-6.499812 z M 3.7544757,15.581842 c 0,-0.275 0.225,-0.5 0.5,-0.5 0.275,0 0.5,0.225 0.5,0.5 0,0.275 -0.225,0.5 -0.5,0.5 -0.275,0 -0.5,-0.225 -0.5,-0.5 z m 2,0 c 0,-0.275 0.225,-0.5 0.5,-0.5 0.275,0 0.5,0.225 0.5,0.5 0,0.275 -0.225,0.5 -0.5,0.5 -0.275,0 -0.5,-0.225 -0.5,-0.5 z m 7.9999993,0 c 0,-0.275 0.225,-0.5 0.5,-0.5 0.275,0 0.5,0.225 0.5,0.5 0,0.275 -0.225,0.5 -0.5,0.5 -0.275,0 -0.5,-0.225 -0.5,-0.5 z m 4,0 c 0,-0.275 0.225,-0.5 0.5,-0.5 0.275,0 0.5,0.225 0.5,0.5 0,0.275 -0.225,0.5 -0.5,0.5 -0.275,0 -0.5,-0.225 -0.5,-0.5 z m 8,0 c 0,-0.275 0.225,-0.5 0.5,-0.5 0.275,0 0.5,0.225 0.5,0.5 0,0.275 -0.225,0.5 -0.5,0.5 -0.275,0 -0.5,-0.225 -0.5,-0.5 z m 2,0 c 0,-0.275 0.225,-0.5 0.5,-0.5 0.275,0 0.5,0.225 0.5,0.5 0,0.275 -0.225,0.5 -0.5,0.5 -0.275,0 -0.5,-0.225 -0.5,-0.5 z m 2,0 c 0,-0.275 0.225,-0.5 0.5,-0.5 0.275,0 0.5,0.225 0.5,0.5 0,0.275 -0.225,0.5 -0.5,0.5 -0.275,0 -0.5,-0.225 -0.5,-0.5 z m 2,0 c 0,-0.275 0.225,-0.5 0.5,-0.5 0.275,0 0.5,0.225 0.5,0.5 0,0.275 -0.225,0.5 -0.5,0.5 -0.275,0 -0.5,-0.225 -0.5,-0.5 z m 2.647436,-0.480769 c 0.285577,-0.285577 1.944231,-0.519231 3.685897,-0.519231 l 3.166667,0 0.06135,-3.5 0.06135,-3.5000001 -0.924659,-1.23899 -0.92466,-1.238989 -0.817595,0.505301 -0.817594,0.505302 -0.506018,-0.818754 -0.506018,-0.818754 4.66487,0.07949 4.66487,0.07949 0.06336,5.4921811 0.06336,5.492182 -6.22721,0 -6.227211,0 0.519231,-0.519231 z m 10.876807,-5.1607641 0.07597,-4.458467 -2.256569,0 -2.256568,0 0.7902,1.05 0.7902,1.05 -0.149011,3.6344041 -0.14901,3.634403 1.539404,-0.225937 1.539405,-0.225936 0.07597,-4.4584671 z M 43.64732,13.831842 c -0.05893,-0.1375 -0.202059,-1.930625 -0.318054,-3.9847211 l -0.2109,-3.734722 0.540946,0.540947 c 0.573642,0.573642 0.955341,7.4284961 0.413642,7.4284961 -0.175164,0 -0.366699,-0.1125 -0.425634,-0.25 z m -39.8928443,-0.25 c 0,-0.275 0.225,-0.5 0.5,-0.5 0.275,0 0.5,0.225 0.5,0.5 0,0.275 -0.225,0.5 -0.5,0.5 -0.275,0 -0.5,-0.225 -0.5,-0.5 z m 1,-9.0000001 c 0,-0.275 0.225,-0.5 0.5,-0.5 0.275,0 0.5,0.225 0.5,0.5 0,0.275 -0.225,0.5 -0.5,0.5 -0.275,0 -0.5,-0.225 -0.5,-0.5 z m 9.9999993,0 c 0,-0.275 0.225,-0.5 0.5,-0.5 0.275,0 0.5,0.225 0.5,0.5 0,0.275 -0.225,0.5 -0.5,0.5 -0.275,0 -0.5,-0.225 -0.5,-0.5 z m 10,0 c 0,-0.275 0.225,-0.5 0.5,-0.5 0.275,0 0.5,0.225 0.5,0.5 0,0.275 -0.225,0.5 -0.5,0.5 -0.275,0 -0.5,-0.225 -0.5,-0.5 z m 2,0 c 0,-0.275 0.225,-0.5 0.5,-0.5 0.275,0 0.5,0.225 0.5,0.5 0,0.275 -0.225,0.5 -0.5,0.5 -0.275,0 -0.5,-0.225 -0.5,-0.5 z m 2,0 c 0,-0.275 0.225,-0.5 0.5,-0.5 0.275,0 0.5,0.225 0.5,0.5 0,0.275 -0.225,0.5 -0.5,0.5 -0.275,0 -0.5,-0.225 -0.5,-0.5 z m 2,0 c 0,-0.275 0.225,-0.5 0.5,-0.5 0.275,0 0.5,0.225 0.5,0.5 0,0.275 -0.225,0.5 -0.5,0.5 -0.275,0 -0.5,-0.225 -0.5,-0.5 z m 2,0 c 0,-0.275 0.225,-0.5 0.5,-0.5 0.275,0 0.5,0.225 0.5,0.5 0,0.275 -0.225,0.5 -0.5,0.5 -0.275,0 -0.5,-0.225 -0.5,-0.5 z m 2,0 c 0,-0.275 0.225,-0.5 0.5,-0.5 0.275,0 0.5,0.225 0.5,0.5 0,0.275 -0.225,0.5 -0.5,0.5 -0.275,0 -0.5,-0.225 -0.5,-0.5 z M 11.050392,12.762744 C 10.645204,12.113248 10.261363,10.644342 10.197414,9.4985079 l -0.116273,-2.083333 1.281111,0 1.281112,0 -0.194445,1.083333 -0.194444,1.083334 2.265393,-0.12101 2.265392,-0.12101 -1.006716,1.2130191 -1.006717,1.21302 0.741324,0.875023 c 0.407728,0.481262 -0.04618,0.272258 -1.008676,-0.464454 -0.9625,-0.736713 -1.75,-1.059377 -1.75,-0.717033 0,0.342345 0,0.959945 0,1.372445 0,0.893633 2.092131,1.098654 3.5,0.342986 0.55,-0.29521 1.54284,-0.619196 2.206312,-0.71997 l 1.206312,-0.183224 1.156995,1.394093 1.156995,1.394094 0.935251,-0.578017 0.935252,-0.578017 -1.161866,-1.399962 -1.161865,-1.399962 -0.817595,0.505301 -0.817594,0.505302 -0.790978,-1.266312 C 18.666656,10.151682 18.234578,9.0820169 18.141521,8.4711209 l -0.169195,-1.110722 1.641075,0.110722 1.641074,0.110721 0.25,-1 0.25,-1 -1.25,-0.06341 c -0.6875,-0.03487 -1.925,0.49556 -2.75,1.178741 -2.363456,1.957172 -2.678169,1.978938 -4.645012,0.321259 l -1.854988,-1.563406 -1.4999993,0.06341 -1.5,0.06341 -0.064866,1.5 c -0.035676,0.825 0.182433,1.95 0.4846873,2.5 0.3022542,0.5500001 0.6126939,1.7875001 0.6898659,2.7500001 0.077172,0.9625 0.1965628,2.001558 0.2653128,2.309017 l 0.125,0.559017 1.0163113,-0.628115 1.016312,-0.628116 -0.736707,-1.180901 z m 4.704083,-1.288552 c 0,-0.150874 0.418906,-0.533214 0.930902,-0.849645 l 0.930901,-0.575329 0.52511,0.849645 0.52511,0.849646 -1.456012,0 c -0.800806,0 -1.456011,-0.123443 -1.456011,-0.274317 z m -3,-2.8923501 c 0,-0.275 0.225,-0.5 0.5,-0.5 0.275,0 0.5,0.225 0.5,0.5 0,0.275 -0.225,0.5 -0.5,0.5 -0.275,0 -0.5,-0.225 -0.5,-0.5 z m 2,0 c 0,-0.275 0.225,-0.5 0.5,-0.5 0.275,0 0.5,0.225 0.5,0.5 0,0.275 -0.225,0.5 -0.5,0.5 -0.275,0 -0.5,-0.225 -0.5,-0.5 z m 2,0 c 0,-0.275 0.225,-0.5 0.5,-0.5 0.275,0 0.5,0.225 0.5,0.5 0,0.275 -0.225,0.5 -0.5,0.5 -0.275,0 -0.5,-0.225 -0.5,-0.5 z m 11.904508,4.0673711 1.404509,-0.876388 -0.659272,1.066724 -0.659271,1.066723 1.754763,-0.335704 c 0.96512,-0.184637 1.867263,-0.426384 2.004763,-0.537215 0.1375,-0.110831 1.689401,-0.257761 3.44867,-0.326511 l 3.198669,-0.125 0.140917,-2.6379731 0.140917,-2.637972 -1.089587,0.166093 c -0.599272,0.09135 -1.620992,0.498279 -2.270488,0.904284 l -1.180901,0.738192 -0.723607,-1.170821 -0.723607,-1.17082 1.309017,0.809017 1.309017,0.809017 -0.586679,-0.949267 -0.586679,-0.949266 -5.435768,0.06271 -5.435768,0.06271 -1.785756,1.482046 c -0.982166,0.815125 -1.941594,1.369546 -2.132062,1.232046 -0.190468,-0.1375 -0.233805,0.0875 -0.09631,0.5 0.1375,0.4125001 0.533919,0.6553601 0.880931,0.5396901 0.347012,-0.115671 1.38927,0.627644 2.316128,1.65181 l 1.685196,1.862121 1.183872,-0.179931 c 0.65113,-0.09896 1.815902,-0.574305 2.588381,-1.056319 z m 2.289068,-0.602644 0.306424,-1.373818 -1,-0.06077 c -0.55,-0.03342 -1.5625,-0.417931 -2.25,-0.8544691 l -1.25,-0.793704 -0.118421,0.809017 c -0.06513,0.4449591 -0.07909,1.1046511 -0.03101,1.4659821 l 0.08741,0.656964 -1.479111,-0.217087 c -0.813514,-0.119398 -2.014558,-0.752532 -2.668991,-1.406965 l -1.189877,-1.1898771 0.7,-0.125 c 0.385,-0.06875 1.6,-0.2375 2.7,-0.375 1.1,-0.1375 2.1125,-0.34068 2.25,-0.451512 0.1375,-0.110831 1.023545,-0.350215 1.968988,-0.531964 l 1.718988,-0.330453 -0.218988,1.11151 -0.218988,1.11151 1,0.06077 c 0.55,0.03342 1.45,0.308066 2,0.6103211 0.55,0.302254 1.675,0.499909 2.5,0.439232 l 1.5,-0.11032 -0.333333,-1.4545461 -0.333334,-1.454545 0.778945,0.778944 c 0.428419,0.428419 0.865507,1.368733 0.971305,2.0895871 l 0.192362,1.310642 -2.637973,-0.183254 -2.637972,-0.183255 -1.306424,1.012941 -1.306424,1.01294 0.306424,-1.373818 z m -5.796582,-1.79806 0.515029,-0.8333341 -1.412023,0 -1.412023,0 0.515029,0.8333341 c 0.283265,0.458333 0.686913,0.833333 0.896994,0.833333 0.210081,0 0.613729,-0.375 0.896994,-0.833333 z m 7.603006,0.333333 c 0,-0.275 -0.225,-0.5 -0.5,-0.5 -0.275,0 -0.5,0.225 -0.5,0.5 0,0.275 0.225,0.5 0.5,0.5 0.275,0 0.5,-0.225 0.5,-0.5 z m -3.5,-1.5000001 c -0.339919,-0.55 -0.843034,-1 -1.118034,-1 -0.275,0 -0.221885,0.45 0.118034,1 0.339919,0.55 0.843034,1.0000001 1.118034,1.0000001 0.275,0 0.221885,-0.4500001 -0.118034,-1.0000001 z m -9.5,0.5 c 0,-0.275 0.225,-0.5 0.5,-0.5 0.275,0 0.5,0.225 0.5,0.5 0,0.275 -0.225,0.5000001 -0.5,0.5000001 -0.275,0 -0.5,-0.2250001 -0.5,-0.5000001 z m 12,-2 c 0,-0.275 0.225,-0.5 0.5,-0.5 0.275,0 0.5,0.225 0.5,0.5 0,0.275 -0.225,0.5 -0.5,0.5 -0.275,0 -0.5,-0.225 -0.5,-0.5 z M 12.21177,11.15094 l 0.575329,-0.930901 -0.849645,-0.5251101 -0.849646,-0.52511 0,1.4560121 c 0,1.686167 0.315337,1.833491 1.123962,0.525109 z m 2.542705,-0.569098 c 0,-0.275 -0.225,-0.5 -0.5,-0.5 -0.275,0 -0.5,0.225 -0.5,0.5 0,0.275 0.225,0.5 0.5,0.5 0.275,0 0.5,-0.225 0.5,-0.5 z"
     inkscape:connector-curvature="0"
     inkscape:export-filename="/home/wendy/01_git/relearn/relearn.off-grid/Empty_grid2_mono_abstract_vector.svg.png"
     inkscape:export-xdpi="90"
     inkscape:export-ydpi="90"
     id="path3502" />
</svg>
