<?xml version="1.0" encoding="UTF-8" standalone="no"?>
<!-- Created with Inkscape (http://www.inkscape.org/) -->

<svg
   xmlns:dc="http://purl.org/dc/elements/1.1/"
   xmlns:cc="http://creativecommons.org/ns#"
   xmlns:rdf="http://www.w3.org/1999/02/22-rdf-syntax-ns#"
   xmlns:svg="http://www.w3.org/2000/svg"
   xmlns="http://www.w3.org/2000/svg"
   xmlns:sodipodi="http://sodipodi.sourceforge.net/DTD/sodipodi-0.dtd"
   xmlns:inkscape="http://www.inkscape.org/namespaces/inkscape"
   id="svg2"
   version="1.1"
   inkscape:version="0.48.3.1 r9886"
   width="45"
   height="62"
   sodipodi:docname="g6262.svg">
  <metadata
     id="metadata8">
    <rdf:RDF>
      <cc:Work
         rdf:about="">
        <dc:format>image/svg+xml</dc:format>
        <dc:type
           rdf:resource="http://purl.org/dc/dcmitype/StillImage" />
        <dc:title></dc:title>
      </cc:Work>
    </rdf:RDF>
  </metadata>
  <defs
     id="defs6" />
  <sodipodi:namedview
     pagecolor="#ffffff"
     bordercolor="#666666"
     borderopacity="1"
     objecttolerance="10"
     gridtolerance="10"
     guidetolerance="10"
     inkscape:pageopacity="0"
     inkscape:pageshadow="2"
     inkscape:window-width="1063"
     inkscape:window-height="566"
     id="namedview4"
     showgrid="false"
     inkscape:zoom="3.5582879"
     inkscape:cx="22.5"
     inkscape:cy="31"
     inkscape:window-x="0"
     inkscape:window-y="24"
     inkscape:window-maximized="0"
     inkscape:current-layer="svg2" />
  <path
     style="fill:none;stroke:#0000ff"
     d="m 5.0792515,62.028386 c 2.5686304,0.270558 0.4994646,-5.340137 3.9863398,-3.296428 1.9966097,0.607527 7.0073487,1.675034 6.7038907,-1.343256 -2.55231,-0.354885 -5.388027,1.808654 -7.7946618,-0.207606 -1.6221981,-0.194097 -2.345033,-3.740261 -0.3947486,-2.532803 2.3288642,3.04718 5.8936964,-0.07761 8.6661694,0.889241 1.424335,0.953967 3.494633,0.0234 1.475442,-1.419153 -2.927567,-2.283191 -6.730916,1.388688 -9.6412592,-0.807408 -1.7861856,-0.362721 -2.0407907,-4.282723 -0.068087,-2.161029 2.8885993,2.068751 6.3787843,-0.71379 9.2714253,0.738175 3.344551,0.09112 -1.049475,-3.809479 -2.733362,-2.611996 -2.689301,0.767612 -6.3519068,1.458407 -7.9547409,-1.5577 -0.6098355,-2.752735 3.2147459,0.752812 4.6245449,0.27675 2.210178,-0.06062 3.774074,-2.161221 5.853118,-0.225027 3.25279,0.960033 0.308234,-3.337512 -1.689257,-2.429456 -2.933142,0.226385 -6.5801094,1.632061 -8.665627,-1.359446 -1.0486336,-2.853715 2.8059708,0.02717 4.234985,-0.600277 3.316586,-1.021647 5.895295,2.933869 9.07366,1.331764 0.773962,-1.93841 -1.891046,-3.38901 -1.779651,-5.470384 -2.672325,0.923444 -5.445783,-5.268804 -2.202394,-5.06007 0.82298,1.729544 5.502428,2.94669 3.785461,-0.219842 -1.947088,-1.294727 -0.124213,-5.505264 -3.084763,-3.901462 -2.399512,-0.05772 -2.364666,-3.824146 -1.511769,-5.23605 1.285295,0.923293 3.982393,3.837986 5.155143,0.992026 -1.54094,-1.394794 -1.299949,-3.830278 -2.648311,-5.285037 -2.334765,2.641855 -4.672245,-5.322369 -1.538009,-4.263034 1.128874,2.694782 5.78175,1.047474 3.306826,-1.512893 -1.259579,-1.283574 -4.619908,-1.426375 -3.947473,-3.883881 1.363903,0.866966 4.082842,2.131345 3.079124,-0.596038 1.836822,-1.825795 0.745232,-3.9755646 0.494471,-5.9389116 0.860071,-4.14227389 8.04509,-1.2915039 4.558109,1.6565437 -2.080656,-0.4302742 -4.050619,0.843342 -1.572142,2.4382506 2.11543,0.2119884 4.127529,-3.351875 6.048759,-0.446483 2.132498,2.2790223 5.030012,1.5711344 6.573101,-0.7947966 2.65278,-0.1108254 5.126337,4.0207599 7.684095,0.8929135 1.0429,-1.374283 3.180694,-2.2696502 2.278636,0.4254655 -0.195925,2.6034199 -1.231871,6.0049699 -4.183195,6.5153969 -1.445106,0.09909 -5.343487,-3.135751 -4.999016,-0.04079 1.139966,2.835253 5.393823,4.605331 7.432198,1.66947 3.279717,-1.017264 2.478931,4.789105 0.555111,6.081219 -1.957993,2.432819 -6.326955,-0.405189 -7.65953,0.87608 0.708591,3.355237 5.32455,5.039165 7.326215,2.011638 1.516773,-0.283252 2.489746,2.138858 0.798763,2.647968 3.257424,0.999456 -1.441999,4.761409 -3.298937,4.878882 -1.589161,-0.06756 -5.387834,-3.069607 -4.76998,0.414564 1.855405,3.342115 6.462743,2.929766 8.6521,0.286976 1.417501,1.083143 -1.925071,3.017511 0.452632,4.050756 0.09776,3.102818 -4.686733,5.638106 -6.967441,2.828395 -1.628269,-2.807301 -7.024714,1.656724 -2.531269,2.296753 2.565415,1.956504 6.350453,3.132577 8.535254,0.06353 2.287872,-0.158356 -0.575306,2.7995 0.659816,4.154228 1.142402,3.36527 0.530079,6.856056 0.509103,10.318935 -0.151376,2.238494 0.793214,5.42452 -2.565183,4.657439 C 37.23699,62.437637 31.814861,62.125893 26.397724,62.351635 19.22985,62.407273 12.056963,62.4435 4.8951451,62.09481 l 0.1453917,-0.05242 c 9.87e-5,-3.5e-5 1.82e-4,-6.5e-5 2.348e-4,-8.5e-5 l 0.038477,-0.01387 c 0,0 2.9e-6,-4.4e-5 2.9e-6,-4.4e-5 z M 27.842426,61.067993 c -2.316302,-0.927586 0.330527,1.744697 0.08779,0.03593 l -0.08779,-0.03593 c 0,0 -5e-6,-2e-6 -5e-6,-2e-6 z M 22.707812,41.20084 c -2.352023,-2.239285 0.61842,5.573999 0.38552,1.409342 -0.105084,-0.475945 -0.251555,-0.941128 -0.38552,-1.409342 z m 5.801478,-6.081532 c 0.747616,2.587697 7.468137,1.769191 4.207278,-0.920219 -2.622204,-2.54003 -6.638085,-2.234672 -9.57708,-2.192705 -3.226927,-0.585467 0.418669,6.202937 2.141627,2.511746 0.95091,-0.796562 2.740659,-0.674109 3.228175,0.601178 z m 0,-9.000001 c 0.927973,2.646887 7.335703,1.596717 3.564055,-0.894406 -2.289481,-1.933479 -5.631447,-3.429999 -8.530904,-1.951116 -3.325155,-2.265477 -1.97214,4.956345 0.855774,2.957761 1.253037,-0.883667 3.077938,-1.957977 4.111075,-0.112239 z m 0,-8.999999 c 0.949953,2.679949 7.371236,1.553241 3.541006,-0.916158 -2.49095,-2.006339 -6.053306,-3.534646 -9.163566,-2.032556 -2.732525,1.769772 0.904544,5.124289 2.557367,2.276349 0.984065,-0.610634 2.711863,-0.759433 3.065193,0.672365 z M 0.6549265,59.310124 c 0.7441754,-2.838057 2.9085988,2.125761 0,0 z m 0,-4 c 0.7441754,-2.838057 2.9085988,2.125761 0,0 z m 0,-4 c 0.7441754,-2.838057 2.9085988,2.125761 0,0 z m 0,-4 c 0.7441754,-2.838057 2.9085988,2.125761 0,0 z m 8.5,-5.559017 c 0.3942988,-3.000131 3.4500775,2.158685 0.6011099,0.535819 l -0.3244039,-0.238188 -0.276706,-0.297631 0,0 z m -4.861626,-2.5 c 1.0325497,-3.697059 5.2306227,1.799614 0.4810213,1.335699 -0.8477132,0.09944 -1.2104733,-0.839705 -0.4810213,-1.335699 z m 4.871707,-1.483688 c 0.1776457,-2.681885 3.6408435,1.519257 0.6675317,0.509484 l -0.3736441,-0.197972 -0.2938876,-0.311512 0,0 z M 4.6549265,29.751107 C 5.2138649,26.597883 9.1024615,31.62507 5.6706536,30.695022 5.20358,30.60304 4.6805993,30.281975 4.6549265,29.751107 z m 4.510081,-0.983688 c 0.1776457,-2.681885 3.6408435,1.519257 0.6675317,0.509484 l -0.373488,-0.198042 -0.2940437,-0.311442 0,0 z m -4.510081,-1.898278 c -0.3778363,-2.632535 3.7163664,0.229335 0.7276501,0.525023 -0.3168135,0.09827 -0.8389082,-0.115135 -0.7276501,-0.525023 z m -0.5,-6.118035 c 0.6742927,-3.14598 5.0378768,1.6522 1.2539871,0.985985 -0.5460597,0.03858 -1.5816957,-0.217531 -1.2539871,-0.985985 z m 4.5,-1 c 0.9319687,-2.950307 3.5218445,2.30836 0.5323851,0.891406 C 8.8642227,20.472703 8.6280049,20.119183 8.6549265,19.751106 z m -4.018999,-2.477107 c 2.0092277,-2.92367 1.3569938,3.258821 -0.5410464,0.550333 l 0.2086529,-0.340766 0.3323935,-0.209567 0,0 z m -0.481001,-5.522892 c 0.6749542,-3.1454319 5.037786,1.651243 1.2540227,0.987814 -0.5479417,0.03937 -1.5705317,-0.222752 -1.2540227,-0.987814 z m 5,-1 c 0.5025113,-2.2340374 1.7932315,2.417644 0.09295,0.131528 l -0.089197,-0.126218 -2.61e-5,-3.7e-5 -0.00373,-0.0053 3e-6,2.7e-5 z M 4.6359275,8.2739986 C 6.7091465,5.3691162 5.8844113,11.534494 4.0795772,8.822493 L 4.3019284,8.4811105 4.6359275,8.2739986 z M 28.919212,5.615392 C 27.954308,1.6558521 33.304312,1.6046444 35.924444,1.7793358 38.428833,0.45532785 43.73622,1.128528 41.815969,4.9778365 39.94554,7.3279007 36.792941,5.145799 35.240447,4.1072588 33.123465,4.8284075 31.018943,8.9740891 28.919212,5.615392 z M 4.6549265,2.751106 c 1.2963824,-3.07113269 2.2514005,3.7223695 0,0 z m 8.9999995,0 C 13.325822,-0.02749839 17.95502,4.6610887 14.462591,3.2228253 14.186801,3.0770784 13.920796,2.9139329 13.654926,2.751106 z m 29.500001,0 c 0.502514,-2.23403716 1.793231,2.4176449 0.09295,0.1315277 l -0.0892,-0.1262193 -2.5e-5,-3.53e-5 -0.0037,-0.00527 -3e-5,-3.1e-6 z"
     id="path3015"
     inkscape:connector-curvature="0" />
</svg>
