<?xml version="1.0" encoding="UTF-8" standalone="no"?>
<!-- Created with Inkscape (http://www.inkscape.org/) -->

<svg
   xmlns:dc="http://purl.org/dc/elements/1.1/"
   xmlns:cc="http://creativecommons.org/ns#"
   xmlns:rdf="http://www.w3.org/1999/02/22-rdf-syntax-ns#"
   xmlns:svg="http://www.w3.org/2000/svg"
   xmlns="http://www.w3.org/2000/svg"
   xmlns:sodipodi="http://sodipodi.sourceforge.net/DTD/sodipodi-0.dtd"
   xmlns:inkscape="http://www.inkscape.org/namespaces/inkscape"
   width="744.09448"
   height="1052.3622"
   id="svg2"
   version="1.1"
   inkscape:version="0.48.4 r9939"
   sodipodi:docname="allplottertest.svg"
   style="display:inline">
  <sodipodi:namedview
     id="base"
     pagecolor="#ffffff"
     bordercolor="#666666"
     borderopacity="1.0"
     inkscape:pageopacity="0.0"
     inkscape:pageshadow="2"
     inkscape:zoom="1.03"
     inkscape:cx="368.79731"
     inkscape:cy="830.82885"
     inkscape:document-units="mm"
     inkscape:current-layer="layer5"
     showgrid="true"
     units="mm"
     showguides="false"
     inkscape:window-width="1301"
     inkscape:window-height="744"
     inkscape:window-x="65"
     inkscape:window-y="24"
     inkscape:window-maximized="1"
     fit-margin-top="0"
     fit-margin-left="0"
     fit-margin-right="0"
     fit-margin-bottom="0">
    <inkscape:grid
       spacingy="1mm"
       spacingx="1mm"
       units="mm"
       snapvisiblegridlinesonly="true"
       enabled="true"
       visible="true"
       empspacing="5"
       id="grid3001"
       type="xygrid" />
  </sodipodi:namedview>
  <defs
     id="defs4">
    <marker
       inkscape:stockid="Arrow1Lstart"
       style="overflow:visible"
       refY="0"
       refX="0"
       orient="auto"
       id="Arrow1Lstart">
      <path
         inkscape:connector-curvature="0"
         id="path3969"
         style="fill-rule:evenodd;stroke:#000000;stroke-width:1pt;marker-start:none"
         transform="matrix(0.8,0,0,0.8,10,0)"
         d="M 0,0 5,-5 -12.5,0 5,5 0,0 z" />
    </marker>
    <marker
       inkscape:stockid="Arrow1Lend"
       style="overflow:visible"
       refY="0"
       refX="0"
       orient="auto"
       id="Arrow1Lend">
      <path
         inkscape:connector-curvature="0"
         id="path3972"
         style="fill-rule:evenodd;stroke:#000000;stroke-width:1pt;marker-start:none"
         transform="matrix(-0.8,0,0,-0.8,-10,0)"
         d="M 0,0 5,-5 -12.5,0 5,5 0,0 z" />
    </marker>
    <marker
       id="marker4651"
       orient="auto"
       refX="0"
       refY="0"
       style="overflow:visible"
       inkscape:stockid="Arrow1Lstart">
      <path
         inkscape:connector-curvature="0"
         d="M 0,0 5,-5 -12.5,0 5,5 0,0 z"
         transform="matrix(0.8,0,0,0.8,10,0)"
         style="fill-rule:evenodd;stroke:#000000;stroke-width:1pt;marker-start:none"
         id="path4653" />
    </marker>
    <marker
       id="marker4655"
       orient="auto"
       refX="0"
       refY="0"
       style="overflow:visible"
       inkscape:stockid="Arrow1Lend">
      <path
         inkscape:connector-curvature="0"
         d="M 0,0 5,-5 -12.5,0 5,5 0,0 z"
         transform="matrix(-0.8,0,0,-0.8,-10,0)"
         style="fill-rule:evenodd;stroke:#000000;stroke-width:1pt;marker-start:none"
         id="path4657" />
    </marker>
  </defs>
  <metadata
     id="metadata7">
    <rdf:RDF>
      <cc:Work
         rdf:about="">
        <dc:format>image/svg+xml</dc:format>
        <dc:type
           rdf:resource="http://purl.org/dc/dcmitype/StillImage" />
        <dc:title></dc:title>
        <cc:license
           rdf:resource="http://creativecommons.org/licenses/publicdomain/" />
        <dc:creator>
          <cc:Agent>
            <dc:title>Markus Schulz</dc:title>
          </cc:Agent>
        </dc:creator>
      </cc:Work>
      <cc:License
         rdf:about="http://creativecommons.org/licenses/publicdomain/">
        <cc:permits
           rdf:resource="http://creativecommons.org/ns#Reproduction" />
        <cc:permits
           rdf:resource="http://creativecommons.org/ns#Distribution" />
        <cc:permits
           rdf:resource="http://creativecommons.org/ns#DerivativeWorks" />
      </cc:License>
    </rdf:RDF>
  </metadata>
  <g
     sodipodi:insensitive="true"
     style="display:inline"
     transform="translate(0.34375,-0.35648928)"
     id="layer1"
     inkscape:groupmode="layer"
     inkscape:label="RegMarks">
    <path
       sodipodi:nodetypes="cc"
       inkscape:connector-curvature="0"
       id="path3005"
       d="m 52.805856,1017.3959 70.866144,0"
       style="fill:none;stroke:#000000;stroke-width:1.77165353;stroke-linecap:butt;stroke-linejoin:miter;stroke-miterlimit:4;stroke-opacity:1;stroke-dasharray:none" />
    <path
       sodipodi:nodetypes="cc"
       inkscape:connector-curvature="0"
       id="path3005-3"
       d="m 52.805856,946.52976 0,70.86614"
       style="fill:none;stroke:#000000;stroke-width:1.77165353;stroke-linecap:butt;stroke-linejoin:miter;stroke-miterlimit:4;stroke-opacity:1;stroke-dasharray:none" />
    <path
       inkscape:connector-curvature="0"
       id="path3005-2"
       d="m 690.08145,1017.3959 -70.62992,0"
       style="fill:none;stroke:#000000;stroke-width:1.77165353;stroke-linecap:butt;stroke-linejoin:miter;stroke-miterlimit:4;stroke-opacity:1;stroke-dasharray:none" />
    <path
       inkscape:connector-curvature="0"
       id="path3005-3-3"
       d="m 690.31767,946.52976 0,70.86614"
       style="fill:none;stroke:#000000;stroke-width:1.77165353;stroke-linecap:butt;stroke-linejoin:miter;stroke-miterlimit:4;stroke-opacity:1;stroke-dasharray:none" />
    <path
       inkscape:connector-curvature="0"
       id="path3867"
       d="m 52.805856,166.8919 0,-70.866141 70.866144,0"
       style="fill:none;stroke:#000000;stroke-width:1.77165353;stroke-linecap:butt;stroke-linejoin:miter;stroke-miterlimit:4;stroke-opacity:1;stroke-dasharray:none" />
    <path
       transform="translate(-0.34375,62.718738)"
       inkscape:connector-curvature="0"
       id="path4780"
       d="m 566.92913,936.85039 0,35.43307"
       style="fill:none;stroke:#000000;stroke-width:1px;stroke-linecap:butt;stroke-linejoin:miter;stroke-opacity:1" />
    <path
       transform="translate(-0.34375,62.718738)"
       inkscape:connector-curvature="0"
       id="path4782"
       d="M 584.64567,954.56693 566.92913,972.28346 549.2126,954.56693"
       style="fill:none;stroke:#000000;stroke-width:1px;stroke-linecap:butt;stroke-linejoin:miter;stroke-opacity:1" />
    <path
       transform="translate(-0.34375,62.718738)"
       inkscape:connector-curvature="0"
       id="path4784"
       d="m 177.16535,936.85039 0,35.43307 17.71654,-17.71653"
       style="fill:none;stroke:#000000;stroke-width:1px;stroke-linecap:butt;stroke-linejoin:miter;stroke-opacity:1" />
    <path
       transform="translate(-0.34375,62.718738)"
       inkscape:connector-curvature="0"
       id="path4786"
       d="M 177.16535,972.28346 159.44882,954.56693"
       style="fill:none;stroke:#000000;stroke-width:1px;stroke-linecap:butt;stroke-linejoin:miter;stroke-opacity:1" />
    <path
       transform="matrix(0.7570818,0,0,0.75708471,43.235358,291.4589)"
       sodipodi:open="true"
       sodipodi:end="8.2662751"
       sodipodi:start="1.9979057"
       d="m 93.771486,882.90503 c -4.452798,-2.02659 -6.419629,-7.27917 -4.39304,-11.73196 2.026588,-4.4528 7.279168,-6.41963 11.731964,-4.39304 4.4528,2.02658 6.41963,7.27916 4.39304,11.73196 -2.00539,4.40622 -7.176667,6.38641 -11.612113,4.44652"
       sodipodi:ry="8.8582678"
       sodipodi:rx="8.8582678"
       sodipodi:cy="874.84253"
       sodipodi:cx="97.440948"
       id="path3222"
       style="fill:#000000;fill-opacity:1;stroke:#000000;stroke-width:1;stroke-linecap:butt;stroke-linejoin:miter;stroke-miterlimit:4;stroke-opacity:1;stroke-dasharray:none;stroke-dashoffset:0;display:inline"
       sodipodi:type="arc" />
  </g>
  <g
     transform="translate(0,62.362249)"
     style="display:inline"
     inkscape:label="Print"
     id="layer4"
     inkscape:groupmode="layer" />
  <g
     transform="translate(0,62.362249)"
     style="display:inline"
     inkscape:label="Cut"
     id="layer5"
     inkscape:groupmode="layer">
    <path
       style="fill:none;stroke:#191c1a;stroke-width:1.39757335;stroke-miterlimit:4;stroke-dasharray:none"
       d="m 134.14518,109.1917 -2.32655,-20.148794 11.63272,10.074397 -9.30617,10.074397 c 13.23339,31.35824 37.63884,55.11031 48.79231,87.31143 5.56741,16.06866 -3.77832,48.6459 6.12113,60.52026 7.11458,8.53638 24.74281,3.34807 33.49528,3.67716 31.96905,1.19549 76.67595,10.77289 107.02108,-3.75104 -20.06413,-41.11361 -50.02306,-74.97702 -74.43781,-110.81836 -8.39651,-12.32434 -14.86895,-34.11526 -27.93018,-30.22318 l -6.97965,-20.148795 c 8.80599,-2.820831 14.67353,-0.685059 13.95929,13.432525 M 178.34954,99.117303 176.02298,122.62423 162.06372,95.759175 c 14.14074,-4.973395 30.5359,-4.197663 43.90423,4.949885 9.15729,6.26627 10.13908,19.66858 21.23904,18.55704 m 86.08217,-20.148797 -13.95927,3.358137 25.59199,43.65571 -11.63272,-47.013847 c 35.27043,-14.594441 51.4376,9.453147 74.44945,43.655717 13.91507,-20.15551 26.86695,-61.799696 43.08995,-26.84826 2.73602,5.89352 7.3705,12.37135 6.62832,20.132 -2.91747,30.47168 -43.20394,41.14046 -21.62989,77.15308 3.55264,5.93046 7.62875,11.3337 11.4629,16.87462 14.45017,-20.85737 44.0764,-49.5929 51.36779,-77.23704 4.45533,-16.90148 -17.31881,-46.86945 -28.10234,-43.65572 l -4.65309,-16.790652 -11.63273,3.358127 c 4.49954,11.028105 7.1774,17.714145 16.28582,16.790655 m -76.776,0 c 12.30975,-17.546231 18.66588,-25.038233 32.57163,-6.71626 m 41.87782,-16.790664 9.30619,10.074397 m 48.85745,3.358137 -9.30619,10.07439 -2.32654,-23.506924 20.9389,13.432534 c 0.80732,35.9488 30.05432,63.52578 46.53092,87.31142 12.47726,-23.38266 -26.79251,-84.54432 -44.20438,-90.669557 m 53.51055,73.878907 -34.89818,-77.237035 c 13.61262,-4.325269 21.20646,10.507595 30.24509,23.506925 22.75594,-32.728359 33.13234,-22.865528 60.49018,-16.79066 l 13.95927,36.93945 c 20.21536,-33.22536 19.22191,-62.2732 -13.95927,-36.93945 m 34.89818,-13.432534 2.32654,6.716269 M 115.53282,129.34049 c -3.87137,-6.61552 -8.96651,-13.72468 -8.22666,-23.29872 0.84221,-10.840047 8.77573,-12.277333 12.19341,-3.00553 7.35421,19.95403 -14.51065,36.93946 -11.5257,56.52745 1.831,12.01539 11.16043,21.97224 16.86512,30.22317 14.91781,21.576 36.22897,67.29697 58.16363,70.52078 M 120.1859,92.401048 l 9.30619,0 M 297.00335,199.86126 C 285.48695,164.21469 248.96716,141.0906 248.14589,99.117303 l 30.24509,43.655717 -11.63272,-47.013845 32.57163,6.716265 m 127.96,-10.074392 4.65309,0 m 65.14326,23.506922 c -10.04834,1.00744 -13.18453,-8.83189 -18.61236,-20.148795 l 13.95927,-3.358127 m -351.30834,10.074392 25.592,43.65571 c 3.10593,-17.66713 -17.18851,-37.12079 -4.65309,-50.371975 m 48.85745,0 9.30617,0 m 34.89819,6.716265 11.63273,-6.716265 m 216.36871,50.371975 -11.63273,-50.371975 6.97964,0 m 48.85745,0 9.30618,0 M 106.22664,152.84741 c -12.847174,-18.61076 -29.947282,-51.35591 0,-53.730107 m 37.22471,0 11.63273,0 m 174.4909,0 4.65309,16.790657 13.95927,-13.43252 m 111.67418,3.35813 9.30618,-6.716267 m 130.28654,0 c 4.69496,11.347127 8.7036,9.261727 16.28581,3.358137 m 30.24509,-3.358137 4.6531,16.790657 m -451.3498,-13.43252 c 0.40482,17.96936 4.48326,29.89073 16.28582,36.93945 l 6.97964,-10.0744 m 16.28582,-26.86505 6.97963,0 m -114.00072,3.35813 -4.6531,6.71626 m 55.83709,-6.71626 13.95928,-3.35813 m 90.73526,3.35813 -4.65308,23.50692 m 62.81672,-23.50692 60.49017,94.02769 m 197.75635,-87.31143 -27.91853,50.37198 m -241.96072,-47.01384 -4.65309,16.79065 m 237.30762,-13.43252 -4.65308,20.14879 m -116.32727,-16.79066 -4.6531,6.71626 m -265.22617,-3.35813 -4.65308,6.71626 m 321.06325,-6.71626 -4.65308,6.71626 m 153.55198,6.71627 c -6.70743,34.49472 -38.57877,65.75894 -55.83709,90.66957 l -23.26544,-40.2976 M 213.24771,142.77302 185.32917,193.145 m 202.40944,-50.37198 20.93891,43.65571 m -130.28654,-40.29758 -4.65309,6.71626 m -107.02108,-3.35813 -4.65309,6.71626 m 162.85816,-6.71626 -27.91853,40.29758 m 130.28654,40.2976 c 0,52.4003 -13.54516,148.76525 16.2858,184.69725 M 585.49496,233.44259 c -22.07891,31.6672 -47.44291,23.8696 -76.77599,24.16848 -59.28502,0.59775 -120.00321,4.57713 -179.14399,-0.66156 m 241.96071,0 78.71401,114.17649 14.3478,47.01386 M 171.3699,260.30764 113.20628,344.26095 c -8.87577,12.84149 -18.642602,22.39202 -11.63272,40.29757 -8.096379,17.00224 -3.047771,24.74609 6.97962,36.93946 M 336.55461,260.30764 c 0,44.55235 -11.29537,123.79418 13.95927,154.47407 m 0,-154.47407 c 0,51.39622 -2.85233,99.44437 9.30619,147.75782 l -6.97963,-10.0744 m 25.59199,-137.68342 0.13727,107.46023 6.84237,40.29759 4.65309,-3.35814 m 6.97963,-144.39968 c 0,51.81263 -11.42333,123.30053 18.61237,157.83222 m -2.32654,-157.83222 c 0,42.61806 -10.10652,115.12012 11.63271,147.75782 l -2.32654,3.35813 -6.97963,-6.71627 m 27.91853,-144.39968 c 0,48.11869 -7.26812,107.98746 9.30619,151.11595 l 0,-6.71627 m 4.6531,-144.39968 c 0,58.82441 -10.87428,122.07481 23.26544,161.19034 m -6.97963,-161.19034 c 0,51.63464 -11.98404,134.8693 25.59199,164.54847 l -4.65308,-10.0744 m -4.65309,-154.47407 c 0,51.81263 -11.42334,123.30053 18.61236,157.83222 m -6.97963,-157.83222 0,100.74396 c 0,16.46157 -1.70536,31.53287 9.30617,40.29759 l 2.32655,-141.04155 m 20.93891,0 c 0,36.91596 0.49322,73.90913 0.0721,110.81836 -0.21637,18.90628 -8.28017,28.4333 2.25442,43.65571 m 13.9593,-154.47407 c 0,39.85096 9.483,111.36238 -6.97964,144.39968 l 11.63272,10.07439 -2.32654,3.35815 -4.65309,-3.35815 m 18.61236,-154.47407 -0.0441,107.46023 -4.60888,40.29759 M 178.34954,263.66579 c 0,40.62667 -7.67063,100.72045 4.65308,137.6834 23.60746,-29.90752 13.95928,-95.93512 13.95928,-137.6834 m 30.24509,0 c 0,49.35781 -3.98771,100.62977 6.97964,147.7578 16.73716,-33.57461 6.97963,-107.74231 6.97963,-147.7578 m 16.28582,0 c 0,35.43835 1.94033,72.15617 -0.13727,107.46021 -1.14001,19.39657 -11.13252,27.36877 0.13727,43.65571 -2.33585,6.40732 -8.3872,16.53209 0,10.0744 m 13.95927,-161.19032 c 0,59.99301 -1.77283,111.63437 13.95927,164.54845 m 2.32654,-164.54845 c 0,35.39134 -11.8328,129.88917 16.28582,144.39967 l 0,23.50692 m -2.32654,-167.90659 2.32654,134.32527 13.95927,-20.14879 27.91855,47.01384 -6.97963,-10.0744 m -20.93892,-151.11592 0,114.17648 M 162.06372,280.45644 c 0,42.84641 -7.11458,93.69524 13.95926,127.60902 l -2.32654,3.35813 -4.65309,-6.71627 M 583.16842,280.45644 c 0,36.73124 7.41703,92.76503 -6.97963,124.25088 l 9.30617,13.43254 c 14.04768,-36.04284 9.30619,-80.91756 9.30619,-120.89275 m 9.30617,13.43252 0,90.66956 c 13.2427,-12.3915 6.97964,-59.66729 6.97964,-80.59516 m -476.94178,0 c 0,42.16805 -4.42276,76.36055 23.26544,100.74395 l -2.32654,3.35813 -4.65309,-3.35813 m 472.2887,-83.9533 c 0,24.10467 -5.41387,59.46245 6.97963,77.23703 M 117.85936,344.26095 c 0,34.71636 -1.13303,51.17792 18.61236,73.87891 m 500.20725,-60.44639 0,50.37199 2.32654,-6.71627 M 94.593923,374.48414 c -12.016607,18.76188 -14.622337,37.49353 4.653085,47.01384 l -2.32654,3.35813 -4.65309,0 M 473.82079,377.84227 459.86152,397.99106 M 162.06372,381.2004 c -12.04685,21.32413 -0.61653,29.61201 11.63272,43.65571 M 378.43243,381.2004 c -10.12512,17.82161 -4.63448,24.73264 6.97964,36.93946 m -188.45017,-33.58134 0,20.1488 20.9389,23.50692 -4.65309,-26.86505 m 353.63489,-13.43253 6.97963,13.43253 m -469.96214,-10.0744 23.26544,30.22319 -6.97963,0 m 74.44945,-30.22319 0,10.0744 m 65.14327,-10.0744 4.6531,16.79067 -4.6531,-6.71627 m 120.98035,-10.0744 4.6531,10.0744 m 25.59199,-10.0744 2.32656,13.43253 m 125.63344,-13.43253 2.32654,10.0744 m 25.592,-6.71627 2.32655,13.43254 4.65308,-6.71627 m 20.93892,-6.71627 c 4.80664,6.41404 10.34615,17.0761 16.28581,10.0744 m 13.95928,-10.0744 6.97963,10.0744 m -325.71635,-6.71626 c 7.31234,10.08111 13.31948,15.62539 9.30619,30.22318 l -13.95927,-10.07438 m 148.8989,-20.1488 -4.65309,6.71626 m -260.57308,-3.35813 c 7.16576,11.50495 13.46837,21.06556 11.63273,36.93945 -3.83415,-5.54092 -9.91807,-11.20608 -4.65309,-16.79066 m 11.63272,-20.14879 0,3.35813 m 176.81744,-3.35813 2.32656,3.35813 m 127.95998,-3.35813 41.87782,53.73011 c 7.84976,-13.27806 9.66447,-22.54314 2.32654,-36.93944 m 23.26546,-3.35815 0,-13.43252 4.65309,6.71627 m -495.554134,0 2.326546,3.35813 m 116.327248,-3.35813 4.65309,23.50692 m 55.83709,-23.50692 9.30617,6.71625 -9.30617,10.0744 m 95.38835,-13.43252 13.95928,10.07439 -4.65309,0 m 18.61236,-13.43252 4.65309,20.14878 m 174.4909,-20.14878 4.65308,13.43252 m 25.59201,-13.43252 2.32654,10.0744 m 41.87782,-10.0744 4.65308,6.71625 -6.97963,-3.35812 m -216.36872,0 16.28582,10.07439 c 7.77067,19.70887 29.81469,34.63241 25.592,0 l 2.32655,-3.35812 2.32654,3.35812 -4.65309,6.71626 m 16.28582,-16.79065 4.6531,6.71627 m 123.30689,-6.71627 16.28582,10.07439 m -544.411584,-6.71627 2.326546,3.35815 m 93.061798,-3.35815 6.97963,6.71627 m 27.91854,-6.71627 4.65309,0 m 9.30619,0 2.32654,3.35815 m 11.63273,-3.35815 9.30617,10.0744 m 111.67418,-10.0744 4.65309,3.35815 m 30.24509,-3.35815 13.95927,13.43253 m 46.53092,-13.43253 6.97963,6.71627 m -244.28727,-3.35812 -4.65308,6.71625 m 20.93891,-6.71625 2.32655,10.07438 m 39.55126,-3.35813 6.97964,-3.35813 m 44.20436,-3.35812 2.32654,10.07438 m 23.26546,-10.07438 4.65309,6.71625 m 44.20436,-6.71625 11.63273,10.07438 m 32.57163,-10.07438 4.65309,6.71625 m 88.40872,-6.71625 4.65309,6.71625 m 41.87782,-6.71625 c 7.54034,10.26244 18.09587,24.68561 27.91854,13.43252 m -23.26546,-13.43252 2.32656,3.35812 m 27.91854,-3.35812 0,6.71625 -4.65309,0 m 16.28581,-6.71625 c 2.287,12.27395 -1.74025,18.09025 -9.30617,10.07438 m 29.47035,-6.71626 -0.77708,3.35813 0.77708,-3.35813 m -513.39178,0 4.65308,6.71626 m 46.53092,-6.71626 -4.6531,6.71626 m 232.65454,-6.71626 2.32654,13.43253 m 90.73527,-13.43253 4.65308,6.71626 m 88.40874,-6.71626 4.65308,6.71626 m -514.166492,-3.35813 9.306172,10.0744 m 6.97964,-10.0744 4.65308,6.71627 m 11.63273,0 4.65309,-6.71627 2.32654,3.35813 -2.32654,10.0744 2.32654,-3.35813 m 83.75562,-10.0744 18.61238,36.93945 m 51.18399,-36.93945 -2.32655,6.71627 m 58.16364,-6.71627 11.63273,13.43253 -20.93892,20.14879 -6.97963,-13.43253 c -3.58753,26.60648 12.03522,46.05342 -4.6531,63.80451 l 13.95929,20.14878 c 12.69595,-26.10276 35.99397,-27.54003 25.59199,-67.16263 m 11.63273,-36.93945 11.63272,10.0744 -4.65308,-3.35813 m 102.36798,-6.71627 2.32656,26.86505 2.32654,-6.71626 m 11.63273,-16.79066 6.97963,0 -9.30619,13.43254 m 79.10255,-16.79067 2.32655,20.14879 -9.30619,0 0,16.79066 -2.32654,3.35814 0,-6.71627 m 18.61236,-33.58132 2.32654,3.35813 m 65.14328,-3.35813 6.97963,16.79067 m -576.983218,-13.43254 4.65309,6.71627 m 69.796348,-6.71627 c 17.29087,17.95593 9.61794,27.31841 2.32654,50.37198 m 16.28582,-50.37198 2.32654,3.35814 m 18.61236,-3.35814 -4.65309,6.71627 m 76.776,-6.71627 2.32654,3.35814 m 46.53091,-3.35814 9.30618,16.79066 m 34.89818,-16.79066 4.65308,20.14879 4.6531,-6.71625 m 58.16364,-13.43254 c -3.66432,12.82135 -4.73221,20.0917 2.32654,30.22319 l -2.32654,-6.71627 m 25.592,-23.50692 0,13.43254 m 18.61236,-6.71627 4.65308,0 -6.97963,30.22319 11.63272,3.35813 m 65.14328,-40.29759 2.32654,13.43254 m -451.34977,-10.0744 44.20433,40.29757 -18.61236,26.86507 -18.61235,-23.50692 m 41.87781,-43.65572 2.32655,3.35813 m 9.30618,30.22319 c -1.3843,-12.20346 1.39128,-28.37287 11.63272,-26.86506 m 69.79636,-6.71626 6.97963,26.86505 -4.65308,-13.43253 m 44.20436,-13.43252 18.61237,13.43252 0,-10.07439 m 6.97963,-3.35813 4.65309,6.71626 m 16.28581,-6.71626 4.6531,16.79065 m 95.38835,-16.79065 4.65309,0 m 30.24509,0 4.6531,0 m 30.24509,36.93945 c -4.56468,-13.59037 2.71041,-5.35287 6.97963,0 l -2.32655,3.35812 -2.32654,0 4.65309,-40.29757 4.65308,13.43252 m 4.6531,-13.43252 -2.32654,6.71626 m 46.5309,-6.71626 6.97963,10.0744 M 80.634651,434.93051 c 4.220353,11.48481 7.72413,14.23512 16.285817,10.07439 l -2.326545,-6.71626 m 27.918527,-3.35813 0,10.07439 m 13.95927,-10.07439 9.30617,26.86505 m 60.49019,-20.14878 20.93891,3.35812 2.32654,-6.71626 0,0 m -13.95927,-3.35813 4.65308,6.71627 m 37.22474,-6.71627 9.30618,6.71627 m 139.59271,-6.71627 -6.97964,13.43252 18.61237,10.0744 -4.65308,-20.14879 m 9.30617,-3.35813 6.97964,10.07439 m 9.30618,-10.07439 -4.65309,13.43252 m 13.95927,-13.43252 -2.32654,33.58132 11.63273,10.07439 6.97963,-26.86506 m 41.87782,-16.79065 20.9389,20.14879 -6.97963,-6.71627 m 20.9389,-13.43252 2.32655,20.14879 c -6.66555,18.38913 -13.07286,33.48728 -6.97964,53.73011 -12.83322,5.54092 -19.10093,-6.03457 -30.24508,-13.43253 l 2.32654,13.43253 -11.63273,6.71626 c 4.91134,12.77097 13.42883,13.53662 11.63273,-3.35813 m 83.75562,-77.23703 -6.97963,13.43252 c 8.95488,12.64002 21.85557,28.69188 34.89819,26.86507 m 4.65309,-40.29759 -9.30619,13.43252 11.63273,16.79067 -2.32654,-10.0744 m 9.30617,-20.14879 23.26546,23.50692 -6.97963,-3.35813 m -449.02326,-16.79066 2.32655,0 m 67.46982,0 0,10.07439 m 6.97963,-10.07439 13.95927,30.22319 -4.65309,0 m 32.57164,-30.22319 -13.95928,20.14879 0,-10.0744 m 81.42909,-10.07439 -13.95927,16.79066 32.57163,30.22318 c -3.64104,10.61171 -7.85906,35.5156 -4.45998,47.01386 2.84769,9.64118 13.48931,18.29509 12.29811,29.82356 -2.9105,28.15457 -39.19298,27.94637 -19.47085,67.56225 -7.95911,15.97464 -7.95911,27.68108 0,43.65572 -7.67992,15.48435 -9.75986,63.42503 0,77.23703 l 2.32654,-30.22319 m -3.10127,-278.72493 -0.77708,3.35812 0.77708,-3.35812 m 51.95873,-3.35814 4.65309,6.71626 m 37.22473,-6.71626 -4.6531,6.71626 m -295.47126,-3.35812 -2.32654,13.43252 6.97964,23.50692 m 104.69454,-36.93944 6.97963,3.35812 m 116.32727,-3.35812 6.97964,3.35812 m 172.16435,-3.35812 2.32654,10.07438 2.32654,-13.43252 m 27.91855,3.35814 6.97964,3.35812 m 4.65309,-3.35812 9.30618,10.07438 m -507.18689,-6.71626 9.30619,10.0744 m 48.85745,-10.0744 9.30618,6.71626 m 95.38837,-6.71626 4.65308,6.71626 m 23.26545,-6.71626 2.32656,0 m 23.26544,0 2.32655,3.35813 m 246.6138,-3.35813 2.32655,3.35813 m -504.86033,0 6.97964,16.79067 -2.32654,3.35813 -2.32654,3.35812 m 4.65308,-23.50692 2.32654,0 m 58.16362,0 6.97964,0 m 23.26546,0 0,36.93945 -2.32655,-10.07438 m 34.89819,-26.86507 4.65308,0 m 30.24509,0 6.97964,3.35813 m 76.776,-3.35813 c -2.61969,12.04562 -5.7396,14.01014 -13.95928,10.0744 m 239.63417,-10.0744 2.32654,0 m 51.18401,0 -4.6531,20.1488 13.95927,16.79065 c -1.25634,-9.73523 -2.50104,-10.92063 -9.30617,-10.07438 m -556.044319,-23.50694 6.979635,36.93946 0,-13.43252 m 4.653092,-23.50694 6.97963,43.65572 6.979632,-16.79066 m 20.93889,-26.86506 2.32656,10.0744 m 93.06181,-10.0744 4.65309,13.43254 -13.95928,-10.0744 m 51.18401,-3.35814 11.63271,33.58132 -2.32654,3.35814 -4.65309,-6.71627 m 30.24509,-30.22319 2.32655,10.0744 m 44.20436,-10.0744 4.65308,6.71627 m 18.61236,-6.71627 2.32656,3.35814 m 13.95927,-3.35814 4.65309,6.71627 m 11.63273,-6.71627 -4.6531,13.43254 m 190.77672,-13.43254 -4.65309,13.43254 m -328.04289,-10.0744 0,23.50692 m 183.79708,-23.50692 4.65308,6.71626 -9.30617,-3.35813 m 55.83709,6.71627 c 3.87603,-8.03938 5.44412,-7.12596 11.63273,-3.35814 m 25.59199,-6.71626 9.30618,13.43253 -4.65308,-13.43253 m 74.44945,0 -6.97964,6.71626 m -414.12507,-3.35813 2.32654,3.35813 m 62.81672,-3.35813 4.6531,6.71627 m 23.26545,-6.71627 2.32655,3.35813 m 32.57163,-3.35813 11.63272,13.43252 m 11.63273,-13.43252 4.6531,13.43252 m 72.12291,-13.43252 0,13.43252 -4.6531,-6.71625 4.6531,-6.71627 m 53.51053,0 6.97964,6.71627 m 81.42908,13.43252 -6.97963,3.35813 16.28582,-20.14879 m -453.67632,10.07439 -9.30618,-6.71625 6.97962,0 m 60.49017,-3.35814 4.65309,6.71627 -4.65309,6.71627 -4.65309,-6.71627 m 13.95928,-6.71627 2.32654,26.86506 -2.32654,-10.0744 m 130.28654,-16.79066 4.65308,13.43254 m 67.46981,-13.43254 4.6531,10.07439 m 32.57163,-10.07439 6.97963,10.07439 0,6.71627 m 148.8989,-16.79066 9.30619,36.93946 2.32654,-13.43254 m 20.93892,-23.50692 0,3.35814 m -456.00289,0 c -1.7961,25.99529 10.07161,43.9613 27.91855,43.65571 l 4.65308,36.93945 6.97965,-23.50692 -9.30619,0 m -13.95927,-57.08824 4.65309,0 m 23.26545,0 9.30618,10.0744 m 23.26546,-10.0744 c 5.85824,5.56107 10.38569,3.90886 6.97964,13.43252 l 2.32654,3.35813 2.32655,-3.35813 m 4.65308,-13.43252 0,3.35813 m 13.95928,-3.35813 9.30618,6.71625 m -4.6531,-6.71625 4.6531,3.35813 m 90.73527,-3.35813 -4.65309,3.35813 m 76.77599,-3.35813 2.32655,13.43252 m 48.85744,-13.43252 0,3.35813 m 46.53091,-3.35813 -6.97963,20.14878 c 9.73194,7.54909 19.6849,6.58866 23.26545,23.50693 l -6.97964,3.35813 m 6.97964,-47.01384 9.30618,10.0744 m 23.26546,-10.0744 -6.97964,3.35813 m 90.73526,-3.35813 2.32655,13.43252 m -549.06468,-10.07439 4.65308,10.07439 m 20.9389,-10.07439 4.65309,10.07439 m 76.77599,-10.07439 0,6.71627 m 62.81674,-6.71627 2.32654,10.07439 m 6.97963,-10.07439 11.63273,6.71627 -6.97963,3.35812 m 83.75562,-10.07439 2.32656,6.71627 m 6.97963,-3.35815 11.63273,20.1488 m 0,-23.50692 0,10.07439 m 20.9389,-10.07439 -4.65309,6.71627 m 34.89818,-6.71627 0,3.35812 m 41.87782,-3.35812 c 0.5607,26.50237 -3.77832,37.82935 -16.28582,57.08824 -7.80323,-15.69256 -12.11199,-19.08762 -23.26546,-6.71627 -14.58279,-19.44358 -19.81053,-11.86764 -32.57163,6.71627 l 11.63273,20.14879 c 6.97498,-13.587 8.17083,-22.03607 2.32654,-36.93945 m 79.10254,-40.29758 4.6531,16.79065 m 72.12289,-16.79065 -4.65308,16.79065 m 67.46982,-16.79065 -2.32655,6.71627 m -572.330129,-3.35815 4.653091,6.71627 m 86.082158,-6.71627 4.65308,6.71627 m 95.38837,-6.71627 4.65308,6.71627 m 81.4291,-6.71627 4.65308,6.71627 m 53.51055,-6.71627 2.32654,3.35815 m 2.32655,-3.35815 0,6.71627 m 37.22473,-6.71627 11.63272,30.22319 m 41.87781,-30.22319 4.65309,6.71627 m 30.24509,-6.71627 0,6.71627 m 34.89819,-6.71627 -2.32655,10.0744 m -367.59416,-6.71625 -2.32654,3.35812 m 34.89817,-3.35812 2.32655,3.35812 -2.32655,13.43253 2.32655,0 2.32654,-3.35813 -4.65309,-13.43252 m 102.368,0 -6.97963,16.79065 m 151.22544,-16.79065 2.32654,13.43252 m 107.02109,-13.43252 -6.97965,16.79065 m 13.95929,-16.79065 2.32654,3.35812 m 6.97963,-3.35812 2.32655,3.35812 m 11.63272,-3.35812 c -7.06571,18.52008 -17.00937,22.56999 -6.97963,43.6557 l 2.32655,-26.86505 m 20.9389,-16.79065 -4.65309,6.71625 m -497.8807,-3.35813 4.6531,6.71626 m 67.46981,0 13.95927,3.35814 -4.65309,-10.0744 m 93.06181,0 2.32655,3.35813 m 48.85744,-3.35813 -2.32654,3.35813 m 116.32727,-3.35813 2.32654,3.35813 m -365.26761,6.71627 11.63273,3.35813 m 158.20508,-10.0744 c 0.44205,16.45149 -15.35752,78.02285 16.28581,57.08824 -7.21461,-19.1447 -7.41935,-32.86939 4.6531,-47.01384 l -9.30618,3.35813 m 6.97964,-10.0744 4.65308,6.71627 m 62.81673,-10.0744 -4.65309,10.0744 m 58.16363,-10.0744 4.65309,16.79067 m 20.9389,-16.79067 2.32656,3.35813 m 155.87853,0 4.65309,6.71627 m 27.91854,-6.71627 c 11.8933,17.95258 23.21195,33.73916 11.63273,57.08825 -20.70859,-16.64961 -37.77612,-4.13386 -53.51055,-36.93946 -19.18003,20.40401 -1.95196,37.13422 9.30619,57.08824 -17.56775,20.15551 -38.73233,76.39079 -23.26546,107.46023 l 0,-36.93945 M 89.940832,488.66062 l 4.653091,6.71626 m 88.408697,-6.71626 c 10.43921,9.62441 31.13848,28.52396 39.55128,10.0744 l 0,0 m -9.30619,-10.0744 6.97963,10.0744 m 30.24509,-6.71627 9.30619,3.35813 -20.9389,50.37198 c 10.47643,8.56994 14.26172,2.94507 20.9389,-10.0744 11.77,14.29557 15.34589,10.41357 23.26546,-6.71627 m -20.93892,-40.29757 -2.32654,3.35813 m 16.28581,-3.35813 9.30619,13.43252 m 120.98035,-13.43252 16.28582,13.43252 -2.32654,23.50693 m 134.93962,-36.93945 11.63273,0 c 4.89272,11.48481 7.43332,15.86381 16.28582,10.0744 m -332.69599,-6.71627 0,6.71627 m 32.57165,-6.71627 6.97963,0 m 25.592,0 9.30617,16.79066 m 48.85746,-16.79066 c 7.22393,15.42055 9.28292,43.04454 23.26545,43.65571 l 0,0 m 127.96,-43.65571 -4.65309,13.43252 m 74.44945,-13.43252 4.65309,10.07439 M 92.267378,495.37688 c -5.127706,10.66206 -6.135101,15.04107 -2.326546,26.86506 l 9.306176,-26.86506 m 88.408702,0 -6.97963,10.07439 m 48.85745,-10.07439 16.28582,13.43253 m 32.57163,-13.43253 c -9.40855,12.5292 -18.23313,20.70288 -18.61236,40.29758 m 88.40872,-40.29758 2.32654,6.71626 m 32.57165,3.35813 16.2858,-10.07439 m 97.71491,0 4.6531,0 m 53.51053,0 c -13.51257,44.39451 51.61906,61.00383 23.26546,13.43253 m 67.46981,-13.43253 c -4.08541,13.28477 -3.8481,18.61413 4.6531,26.86506 l 0,3.35813 0,3.35812 0,3.35815 m -553.717772,43.65571 -9.306182,13.43253 c -3.780635,-18.4563 -4.003984,-39.96513 2.326546,-57.08824 l 11.632728,16.79065 c -5.237056,11.63592 -6.53294,17.57982 -2.326552,30.22319 13.545142,-16.16941 15.371472,-67.53203 34.909802,-75.70236 5.62093,-2.3507 12.81694,7.15953 18.60073,8.53972 l -30.24509,70.52077 c 9.78545,-7.93191 12.0771,-15.58509 6.97964,-30.22319 m 130.28653,-53.7301 6.97964,10.07439 m 44.20436,-10.07439 2.32654,10.07439 -9.30618,3.35813 m 109.34764,-13.43252 -4.6531,6.71625 m 153.552,-6.71625 c 3.57356,8.8386 4.86014,9.5035 11.63271,6.71625 m 16.28582,-6.71625 4.6531,13.43252 m -467.63562,-10.0744 11.63273,40.29759 m 48.85745,-40.29759 13.95927,3.35813 m 88.40873,-3.35813 c 1.0167,21.28048 -10.14141,17.10297 -18.61236,6.71627 l 0,0 m 65.14326,-6.71627 6.97964,10.0744 m 262.89963,-6.71627 6.97963,-3.35813 m 16.28581,0 9.30619,6.71627 m -539.758502,-3.35814 11.632732,26.86507 m -6.97965,-26.86507 c 9.85292,2.32047 11.58154,7.44498 6.97965,20.1488 l 0,0 m 88.4087,-20.1488 -4.65309,13.43253 -2.32654,-10.07439 m 130.28653,-3.35814 -9.30618,6.71627 m 65.14327,-6.71627 c -17.77015,33.45708 23.9099,41.9733 0,70.52078 -4.34133,-14.13774 -1.6565,-21.58608 4.6531,-33.58132 m 27.91853,-36.93946 4.6531,6.71627 m 79.10254,-6.71627 4.65308,6.71627 m 18.61236,-6.71627 -6.97963,10.0744 m -355.96143,-6.71626 2.32654,0 m 51.18401,0 c -3.26415,21.70696 -13.82434,56.51735 -25.59201,70.52077 -5.06256,-14.99407 -3.31997,-28.36614 9.30619,-30.22319 m 167.51126,-40.29758 6.97963,10.07439 m 23.26546,-10.07439 9.30617,13.43253 m 255.92,-13.43253 -4.65309,10.07439 m -532.77888,-6.71626 6.97963,0 m 41.87782,0 0,16.79065 4.65309,0 4.65308,0 m 46.53092,-16.79065 4.65309,10.0744 9.30618,-10.0744 m 332.69598,0 -6.97963,10.0744 m -425.7578,-6.71627 4.65309,0 m 174.4909,0 -9.30619,23.50692 m 218.69527,-23.50692 9.30618,23.50692 4.65309,-23.50692 m 102.36799,0 -9.30618,23.50692 m -488.57452,-20.14879 -6.97963,6.71627 m 55.83709,-6.71627 4.65309,0 m 0,0 6.97963,10.07439 m 167.51127,6.71627 -13.95927,16.79066 c -5.61163,-16.01157 -0.0606,-23.85616 9.30617,-33.58132 m 255.91999,0 0,10.07439 m -532.778858,-6.71625 0,10.0744 m 137.266158,-10.0744 11.63273,26.86505 m 13.95927,-26.86505 4.65309,0 m 197.75634,0 c -3.08034,13.39559 -7.86138,31.54628 -13.75918,42.82289 -11.76069,22.48606 -35.23553,31.64704 -18.81245,64.63732 -12.88673,25.86097 2.53361,37.26184 2.17997,63.80451 -0.33734,25.2095 -14.24775,36.20402 -2.17997,60.44637 -12.86579,25.94493 -8.24062,68.84842 9.30619,83.9533 3.49912,-17.08281 8.70592,-97.78544 -6.97965,-94.0277 l 0,3.35814 -2.32654,3.35813 m -279.18544,-224.99483 4.6531,10.07439 m 272.2058,-10.07439 -11.63273,16.79066 m 34.89817,-16.79066 9.30619,0 m -286.16507,3.35812 c -9.79243,20.05141 6.95869,69.43946 16.28581,50.37199 m 44.20437,-50.37199 c -5.10444,14.23177 -5.03698,46.04336 0,60.44639 l 18.61236,-33.58132 m 95.38836,-26.86507 c -11.89098,11.74339 -25.45008,24.74944 -18.61237,47.01386 8.15921,-7.71363 11.21163,-17.47236 6.97964,-30.22319 m 11.63273,-16.79067 6.97963,6.71627 m 104.69454,60.44637 -2.32654,33.58132 c -17.1955,-34.54173 8.64312,-40.60653 18.89155,-64.20412 4.95321,-11.40757 3.46888,-24.68227 9.02699,-36.53984 l 23.26546,33.58132 9.30617,-26.86505 c 8.92696,13.29149 17.74456,24.61847 6.97963,40.29759 -5.34407,-17.41863 0.94227,-27.35535 9.30619,-40.29759 m 34.89819,-6.71627 -9.30619,43.65572 c -14.51764,-2.15928 -10.12047,-19.19172 0,-26.86505 m 62.81672,-16.79067 -13.95927,16.79067 m -104.69454,-13.43252 -6.97963,16.79065 m 20.9389,-16.79065 0,3.35812 m 107.02109,-3.35812 -4.65309,26.86504 m -493.22761,-23.50692 9.30619,13.43253 m 18.61236,-13.43253 6.97963,10.0744 m 20.9389,-10.0744 c -27.80686,65.42648 -20.9389,133.1197 -20.9389,208.20417 0,30.65975 -3.69223,67.98874 2.32654,97.38583 13.68707,-18.15071 4.46465,-47.1784 7.74275,-70.3898 2.98496,-21.13609 10.99293,-30.49184 6.21653,-53.86108 -7.71483,10.91728 -7.24254,20.19581 -2.32655,33.58132 m 34.89818,-214.92044 18.61237,33.58132 m 204.73599,-33.58132 -9.30619,20.1488 m 37.22472,-20.1488 13.95928,10.0744 m 69.79636,-10.0744 6.97963,10.0744 m -228.00144,-6.71627 6.97963,6.71627 m 209.38909,-6.71627 2.32654,43.65572 6.97964,-10.0744 m 88.40872,-33.58132 -2.32655,36.93946 6.97965,-6.71627 6.97963,16.79065 13.95927,-40.29757 c 9.53651,19.45366 -0.0908,58.86133 -0.32339,83.95329 -0.55605,60.32884 -0.10234,121.06737 1.27029,181.33912 0.38854,17.10968 -3.49679,33.51416 -0.9469,50.37198 l -13.95927,13.43253 c 6.8796,9.64791 14.34547,15.98471 11.63273,30.22319 l 9.30617,10.07439 -9.30617,0 M 217.9008,569.25578 c -16.78835,6.6894 -6.52363,-20.47789 2.32654,-26.86505 m 425.7578,0 -9.30617,20.14878 0,3.35814 0,3.35813 M 297.00335,545.74886 c -10.00414,23.58752 -2.32656,56.70206 -2.32656,83.95329 l 0,208.20418 16.28583,-43.65572 c -13.11009,-26.33446 6.06762,-47.60151 0,-77.23703 -9.38761,13.28478 -5.77682,25.13898 0,40.29759 m -9.30618,-211.56231 c 8.75245,23.67148 1.5518,43.04789 2.80115,67.16264 0.76312,14.66496 9.10145,24.86361 8.65011,40.29757 -0.74683,25.55875 -14.65026,35.3477 -2.14508,60.44638 m 41.87782,-167.90659 c -4.74384,12.90866 -4.74384,20.67266 0,33.58132 l 9.30617,-23.50692 m 46.53091,-10.0744 -4.65309,26.86505 m 39.55126,-23.50692 c -10.35312,1.53467 -11.31863,9.61433 -11.63271,23.50692 m 32.57163,-26.86505 -4.65309,26.86505 m 116.32727,-26.86505 -6.97964,30.22319 4.65308,3.35813 c 7.39842,-11.58891 11.77232,-18.49996 6.97965,-33.58132 m -479.26832,3.35813 4.65308,0 m 30.24508,0 c 5.74656,12.65008 11.01852,54.86179 8.57564,70.52076 -3.57124,22.90582 -12.7704,31.30451 -1.59601,53.73012 -7.56127,15.18882 -7.56127,25.10876 0,40.29758 -12.58195,25.25315 1.6821,34.82383 2.08691,60.44637 0.31409,19.72231 -9.01536,36.30141 -9.06654,57.08824 l 16.28582,10.0744 m 6.97964,-292.15747 9.30617,0 m 430.41089,0 -2.32655,23.50692 m -439.71707,6.71627 c -3.88533,-10.69229 -5.11606,-16.92835 0,-26.86506 m 79.10255,0 0,16.79066 m 27.91855,-16.79066 c -4.95322,58.56918 2.32654,127.92468 2.32654,188.05538 0,29.96798 -5.58371,72.10916 -0.60956,100.74396 2.86165,16.48171 38.57413,72.6196 51.19331,70.39652 5.07186,-0.89326 9.38295,-17.96601 12.23297,-23.38268 l 2.32654,3.35814 c -1.63323,15.09144 11.95379,35.0018 22.25341,20.58534 3.50146,-4.90286 -0.44669,-11.6225 -3.64105,-3.79469 l 2.32656,3.35813 m -74.44946,-359.3201 4.6531,33.58131 6.97963,-10.07438 m 197.75636,-23.50693 2.32654,23.50693 11.63273,-13.43254 m 144.2458,-10.07439 -4.65309,20.14879 M 255.12553,555.82326 c -5.06024,23.65803 -10.45084,56.26213 0,77.23703 -8.66406,17.469 -8.74083,63.03549 0,80.59516 -7.56127,15.18883 -7.56127,25.10875 0,40.29758 -12.65407,25.39756 2.31026,48.70299 2.32655,77.23703 l -32.57164,30.22319 c 19.45457,28.08069 31.74106,57.64233 60.49018,53.73011 l -55.83709,-83.9533 -13.95927,16.79067 c 5.40922,7.59609 6.99126,13.40565 11.63273,3.35812 M 557.57642,555.82326 c 4.18314,9.51694 3.23855,24.10467 11.63273,20.14879 M 334.22807,559.18138 c 3.2246,9.70501 3.69223,15.61196 -4.65309,13.43253 m 144.24581,-13.43253 6.97963,23.50693 6.97965,-10.0744 m -41.87782,-10.0744 4.65309,16.79067 m -204.73599,-13.43253 4.65308,6.71626 m 276.8589,-6.71626 4.6531,0 m -397.83925,3.35813 4.65308,6.71627 m 251.2669,-6.71627 4.65309,20.1488 m 23.26545,-20.1488 4.65309,20.1488 m 79.10255,-20.1488 c 1.23073,19.69881 -5.79311,42.30911 4.65309,57.08824 l 0,-33.58132 m 79.10253,-23.50692 2.32655,20.1488 m 25.592,-20.1488 c 1.48666,15.06122 7.70784,27.97659 6.71674,43.65572 -1.52855,24.12146 -13.67543,33.76265 -2.06365,57.08824 -7.56127,15.18882 -7.56127,25.10874 0,40.29757 -7.95911,15.97464 -7.95911,27.68109 0,43.65572 -7.56127,15.18884 -7.56127,25.10876 0,40.29758 l -16.28582,43.65572 -0.35363,-171.26472 -1.97291,-87.31143 m -488.5745,-6.71627 c 1.4122,12.43181 3.54332,15.62539 11.63271,10.0744 l 0,0 m 72.1229,-10.0744 c 1.36336,13.80193 7.51474,26.13634 7.06804,40.29759 -0.79568,25.18934 -14.51531,36.14021 -2.41495,60.44637 -7.56127,15.18882 -7.56127,25.10876 0,40.29758 -11.93053,23.96699 1.40756,32.63097 2.53128,57.08824 1.52389,33.2052 -17.48864,43.26617 2.12181,73.8789 -7.48915,9.35575 -13.29388,16.84439 -6.97963,30.22319 l 0,-6.71627 m 67.46982,-295.5156 -9.30619,13.43252 m 65.14327,-13.43252 -9.30618,13.43252 m 37.22472,-13.43252 2.29863,60.44638 0.0209,137.6834 4.66007,73.8789 0,-6.71626 m -2.32654,-265.29242 2.32654,3.35814 m 6.97964,-3.35814 4.65309,57.08824 0,-36.93945 m 9.30619,-20.14879 -9.30619,13.43252 m 148.8989,-13.43252 -9.30617,13.43252 m 120.98035,-13.43252 c -2.59875,7.73714 -3.3572,8.08302 2.32654,6.71627 m 27.91855,-6.71627 2.32654,3.35814 m -509.51342,0 -13.47767,33.58132 6.49803,60.44637 m 37.22473,-94.02769 -6.97964,13.43253 m 32.57163,-13.43253 c -9.47602,19.74917 -18.09587,31.39852 -6.97963,53.7301 m 11.63273,-53.7301 c -0.005,60.38257 0.91665,120.9599 -0.11627,181.33912 -0.46298,27.09341 -4.95322,66.99808 4.76943,90.66956 6.20257,-25.73002 17.03495,-64.27801 11.63272,-90.66956 -7.87768,11.13556 -5.71399,50.75815 7.90327,36.91929 7.45659,-7.5793 4.15987,-41.98 4.05284,-53.70996 -0.49322,-53.45809 -2.26139,-107.81954 -0.32338,-161.19032 m 83.75563,-3.35813 0,265.29241 c 15.26679,-6.80693 20.72021,-21.95546 16.28582,-43.65572 -6.75629,9.55389 -7.20531,17.2608 -4.65309,30.22319 M 378.4324,575.97205 c 0.80265,64.81865 -0.87013,129.85224 -0.0582,194.77164 0.29314,23.39946 -4.6973,57.07482 4.71125,77.23704 l 0,-6.71627 m 23.26545,-265.29241 0,258.57615 m 27.91855,-258.57615 2.32654,161.19032 m 6.97963,-161.19032 6.97965,13.43253 m 11.63271,-13.43253 c 0,53.63271 1.2354,107.59118 0.26757,161.19032 -0.49323,27.32177 -5.46972,68.16672 1.13534,94.02769 5.03465,19.70552 21.36002,36.88909 33.49528,47.01384 l 2.32654,-3.35812 -2.32654,-3.35813 -4.65309,26.86505 13.95928,-13.43253 2.32654,3.35813 6.97963,16.79067 2.32654,-3.35814 -2.32654,-3.35813 -9.30617,13.43252 9.30617,6.71627 -4.65309,-13.43252 m -39.5512,-329.09692 c 15.06904,34.57532 -1.07021,43.83368 0.47694,77.23702 0.73985,15.95785 10.01811,26.5091 8.47561,43.65572 -2.09156,23.23156 -13.27527,31.02914 -1.97291,53.73011 3.32231,-13.75491 4.39485,-28.77248 -2.32654,-40.29759 m 13.95927,-134.32526 -0.0652,184.69725 4.71824,80.59516 c 10.85799,-14.22505 16.06247,-21.98904 11.63273,-43.65572 -6.7563,9.55389 -7.20532,17.2608 -4.6531,30.22319 m 16.28581,-251.85988 c 0,68.29432 0.24895,136.53491 -0.51649,204.84604 -0.16984,15.07465 -4.03888,60.18108 7.49614,63.8045 l 2.32654,-3.35813 -2.32654,-3.35813 9.30617,20.14879 2.32654,-3.35814 -2.32654,-3.35813 -4.65309,26.86505 13.95928,-13.43252 2.32654,3.35813 c -1.60765,34.46786 27.7394,49.56939 46.5309,47.01385 l -54.78549,-87.31143 -9.48532,-57.08824 6.10718,-60.44638 c -8.59658,17.25408 -6.84004,29.06464 0,47.01386 m -6.97963,-181.33912 6.97963,13.43253 c -7.56127,15.18882 -7.56127,25.10874 0,40.29757 -7.56127,15.18884 -7.56127,25.10876 0,40.29759 l 0,-36.93945 m 11.63273,-57.08824 -0.11626,184.69725 4.76942,80.59516 2.32654,0 9.30619,-47.01385 c -13.7941,-27.68444 6.09787,-47.38323 0,-77.23703 -14.15703,20.03462 5.67676,47.26571 0,73.87891 m -6.97965,-214.92044 c 5.98156,10.77623 12.57732,16.99214 18.61236,3.35813 m 90.73528,-3.35813 0,188.05537 c 0,26.38485 4.11333,58.33747 -6.97964,80.59517 -12.47261,-20.43423 -18.97996,-10.18185 -32.57163,3.35814 11.32561,8.79159 17.99582,3.76781 27.91854,-6.71627 M 99.247008,579.33018 l 0,57.08824 c -10.464796,5.14801 -8.724539,19.98424 -11.632722,33.58132 l 0,-73.87891 c -8.329031,16.99216 -4.58562,25.86097 4.653092,40.29759 m 72.122882,-57.08824 c 15.43431,35.41485 -7.70319,64.53321 6.97964,94.02769 -7.56127,15.18882 -7.56127,25.10876 0,40.29758 m 162.85817,-130.96714 9.30618,0 m 137.26617,0 c -9.64586,16.46155 -11.23023,29.14187 -2.32654,47.01384 m 86.08218,-47.01384 c -9.64586,16.46155 -11.23024,29.14187 -2.32654,47.01384 -7.56128,15.18884 -7.56128,25.10876 0,40.29759 -7.95911,15.97463 -7.95911,27.68108 0,43.65571 m 60.49017,-130.96714 -6.97964,6.71627 m -488.57452,-3.35815 0,228.35298 c -11.69087,5.62487 -8.22433,23.61102 2.37076,30.05192 6.61901,4.02303 15.86005,-1.5716 23.22125,0.17126 m 76.77599,-258.57616 6.97964,0 m 297.7978,0 0,6.71627 m 95.38835,-6.71627 0,164.54847 -2.32654,87.31143 M 87.614286,589.40458 l 0,6.71625 M 227.20699,592.7627 c -10.28799,11.03483 -6.42127,27.40908 0,40.29759 -7.56127,15.18883 -7.56127,25.10875 0,40.29758 -7.56127,15.18882 -7.56127,25.10876 0,40.29758 -7.56127,15.18883 -7.56127,25.10875 0,40.29758 m 55.83709,-36.93945 0,36.93945 c -7.56127,-15.18883 -7.56127,-25.10875 0,-40.29758 -15.92055,-31.98285 0.85849,-87.41553 2.32654,-124.25087 l 6.97963,0 m 46.53092,3.35812 c -15.14581,16.24665 1.39824,37.50027 2.33119,57.08824 1.27728,26.74081 -15.55295,37.27191 -2.33119,63.80451 -7.56128,15.18883 -7.56128,25.10875 0,40.29758 l 0,-36.93945 m 248.94034,-127.609 c -5.75587,15.58843 -4.76244,26.06917 2.32654,40.29757 m 25.592,-40.29757 c -5.75587,15.58843 -4.76243,26.06917 2.32655,40.29757 m 20.93891,194.77166 c 0.40481,-18.40592 8.64079,-32.17091 9.05026,-50.37534 0.60024,-26.53597 -14.97597,-37.90324 -2.07063,-63.80116 -7.56127,-15.18883 -7.56127,-25.10875 0,-40.29757 -11.09297,-22.2812 1.26099,-53.87115 2.32654,-80.59516 l 6.97965,0 m -539.75851,6.71625 c -4.57631,4.90959 -7.08898,11.34713 -6.10951,20.15551 1.36569,12.28069 8.20572,20.52155 8.45001,33.5746 0.4909,26.19344 -14.75493,38.86702 -2.3405,63.80451 -12.58194,25.25315 1.68208,34.82383 2.08691,60.44637 0.4211,26.53261 -15.01318,37.86294 -2.08691,63.80451 l -9.30618,13.43252 9.30618,6.71627 -4.65308,-13.43253 M 169.04335,592.7627 c -5.75587,15.58846 -4.76243,26.06918 2.32655,40.29759 m 11.63272,-40.29759 c 0,61.55456 -0.30943,123.13598 -0.007,184.69725 0.0861,17.43543 -4.76011,50.80854 6.98662,60.44638 l 6.97964,-6.71627 m 86.08177,-164.54845 c 5.47202,-26.79455 -15.12721,-52.49097 0,-73.87891 m 281.51198,0 -2.32654,33.58132 m 11.63271,-33.58132 -0.32338,171.26472 -4.3297,77.23704 11.63273,10.07439 2.32654,-3.35812 -2.32654,-3.35814 c -5.15564,10.11134 -7.44029,16.02164 -2.32655,26.86506 l 0,-6.71627 m 67.46981,-235.06923 c -6.76327,-13.587 -8.77108,-24.52779 0,-36.93945 m -416.45161,3.35813 -2.32654,33.58132 m 30.24509,-33.58132 -2.32655,33.58132 m 58.16363,-33.58132 -8.82692,57.08824 6.50038,57.08824 m 30.24509,-114.17648 -8.82692,57.08824 6.50038,57.08824 m 58.16362,-114.17648 -2.32654,30.22319 m 30.24508,-30.22319 -2.32654,30.22319 m 114.00072,-30.22319 -2.32654,30.22319 M 117.85936,599.47897 c -0.0698,28.04711 -15.02713,48.39068 -2.32654,73.8789 m 479.26833,-73.8789 4.65309,0 m -507.186862,3.35813 4.65309,0 m 218.695242,0 4.65309,0 m 107.02109,0 4.65309,0 m -60.49018,3.35813 6.97963,0 m -174.4909,6.71627 4.6531,0 m 134.93962,0 4.65309,0 m 51.18399,6.71625 4.6531,0 m -32.57163,3.35814 4.65309,0 m 79.10253,0 4.6531,0 m -367.594142,3.35813 4.65309,0 m 269.879232,6.71627 c -4.61819,4.95324 -6.9424,11.33369 -6.50037,20.15551 0.68169,13.59706 8.68267,22.89909 8.83158,36.93273 0.25126,23.28528 -16.87211,39.88789 -2.33121,60.44637 l 0,-80.59516 m 83.75564,-36.93945 c -15.12022,16.21977 1.42384,37.46667 2.15438,57.08824 0.58397,15.70933 -6.94241,25.73335 -8.29414,40.29758 -1.37964,14.85638 8.24761,25.54867 8.56401,40.29758 0.35131,16.48507 -8.27551,27.97324 -8.93392,43.60534 -0.74915,17.76116 9.66678,29.64224 20.46894,23.5573 m 41.87782,-80.59516 0,36.93944 c -7.56127,-15.18882 -7.56127,-25.10874 0,-40.29758 -11.20465,-22.5062 -0.42343,-30.784 1.89381,-53.78048 2.27303,-22.54314 0.45832,-47.65189 0.43273,-70.4704 l 6.97963,0 m -9.30617,83.9533 c -7.95911,-15.97463 -7.95911,-27.68108 0,-43.65571 -6.76327,-13.587 -8.77108,-24.52781 0,-36.93945 m 88.40872,0 4.65309,0 m 48.85744,3.35813 6.97965,-3.35813 m -481.59489,6.71626 6.97964,-3.35813 m 46.53091,0 0,33.58132 m 141.91925,-33.58132 0,30.22319 m 27.91855,-30.22319 -2.32654,33.58132 m 30.24508,-33.58132 c -0.0163,28.53404 -14.98061,51.83947 -2.32654,77.23703 m 30.24509,-77.23703 c -0.0163,28.53404 -14.98062,51.83947 -2.32654,77.23703 m 30.24508,-77.23703 -4.65308,73.87889 m 88.40872,-73.87889 -2.32654,30.22319 m 58.16363,-30.22319 -2.32655,30.22319 m 30.24508,-30.22319 -2.32654,30.22319 M 101.57356,639.77655 c -11.460563,47.52764 -3.585203,124.1199 -2.326552,174.62286 -37.655131,17.79138 26.059622,89.26586 39.551252,104.10208 l -13.95927,-3.35813 9.30619,-13.43253 2.32654,3.35814 -2.32654,3.35812 -2.32655,-3.35812 m -11.63273,-265.29242 6.97963,0 m 46.53091,0 -2.32654,30.22319 m 30.24508,-30.22319 -2.32654,30.22319 m 58.16364,-30.22319 -2.32655,26.86506 m 255.91998,-26.86506 4.65309,0 m 79.10255,0 4.65309,0 m -451.34979,3.35814 4.65309,0 m 79.10253,0 4.6531,0 m -144.245792,3.35813 4.65309,0 m 246.613782,13.43252 4.65309,0 m 188.45017,6.71627 6.97964,0 m 48.85744,0 6.97965,0 m -511.839954,3.35813 0,40.29757 c -6.560857,-13.37543 -6.560857,-20.20587 0,-33.58132 m 446.696684,-3.35812 c -9.04328,9.70164 -7.06805,24.09795 -2.32654,36.93944 m 58.16362,-36.93944 c -9.75287,10.46394 -6.11183,24.66212 0,36.93944 -7.95911,15.97464 -7.95911,27.68109 0,43.65572 -15.75304,31.64368 12.49356,56.63825 -9.30617,90.66956 m -69.79637,-167.9066 4.65309,0 m 20.93891,0 0,30.22319 m 27.91855,-30.22319 -2.32654,33.58132 m 30.24507,-33.58132 -2.32654,30.22319 m 30.2451,-30.22319 -2.32655,30.22319 m 30.24508,-30.22319 -2.32654,30.22319 m -528.12578,-26.86505 -2.32654,30.22318 m 30.24507,-30.22318 -2.32654,30.22318 m 30.24509,-30.22318 -2.32654,30.22318 m 30.24508,-30.22318 -2.32654,30.22318 m 30.24509,-30.22318 -2.32654,30.22318 m 30.24509,-30.22318 -2.32655,30.22318 m 30.24509,-30.22318 -2.32654,30.22318 m 88.40872,-30.22318 4.65309,0 m 20.9389,0 -2.32654,26.86505 m -246.6138,-6.71625 4.65309,0 m 442.04361,0 4.65309,0 m -511.839954,10.07438 0,43.65572 c -7.100615,-14.31907 -7.100615,-22.62038 0,-36.93945 m 395.512684,0 4.6531,0 m 51.18399,0 4.65309,0 m 23.26545,0 4.65309,0 m 20.9389,0 -2.32654,33.58132 m 30.2451,-33.58132 -2.32655,33.58132 m 30.24508,-33.58132 c -0.0139,27.24117 -14.22216,49.98244 -2.32654,73.87891 m -528.12578,-70.52078 -4.65308,36.93946 m 32.57161,-36.93946 c -0.0139,27.24117 -14.22216,49.98243 -2.32654,73.8789 m 58.16363,-73.8789 c -0.0606,24.61511 -22.34413,73.16698 6.97965,77.23703 m 20.9389,-77.23703 -2.32654,30.22319 m 30.24509,-30.22319 -2.32655,30.22319 m 169.8378,-30.22319 0,16.79066 m 27.91855,-16.79066 c 0.8678,28.54412 -15.38079,47.67876 -2.32654,73.8789 m 58.16363,-73.8789 -2.32654,30.22319 m -414.125052,-26.86505 4.65309,0 m 358.287952,10.0744 6.97964,0 m 20.93891,10.07438 4.6531,0 m -144.24582,3.35814 4.65309,0 m 190.77672,0 4.65309,0 m -423.43125,3.35813 4.65309,0 m 160.53163,0 6.97963,0 m 20.93891,0 6.97964,0 m 158.20508,0 c -6.5027,17.06602 -8.15686,27.27139 0,43.65571 -6.6167,13.34186 -8.71524,24.78302 2.32654,33.58132 l -2.32654,-30.22319 m -390.859594,-43.65571 0,36.93946 c -5.911751,-12.39823 -5.911751,-17.82498 0,-30.22319 m 86.082154,-6.71627 6.97964,0 m 102.368,3.35814 c -14.73635,15.80672 0.56767,34.96486 1.938,53.7301 1.34708,18.43615 -8.84086,30.72355 -18.22382,40.29758 m 72.12291,-94.02768 c -9.75289,10.46393 -6.11184,24.66211 0,36.93944 m 20.9389,43.65572 c 15.62974,-18.99359 8.24062,-57.26287 9.30617,-83.9533 l 2.32656,0 4.65309,0 m 11.63272,87.31143 0.81429,-30.09222 8.49189,-57.21921 2.32654,0 4.6531,0 m -290.81815,3.35814 c -5.41155,14.73547 -4.35065,23.52371 2.32654,36.93944 m 244.28725,33.58132 6.97963,-33.58132 c -6.76326,-13.587 -8.77108,-24.53115 0,-36.93944 m 27.91855,36.93944 c -6.76326,-13.587 -8.77108,-24.53115 0,-36.93944 m -221.02181,3.35813 -4.65309,70.52076 m 88.40873,-70.52076 -9.30619,67.16263 m 37.22473,-67.16263 -4.65309,36.93944 m 32.57163,-36.93944 -2.32654,30.22319 m 30.24509,-30.22319 -2.32654,30.22319 m 86.08216,-30.22319 -2.32654,26.86505 m 58.16363,-26.86505 -2.32654,30.22319 m 58.16363,-30.22319 -9.30618,73.8789 m 65.14326,-73.8789 -4.65308,70.52076 m 32.57164,-70.52076 -2.32655,30.22319 m -162.85818,-26.86507 4.6531,0 m -367.594142,3.35815 4.65309,0 m 190.776692,0 4.65309,0 m 274.53235,0 4.65309,0 m -367.59416,3.35812 4.6531,0 m 302.45088,6.71626 4.65309,0 m -88.40871,3.35814 4.65309,0 m 51.18399,3.35813 4.6531,0 m -200.08291,6.71627 4.65309,0 m 216.36872,0 6.97963,0 m -428.084314,3.35812 -2.326544,36.93945 m 4.65309,-33.58132 6.979636,0 m 183.797062,0 c -4.74382,12.90866 -4.74382,20.67266 0,33.58132 m 281.51199,-33.58132 9.30617,0 m -453.67633,3.35814 0,10.07439 m 27.91853,-10.07439 0,30.22318 m 55.83709,-30.22318 -2.32654,26.86505 m 30.24509,-26.86505 0,30.22318 m 9.30619,-30.22318 4.65308,40.29758 m 69.79636,-40.29758 c -0.11403,13.97319 -0.3955,23.13081 -9.30618,30.22318 m 67.46982,-30.22318 4.65309,0 m 20.9389,0 -2.32654,30.22318 m 30.24508,-30.22318 0,26.86505 m 27.91855,-26.86505 9.30618,40.29758 m 102.368,-40.29758 -6.97964,30.22318 m 62.81673,-30.22318 -6.97964,26.86505 m 34.89817,-26.86505 0,26.86505 m -558.370848,-23.50692 0,6.71626 m 309.430498,3.35814 4.6531,0 m -302.45087,3.35813 c -2.461482,13.40567 -1.2261,24.00392 9.30618,16.79066 m 18.61235,-16.79066 c -2.07761,31.97613 33.43943,76.11878 53.51053,57.08824 l -23.26544,-33.58132 m 41.8778,-13.43253 6.97965,10.0744 m 132.61308,-10.0744 4.65309,13.43253 4.65308,3.35813 m 158.20509,-16.79066 9.30617,13.43253 m 11.63273,-13.43253 4.6531,0 m -397.83925,3.35813 -4.65309,6.71627 m 44.20435,-6.71627 41.87782,50.37199 2.32654,-3.35815 -2.32654,-3.35812 -4.65309,26.86505 13.95928,-13.43253 18.61236,33.58132 m -20.93891,-90.66956 2.32655,3.35814 m 55.83709,-3.35814 c 0.4909,9.71843 -3.79926,21.39131 -11.63273,16.79067 m 44.20436,-16.79067 c -3.75271,18.52681 -26.27834,22.4256 -16.28582,43.65572 l 0,-6.71627 M 417.9837,831.19006 c -8.3965,12.53255 -25.29885,24.48078 -16.28581,43.65572 l 0,-6.71627 m 69.79635,-36.93945 -4.65309,10.0744 m 16.28582,-10.0744 46.5309,63.80115 20.33867,20.41745 12.23298,-23.77222 2.32654,3.35813 -4.6531,0 m -58.16362,-63.80451 13.95926,16.79067 m 20.93891,-16.79067 -6.97964,10.0744 m 60.49018,-10.0744 4.6531,6.71627 -11.63273,10.0744 m 39.55127,-16.79067 -16.28581,26.86506 46.5309,60.44637 m -523.47269,-83.95329 -4.6531,6.71626 m 134.93963,-3.35813 -9.30619,3.35813 -2.32654,-3.35813 m 86.08218,-3.35813 c 15.50177,22.37523 48.67366,91.40498 72.1229,83.95329 l -11.63272,-10.0744 m 25.592,-73.87889 c 1.97291,18.44622 10.12977,27.91279 20.9389,36.93945 l 2.32654,-3.35814 -2.32654,-3.35813 -4.65309,26.86506 c 9.80639,-6.0077 24.39849,-12.99933 18.61236,-30.22319 l 0,13.43253 m -25.59199,-40.29758 -13.95927,20.14878 6.97963,3.35814 m 144.24581,-20.14879 -11.63273,6.71626 m 86.08218,-10.07439 11.63273,16.79065 m -428.08434,-13.43252 9.30619,10.0744 m 60.49016,-10.0744 c -1.03763,22.23754 19.93618,42.20835 30.24509,57.08824 m -23.26544,-57.08824 4.65308,6.71626 m 55.83709,-6.71626 13.95928,13.43252 2.32654,-3.35812 -13.95927,23.50692 m 86.08218,-33.58132 -27.91855,26.86505 11.63273,0 m 97.71491,-26.86505 13.95926,10.0744 m 55.83709,-10.0744 4.6531,20.14879 c 3.34324,-9.0636 5.40456,-12.64337 11.63272,-6.71627 M 101.57356,841.26446 c -6.046686,9.30874 -14.889891,22.09987 -2.326552,26.86505 m 76.775972,-26.86505 4.6531,6.71627 m 69.79635,-6.71627 -6.97963,10.07439 m 79.10254,-10.07439 c -1.08883,23.3323 21.90908,46.25155 34.89819,57.08824 l -4.65309,0 m -23.26546,-57.08824 9.30619,13.43252 -2.32656,-6.71625 m 9.30619,-6.71627 -6.97963,10.07439 m 51.18399,-10.07439 16.28581,10.07439 m 25.59201,-10.07439 4.65308,6.71627 m 46.53091,-6.71627 4.6531,6.71627 m 23.26544,-6.71627 c -6.32122,9.67478 -14.52462,21.00847 -2.32654,26.86505 m 44.20436,-26.86505 -4.65309,6.71627 m 88.40873,-6.71627 4.65308,6.71627 m 23.26545,-6.71627 -2.32654,3.35813 m -516.49307,0 -4.65308,6.71626 m 11.63273,-6.71626 9.30618,13.43253 -2.32654,-6.71627 m 4.65308,0 9.30618,-3.35812 m 37.22473,-3.35814 -4.65309,0 m 48.85745,0 9.30619,13.43253 -2.32656,-6.71627 m 46.53092,-6.71626 2.32654,6.71626 m 39.55126,-6.71626 -4.65308,6.71626 m 11.63273,-6.71626 9.30617,13.43253 m 0,-13.43253 -4.65309,6.71626 m 90.73527,-6.71626 6.97964,16.79066 -4.6531,0 m 4.6531,-16.79066 4.65309,13.43253 16.28581,-10.07439 m 58.16364,-3.35814 -4.65309,6.71626 m 27.91855,-6.71626 9.30617,13.43253 m 0,-13.43253 -4.65309,6.71626 m -435.06397,-3.35812 -9.30618,13.43252 c 9.02466,7.00842 13.97556,5.62151 23.26544,0 m 23.26546,-13.43252 4.65309,0 m 6.97964,0 9.30619,6.71625 m 195.4298,-6.71625 9.30618,6.71625 0,-6.71625 m 44.20436,0 2.32654,6.71625 m 34.89819,-6.71625 4.65308,0 m 6.97965,0 9.30617,6.71625 m 93.06181,-6.71625 9.30619,6.71625 m -500.207232,-3.35813 6.979632,0 m 27.91854,13.43253 -13.95928,13.43252 c -1.84262,-12.22694 -0.99808,-18.08689 6.97963,-23.50692 m 81.4291,-3.35813 9.30617,6.71627 m 81.42909,-6.71627 4.65309,0 m 23.26546,3.35813 4.65308,0 -2.32654,-3.35813 c -5.15562,10.11134 -7.4403,16.02165 -2.32654,26.86505 l 0,-6.71625 m 79.10253,-20.1488 6.97965,0 m 51.18399,0 4.65309,0 m 34.89818,0 4.65309,0 m 0,0 6.97963,0 m 0,0 9.30619,6.71627 0,-6.71627 m 93.06181,0 9.30618,6.71627 0,-6.71627 m 18.61236,13.43253 -13.95927,13.43252 c -1.84262,-12.22694 -0.99809,-18.08689 6.97964,-23.50692 m -553.717768,6.71627 2.326544,-6.71627 m 34.898164,0 0,6.71627 m 11.63273,-6.71627 4.65308,6.71627 m 11.63273,-3.35813 0,6.71626 4.65309,-6.71626 -6.97963,3.35813 m 39.55126,-6.71627 -9.30617,13.43253 2.32654,-10.07439 m 72.12291,0 4.65309,0 -9.30619,3.35813 m 90.73528,-6.71627 11.63271,6.71627 m 4.6531,-3.35813 0,6.71626 4.65309,-6.71626 -6.97963,3.35813 m 20.9389,-6.71627 c 16.25092,23.45656 35.80321,71.05471 60.49018,50.37199 l -34.89819,-50.37199 m -6.97963,0 -9.30617,13.43253 2.32654,-10.07439 m 44.20436,-3.35814 4.65309,0 m 16.28582,0 0,6.71627 -9.30619,3.35813 m 53.51055,-10.0744 -9.30619,13.43253 2.32656,-10.07439 m 48.85744,-3.35814 6.97964,0 m 0,0 9.30618,13.43253 -2.32654,-6.71626 m 9.30617,-3.35813 4.6531,0 -9.30619,3.35813 m 23.26546,-6.71627 48.85745,63.80451 m -30.24509,-63.80451 -9.30618,13.43253 2.32654,-10.07439 m 55.83709,-3.35814 6.97964,6.71627 m -539.7585,-3.35813 -9.30619,13.43253 2.32655,-10.0744 m 109.34762,-3.35813 -9.30618,13.43253 2.32655,-10.0744 m 20.9389,10.0744 16.28582,-6.71627 m 18.61237,-6.71626 9.30617,6.71626 m 11.63273,-8.39533 2.32654,-1.11825 -2.32654,1.11825 m 0,5.0372 c -8.0638,5.30249 -8.913,12.53255 0,16.79065 m 134.93963,-20.14878 -9.30619,13.43253 2.32656,-10.0744 m 55.83708,-3.35813 9.30618,13.43253 -2.32654,-6.71627 m 46.5309,-6.71626 -9.30618,13.43253 2.32654,-10.0744 m 109.34764,-3.35813 -9.30619,13.43253 2.32655,-10.0744 m -446.6967,20.1488 -13.95928,13.43252 c -2.73834,-18.36227 3.96212,-27.50646 16.28582,-30.22319 m 13.95927,-3.35813 2.32656,0 m 90.73526,0 4.65309,0 m 4.65309,0 2.32654,0 m 20.93891,-1.67907 2.32655,-1.11825 -2.32655,1.11825 m 0,5.0372 -9.30618,3.35813 m 41.87782,-6.71626 -9.30619,13.43253 2.32656,-10.0744 m 53.51053,-3.35813 2.32655,0 m 100.04145,0 2.32654,0 m 34.89819,0 6.97963,10.0744 m 58.16363,-10.0744 6.97963,-6.71627 m -4.65308,6.71627 9.30618,13.43253 -2.32654,-6.71627 m 27.91853,-6.71626 6.97964,10.0744 m -528.12577,-6.71627 2.32654,0 m 9.30617,0 -4.65309,6.71627 m 95.38836,-6.71627 6.97964,-6.71626 m -4.6531,6.71626 9.30619,13.43252 -2.32655,-6.71625 m 46.53091,-6.71627 -9.30619,13.43252 2.32656,-10.07439 m 44.20436,-3.35813 4.65308,0 m 4.65309,0 2.32655,0 m 51.184,3.35813 4.65309,-3.35813 m 44.20436,0 2.32654,0 m 58.16363,0 -2.32654,3.35813 m 23.26546,-3.35813 -4.6531,6.71627 m 25.592,-6.71627 2.32655,0 m 58.16363,0 -2.32654,3.35813 m 44.20436,-3.35813 2.32654,0 m -532.778857,3.35813 -9.306181,13.43254 c 12.45167,17.97272 21.031958,37.20473 39.551248,26.86504 m 18.61236,-40.29758 9.30619,13.43254 m 48.85744,-13.43254 -2.32654,3.35814 m 34.89819,-3.35814 4.65309,0 m 0,0 6.97963,0 m 0,0 c 4.84387,9.79231 6.3375,12.1766 13.95927,6.71627 l 0,0 m 88.40872,-6.71627 c 4.84387,9.79231 6.33751,12.1766 13.95927,6.71627 l 0,0 m 44.20436,-6.71627 -2.32654,3.35814 m 23.26546,-3.35814 -11.63273,13.43254 m 27.91853,-13.43254 6.97965,0 m 16.28581,3.35814 4.65309,0 -2.32654,-3.35814 -9.30618,13.43254 9.30618,6.71625 -4.65309,-13.43252 m 76.77599,-6.71627 0,6.71627 m 11.63273,-6.71627 4.65309,13.43254 13.95927,-13.43254 2.32654,3.35814 -4.65308,0 m 41.87781,-3.35814 -2.32654,3.35814 m 34.89818,-3.35814 0,6.71627 m 11.63273,-6.71627 4.65308,13.43254 2.32655,-6.71627 m -576.983218,0 4.65309,0 m 74.449428,-3.35813 6.97964,0 m 0,0 4.65308,6.71625 m 18.61237,13.43254 -2.32654,-16.79066 -2.32654,-3.35813 -4.6531,26.86505 13.95927,-13.43253 c 2.66622,25.1457 12.89372,26.29754 27.91855,23.50692 m 44.20436,-36.93944 2.32654,0 m 16.28582,3.35813 0,6.71627 4.65308,-6.71627 -6.97963,3.35812 m 44.20436,-6.71625 -2.32654,3.35813 m 44.20436,-3.35813 6.97963,-6.71627 m -4.65308,6.71627 4.65308,13.43252 13.95928,-13.43252 2.32654,3.35813 -4.65309,0 m 86.08218,-3.35813 9.30619,6.71625 0,-6.71625 m 41.8778,0 4.6531,0 m 62.81672,3.35813 4.65309,0 -9.30619,3.35812 m 39.55128,-6.71625 4.6531,0 m -523.47269,6.71625 4.65308,0 -9.30618,3.35815 m 39.55127,-6.71627 4.65309,0 m 34.89817,0 0,6.71627 m 11.63273,-6.71627 9.30619,13.43252 m 0,-13.43252 -4.6531,6.71627 m 46.5309,-6.71627 4.6531,0 m 23.26545,0 -11.63272,23.50692 6.97963,3.35813 m 27.91855,-26.86505 11.63272,6.71627 m 4.65309,-3.35815 0,6.71627 4.65309,-6.71627 -6.97963,3.35815 m 37.22473,-6.71627 4.65309,0 m 81.42908,0 c 11.76766,16.98542 25.81534,49.4955 44.20436,40.29758 l 4.6531,-20.14879 c 1.86355,17.56303 8.3616,27.50646 20.9389,23.50692 m -9.30619,-43.65571 6.97965,0 m 0,0 4.65308,13.43252 13.95928,-13.43252 2.32654,3.35812 -4.65309,0 m 34.89818,-3.35812 4.6531,0 m 18.61236,26.86505 -9.30619,-6.71626 18.61236,-13.43252 m 18.61237,-6.71627 9.30618,6.71627 m 6.97964,-3.35815 4.65308,0 -2.32654,-3.35812 -4.65309,26.86505 13.95928,-13.43253 2.32654,3.35814 -2.32654,3.35813 -2.32656,-3.35813 M 99.247008,905.06897 87.614286,898.3527 106.22664,884.92017 m 18.61235,-6.71627 9.30619,0 9.30617,6.71627 2.32654,-3.35812 -2.32654,-3.35815 -4.65309,26.86507 13.95928,-13.43253 2.32654,3.35813 c -0.87944,18.78539 9.41553,25.9147 20.9389,20.14879 l 4.6531,-20.14879 c 2.81744,26.56617 15.82749,28.28891 30.24509,16.79065 m 16.28582,-33.58132 4.65308,13.43254 13.95928,-13.43254 2.32654,3.35815 -4.65309,0 m 86.08218,-3.35815 4.65309,13.43254 13.95927,-13.43254 2.32654,3.35815 -4.65308,0 m 34.89817,-3.35815 4.6531,0 m 20.9389,26.86507 -11.63272,-6.71627 18.61237,-13.43253 m 6.97963,-6.71627 4.65308,0 m 0,0 6.97965,0 m 53.51053,0 -9.30617,13.43254 9.30617,10.07439 m 48.85746,-23.50693 4.65309,13.43254 13.95927,-13.43254 2.32654,3.35815 -4.65308,0 m 86.08218,-3.35815 4.65308,13.43254 13.95928,-13.43254 2.32654,3.35815 -4.65309,0 m -490.90106,0 -4.6531,6.71625 m 97.71491,-6.71625 9.30619,13.43252 m 44.20436,-13.43252 -9.30619,13.43252 2.32655,-10.0744 m 55.83709,-3.35812 4.65308,13.43252 13.95928,-13.43252 2.32654,3.35812 -4.65309,0 m 74.44945,-3.35812 4.65309,0 m 4.6531,0 2.32654,0 m 18.61236,13.43252 c -8.05915,6.92111 -3.82484,-6.69948 2.32654,-10.0744 m 13.95928,-3.35812 6.97964,10.07439 m 9.30617,-10.07439 4.65309,0 m 46.53092,0 9.30617,13.43252 m 44.20436,-13.43252 -9.30617,13.43252 2.32654,-10.0744 m -476.94179,0 -9.30618,13.43253 2.32654,-10.0744 m 53.51055,-3.35813 2.32654,0 m 34.89818,0 6.97964,10.0744 m 9.30617,-10.0744 4.6531,0 m 34.89818,0 4.65308,0 m 0,0 6.97965,0 m 0,0 c 4.84387,9.79232 6.3375,12.17659 13.95927,6.71627 l 0,0 m 37.22472,-6.71627 4.6531,0 m 46.5309,0 9.30618,6.71627 m 41.87781,-6.71627 4.65309,0 m 23.26546,0 -11.63273,13.43253 m 23.26546,-13.43253 0,6.71627 m 9.30617,-6.71627 2.32656,0 m 51.18399,0 4.65309,0 m 34.89818,0 4.65309,0 m 0,0 6.97963,0 m 0,0 c 4.84387,9.79232 6.33752,12.17659 13.95927,6.71627 l 0,0 m 37.22473,-6.71627 4.65309,0 m -551.391217,3.35813 4.653085,0 m 0,0 6.979632,0 m 0,0 c 4.84387,9.79231 6.3375,12.17659 13.95926,6.71627 l 0,0 m 76.776,-6.71627 0,6.71627 m 62.81672,-6.71627 4.6531,0 m 46.5309,0 9.30618,13.43253 m 41.87781,-13.43253 4.65309,0 m 34.89819,0 4.65308,0 m 0,0 6.97965,0 m 0,0 4.65308,13.43253 13.95928,-13.43253 2.32654,3.35814 -4.65309,0 m 74.44945,-3.35814 0,6.71627 m 11.63272,-6.71627 4.6531,13.43253 13.95927,-13.43253 2.32654,3.35814 -4.65308,0 m 34.89817,-3.35814 4.65309,0 m 44.20436,0 2.32655,0 m -530.452314,10.0744 -6.979635,-3.35813 6.979635,-3.35813 m 44.204344,0 2.32655,0 m 16.28581,6.71626 -6.97964,-6.71626 -2.32654,6.71626 -2.32655,0 m 30.24509,-6.71626 6.97963,10.07439 m 9.30619,-10.07439 4.6531,0 m 34.89817,0 0,6.71626 m 11.63273,-6.71626 9.30618,6.71626 m 6.97964,-3.35813 4.65309,0 -2.32655,-3.35813 c -5.15562,10.10797 -7.4403,16.02165 -2.32654,26.86505 l 0,-6.71627 m 34.89817,-20.14878 4.65309,0 m 34.89819,0 0,6.71626 m 11.63273,-6.71626 9.30617,6.71626 0,-6.71626 m 44.20436,0 -9.30617,13.43253 2.32654,-10.0744 m 107.02108,-3.35813 4.65309,0 m 97.71491,0 4.65309,0 m 46.5309,0 9.30619,6.71626 0,-6.71626 m -544.41159,3.35813 4.65308,0 m 46.5309,0 9.30618,6.71626 m 41.87781,-6.71626 4.65309,0 m 62.81673,3.35813 4.65309,0 -9.30619,13.43252 m 39.55128,-16.79065 4.65309,0 m 97.7149,0 4.65309,0 m 13.95927,13.43252 2.32655,13.43253 c -5.59999,-12.95232 2.72438,-21.0219 11.63273,-20.14879 m 6.97964,-6.71626 4.65308,0 m 0,0 6.97964,0 m 51.184,0 4.65309,0 m 62.81672,3.35813 4.65308,0 -9.30617,13.43252 m 39.55127,-16.79065 4.65309,0 m -523.47269,6.71626 0,6.71626 4.65309,-6.71626 -6.97962,3.35814 m 76.77598,-6.71627 0,6.71627 m 11.63273,-6.71627 9.30617,13.43252 -2.32654,-6.71625 m 9.30618,-3.35814 4.65309,0 -9.30619,3.35814 m 41.87782,-6.71627 -9.30617,13.43252 2.32654,-10.07439 m 72.12291,0 4.65308,0 -9.30618,3.35814 m 41.87782,-6.71627 -9.30619,13.43252 2.32656,-10.07439 m 53.51053,-3.35813 2.32655,0 m 16.28581,3.35813 0,6.71626 4.6531,-6.71626 -6.97964,3.35814 m 88.40872,-6.71627 9.30619,13.43252 m 0,-13.43252 -4.65309,6.71627 m 97.7149,-6.71627 9.30618,6.71627 m 6.97963,-3.35814 4.6531,0 -2.32655,-3.35813 c -4.52746,9.08375 -6.94939,13.48961 0,20.14879 l 0,-6.71627 m 34.89818,-13.43252 -9.30618,13.43252 2.32654,-10.07439 m -530.45232,0 4.65308,6.71626 m 48.85745,-6.71626 -9.30617,13.43253 2.32654,-10.07439 m 109.34763,-3.35814 -9.30619,13.43253 2.32656,-10.07439 m 30.24507,-3.35814 9.30619,16.79066 -16.28582,-3.35813 13.95928,-6.71627 m 120.98035,-6.71626 4.6531,6.71626 m 48.85745,-6.71626 -9.30619,13.43253 2.32655,-10.07439 m 55.83709,-3.35814 9.30618,6.71626 m 11.63272,-8.39532 2.32655,-1.11826 -2.32655,1.11826 m 0,5.0372 -6.97963,16.79065 4.65309,-3.35813 m 34.89818,-16.79066 -9.30618,13.43253 2.32654,-10.07439 m 55.83709,-3.35814 c 4.84387,9.79231 6.33751,12.1766 13.95927,6.71626 l 0,0 m -546.738127,-3.35812 -9.306181,13.43252 20.938898,0 m 37.22471,-13.43252 c 4.84387,9.79231 6.33752,12.17658 13.95927,6.71625 l 0,0 m 86.08218,-6.71625 2.32655,0 m 100.04145,0 2.32654,0 m 20.9389,-1.67907 2.32656,-1.11826 -2.32656,1.11826 m 0,5.03719 -9.30617,13.43253 2.32654,-10.0744 m 76.776,-6.71625 4.65308,0 m 0,0 6.97965,0 m 0,0 9.30618,6.71625 m 81.42908,-6.71625 4.65309,0 m 4.6531,0 2.32654,0 m 53.51055,0 -9.30619,13.43252 13.95927,0 m 41.87782,-13.43252 2.32655,0 m -570.003588,6.71625 4.65309,0 m 79.102518,-3.35813 2.32655,0 m 16.28581,3.35813 4.6531,0 -11.63273,3.35814 m 90.73527,-6.71627 2.32654,0 m 20.9389,3.35813 2.32656,-3.35813 m 27.91853,3.35813 4.6531,-3.35813 m 34.89818,0 4.65308,0 m 4.6531,0 6.97963,-6.71626 m -4.65308,6.71626 4.65308,6.71627 -11.63273,6.71626 m 107.0211,-13.43253 2.32654,0 m 16.28582,3.35813 4.65308,0 -9.30617,3.35814 m 41.87782,-6.71627 -11.63273,10.0744 m 58.16363,-10.0744 2.32655,0 m 13.95927,6.71627 6.97963,-3.35814 m 30.24509,-3.35813 4.6531,0 m -488.57452,3.35813 4.65309,0 m 104.69454,0 -2.32655,3.35814 m 34.89818,-3.35814 4.65308,0 m 16.28583,0 -6.97964,6.71627 m 153.552,-6.71627 -6.97964,3.35814 m 74.44945,-3.35814 2.32654,3.35814 m 30.24509,0 4.6531,-3.35814 m 34.89817,0 0,6.71627 m 9.30619,-6.71627 2.32654,0 m -486.24797,3.35814 2.32654,0 m 51.18399,0 4.6531,3.35813 m 39.55126,-3.35813 -11.63271,3.35813 m 11.63271,-3.35813 11.63273,-6.71627 m -4.65308,6.71627 9.30618,3.35813 m 39.55126,-3.35813 4.6531,6.71626 m 37.22472,-6.71626 -4.65309,6.71626 m 13.95928,-6.71626 6.97963,-6.71627 m -4.65309,6.71627 9.30619,3.35813 m 48.85744,-3.35813 -4.65308,0 m 46.5309,0 2.32655,0 m 53.51053,0 2.32656,3.35813 m 44.20436,-3.35813 2.32654,0 m 48.85745,0 4.65309,6.71626 m 37.22473,-6.71626 -4.65309,6.71626 m 16.28582,-6.71626 9.30617,3.35813 m -290.81816,0 2.32655,0 m 48.85744,0 6.97965,0 m 27.91853,0 6.97964,0 m 9.30619,0 6.97963,-6.71627 m 95.38835,6.71627 6.97964,-6.71627 m -444.37015,10.0744 2.32654,0 m 30.24509,0 4.6531,0 m 16.2858,0 2.32656,0 m 46.5309,0 2.32655,0 m 30.24509,0 4.65308,0 m 65.14328,0 2.32654,0 m 100.04145,0 2.32655,0 m 30.24508,0 4.65309,0 m 16.28582,0 2.32654,0 m 46.53092,0 2.32654,0 m 30.24509,0 4.65309,0 m 65.14326,0 2.32656,0"
       id="path4"
       inkscape:connector-curvature="0" />
  </g>
</svg>
