/* XPM */
static char * weeee[] = {
"85 105 5 1",
". 	c #330000", 
"o	c #cc0033",
"/	c #00FFFF",
"l      c #FF0033",
"n      c #33cccc",
".......//////.......//////.......//////.......//////.......//////.......//////.......",
"o.....////////.....////////.....////////.....////////.....////////.....////////.....o",
"oo...//////////...//////////...//////////...//////////...//////////...//////////...oo",
"ooo.////////////.////////////.////////////.////////////.////////////.////////////.ooo",
"oooollllllnnnnllllllnnnnllllllnnnnllllllnnnnllllllnnnnllllllnnnnllllllnnnnllllllooooo",
"oooollllllnnnnllllllnnnnllllllnnnnllllllnnnnllllllnnnnllllllnnnnllllllnnnnllllllooooo",
"oooollllllnnnnllllllnnnnllllllnnnnllllllnnnnllllllnnnnllllllnnnnllllllnnnnllllllooooo",
".......//////.......//////.......//////.......//////.......//////.......//////.......",
"o.....////////.....////////.....////////.....////////.....////////.....////////.....o",
"oo...//////////...//////////...//////////...//////////...//////////...//////////...oo",
"ooo.////////////.////////////.////////////.////////////.////////////.////////////.ooo",
"oooollllllnnnnllllllnnnnllllllnnnnllllllnnnnllllllnnnnllllllnnnnllllllnnnnllllllooooo",
"oooollllllnnnnllllllnnnnllllllnnnnllllllnnnnllllllnnnnllllllnnnnllllllnnnnllllllooooo",
"oooollllllnnnnllllllnnnnllllllnnnnllllllnnnnllllllnnnnllllllnnnnllllllnnnnllllllooooo",
".......//////.......//////.......//////.......//////.......//////.......//////.......",
"o.....////////.....////////.....////////.....////////.....////////.....////////.....o",
"oo...//////////...//////////...//////////...//////////...//////////...//////////...oo",
"ooo.////////////.////////////.////////////.////////////.////////////.////////////.ooo",
"oooollllllnnnnllllllnnnnllllllnnnnllllllnnnnllllllnnnnllllllnnnnllllllnnnnllllllooooo",
"oooollllllnnnnllllllnnnnllllllnnnnllllllnnnnllllllnnnnllllllnnnnllllllnnnnllllllooooo",
"oooollllllnnnnllllllnnnnllllllnnnnllllllnnnnllllllnnnnllllllnnnnllllllnnnnllllllooooo",
".......//////.......//////.......//////.......//////.......//////.......//////.......",
"o.....////////.....////////.....////////.....////////.....////////.....////////.....o",
"oo...//////////...//////////...//////////...//////////...//////////...//////////...oo",
"ooo.////////////.////////////.////////////.////////////.////////////.////////////.ooo",
"oooollllllnnnnllllllnnnnllllllnnnnllllllnnnnllllllnnnnllllllnnnnllllllnnnnllllllooooo",
"oooollllllnnnnllllllnnnnllllllnnnnllllllnnnnllllllnnnnllllllnnnnllllllnnnnllllllooooo",
"oooollllllnnnnllllllnnnnllllllnnnnllllllnnnnllllllnnnnllllllnnnnllllllnnnnllllllooooo",
".......//////.......//////.......//////.......//////.......//////.......//////.......",
"o.....////////.....////////.....////////.....////////.....////////.....////////.....o",
"oo...//////////...//////////...//////////...//////////...//////////...//////////...oo",
"ooo.////////////.////////////.////////////.////////////.////////////.////////////.ooo",
"oooollllllnnnnllllllnnnnllllllnnnnllllllnnnnllllllnnnnllllllnnnnllllllnnnnllllllooooo",
"oooollllllnnnnllllllnnnnllllllnnnnllllllnnnnllllllnnnnllllllnnnnllllllnnnnllllllooooo",
"oooollllllnnnnllllllnnnnllllllnnnnllllllnnnnllllllnnnnllllllnnnnllllllnnnnllllllooooo",
".......//////.......//////.......//////.......//////.......//////.......//////.......",
"o.....////////.....////////.....////////.....////////.....////////.....////////.....o",
"oo...//////////...//////////...//////////...//////////...//////////...//////////...oo",
"ooo.////////////.////////////.////////////.////////////.////////////.////////////.ooo",
"oooollllllnnnnllllllnnnnllllllnnnnllllllnnnnllllllnnnnllllllnnnnllllllnnnnllllllooooo",
"oooollllllnnnnllllllnnnnllllllnnnnllllllnnnnllllllnnnnllllllnnnnllllllnnnnllllllooooo",
"oooollllllnnnnllllllnnnnllllllnnnnllllllnnnnllllllnnnnllllllnnnnllllllnnnnllllllooooo",
".......//////.......//////.......//////.......//////.......//////.......//////.......",
"o.....////////.....////////.....////////.....////////.....////////.....////////.....o",
"oo...//////////...//////////...//////////...//////////...//////////...//////////...oo",
"ooo.////////////.////////////.////////////.////////////.////////////.////////////.ooo",
"oooollllllnnnnllllllnnnnllllllnnnnllllllnnnnllllllnnnnllllllnnnnllllllnnnnllllllooooo",
"oooollllllnnnnllllllnnnnllllllnnnnllllllnnnnllllllnnnnllllllnnnnllllllnnnnllllllooooo",
"oooollllllnnnnllllllnnnnllllllnnnnllllllnnnnllllllnnnnllllllnnnnllllllnnnnllllllooooo",
".......//////.......//////.......//////.......//////.......//////.......//////.......",
"o.....////////.....////////.....////////.....////////.....////////.....////////.....o",
"oo...//////////...//////////...//////////...//////////...//////////...//////////...oo",
"ooo.////////////.////////////.////////////.////////////.////////////.////////////.ooo",
"oooollllllnnnnllllllnnnnllllllnnnnllllllnnnnllllllnnnnllllllnnnnllllllnnnnllllllooooo",
"oooollllllnnnnllllllnnnnllllllnnnnllllllnnnnllllllnnnnllllllnnnnllllllnnnnllllllooooo",
"oooollllllnnnnllllllnnnnllllllnnnnllllllnnnnllllllnnnnllllllnnnnllllllnnnnllllllooooo",
".......//////.......//////.......//////.......//////.......//////.......//////.......",
"o.....////////.....////////.....////////.....////////.....////////.....////////.....o",
"oo...//////////...//////////...//////////...//////////...//////////...//////////...oo",
"ooo.////////////.////////////.////////////.////////////.////////////.////////////.ooo",
"oooollllllnnnnllllllnnnnllllllnnnnllllllnnnnllllllnnnnllllllnnnnllllllnnnnllllllooooo",
"oooollllllnnnnllllllnnnnllllllnnnnllllllnnnnllllllnnnnllllllnnnnllllllnnnnllllllooooo",
"oooollllllnnnnllllllnnnnllllllnnnnllllllnnnnllllllnnnnllllllnnnnllllllnnnnllllllooooo",
".......//////.......//////.......//////.......//////.......//////.......//////.......",
"o.....////////.....////////.....////////.....////////.....////////.....////////.....o",
"oo...//////////...//////////...//////////...//////////...//////////...//////////...oo",
"ooo.////////////.////////////.////////////.////////////.////////////.////////////.ooo",
"oooollllllnnnnllllllnnnnllllllnnnnllllllnnnnllllllnnnnllllllnnnnllllllnnnnllllllooooo",
"oooollllllnnnnllllllnnnnllllllnnnnllllllnnnnllllllnnnnllllllnnnnllllllnnnnllllllooooo",
"oooollllllnnnnllllllnnnnllllllnnnnllllllnnnnllllllnnnnllllllnnnnllllllnnnnllllllooooo",
".......//////.......//////.......//////.......//////.......//////.......//////.......",
"o.....////////.....////////.....////////.....////////.....////////.....////////.....o",
"oo...//////////...//////////...//////////...//////////...//////////...//////////...oo",
"ooo.////////////.////////////.////////////.////////////.////////////.////////////.ooo",
"oooollllllnnnnllllllnnnnllllllnnnnllllllnnnnllllllnnnnllllllnnnnllllllnnnnllllllooooo",
"oooollllllnnnnllllllnnnnllllllnnnnllllllnnnnllllllnnnnllllllnnnnllllllnnnnllllllooooo",
"oooollllllnnnnllllllnnnnllllllnnnnllllllnnnnllllllnnnnllllllnnnnllllllnnnnllllllooooo",
".......//////.......//////.......//////.......//////.......//////.......//////.......",
"o.....////////.....////////.....////////.....////////.....////////.....////////.....o",
"oo...//////////...//////////...//////////...//////////...//////////...//////////...oo",
"ooo.////////////.////////////.////////////.////////////.////////////.////////////.ooo",
"oooollllllnnnnllllllnnnnllllllnnnnllllllnnnnllllllnnnnllllllnnnnllllllnnnnllllllooooo",
"oooollllllnnnnllllllnnnnllllllnnnnllllllnnnnllllllnnnnllllllnnnnllllllnnnnllllllooooo",
"oooollllllnnnnllllllnnnnllllllnnnnllllllnnnnllllllnnnnllllllnnnnllllllnnnnllllllooooo",
".......//////.......//////.......//////.......//////.......//////.......//////.......",
"o.....////////.....////////.....////////.....////////.....////////.....////////.....o",
"oo...//////////...//////////...//////////...//////////...//////////...//////////...oo",
"ooo.////////////.////////////.////////////.////////////.////////////.////////////.ooo",
"oooollllllnnnnllllllnnnnllllllnnnnllllllnnnnllllllnnnnllllllnnnnllllllnnnnllllllooooo",
"oooollllllnnnnllllllnnnnllllllnnnnllllllnnnnllllllnnnnllllllnnnnllllllnnnnllllllooooo",
"oooollllllnnnnllllllnnnnllllllnnnnllllllnnnnllllllnnnnllllllnnnnllllllnnnnllllllooooo",
".......//////.......//////.......//////.......//////.......//////.......//////.......",
"o.....////////.....////////.....////////.....////////.....////////.....////////.....o",
"oo...//////////...//////////...//////////...//////////...//////////...//////////...oo",
"ooo.////////////.////////////.////////////.////////////.////////////.////////////.ooo",
"oooollllllnnnnllllllnnnnllllllnnnnllllllnnnnllllllnnnnllllllnnnnllllllnnnnllllllooooo",
"oooollllllnnnnllllllnnnnllllllnnnnllllllnnnnllllllnnnnllllllnnnnllllllnnnnllllllooooo",
"oooollllllnnnnllllllnnnnllllllnnnnllllllnnnnllllllnnnnllllllnnnnllllllnnnnllllllooooo",
".......//////.......//////.......//////.......//////.......//////.......//////.......",
"o.....////////.....////////.....////////.....////////.....////////.....////////.....o",
"oo...//////////...//////////...//////////...//////////...//////////...//////////...oo",
"ooo.////////////.////////////.////////////.////////////.////////////.////////////.ooo",
"oooollllllnnnnllllllnnnnllllllnnnnllllllnnnnllllllnnnnllllllnnnnllllllnnnnllllllooooo",
"oooollllllnnnnllllllnnnnllllllnnnnllllllnnnnllllllnnnnllllllnnnnllllllnnnnllllllooooo",
"oooollllllnnnnllllllnnnnllllllnnnnllllllnnnnllllllnnnnllllllnnnnllllllnnnnllllllooooo",}; 

