/* XPM */
static char * loop_magda2_xpm[] = {
"69 49 5 1",
" 	c None",
".	c #BE0F0F",
"+	c #FEFFFF",
"@	c #FDFEFF",
"#	c #000000",
".+@@+.+@+.+@@+.+@+.+@@+.+@+.+@@+.+@+.+@@+.+@+.+@+.+@+.+@+.+@+.+@+.+@+",
"+.+@@+.+@+.+@@+.+@+.+@@+.+@+.+@@+.+@+.+@@+.+@+.+@+.+@+.+@+.+@+.+@+.+@",
"@+.+@@+.+@+.+@@+.+@+.+@@+.+@+.+@@+.+@+.+@@+.+@+.+@+.+@+.+@+.+@+.+@+.+",
"+@+.+@@+.+@+.+@@+.+@+.+@@+.+@+.+@@+.+@+.+@@+.+@+.+@+.+@+.+@+.+@+.+@+.",
".+@+.+@@+.+@+.+@@+.+@+.+@@+.+@+.+@@+.+@+.+@@+.+@+.+@+.+@+.+@+.+@+.+@+",
".+@+.+@@+.+@+.+@@+.+@+.+@@+.+@+.+@@+.+@+.+@@+.+@+.+@+.+@+.+@+.+@+.+@+",
"+@+.+@@+.+@+.+@@+.+@+.+@@+.+@+.+@@+.+@+.+@@+.+@+.+@+.+@+.+@+.+@+.+@+.",
"@+.+@@+.+@+.+@@+.+@+.+@@+.+@+.+@@+.+@+.+@@+.+@+.+@+.+@+.+@+.+@+.+@+.+",
"+.+@@+.+@+.+@@+.+@+.+@@+.+@+.+@@+.+@+.+@@+.+@+.+@+.+@+.+@+.+@+.+@+.+@",
".+@@+.+@+.+@@+.+@+.+@@+.+@+.+@@+.+@+.+@@+.+@+.+@+.+@+.+@+.+@+.+@+.+@+",
"+.+@@#######@@+.+@+.+@@+.+@+.+@@+.+@+.+@@+.+@+.+@+.+@+.+@+.+@+.+@+.+@",
"@+.+#########@@+.+@+.+@@+.+@+.+@@+.+@+.+@@+.+@+.+@+.+@+.+@+.+@+.+@+.+",
"+@+###########@@+.+@+.+@@+.+@+.+@@+.+@+.+@@+.+@+.+@+.+@+.+@+.+@+.+@+.",
".+@###########+@@+.+@+.+@@+.+@+.+@@+.+@+.+@@+.+@+.+@+.+@+.+@+.+@+.+@+",
".+@###########+@@+.+@+.+@@+.+@+.+@@+.+@+.+@@+.+@+.+@+.+@+.+@+.+@+.+@+",
"+@+###########@@+.+@+.+@@+.+@+.+@@+.+@+.+@@+.+@+.+@+.+@+.+@+.+@+.+@+.",
"@+.###########@+.+@+.+@@+.+@+.+@@+.+@+.+@@+.+@+.+@+.+@+.+@+.+@+.+@+.+",
"+.+###########+.+@+.+@@+.+@+.+@@+.+@+.+@@+.+@+.+@+.+@+.+@+.+@+.+@+.+@",
".+@###########.+@+.+@@+.+@+.+@@+.+@+.+@@+.+@+.+@+.+@+.+@+.+@+.+@+.+@+",
"+.+@#########@+.+@+.+@@+.+@+.+@@+.+@+.+@@+.+@+.+@+.+@+.+@+.+@+.+@+.+@",
"@+.+@#######+@@+.+@+.+@@+.+@+.+@@+.+@+.+@@+.+@+.+@+.+@+.+@+.+@+.+@+.+",
"+@+.+@@+.+@+.+@@+.+@+.+@@+.+@+.+@@+.+@+.+@@+.+@+.+@+.+@+.+@+.+@+.+@+.",
".+@+.+@@+.+@+.+@@+.+@+.+@@+.+@+.+@@+.+@+.+@@+.+@+.+@+.+@+.+@+.+@+.+@+",
".+@+.+@@+.+@+.+@@+.+@+.+@@+.+@+.+@@+.+@+.+@@+.+@+.+@+.+@+.+@+.+@+.+@+",
"+@+.+@@+.+@+.+@@+.+@+.+@@+.+@+.+@@+.+@+.+@@+.+@+.+@+.+@+.+@+.+@+.+@+.",
"@+.+@@+.+@+.+@@+.+@+.+@@+.+@+.+@@+.+@+.+@@+.+@+.+@+.+@+.+@+.+@+.+@+.+",
"+.+@@+.+@+.+@@+.+@+.+@@+.+@+.+@@+.+@+.+@@+.+@+.+@+.+@+.+@+.+@+.+@+.+@",
".+@@+.+@+.+@@+.+@+.+@@+.+@+.+@@+.+@+.+@@+.+@+.+@+.+@+.+@+.+@+.+@+.+@+",
"+.+@@+.+@+.+@@+.+@+.+@@+.+@+.+@@+.+@+.+@@+.+@+.+@+.+@+.+@+.+@+.+@+.+@",
"@+.+@@+.+@+.+@@+.+@+.+@@+.+@+.+@@+.+@+.+@@+.+@+.+@+.+@+.+@+.+@+.+@+.+",
"+@+.+@@+.+@+.+@@+.+@+.+@@+.+@+.+@@+.+@+.+@@+.+@+.+@+.+@+.+@+.+@+.+@+.",
".+@+.+@@+.+@+.+@@+.+@+.+@@+.+@+.+@@+.+@+.+@@+.+@+.+@+.+@+.+@+.+@+.+@+",
".+@+.+@@+.+@+.+@@+.+@+.+@@+.+@+.+@@+.+@+.+@@+.+@+.+@+.+@+.+@+.+@+.+@+",
"+@+.+@@+.+@+.+@@+.+@+.+@@+.+@+.+@@+.+@+.+@@+.+@+.+@+.+@+.+@+.+@+.+@+.",
"@+.+@@+.+@+.+@@+.+@+.+@@+.+@+.+@@+.+@+.+@@+.+@+.+@+.+@+.+@+.+@+.+@+.+",
"+.+@@+.+@+.+@@+.+@+.+@@+.+@+.+@@+.+@+.+@@+.+@+.+@+.+@+.+@+.+@+.+@+.+@",
".+@@+.+@+.+@@+.+@+.+@@+.+@+.+@@+.+@+.+@@+.+@+.+@+.+@+.+@+.+@+.+@+.+@+",
"+.+@@+.+@+.+@@+.+@+.+@@+.+@+.+@@+.+@+.+@@+.+@+.+@+.+@+.+@+.+@+.+@+.+@",
"@+.+@@+.+@+.+@@+.+@+.+@@+.+@+.+@@+.+@+.+@@+.+@+.+@+.+@+.+@+.+@+.+@+.+",
"+@+.+@@+.+@+.+@@+.+@+.+@@+.+@+.+@@+.+@+.+@@+.+@+.+@+.+@+.+@+.+@+.+@+.",
".+@+.+@@+.+@+.+@@+.+@+.+@@+.+@+.+@@+.+@+.+@@+.+@+.+@+.+@+.+@+.+@+.+@+",
".+@+.+@@+.+@+.+@@+.+@+.+@@+.+@+.+@@+.+@+.+@@+.+@+.+@+.+@+.+@+.+@+.+@+",
"+@+.+@@+.+@+.+@@+.+@+.+@@+.+@+.+@@+.+@+.+@@+.+@+.+@+.+@+.+@+.+@+.+@+.",
"@+.+@@+.+@+.+@@+.+@+.+@@+.+@+.+@@+.+@+.+@@+.+@+.+@+.+@+.+@+.+@+.+@+.+",
"+.+@@+.+@+.+@@+.+@+.+@@+.+@+.+@@+.+@+.+@@+.+@+.+@+.+@+.+@+.+@+.+@+.+@",
".+@@+.+@+.+@@+.+@+.+@@+.+@+.+@@+.+@+.+@@+.+@+.+@+.+@+.+@+.+@+.+@+.+@+",
"+.+@@+.+@+.+@@+.+@+.+@@+.+@+.+@@+.+@+.+@@+.+@+.+@+.+@+.+@+.+@+.+@+.+@",
"@+.+@@+.+@+.+@@+.+@+.+@@+.+@+.+@@+.+@+.+@@+.+@+.+@+.+@+.+@+.+@+.+@+.+",
"+@+.+@@+.+@+.+@@+.+@+.+@@+.+@+.+@@+.+@+.+@@+.+@+.+@+.+@+.+@+.+@+.+@+."};
