<?xml version="1.0" encoding="UTF-8" standalone="no"?>
<!-- Created with Inkscape (http://www.inkscape.org/) -->

<svg
   xmlns:dc="http://purl.org/dc/elements/1.1/"
   xmlns:cc="http://creativecommons.org/ns#"
   xmlns:rdf="http://www.w3.org/1999/02/22-rdf-syntax-ns#"
   xmlns:svg="http://www.w3.org/2000/svg"
   xmlns="http://www.w3.org/2000/svg"
   xmlns:xlink="http://www.w3.org/1999/xlink"
   xmlns:sodipodi="http://sodipodi.sourceforge.net/DTD/sodipodi-0.dtd"
   xmlns:inkscape="http://www.inkscape.org/namespaces/inkscape"
   id="svg3205"
   version="1.1"
   inkscape:version="0.48.3.1 r9886"
   width="40"
   height="42"
   sodipodi:docname="loop_wvw2-layer2.png">
  <metadata
     id="metadata3211">
    <rdf:RDF>
      <cc:Work
         rdf:about="">
        <dc:format>image/svg+xml</dc:format>
        <dc:type
           rdf:resource="http://purl.org/dc/dcmitype/StillImage" />
        <dc:title></dc:title>
      </cc:Work>
    </rdf:RDF>
  </metadata>
  <defs
     id="defs3209" />
  <sodipodi:namedview
     pagecolor="#ffffff"
     bordercolor="#666666"
     borderopacity="1"
     objecttolerance="10"
     gridtolerance="10"
     guidetolerance="10"
     inkscape:pageopacity="0"
     inkscape:pageshadow="2"
     inkscape:window-width="1366"
     inkscape:window-height="718"
     id="namedview3207"
     showgrid="false"
     inkscape:zoom="0.55"
     inkscape:cx="20.024042"
     inkscape:cy="20.761907"
     inkscape:window-x="0"
     inkscape:window-y="0"
     inkscape:window-maximized="1"
     inkscape:current-layer="svg3205" />
  <image
     width="600.79999"
     height="630.84009"
     xlink:href="file:///home/wendy/01_git/relearn/relearn.off-grid/workfolder/loop_wvw2-layer2.png"
     id="image3213"
     x="-266.16583"
     y="-390.2149" />
  <path
     style="fill:#000000"
     d="m 151.31402,237.37087 -26.93279,10.25542 18.52467,-18.66354 18.52467,-18.66354 8.40811,8.40812 8.40812,8.40812 -26.93278,10.25542 z m 10.61721,-51.60433 c -16.522,8.84231 -30.04,12.69743 -30.04,8.56693 0,-4.1305 13.518,-14.74463 30.04,-23.58693 16.522,-8.84231 30.04,-12.69743 30.04,-8.56693 0,4.1305 -13.518,14.74463 -30.04,23.58693 z m 0,-60.08001 c -16.522,8.84231 -30.04,12.69743 -30.04,8.56693 0,-4.1305 13.518,-14.74462 30.04,-23.58693 16.522,-8.84231 30.04,-12.697432 30.04,-8.56693 0,4.1305 -13.518,14.74463 -30.04,23.58693 z m 0,-60.08001 c -16.522,8.842306 -30.04,12.697429 -30.04,8.566929 0,-4.130501 13.518,-14.744626 30.04,-23.586931 16.522,-8.842305 30.04,-12.697429 30.04,-8.566928 0,4.1305 -13.518,14.744625 -30.04,23.58693 z m 0,-60.0800081 c -16.522,8.8423051 -30.04,12.6974291 -30.04,8.5669281 0,-4.1305001 13.518,-14.74462494 30.04,-23.5869298 16.522,-8.8423062 30.04,-12.6974302 30.04,-8.5669292 0,4.130501 -13.518,14.7446256 -30.04,23.5869309 z m 0,-60.0800089 c -16.522,8.842305 -30.04,12.697429 -30.04,8.566929 0,-4.130501 13.518,-14.744626 30.04,-23.586931 16.522,-8.842305 30.04,-12.697429 30.04,-8.566929 0,4.130501 -13.518,14.744626 -30.04,23.586931 z m 0,-60.080003 c -16.522,8.8423 -30.04,12.69743 -30.04,8.56693 0,-4.1305 13.518,-14.74463 30.04,-23.58693 16.522,-8.84231 30.04,-12.69743 30.04,-8.56693 0,4.1305 -13.518,14.74462 -30.04,23.58693 z m 0,-60.08001 c -16.522,8.84231 -30.04,12.69743 -30.04,8.56693 0,-4.1305 13.518,-14.74463 30.04,-23.58693 16.522,-8.84231 30.04,-12.69743 30.04,-8.56693 0,4.1305 -13.518,14.74462 -30.04,23.58693 z m 0,-60.08001 c -16.522,8.84231 -30.04,12.69743 -30.04,8.56693 0,-4.1305 13.518,-14.74462 30.04,-23.58693 16.522,-8.84231 30.04,-12.69742 30.04,-8.56692 0,4.1305 -13.518,14.74461 -30.04,23.58692 z m 0,-60.08001 c -16.522,8.84231 -30.04,12.69742 -30.04,8.56692 0,-4.1305 13.518,-14.74461 30.04,-23.58692 16.522,-8.84231 30.04,-12.69742 30.04,-8.56692 0,4.1305 -13.518,14.74462 -30.04,23.58692 z m 0,-60.08001 c -16.522,8.84231 -30.04,12.69743 -30.04,8.56693 0,-4.13051 13.518,-14.74462 30.04,-23.58693 16.522,-8.84231 30.04,-12.69742 30.04,-8.56692 0,4.1305 -13.518,14.74462 -30.04,23.58692 z"
     id="path3371"
     inkscape:connector-curvature="0" />
</svg>
