/* XPM */
static char * point_comma[] = {
"51 20 3 1",
";    c #F0E68C",
":    c #FFFF00", 
"     c #FFC0CB", 
"::::: :::::::::::;;;;;;;;;;;;;;;;::::::::::::::::::",
":::::::: ::::::::;;;;;;;;;;;;;;;;::::::::::::::::::",
"::::::::::: :::::;;;;;;;;;;;;;;;;::::::::::::::::::",
":::::::::::::: ::;;;;;;;;;;;;;;;;::::::::::::::::::",
":::::::::::::::::;;;;;;;;;;;;;;;;::::::::::::::::::",
":::::::::::::::::;;;;;;;;;;;;;;;;::::::::::::::::::",
":::::::::::::::::;;;;;;;;;;;;;;;;::::::::::::::::::",
":::::::::::::::::;;;;;;;;;;;;;;;;::::   :::::::::::",
":::::::::::::::::;;;;;;;;;;;;;;;;::::::::::::::::::",
":::::::::::::::::;;;;;;;;;;;;;;;;::::::::::::::::::",
":::::::::::::::::;;;;;;;;;;;;;;;;::::::::::::::::::",
":::::::::::::::::;;;;;;;;;;;;;;;;::::::::::::::::::",
":::::::::::::::::;;;;;;;;;;;;;;;;::::::::::::::::::",
":::::::::::::::::;;;;;;;;;;;;;;;;::::::::::::::::::",
":::::::::::::::::;;;;;;;;;;;;;;;;::::::::::::::::::",
":::::::::::::::::;;;;;;;;;;;;;;;;::::::::::::::::::",
":::::::::::::::::;;;;;;;;;;;;;;;;::::::::::::::::::",
":::::::::::::::::;;;;;;;;;;;;;;;;::::::::::::::::::",
":::::::::::::::::;;;;;;;;;;;;;;;;::::::::::::::::::",
":::::::::::::::::;;;;;;;;;;;;;;;;::::::::::::::::::",


