/* XPM */
static char * point_comma[] = {
"51 20 2 1",
";    c #F0E68C",
":    c #FFFF00",  
":::::::::::::::::;;;;;;;;;;;;;;;;::::::::::::::::::",
":::::::::::::::::;;;;;;;;;;;;;;;;::::::::::::::::::",
":::::::::::::::::;;;;;;;;;;;;;;;;::::::::::::::::::",
":::::::::::::::::;;;;;;;;;;;;;;;;::::::::::::::::::",
":::::::::::::::::;;;;;;;;;;;;;;;;::::::::::::::::::",
":::::::::::::::::;;;;;;;;;;;;;;;;::::::::::::::::::",
":::::::::::::::::;;;;;;;;;;;;;;;;::::::::::::::::::",
":::::::::::::::::;;;;;;;;;;;;;;;;::::::::::::::::::",
":::::::::::::::::;;;;;;;;;;;;;;;;::::::::::::::::::",
":::::::::::::::::;;;;;;;;;;;;;;;;::::::::::::::::::",
":::::::::::::::::;;;;;;;;;;;;;;;;::::::::::::::::::",
":::::::::::::::::;;;;;;;;;;;;;;;;::::::::::::::::::",
":::::::::::::::::;;;;;;;;;;;;;;;;::::::::::::::::::",
":::::::::::::::::;;;;;;;;;;;;;;;;::::::::::::::::::",
":::::::::::::::::;;;;;;;;;;;;;;;;::::::::::::::::::",
":::::::::::::::::;;;;;;;;;;;;;;;;::::::::::::::::::",
":::::::::::::::::;;;;;;;;;;;;;;;;::::::::::::::::::",
":::::::::::::::::;;;;;;;;;;;;;;;;::::::::::::::::::",
":::::::::::::::::;;;;;;;;;;;;;;;;::::::::::::::::::",
":::::::::::::::::;;;;;;;;;;;;;;;;::::::::::::::::::",


