<?xml version="1.0" encoding="UTF-8" standalone="no"?>
<!-- Created with Inkscape (http://www.inkscape.org/) -->

<svg
   xmlns:dc="http://purl.org/dc/elements/1.1/"
   xmlns:cc="http://creativecommons.org/ns#"
   xmlns:rdf="http://www.w3.org/1999/02/22-rdf-syntax-ns#"
   xmlns:svg="http://www.w3.org/2000/svg"
   xmlns="http://www.w3.org/2000/svg"
   xmlns:sodipodi="http://sodipodi.sourceforge.net/DTD/sodipodi-0.dtd"
   xmlns:inkscape="http://www.inkscape.org/namespaces/inkscape"
   id="svg3071"
   version="1.1"
   inkscape:version="0.48.4 r9939"
   width="66.31086"
   height="82.649643"
   sodipodi:docname="VA2.svg">
  <metadata
     id="metadata3077">
    <rdf:RDF>
      <cc:Work
         rdf:about="">
        <dc:format>image/svg+xml</dc:format>
        <dc:type
           rdf:resource="http://purl.org/dc/dcmitype/StillImage" />
        <dc:title></dc:title>
      </cc:Work>
    </rdf:RDF>
  </metadata>
  <defs
     id="defs3075" />
  <sodipodi:namedview
     pagecolor="#ffffff"
     bordercolor="#666666"
     borderopacity="1"
     objecttolerance="10"
     gridtolerance="10"
     guidetolerance="10"
     inkscape:pageopacity="0"
     inkscape:pageshadow="2"
     inkscape:window-width="1266"
     inkscape:window-height="735"
     id="namedview3073"
     showgrid="false"
     inkscape:zoom="1.4598765"
     inkscape:cx="-75.063316"
     inkscape:cy="148.08982"
     inkscape:window-x="33"
     inkscape:window-y="32"
     inkscape:window-maximized="0"
     inkscape:current-layer="svg3071"
     fit-margin-top="0"
     fit-margin-left="0"
     fit-margin-right="0"
     fit-margin-bottom="0" />
  <path
     inkscape:connector-curvature="0"
     id="path3125-9-4"
     d="M 0.0102,41.585001 0,1.30766 0.74486,2.47863 1.48972,3.6496 l 0.0153,-1.02664 0.0153,-1.02664 16.68424,0.0794 16.68425,0.0794 0.44549,1.33645 0.44548,1.33646 -0.96306,-0.59521 -0.96307,-0.5952 0,1.41202 0,1.41202 0.58658,-0.36253 0.58658,-0.36252 0,38.177191 0,38.1772 -3.00324,0.0943 -3.00325,0.0942 1.25,-0.44826 1.25,-0.44827 0,-37.67197 0,-37.671981 -3.50905,-1.09832 -3.50905,-1.09831 -1.526,1.11584 -1.526,1.11584 0.28505,38.144091 0.28505,38.1441 -0.73469,-1.15631 -0.73469,-1.15631 -0.0153,1.25 -0.0153,1.25 -1.5,0 -1.5,0 -0.0153,-1.25 -0.0153,-1.25 -0.96937,1.5 -0.96937,1.5 -0.0153,-38.62756 -0.0153,-38.627551 -1.5,-1.24489 -1.5,-1.24489 -1.53359,1.27277 -1.53359,1.27276 0.28359,38.255961 0.28359,38.25595 -0.62895,-1.01943 -0.62895,-1.01943 -0.5421,1.36316 -0.54211,1.36315 -0.16516,-2 c -0.0908,-1.1 -0.20005,-18.55631 -0.24269,-38.79179 L 7.19294,5.06606 5.61318,5.37029 4.03342,5.67452 l -0.0264,37.617871 -0.0264,37.61786 1.51987,-0.53964 1.51987,-0.53963 -0.70157,0.77757 c -0.38586,0.42766 -1.96086,0.88472 -3.5,1.01569 l -2.79843,0.23813 -0.0102,-40.27733 z m 34.01017,38.5646 c 0.33992,-0.55 0.39304,-1 0.11804,-1 -0.275,0 -0.77812,0.45 -1.11804,1 -0.33992,0.55 -0.39303,1 -0.11803,1 0.275,0 0.77811,-0.45 1.11803,-1 z m -32.83333,-2.66667 -0.66667,-0.66666 0,1.33333 0,1.33333 0.66667,-0.66666 0.66666,-0.66667 -0.66666,-0.66667 z m 0,-4 -0.66667,-0.66666 0,1.33333 0,1.33333 0.66667,-0.66666 0.66666,-0.66667 -0.66666,-0.66667 z m 0,-4 -0.66667,-0.66666 0,1.33333 0,1.33333 0.66667,-0.66666 0.66666,-0.66667 -0.66666,-0.66667 z m 0,-4 -0.66667,-0.66666 0,1.33333 0,1.33333 0.66667,-0.66666 0.66666,-0.66667 -0.66666,-0.66667 z m 0,-4 -0.66667,-0.66666 0,1.33333 0,1.33333 0.66667,-0.66666 0.66666,-0.66667 -0.66666,-0.66667 z m 0,-4 -0.66667,-0.66666 0,1.33333 0,1.33333 0.66667,-0.66666 0.66666,-0.66667 -0.66666,-0.66667 z m 0,-4 -0.66667,-0.66666 0,1.33333 0,1.33333 0.66667,-0.66666 0.66666,-0.66667 -0.66666,-0.66667 z m 0,-4 -0.66667,-0.66666 0,1.33333 0,1.33333 0.66667,-0.66666 0.66666,-0.66667 -0.66666,-0.66667 z m 0,-4 -0.66667,-0.66666 0,1.33333 0,1.33333 0.66667,-0.66666 0.66666,-0.66667 -0.66666,-0.66667 z m 0,-4 -0.66667,-0.66666 0,1.33333 0,1.33333 0.66667,-0.66666 0.66666,-0.66667 -0.66666,-0.66667 z m 0,-4 -0.66667,-0.66666 0,1.33333 0,1.33333 0.66667,-0.66666 0.66666,-0.66667 -0.66666,-0.66667 z m 0,-4 -0.66667,-0.66666 0,1.33333 0,1.33333 0.66667,-0.66666 0.66666,-0.66667 -0.66666,-0.66667 z m 0,-4 -0.66667,-0.66666 0,1.33333 0,1.33333 0.66667,-0.66666 0.66666,-0.66667 -0.66666,-0.66667 z m 0,-4 -0.66667,-0.66666 0,1.33333 0,1.33333 0.66667,-0.66666 0.66666,-0.66667 -0.66666,-0.66667 z m 0,-4 -0.66667,-0.66666 0,1.33333 0,1.33333 0.66667,-0.66666 0.66666,-0.66667 -0.66666,-0.66667 z m 0,-4.000001 -0.66667,-0.66666 0,1.33333 0,1.333331 0.66667,-0.66666 L 1.8537,18.1496 1.18704,17.48293 z m 0,-4 -0.66667,-0.66666 0,1.33333 0,1.33333 L 1.18704,14.81627 1.8537,14.1496 1.18704,13.48293 z m 0,-4 -0.66667,-0.66666 0,1.33333 0,1.33333 L 1.18704,10.81627 1.8537,10.1496 1.18704,9.48293 z m 0,-4 -0.66667,-0.66666 0,1.33333 0,1.33333 L 1.18704,6.81627 1.8537,6.1496 1.18704,5.48293 z m 12.33333,75.666671 0,-1.33333 0.66667,0.66666 0.66666,0.66667 -0.66666,0.66667 -0.66667,0.66666 0,-1.33333 z m 14,0 0,-1.33333 0.66667,0.66666 0.66666,0.66667 -0.66666,0.66667 -0.66667,0.66666 0,-1.33333 z"
     style="fill:#ffff00;stroke:none" />
  <path
     inkscape:connector-curvature="0"
     id="path3141-3-1"
     d="M 31.2947,41.016581 31.2846,0.90413 l 17.51013,0.0377 17.51013,0.0377 0.003,40.042531 0.003,40.04253 -2.00965,0 -2.00965,0 0.01,-38.21981 0.01,-38.219811 0.90718,-0.83019 0.90728,-0.83019 -0.71934,1.25 c -0.39564,0.6875 -0.52289,1.25 -0.28277,1.25 0.24011,0 0.90849,-0.56862 1.48527,-1.26361 l 1.04871,-1.26361 -2.92626,-0.11959 -2.92626,-0.11959 -0.23274,39.633201 -0.23274,39.6332 -0.53452,-40 -0.53451,-40.000001 -0.23275,39.812861 -0.23274,39.81286 -2.25,-0.31286 -2.25,-0.31286 -0.51726,-39.5 -0.51725,-39.500001 -0.23275,39.750001 -0.23274,39.75 -1.5,0 -1.5,0 0,-0.8 c 0,-0.44 0.5625,-1.4308 1.25,-2.20177 l 1.25,-1.40177 -1.75,1.32421 -1.75,1.32422 0,-0.89994 c 0,-0.49496 0.76602,-2.01256 1.70228,-3.37244 l 1.70227,-2.47251 -1.70227,1.37244 -1.70228,1.37245 0,-0.89994 c 0,-0.49497 0.76602,-2.01257 1.70228,-3.37244 l 1.70227,-2.47251 -1.70227,1.37244 -1.70228,1.37245 0,-0.89994 c 0,-0.49497 0.76602,-2.01257 1.70228,-3.37244 l 1.70227,-2.47251 -1.70227,1.37244 -1.70228,1.37245 0,-0.89994 c 0,-0.49497 0.76602,-2.01256 1.70228,-3.37244 l 1.70227,-2.47251 -1.70227,1.37245 -1.70228,1.37244 0,-0.89994 c 0,-0.49496 0.76602,-2.01256 1.70228,-3.37244 l 1.70227,-2.47251 -1.70227,1.37245 -1.70228,1.37244 0,-0.89994 c 0,-0.49496 0.76602,-2.01256 1.70228,-3.37244 l 1.70227,-2.47251 -1.70227,1.37245 -1.70228,1.37244 0,-0.89994 c 0,-0.49496 0.76602,-2.01256 1.70228,-3.37244 l 1.70227,-2.47251 -1.70227,1.37245 -1.70228,1.37244 0,-0.89994 c 0,-0.49496 0.76602,-2.01256 1.70228,-3.37244 l 1.70227,-2.47251 -1.70227,1.37245 -1.70228,1.37244 0,-0.89994 c 0,-0.49496 0.76602,-2.01256 1.70228,-3.37244 l 1.70227,-2.47251 -1.70227,1.37245 -1.70228,1.37244 0,-0.89994 c 0,-0.49496 0.76602,-2.01256 1.70228,-3.37244 l 1.70227,-2.47251 -1.70227,1.37245 -1.70228,1.37244 0,-0.89994 c 0,-0.49496 0.76602,-2.01256 1.70228,-3.37244 l 1.70227,-2.47251 -1.70227,1.37245 -1.70228,1.37244 0,-0.89994 c 0,-0.49496 0.76602,-2.01256 1.70228,-3.37244 l 1.70227,-2.47251 -1.70227,1.37245 -1.70228,1.37244 0,-0.89994 c 0,-0.49496 0.76602,-2.01256 1.70228,-3.37244 l 1.70227,-2.47251 -1.70227,1.37245 -1.70228,1.37244 0,-0.89994 c 0,-0.49496 0.76602,-2.01256 1.70228,-3.37244 l 1.70227,-2.47251 -1.70227,1.37245 -1.70228,1.37244 0,-0.89994 c 0,-0.49496 0.76602,-2.01256 1.70228,-3.37244 l 1.70227,-2.472511 -1.70227,1.37245 -1.70228,1.372441 0,-0.89994 c 0,-0.494961 0.76602,-2.012561 1.70228,-3.372441 l 1.70227,-2.47251 -1.70227,1.37245 -1.70228,1.37244 0,-0.89994 c 0,-0.49496 0.76602,-2.01256 1.70228,-3.37244 l 1.70227,-2.47251 -1.70227,1.37244 -1.70228,1.37245 0,-0.89994 c 0,-0.49497 0.76602,-2.01257 1.70228,-3.37244 l 1.70227,-2.47251 -1.70227,1.37244 c -0.93626,0.75485 -1.70228,1.06277 -1.70228,0.68426 0,-0.3785 0.41767,-1.4686 0.92815,-2.42244 l 0.92814,-1.73426 -2.18847,0 -2.18847,0 0.0251,39.300001 0.0251,39.3 -1.26476,0 -1.26477,0 -0.12808,-1.25 c -0.0704,-0.6875 -0.18295,-18.3071 -0.25,-39.15467 L 42.30539,3.15525 40.55063,2.89771 38.79586,2.64016 l 0.73558,1.16221 0.73559,1.16222 0.10911,36.500001 0.10911,36.5 0.7544,2 0.7544,2 -1.07901,-1.5 -1.07902,-1.5 -0.0153,1.41667 -0.0153,1.41666 -0.74775,-0.74775 -0.74776,-0.74776 -0.002,-38.65521 -0.002,-38.655221 -1.75,-0.33702 -1.75,-0.33702 0,1.13234 0,1.13234 1.09977,-0.67969 1.09977,-0.67969 -1.09977,2.05493 c -0.60487,1.13022 -1.09977,2.33608 -1.09977,2.6797 l 0,0.62475 1.09977,-0.67969 1.09977,-0.67969 -1.09977,2.05493 c -0.60487,1.13022 -1.09977,2.33608 -1.09977,2.6797 l 0,0.62475 1.09977,-0.67969 1.09977,-0.67969 -1.09977,2.05493 c -0.60487,1.13022 -1.09977,2.33608 -1.09977,2.6797 l 0,0.62475 1.09977,-0.67969 1.09977,-0.67969 -1.09977,2.05493 c -0.60487,1.13022 -1.09977,2.336081 -1.09977,2.679701 l 0,0.62475 1.09977,-0.67969 1.09977,-0.67969 -1.09977,2.05493 c -0.60487,1.13022 -1.09977,2.33608 -1.09977,2.6797 l 0,0.62475 1.09977,-0.67969 1.09977,-0.67969 -1.09977,2.05493 c -0.60487,1.13022 -1.09977,2.33608 -1.09977,2.6797 l 0,0.62475 1.09977,-0.67969 1.09977,-0.67969 -1.09977,2.05493 c -0.60487,1.13022 -1.09977,2.33608 -1.09977,2.6797 l 0,0.62475 1.09977,-0.67969 1.09977,-0.67969 -1.09977,2.05493 c -0.60487,1.13022 -1.09977,2.33608 -1.09977,2.6797 l 0,0.62475 1.09977,-0.67969 1.09977,-0.67969 -1.09977,2.05493 c -0.60487,1.13022 -1.09977,2.33608 -1.09977,2.6797 l 0,0.62475 1.09977,-0.67969 1.09977,-0.67969 -1.09977,2.05493 c -0.60487,1.13022 -1.09977,2.33608 -1.09977,2.6797 l 0,0.62475 1.09977,-0.67969 1.09977,-0.67969 -1.09977,2.05493 c -0.60487,1.13022 -1.09977,2.33608 -1.09977,2.6797 l 0,0.62475 1.09977,-0.67969 1.09977,-0.67969 -1.09977,2.05493 c -0.60487,1.13022 -1.09977,2.33608 -1.09977,2.6797 l 0,0.62475 1.09977,-0.67969 1.09977,-0.67969 -1.09977,2.05493 c -0.60487,1.13022 -1.09977,2.33608 -1.09977,2.6797 l 0,0.62475 1.09977,-0.67969 1.09977,-0.67969 -1.09977,2.05493 c -0.60487,1.13022 -1.09977,2.33608 -1.09977,2.6797 l 0,0.62475 1.09977,-0.67969 1.09977,-0.67969 -1.09977,2.05493 c -0.60487,1.13022 -1.09977,2.33608 -1.09977,2.6797 l 0,0.62475 1.09977,-0.67969 1.09977,-0.67969 -1.09977,2.05493 c -0.60487,1.13022 -1.09977,2.33608 -1.09977,2.6797 l 0,0.62475 1.09977,-0.67969 1.09977,-0.67969 -1.09977,2.05493 c -0.60487,1.13022 -1.09977,2.33608 -1.09977,2.6797 l 0,0.62475 1.09977,-0.67969 1.09977,-0.67969 -1.09977,2.05493 c -0.60487,1.13022 -1.09977,2.33608 -1.09977,2.6797 l 0,0.62475 1.09977,-0.67969 1.09977,-0.67969 -1.09977,2.05493 c -0.60487,1.13022 -1.09977,2.33608 -1.09977,2.6797 l 0,0.62475 1.25,-0.71934 1.25,-0.71934 -0.79792,0.87491 c -0.43885,0.4812 -1.78885,0.92784 -3,0.99254 l -2.20208,0.11763 -0.0101,-40.11246 z m 2.89525,0.27532 C 34.11435,20.761891 33.98994,3.51461 33.91339,2.96461 l -0.13919,-1 -0.74593,1.17271 -0.74594,1.17271 0.13738,37.327291 c 0.0756,20.53001 0.20001,37.77729 0.27656,38.32729 l 0.13919,1 0.74593,-1.17271 0.74594,-1.17271 -0.13738,-37.32729 z m -1.38512,36.17271 0,-1.33333 0.66667,0.66666 0.66666,0.66667 -0.66666,0.66667 -0.66667,0.66666 0,-1.33333 z m 0,-4 0,-1.33333 0.66667,0.66666 0.66666,0.66667 -0.66666,0.66667 -0.66667,0.66666 0,-1.33333 z m 0,-4 0,-1.33333 0.66667,0.66666 0.66666,0.66667 -0.66666,0.66667 -0.66667,0.66666 0,-1.33333 z m 0,-4 0,-1.33333 0.66667,0.66666 0.66666,0.66667 -0.66666,0.66667 -0.66667,0.66666 0,-1.33333 z m 0,-4 0,-1.33333 0.66667,0.66666 0.66666,0.66667 -0.66666,0.66667 -0.66667,0.66666 0,-1.33333 z m 0,-4 0,-1.33333 0.66667,0.66666 0.66666,0.66667 -0.66666,0.66667 -0.66667,0.66666 0,-1.33333 z m 0,-4 0,-1.33333 0.66667,0.66666 0.66666,0.66667 -0.66666,0.66667 -0.66667,0.66666 0,-1.33333 z m 0,-4 0,-1.33333 0.66667,0.66666 0.66666,0.66667 -0.66666,0.66667 -0.66667,0.66666 0,-1.33333 z m 0,-4 0,-1.33333 0.66667,0.66666 0.66666,0.66667 -0.66666,0.66667 -0.66667,0.66666 0,-1.33333 z m 0,-4 0,-1.33333 0.66667,0.66666 0.66666,0.66667 -0.66666,0.66667 -0.66667,0.66666 0,-1.33333 z m 0,-4 0,-1.33333 0.66667,0.66666 0.66666,0.66667 -0.66666,0.66667 -0.66667,0.66666 0,-1.33333 z m 0,-4 0,-1.33333 0.66667,0.66666 0.66666,0.66667 -0.66666,0.66667 -0.66667,0.66666 0,-1.33333 z m 0,-4 0,-1.33333 0.66667,0.66666 0.66666,0.66667 -0.66666,0.66667 -0.66667,0.66666 0,-1.33333 z m 0,-4 0,-1.33333 0.66667,0.66666 0.66666,0.66667 -0.66666,0.66667 -0.66667,0.66666 0,-1.33333 z m 0,-4 0,-1.33333 0.66667,0.66666 0.66666,0.66667 -0.66666,0.66667 -0.66667,0.66666 0,-1.33333 z m 0,-4.000001 0,-1.33333 0.66667,0.66666 0.66666,0.66667 -0.66666,0.66667 -0.66667,0.666661 0,-1.333331 z m 0,-4 0,-1.33333 0.66667,0.66666 0.66666,0.66667 -0.66666,0.66667 -0.66667,0.66666 0,-1.33333 z m 0,-4 0,-1.33333 0.66667,0.66666 0.66666,0.66667 -0.66666,0.66667 -0.66667,0.66666 0,-1.33333 z m 0,-4 0,-1.33333 0.66667,0.66666 0.66666,0.66667 -0.66666,0.66667 -0.66667,0.66666 0,-1.33333 z m 32.50338,36.499451 0.01,-37.340341 -1.01343,0.84108 -1.01343,0.84107 0.13353,36.829371 c 0.0734,20.25615 0.18901,37.01687 0.25682,37.24604 0.0678,0.22916 0.45935,0.0806 0.87007,-0.33011 l 0.74678,-0.74677 0.01,-37.34034 z m -25.83671,35.83388 -0.66667,-0.66666 0,1.33333 0,1.33333 0.66667,-0.66666 0.66666,-0.66667 -0.66666,-0.66667 z m 0,-4 -0.66667,-0.66666 0,1.33333 0,1.33333 0.66667,-0.66666 0.66666,-0.66667 -0.66666,-0.66667 z m 0,-4 -0.66667,-0.66666 0,1.33333 0,1.33333 0.66667,-0.66666 0.66666,-0.66667 -0.66666,-0.66667 z m 0,-4 -0.66667,-0.66666 0,1.33333 0,1.33333 0.66667,-0.66666 0.66666,-0.66667 -0.66666,-0.66667 z m 0,-4 -0.66667,-0.66666 0,1.33333 0,1.33333 0.66667,-0.66666 0.66666,-0.66667 -0.66666,-0.66667 z m 0,-4 -0.66667,-0.66666 0,1.33333 0,1.33333 0.66667,-0.66666 0.66666,-0.66667 -0.66666,-0.66667 z m 0,-4 -0.66667,-0.66666 0,1.33333 0,1.33333 0.66667,-0.66666 0.66666,-0.66667 -0.66666,-0.66667 z m 0,-4 -0.66667,-0.66666 0,1.33333 0,1.33333 0.66667,-0.66666 0.66666,-0.66667 -0.66666,-0.66667 z m 0,-4 -0.66667,-0.66666 0,1.33333 0,1.33333 0.66667,-0.66666 0.66666,-0.66667 -0.66666,-0.66667 z m 0,-4 -0.66667,-0.66666 0,1.33333 0,1.33333 0.66667,-0.66666 0.66666,-0.66667 -0.66666,-0.66667 z m 0,-4 -0.66667,-0.66666 0,1.33333 0,1.33333 0.66667,-0.66666 0.66666,-0.66667 -0.66666,-0.66667 z m 0,-4 -0.66667,-0.66666 0,1.33333 0,1.33333 0.66667,-0.66666 0.66666,-0.66667 -0.66666,-0.66667 z m 0,-4 -0.66667,-0.66666 0,1.33333 0,1.33333 0.66667,-0.66666 0.66666,-0.66667 -0.66666,-0.66667 z m 0,-4 -0.66667,-0.66666 0,1.33333 0,1.33333 0.66667,-0.66666 0.66666,-0.66667 -0.66666,-0.66667 z m 0,-4 -0.66667,-0.66666 0,1.33333 0,1.33333 0.66667,-0.66666 0.66666,-0.66667 -0.66666,-0.66667 z m 0,-4.000001 -0.66667,-0.66666 0,1.33333 0,1.333331 0.66667,-0.66666 0.66666,-0.666671 -0.66666,-0.66667 z m 0,-4 -0.66667,-0.66666 0,1.33333 0,1.33333 0.66667,-0.66666 0.66666,-0.66667 -0.66666,-0.66667 z m 0,-4 -0.66667,-0.66666 0,1.33333 0,1.33333 0.66667,-0.66666 0.66666,-0.66667 -0.66666,-0.66667 z m 0,-4 -0.66667,-0.66666 0,1.33333 0,1.33333 L 39.4715,7.13128 40.13816,6.46461 39.4715,5.79794 z m 7.20946,74.916671 c -0.0681,-0.4125 -0.18569,-17.54728 -0.26125,-38.07729 L 46.28233,5.31003 l 0.51766,-0.83759 0.51766,-0.83759 0,38.914881 c 0,21.40318 -0.11538,38.91488 -0.25641,38.91488 -0.14102,0 -0.31215,-0.3375 -0.38028,-0.75 z m -5.87613,-4.25 0,-1.33333 0.66667,0.66666 0.66666,0.66667 -0.66666,0.66667 -0.66667,0.66666 0,-1.33333 z m 0,-4 0,-1.33333 0.66667,0.66666 0.66666,0.66667 -0.66666,0.66667 -0.66667,0.66666 0,-1.33333 z m 0,-4 0,-1.33333 0.66667,0.66666 0.66666,0.66667 -0.66666,0.66667 -0.66667,0.66666 0,-1.33333 z m 0,-4 0,-1.33333 0.66667,0.66666 0.66666,0.66667 -0.66666,0.66667 -0.66667,0.66666 0,-1.33333 z m 0,-4 0,-1.33333 0.66667,0.66666 0.66666,0.66667 -0.66666,0.66667 -0.66667,0.66666 0,-1.33333 z m 0,-4 0,-1.33333 0.66667,0.66666 0.66666,0.66667 -0.66666,0.66667 -0.66667,0.66666 0,-1.33333 z m 0,-4 0,-1.33333 0.66667,0.66666 0.66666,0.66667 -0.66666,0.66667 -0.66667,0.66666 0,-1.33333 z m 0,-4 0,-1.33333 0.66667,0.66666 0.66666,0.66667 -0.66666,0.66667 -0.66667,0.66666 0,-1.33333 z m 0,-4 0,-1.33333 0.66667,0.66666 0.66666,0.66667 -0.66666,0.66667 -0.66667,0.66666 0,-1.33333 z m 0,-4 0,-1.33333 0.66667,0.66666 0.66666,0.66667 -0.66666,0.66667 -0.66667,0.66666 0,-1.33333 z m 0,-4 0,-1.33333 0.66667,0.66666 0.66666,0.66667 -0.66666,0.66667 -0.66667,0.66666 0,-1.33333 z m 0,-4 0,-1.33333 0.66667,0.66666 0.66666,0.66667 -0.66666,0.66667 -0.66667,0.66666 0,-1.33333 z m 0,-4 0,-1.33333 0.66667,0.66666 0.66666,0.66667 -0.66666,0.66667 -0.66667,0.66666 0,-1.33333 z m 0,-4 0,-1.33333 0.66667,0.66666 0.66666,0.66667 -0.66666,0.66667 -0.66667,0.66666 0,-1.33333 z m 0,-4 0,-1.33333 0.66667,0.66666 0.66666,0.66667 -0.66666,0.66667 -0.66667,0.66666 0,-1.33333 z m 0,-4.000001 0,-1.33333 0.66667,0.66666 0.66666,0.66667 -0.66666,0.66667 -0.66667,0.66666 0,-1.33333 z m 0,-4 0,-1.33333 0.66667,0.66666 0.66666,0.66667 -0.66666,0.66667 -0.66667,0.66666 0,-1.33333 z m 0,-4 0,-1.33333 0.66667,0.66666 0.66666,0.66667 -0.66666,0.66667 -0.66667,0.66666 0,-1.33333 z m 0,-4 0,-1.33333 0.66667,0.66666 0.66666,0.66667 -0.66666,0.66667 -0.66667,0.66666 0,-1.33333 z"
     style="fill:#006680;stroke:none" />
  <path
     inkscape:connector-curvature="0"
     id="path3157-8-2"
     d="M 18.72416,40.409501 18.73696,1.65389 19.48057,0.91028 20.22418,0.16667 20.23948,1.58333 20.25478,3 21.22415,1.5 22.19352,0 l 0.0153,1.30902 0.0153,1.30901 1.09977,-0.67969 1.09977,-0.67969 -1.09977,2.05493 c -0.60487,1.13022 -1.09977,2.33608 -1.09977,2.6797 l 0,0.62475 1.09977,-0.67969 1.09977,-0.67969 -1.09977,2.05493 c -0.60487,1.13022 -1.09977,2.33608 -1.09977,2.6797 l 0,0.62475 1.09977,-0.67969 1.09977,-0.67969 -1.09977,2.05493 c -0.60487,1.13022 -1.09977,2.33608 -1.09977,2.6797 l 0,0.62475 1.09977,-0.67969 1.09977,-0.67969 -1.09977,2.05493 c -0.60487,1.13022 -1.09977,2.33608 -1.09977,2.6797 l 0,0.624751 1.09977,-0.679691 1.09977,-0.67969 -1.09977,2.054931 c -0.60487,1.13022 -1.09977,2.33608 -1.09977,2.6797 l 0,0.62475 1.09977,-0.67969 1.09977,-0.67969 -1.09977,2.05493 c -0.60487,1.13022 -1.09977,2.33608 -1.09977,2.6797 l 0,0.62475 1.09977,-0.67969 1.09977,-0.67969 -1.09977,2.05493 c -0.60487,1.13022 -1.09977,2.33608 -1.09977,2.6797 l 0,0.62475 1.09977,-0.67969 1.09977,-0.67969 -1.09977,2.05493 c -0.60487,1.13022 -1.09977,2.33608 -1.09977,2.6797 l 0,0.62475 1.09977,-0.67969 1.09977,-0.67969 -1.09977,2.05493 c -0.60487,1.13022 -1.09977,2.33608 -1.09977,2.6797 l 0,0.62475 1.09977,-0.67969 1.09977,-0.67969 -1.09977,2.05493 c -0.60487,1.13022 -1.09977,2.33608 -1.09977,2.6797 l 0,0.62475 1.09977,-0.67969 1.09977,-0.67969 -1.09977,2.05493 c -0.60487,1.13022 -1.09977,2.33608 -1.09977,2.6797 l 0,0.62475 1.09977,-0.67969 1.09977,-0.67969 -1.09977,2.05493 c -0.60487,1.13022 -1.09977,2.33608 -1.09977,2.6797 l 0,0.62475 1.09977,-0.67969 1.09977,-0.67969 -1.09977,2.05493 c -0.60487,1.13022 -1.09977,2.33608 -1.09977,2.6797 l 0,0.62475 1.09977,-0.67969 1.09977,-0.67969 -1.09977,2.05493 c -0.60487,1.13022 -1.09977,2.33608 -1.09977,2.6797 l 0,0.62475 1.09977,-0.67969 1.09977,-0.67969 -1.09977,2.05493 c -0.60487,1.13022 -1.09977,2.33608 -1.09977,2.6797 l 0,0.62475 1.09977,-0.67969 1.09977,-0.67969 -1.09977,2.05493 c -0.60487,1.13022 -1.09977,2.33608 -1.09977,2.6797 l 0,0.62475 1.09977,-0.67969 1.09977,-0.67969 -1.09977,2.05493 c -0.60487,1.13022 -1.09977,2.33608 -1.09977,2.6797 l 0,0.62475 1.09977,-0.67969 1.09977,-0.67969 -1.09977,2.05493 c -0.60487,1.13022 -1.09977,2.33608 -1.09977,2.6797 l 0,0.62475 1.09977,-0.67969 1.09977,-0.67969 -1.09977,2.05493 c -0.60487,1.13022 -1.09977,2.33608 -1.09977,2.6797 l 0,0.62475 1.25,-0.71934 1.25,-0.71934 -0.79792,0.87491 c -0.43885,0.4812 -1.79171,0.928 -3.00636,0.99288 l -2.20844,0.11797 0.0127,-38.75561 z m 3.00451,-0.41146 0.0265,-37.357211 -0.64445,1.04274 -0.64445,1.04274 -0.38228,-1.14686 c -0.21026,-0.63077 -0.32047,15.630821 -0.24492,36.136851 0.0756,20.50603 0.1931,37.6962 0.26123,38.20037 l 0.12387,0.91666 0.73904,-0.73904 0.73905,-0.73904 0.0265,-37.35721 z m -1.50454,35.50196 0,-1.33333 0.66667,0.66666 0.66666,0.66667 -0.66666,0.66667 -0.66667,0.66666 0,-1.33333 z m 0,-4 0,-1.33333 0.66667,0.66666 0.66666,0.66667 -0.66666,0.66667 -0.66667,0.66666 0,-1.33333 z m 0,-4 0,-1.33333 0.66667,0.66666 0.66666,0.66667 -0.66666,0.66667 -0.66667,0.66666 0,-1.33333 z m 0,-4 0,-1.33333 0.66667,0.66666 0.66666,0.66667 -0.66666,0.66667 -0.66667,0.66666 0,-1.33333 z m 0,-4 0,-1.33333 0.66667,0.66666 0.66666,0.66667 -0.66666,0.66667 -0.66667,0.66666 0,-1.33333 z m 0,-4 0,-1.33333 0.66667,0.66666 0.66666,0.66667 -0.66666,0.66667 -0.66667,0.66666 0,-1.33333 z m 0,-4 0,-1.33333 0.66667,0.66666 0.66666,0.66667 -0.66666,0.66667 -0.66667,0.66666 0,-1.33333 z m 0,-4 0,-1.33333 0.66667,0.66666 0.66666,0.66667 -0.66666,0.66667 -0.66667,0.66666 0,-1.33333 z m 0,-4 0,-1.33333 0.66667,0.66666 0.66666,0.66667 -0.66666,0.66667 -0.66667,0.66666 0,-1.33333 z m 0,-4 0,-1.33333 0.66667,0.66666 0.66666,0.66667 -0.66666,0.66667 -0.66667,0.66666 0,-1.33333 z m 0,-4 0,-1.33333 0.66667,0.66666 0.66666,0.66667 -0.66666,0.66667 -0.66667,0.66666 0,-1.33333 z m 0,-4 0,-1.33333 0.66667,0.66666 0.66666,0.66667 -0.66666,0.66667 -0.66667,0.66666 0,-1.33333 z m 0,-4 0,-1.33333 0.66667,0.66666 0.66666,0.66667 -0.66666,0.66667 -0.66667,0.66666 0,-1.33333 z m 0,-4 0,-1.33333 0.66667,0.66666 0.66666,0.66667 -0.66666,0.66667 -0.66667,0.66666 0,-1.33333 z m 0,-4 0,-1.333331 0.66667,0.666661 0.66666,0.66667 -0.66666,0.66667 -0.66667,0.66666 0,-1.33333 z m 0,-4.000001 0,-1.33333 0.66667,0.66666 0.66666,0.66667 -0.66666,0.66667 -0.66667,0.66666 0,-1.33333 z m 0,-4 0,-1.33333 0.66667,0.66666 0.66666,0.66667 -0.66666,0.66667 -0.66667,0.66666 0,-1.33333 z m 0,-4 0,-1.33333 0.66667,0.66666 0.66666,0.66667 -0.66666,0.66667 -0.66667,0.66666 0,-1.33333 z m 5.8893,71.500001 c -0.0777,-0.55 -0.19813,-18.3475 -0.26756,-39.55 L 25.71964,0.9 l 2.00859,0 2.0086,0 -0.0127,38.723061 -0.0127,38.72305 -0.74362,0.74361 -0.7436,0.74361 -0.0153,-1.41666 -0.0153,-1.41667 -0.96937,1.5 -0.96937,1.5 -0.14133,-1 z m 1.99725,-2.68357 0.64445,1.04274 -0.0265,-37.35721 L 28.70213,2.64475 27.96308,1.90571 27.22404,1.16667 27.10017,2.08333 c -0.0681,0.50417 -0.18568,17.694341 -0.26123,38.200371 -0.0755,20.50603 0.0347,36.76761 0.24492,36.13685 l 0.38228,-1.14685 0.64445,1.04273 z m -0.88655,-3.81643 0,-1.33333 0.66667,0.66666 0.66666,0.66667 -0.66666,0.66667 -0.66667,0.66666 0,-1.33333 z m 0,-4 0,-1.33333 0.66667,0.66666 0.66666,0.66667 -0.66666,0.66667 -0.66667,0.66666 0,-1.33333 z m 0,-4 0,-1.33333 0.66667,0.66666 0.66666,0.66667 -0.66666,0.66667 -0.66667,0.66666 0,-1.33333 z m 0,-4 0,-1.33333 0.66667,0.66666 0.66666,0.66667 -0.66666,0.66667 -0.66667,0.66666 0,-1.33333 z m 0,-4 0,-1.33333 0.66667,0.66666 0.66666,0.66667 -0.66666,0.66667 -0.66667,0.66666 0,-1.33333 z m 0,-4 0,-1.33333 0.66667,0.66666 0.66666,0.66667 -0.66666,0.66667 -0.66667,0.66666 0,-1.33333 z m 0,-4 0,-1.33333 0.66667,0.66666 0.66666,0.66667 -0.66666,0.66667 -0.66667,0.66666 0,-1.33333 z m 0,-4 0,-1.33333 0.66667,0.66666 0.66666,0.66667 -0.66666,0.66667 -0.66667,0.66666 0,-1.33333 z m 0,-4 0,-1.33333 0.66667,0.66666 0.66666,0.66667 -0.66666,0.66667 -0.66667,0.66666 0,-1.33333 z m 0,-4 0,-1.33333 0.66667,0.66666 0.66666,0.66667 -0.66666,0.66667 -0.66667,0.66666 0,-1.33333 z m 0,-4 0,-1.33333 0.66667,0.66666 0.66666,0.66667 -0.66666,0.66667 -0.66667,0.66666 0,-1.33333 z m 0,-4 0,-1.33333 0.66667,0.66666 0.66666,0.66667 -0.66666,0.66667 -0.66667,0.66666 0,-1.33333 z m 0,-4 0,-1.33333 0.66667,0.66666 0.66666,0.66667 -0.66666,0.66667 -0.66667,0.66666 0,-1.33333 z m 0,-4 0,-1.33333 0.66667,0.66666 0.66666,0.66667 -0.66666,0.66667 -0.66667,0.66666 0,-1.33333 z m 0,-4.000001 0,-1.33333 0.66667,0.66666 0.66666,0.66667 -0.66666,0.66667 -0.66667,0.66666 0,-1.33333 z m 0,-4 0,-1.33333 0.66667,0.66666 0.66666,0.66667 -0.66666,0.66667 -0.66667,0.66666 0,-1.33333 z m 0,-4 0,-1.33333 0.66667,0.66666 0.66666,0.66667 -0.66666,0.66667 -0.66667,0.66666 0,-1.33333 z m 0,-4 0,-1.33333 0.66667,0.66666 0.66666,0.66667 -0.66666,0.66667 -0.66667,0.66666 0,-1.33333 z m 5.49146,35.876991 0.0128,-39.186951 1.73468,-0.2546 1.73467,-0.2546 -0.98679,1.84384 c -0.54273,1.01411 -0.98679,2.12498 -0.98679,2.4686 l 0,0.62475 1.09977,-0.67969 1.09977,-0.67969 -1.09977,2.05493 c -0.60487,1.13022 -1.09977,2.33608 -1.09977,2.6797 l 0,0.62475 1.09977,-0.67969 1.09977,-0.67969 -1.09977,2.05493 c -0.60487,1.13022 -1.09977,2.33608 -1.09977,2.6797 l 0,0.62475 1.09977,-0.67969 1.09977,-0.67969 -1.09977,2.05493 c -0.60487,1.13022 -1.09977,2.33608 -1.09977,2.6797 l 0,0.62475 1.09977,-0.67969 1.09977,-0.67969 -1.09977,2.05493 c -0.60487,1.130221 -1.09977,2.336081 -1.09977,2.679701 l 0,0.62475 1.09977,-0.67969 1.09977,-0.67969 -1.09977,2.05493 c -0.60487,1.13022 -1.09977,2.33608 -1.09977,2.6797 l 0,0.62475 1.09977,-0.67969 1.09977,-0.67969 -1.09977,2.05493 c -0.60487,1.13022 -1.09977,2.33608 -1.09977,2.6797 l 0,0.62475 1.09977,-0.67969 1.09977,-0.67969 -1.09977,2.05493 c -0.60487,1.13022 -1.09977,2.33608 -1.09977,2.6797 l 0,0.62475 1.09977,-0.67969 1.09977,-0.67969 -1.09977,2.05493 c -0.60487,1.13022 -1.09977,2.33608 -1.09977,2.6797 l 0,0.62475 1.09977,-0.67969 1.09977,-0.67969 -1.09977,2.05493 c -0.60487,1.13022 -1.09977,2.33608 -1.09977,2.6797 l 0,0.62475 1.09977,-0.67969 1.09977,-0.67969 -1.09977,2.05493 c -0.60487,1.13022 -1.09977,2.33608 -1.09977,2.6797 l 0,0.62475 1.09977,-0.67969 1.09977,-0.67969 -1.09977,2.05493 c -0.60487,1.13022 -1.09977,2.33608 -1.09977,2.6797 l 0,0.62475 1.09977,-0.67969 1.09977,-0.67969 -1.09977,2.05493 c -0.60487,1.13022 -1.09977,2.33608 -1.09977,2.6797 l 0,0.62475 1.09977,-0.67969 1.09977,-0.67969 -1.09977,2.05493 c -0.60487,1.13022 -1.09977,2.33608 -1.09977,2.6797 l 0,0.62475 1.09977,-0.67969 1.09977,-0.67969 -1.09977,2.05493 c -0.60487,1.13022 -1.09977,2.33608 -1.09977,2.6797 l 0,0.62475 1.09977,-0.67969 1.09977,-0.67969 -1.09977,2.05493 c -0.60487,1.13022 -1.09977,2.33608 -1.09977,2.6797 l 0,0.62475 1.09977,-0.67969 1.09977,-0.67969 -1.09977,2.05493 c -0.60487,1.13022 -1.09977,2.33608 -1.09977,2.6797 l 0,0.62475 1.09977,-0.67969 1.09977,-0.67969 -1.09977,2.05493 c -0.60487,1.13022 -1.09977,2.33608 -1.09977,2.6797 l 0,0.62475 1.09977,-0.67969 1.09977,-0.67969 -1.09977,2.05493 c -0.60487,1.13022 -1.09977,2.33608 -1.09977,2.6797 l 0,0.62475 0.98855,-0.61095 0.98854,-0.61096 -0.62771,1.63579 -0.62771,1.63578 -0.73978,-1.197 -0.73979,-1.197 -0.38171,1.14513 c -0.20994,0.62982 -0.37596,-16.489 -0.36893,-38.04183 z m 1.17521,33.45634 -0.66667,-0.66666 0,1.33333 0,1.33333 0.66667,-0.66666 0.66666,-0.66667 -0.66666,-0.66667 z m 0,-4 -0.66667,-0.66666 0,1.33333 0,1.33333 0.66667,-0.66666 0.66666,-0.66667 -0.66666,-0.66667 z m 0,-4 -0.66667,-0.66666 0,1.33333 0,1.33333 0.66667,-0.66666 0.66666,-0.66667 -0.66666,-0.66667 z m 0,-4 -0.66667,-0.66666 0,1.33333 0,1.33333 0.66667,-0.66666 0.66666,-0.66667 -0.66666,-0.66667 z m 0,-4 -0.66667,-0.66666 0,1.33333 0,1.33333 0.66667,-0.66666 0.66666,-0.66667 -0.66666,-0.66667 z m 0,-4 -0.66667,-0.66666 0,1.33333 0,1.33333 0.66667,-0.66666 0.66666,-0.66667 -0.66666,-0.66667 z m 0,-4 -0.66667,-0.66666 0,1.33333 0,1.33333 0.66667,-0.66666 0.66666,-0.66667 -0.66666,-0.66667 z m 0,-4 -0.66667,-0.66666 0,1.33333 0,1.33333 0.66667,-0.66666 0.66666,-0.66667 -0.66666,-0.66667 z m 0,-4 -0.66667,-0.66666 0,1.33333 0,1.33333 0.66667,-0.66666 0.66666,-0.66667 -0.66666,-0.66667 z m 0,-4 -0.66667,-0.66666 0,1.33333 0,1.33333 0.66667,-0.66666 0.66666,-0.66667 -0.66666,-0.66667 z m 0,-4 -0.66667,-0.66666 0,1.33333 0,1.33333 0.66667,-0.66666 0.66666,-0.66667 -0.66666,-0.66667 z m 0,-4 -0.66667,-0.66666 0,1.33333 0,1.33333 0.66667,-0.66666 0.66666,-0.66667 -0.66666,-0.66667 z m 0,-4 -0.66667,-0.66666 0,1.33333 0,1.33333 0.66667,-0.66666 0.66666,-0.66667 -0.66666,-0.66667 z m 0,-4 -0.66667,-0.66666 0,1.33333 0,1.33333 0.66667,-0.66666 0.66666,-0.66667 -0.66666,-0.66667 z m 0,-4.000001 -0.66667,-0.66666 0,1.33333 0,1.333331 0.66667,-0.66666 L 34.55746,18.5 33.8908,17.83333 z m 0,-4 -0.66667,-0.66666 0,1.33333 0,1.33333 L 33.8908,15.16667 34.55746,14.5 33.8908,13.83333 z m 0,-4 -0.66667,-0.66666 0,1.33333 0,1.33333 L 33.8908,11.16667 34.55746,10.5 33.8908,9.83333 z m 0,-4 -0.66667,-0.66666 0,1.33333 0,1.33333 L 33.8908,7.16667 34.55746,6.5 33.8908,5.83333 z m 0,-4 -0.66667,-0.66666 0,1.33333 0,1.33333 L 33.8908,3.16667 34.55746,2.5 33.8908,1.83333 z m 4.33333,76.666671 0,-1.33333 0.66667,0.66666 0.66666,0.66667 -0.66666,0.66667 -0.66667,0.66666 0,-1.33333 z m 2.45571,-38.5 L 40.68033,0 40.97315,20.316601 c 0.16105,11.17413 0.16083,29.17413 -4.9e-4,40 l -0.29331,19.6834 4.9e-4,-40 z m 6,0 L 46.68033,0 46.97315,20.316601 c 0.16105,11.17413 0.16083,29.17413 -4.9e-4,40 l -0.29331,19.6834 4.9e-4,-40 z m 3.03796,0 0,-39.100001 2.00633,0 2.00633,0 0,39.100001 0,39.1 -2.00633,0 -2.00633,0 0,-39.1 z m 3.00973,0.0913 -0.01,-37.591451 -0.99675,7e-5 -0.99675,6e-5 -0.0649,37.250001 c -0.0357,20.4875 0.10792,37.59484 0.3191,38.01631 0.21118,0.42147 0.69336,0.5751 1.07152,0.34138 l 0.68755,-0.42493 -0.01,-37.59144 z m -14.42445,34.82535 0.0789,-1.91667 0.52521,1.3125 0.52522,1.3125 -0.60416,0.60417 -0.60417,0.60416 0.079,-1.91666 z m 0,-4 0.0789,-1.91667 0.52522,1.3125 0.52521,1.3125 -0.60416,0.60417 -0.60417,0.60416 0.079,-1.91666 z m 0,-4 0.0789,-1.91667 0.52522,1.3125 0.52521,1.3125 -0.60416,0.60417 -0.60417,0.60416 0.079,-1.91666 z m 0,-4 0.0789,-1.91667 0.52522,1.3125 0.52521,1.3125 -0.60416,0.60417 -0.60417,0.60416 0.079,-1.91666 z m 0,-4 0.0789,-1.91667 0.52522,1.3125 0.52521,1.3125 -0.60416,0.60417 -0.60417,0.60416 0.079,-1.91666 z m 0,-4 0.0789,-1.91667 0.52522,1.3125 0.52521,1.3125 -0.60416,0.60417 -0.60417,0.60416 0.079,-1.91666 z m 0,-4 0.0789,-1.91667 0.52522,1.3125 0.52521,1.3125 -0.60416,0.60417 -0.60417,0.60416 0.079,-1.91666 z m 0,-4 0.0789,-1.91667 0.52522,1.3125 0.52521,1.3125 -0.60416,0.60417 -0.60417,0.60416 0.079,-1.91666 z m 0,-4 0.0789,-1.91667 0.52522,1.3125 0.52521,1.3125 -0.60416,0.60417 -0.60417,0.60416 0.079,-1.91666 z m 0,-4 0.0789,-1.91667 0.52522,1.3125 0.52521,1.3125 -0.60416,0.60417 -0.60417,0.60416 0.079,-1.91666 z m 0,-4 0.0789,-1.91667 0.52522,1.3125 0.52521,1.3125 -0.60416,0.60417 -0.60417,0.60416 0.079,-1.91666 z m 0,-4 0.0789,-1.91667 0.52522,1.3125 0.52521,1.3125 -0.60416,0.60417 -0.60417,0.60416 0.079,-1.91666 z m 0,-4 0.0789,-1.91667 0.52522,1.3125 0.52521,1.3125 -0.60416,0.60417 -0.60417,0.60416 0.079,-1.91666 z m 0,-4 0.0789,-1.91667 0.52522,1.3125 0.52521,1.3125 -0.60416,0.60417 -0.60417,0.60416 0.079,-1.91666 z m 0,-4 0.0789,-1.916671 0.52522,1.3125 0.52521,1.312501 -0.60416,0.60417 -0.60417,0.60416 0.079,-1.91666 z m 0,-4.000001 0.0789,-1.91667 0.52522,1.3125 0.52521,1.3125 -0.60416,0.60417 -0.60417,0.60416 0.079,-1.91666 z m 0,-4 0.0789,-1.91667 0.52522,1.3125 0.52521,1.3125 -0.60416,0.60417 -0.60417,0.60416 0.079,-1.91666 z m 0,-4 0.0789,-1.91667 0.52521,1.3125 0.52522,1.3125 -0.60416,0.60417 -0.60417,0.60416 0.079,-1.91666 z m 0,-4 0.0789,-1.91667 0.52521,1.3125 0.52522,1.3125 -0.60416,0.60417 -0.60417,0.60416 0.079,-1.91666 z"
     style="fill:#ff7f2a;stroke:none" />
  <path
     inkscape:connector-curvature="0"
     id="path3147-3-9"
     d="m 6.95901,40.602971 0.006,-40.086051 17.5,0.0483 17.5,0.0483 0.003,40.005251 0.003,40.00525 -2.00965,0 -2.00964,0 0.01,-38.21981 0.01,-38.219811 0.90718,-0.83019 0.90736,-0.83019 -0.71934,1.25 c -0.39564,0.6875 -0.52289,1.25 -0.28277,1.25 0.24011,0 0.90849,-0.56862 1.48527,-1.26361 L 41.31813,2.4968 38.40324,2.37768 35.48835,2.25855 35.21518,41.891291 34.942,81.524021 34.70381,41.785221 34.46561,2.04642 l -2.5,0.20691 -2.5,0.20691 -0.23274,39.531891 -0.23275,39.53189 -0.53451,-40 -0.53452,-40.000001 -0.23274,39.750001 -0.23274,39.75 -1.5,0 -1.5,0 0,-0.8 c 0,-0.44 0.5625,-1.4308 1.25,-2.20177 l 1.25,-1.40177 -1.75,1.32421 -1.75,1.32422 0,-0.89994 c 0,-0.49497 0.76602,-2.01257 1.70228,-3.37244 l 1.70227,-2.47251 -1.70227,1.37244 -1.70228,1.37245 0,-0.89994 c 0,-0.49497 0.76602,-2.01257 1.70228,-3.37244 l 1.70227,-2.47251 -1.70227,1.37244 -1.70228,1.37245 0,-0.89994 c 0,-0.49497 0.76602,-2.01257 1.70228,-3.37244 l 1.70227,-2.47251 -1.70227,1.37244 -1.70228,1.37245 0,-0.89994 c 0,-0.49497 0.76602,-2.01257 1.70228,-3.37244 l 1.70227,-2.47251 -1.70227,1.37244 -1.70228,1.37245 0,-0.89994 c 0,-0.49497 0.76602,-2.01257 1.70228,-3.37244 l 1.70227,-2.47251 -1.70227,1.37244 -1.70228,1.37245 0,-0.89994 c 0,-0.49497 0.76602,-2.01257 1.70228,-3.37244 l 1.70227,-2.47251 -1.70227,1.37244 -1.70228,1.37245 0,-0.89994 c 0,-0.49497 0.76602,-2.01257 1.70228,-3.37244 l 1.70227,-2.47251 -1.70227,1.37244 -1.70228,1.37245 0,-0.89994 c 0,-0.49497 0.76602,-2.01257 1.70228,-3.37244 l 1.70227,-2.47251 -1.70227,1.37244 -1.70228,1.37245 0,-0.89994 c 0,-0.49497 0.76602,-2.01257 1.70228,-3.37244 l 1.70227,-2.47251 -1.70227,1.37244 -1.70228,1.37245 0,-0.89994 c 0,-0.49497 0.76602,-2.01257 1.70228,-3.37244 l 1.70227,-2.47251 -1.70227,1.37244 -1.70228,1.37245 0,-0.89994 c 0,-0.49497 0.76602,-2.01257 1.70228,-3.37244 l 1.70227,-2.47251 -1.70227,1.37244 -1.70228,1.37245 0,-0.89994 c 0,-0.49497 0.76602,-2.01257 1.70228,-3.37244 l 1.70227,-2.47251 -1.70227,1.37244 -1.70228,1.37245 0,-0.89994 c 0,-0.49497 0.76602,-2.01257 1.70228,-3.37244 l 1.70227,-2.47251 -1.70227,1.37244 -1.70228,1.37245 0,-0.89994 c 0,-0.49497 0.76602,-2.01257 1.70228,-3.37244 l 1.70227,-2.47251 -1.70227,1.37244 -1.70228,1.37245 0,-0.89994 c 0,-0.49497 0.76602,-2.01257 1.70228,-3.37244 l 1.70227,-2.472511 -1.70227,1.37244 -1.70228,1.372451 0,-0.899941 c 0,-0.49497 0.76602,-2.01257 1.70228,-3.37244 l 1.70227,-2.47251 -1.70227,1.37245 -1.70228,1.37244 0,-0.89994 c 0,-0.49497 0.76602,-2.01257 1.70228,-3.37244 l 1.70227,-2.47251 -1.70227,1.37244 -1.70228,1.37245 0,-0.89994 c 0,-0.49497 0.76602,-2.01257 1.70228,-3.37244 l 1.70227,-2.47251 -1.70227,1.37244 c -0.93626,0.75485 -1.70228,1.06277 -1.70228,0.68426 0,-0.3785 0.41748,-1.46824 0.92772,-2.42165 l 0.92773,-1.73347 -3.67773,0.0492 -3.67772,0.0492 -0.002,38.668911 -0.002,38.66891 -0.74776,0.74776 -0.74775,0.74775 -0.0153,-1.41666 -0.0153,-1.41667 -0.96937,1.5 -0.96937,1.5 -0.1434,-1.5 c -0.0789,-0.825 -0.19826,-18.59384 -0.26531,-39.4863 L 13.96613,2.55139 l -1.75,-0.33702 -1.75,-0.33702 0,1.13234 0,1.13234 1.09977,-0.67969 1.09977,-0.67969 -1.09977,2.05493 c -0.60487,1.13022 -1.09977,2.33608 -1.09977,2.6797 l 0,0.62475 1.09977,-0.67969 1.09977,-0.67969 -1.09977,2.05493 c -0.60487,1.13022 -1.09977,2.33608 -1.09977,2.6797 l 0,0.62475 1.09977,-0.67969 1.09977,-0.67969 -1.09977,2.05493 c -0.60487,1.13022 -1.09977,2.33608 -1.09977,2.6797 l 0,0.62475 1.09977,-0.67969 1.09977,-0.67969 -1.09977,2.05493 c -0.60487,1.13022 -1.09977,2.336081 -1.09977,2.679701 l 0,0.62475 1.09977,-0.67969 1.09977,-0.67969 -1.09977,2.05493 c -0.60487,1.13022 -1.09977,2.33608 -1.09977,2.6797 l 0,0.62475 1.09977,-0.67969 1.09977,-0.67969 -1.09977,2.05493 c -0.60487,1.13022 -1.09977,2.33608 -1.09977,2.6797 l 0,0.62475 1.09977,-0.67969 1.09977,-0.67969 -1.09977,2.05493 c -0.60487,1.13022 -1.09977,2.33608 -1.09977,2.6797 l 0,0.62475 1.09977,-0.67969 1.09977,-0.67969 -1.09977,2.05493 c -0.60487,1.13022 -1.09977,2.33608 -1.09977,2.6797 l 0,0.62475 1.09977,-0.67969 1.09977,-0.67969 -1.09977,2.05493 c -0.60487,1.13022 -1.09977,2.33608 -1.09977,2.6797 l 0,0.62475 1.09977,-0.67969 1.09977,-0.67969 -1.09977,2.05493 c -0.60487,1.13022 -1.09977,2.33608 -1.09977,2.6797 l 0,0.62475 1.09977,-0.67969 1.09977,-0.67969 -1.09977,2.05493 c -0.60487,1.13022 -1.09977,2.33608 -1.09977,2.6797 l 0,0.62475 1.09977,-0.67969 1.09977,-0.67969 -1.09977,2.05493 c -0.60487,1.13022 -1.09977,2.33608 -1.09977,2.6797 l 0,0.62475 1.09977,-0.67969 1.09977,-0.67969 -1.09977,2.05493 c -0.60487,1.13022 -1.09977,2.33608 -1.09977,2.6797 l 0,0.62475 1.09977,-0.67969 1.09977,-0.67969 -1.09977,2.05493 c -0.60487,1.13022 -1.09977,2.33608 -1.09977,2.6797 l 0,0.62475 1.09977,-0.67969 1.09977,-0.67969 -1.09977,2.05493 c -0.60487,1.13022 -1.09977,2.33608 -1.09977,2.6797 l 0,0.62475 1.09977,-0.67969 1.09977,-0.67969 -1.09977,2.05493 c -0.60487,1.13022 -1.09977,2.33608 -1.09977,2.6797 l 0,0.62475 1.09977,-0.67969 1.09977,-0.67969 -1.09977,2.05493 c -0.60487,1.13022 -1.09977,2.33608 -1.09977,2.6797 l 0,0.62475 1.09977,-0.67969 1.09977,-0.67969 -1.09977,2.05493 c -0.60487,1.13022 -1.09977,2.33608 -1.09977,2.6797 l 0,0.62475 1.09977,-0.67969 1.09977,-0.67969 -1.09977,2.05493 c -0.60487,1.13022 -1.09977,2.33608 -1.09977,2.6797 l 0,0.62475 1.25,-0.71934 1.25,-0.71934 -0.79792,0.87491 c -0.43885,0.4812 -1.79139,0.92798 -3.00564,0.99284 l -2.20773,0.11793 0.006,-40.08605 z m 2.89077,0.24831 C 9.77418,20.321271 9.64977,3.07399 9.57322,2.52399 l -0.13919,-1 L 8.6881,2.6967 7.94216,3.86941 8.07954,41.196701 c 0.0756,20.53001 0.20001,37.77729 0.27656,38.32729 l 0.13919,1 0.74593,-1.17271 0.74594,-1.17271 -0.13738,-37.32729 z m -1.38512,36.17271 0,-1.33333 0.66667,0.66666 0.66666,0.66667 -0.66666,0.66667 -0.66667,0.66666 0,-1.33333 z m 0,-4 0,-1.33333 0.66667,0.66666 0.66666,0.66667 -0.66666,0.66667 -0.66667,0.66666 0,-1.33333 z m 0,-4 0,-1.33333 0.66667,0.66666 0.66666,0.66667 -0.66666,0.66667 -0.66667,0.66666 0,-1.33333 z m 0,-4 0,-1.33333 0.66667,0.66666 0.66666,0.66667 -0.66666,0.66667 -0.66667,0.66666 0,-1.33333 z m 0,-4 0,-1.33333 0.66667,0.66666 0.66666,0.66667 -0.66666,0.66667 -0.66667,0.66666 0,-1.33333 z m 0,-4 0,-1.33333 0.66667,0.66666 0.66666,0.66667 -0.66666,0.66667 -0.66667,0.66666 0,-1.33333 z m 0,-4 0,-1.33333 0.66667,0.66666 0.66666,0.66667 -0.66666,0.66667 -0.66667,0.66666 0,-1.33333 z m 0,-4 0,-1.33333 0.66667,0.66666 0.66666,0.66667 -0.66666,0.66667 -0.66667,0.66666 0,-1.33333 z m 0,-4 0,-1.33333 0.66667,0.66666 0.66666,0.66667 -0.66666,0.66667 -0.66667,0.66666 0,-1.33333 z m 0,-4 0,-1.33333 0.66667,0.66666 0.66666,0.66667 -0.66666,0.66667 -0.66667,0.66666 0,-1.33333 z m 0,-4 0,-1.33333 0.66667,0.66666 0.66666,0.66667 -0.66666,0.66667 -0.66667,0.66666 0,-1.33333 z m 0,-4 0,-1.33333 0.66667,0.66666 0.66666,0.66667 -0.66666,0.66667 -0.66667,0.66666 0,-1.33333 z m 0,-4 0,-1.33333 0.66667,0.66666 0.66666,0.66667 -0.66666,0.66667 -0.66667,0.66666 0,-1.33333 z m 0,-4 0,-1.33333 0.66667,0.66666 0.66666,0.66667 -0.66666,0.66667 -0.66667,0.66666 0,-1.33333 z m 0,-4 0,-1.33333 0.66667,0.66666 0.66666,0.66667 -0.66666,0.66667 -0.66667,0.66666 0,-1.33333 z m 0,-4.000001 0,-1.33333 0.66667,0.66666 0.66666,0.66667 -0.66666,0.66667 -0.66667,0.66666 0,-1.33333 z m 0,-4 0,-1.33333 0.66667,0.66666 0.66666,0.66667 -0.66666,0.66667 -0.66667,0.66666 0,-1.33333 z m 0,-4 0,-1.33333 0.66667,0.66666 0.66666,0.66667 -0.66666,0.66667 -0.66667,0.66666 0,-1.33333 z m 0,-4 0,-1.33333 0.66667,0.66666 0.66666,0.66667 -0.66666,0.66667 -0.66667,0.66666 0,-1.33333 z m 32.50338,36.499451 0.01,-37.340341 -1.01343,0.84108 -1.01343,0.84107 0.13352,36.829371 c 0.0734,20.25615 0.18902,37.01687 0.25683,37.24604 0.0678,0.22916 0.45935,0.0806 0.87007,-0.33011 l 0.74678,-0.74677 0.01,-37.34034 z m -24.62163,36.30921 0.63964,1.03496 -0.0107,-38.25514 -0.0107,-38.255151 -1,0 -1,0 -0.0107,38.365531 c -0.006,21.10104 0.16107,37.85012 0.37105,37.22018 l 0.38178,-1.14535 0.63965,1.03497 z m -0.88175,-3.80866 0,-1.33333 0.66667,0.66666 0.66666,0.66667 -0.66666,0.66667 -0.66667,0.66666 0,-1.33333 z m 0,-4 0,-1.33333 0.66667,0.66666 0.66666,0.66667 -0.66666,0.66667 -0.66667,0.66666 0,-1.33333 z m 0,-4 0,-1.33333 0.66667,0.66666 0.66666,0.66667 -0.66666,0.66667 -0.66667,0.66666 0,-1.33333 z m 0,-4 0,-1.33333 0.66667,0.66666 0.66666,0.66667 -0.66666,0.66667 -0.66667,0.66666 0,-1.33333 z m 0,-4 0,-1.33333 0.66667,0.66666 0.66666,0.66667 -0.66666,0.66667 -0.66667,0.66666 0,-1.33333 z m 0,-4 0,-1.33333 0.66667,0.66666 0.66666,0.66667 -0.66666,0.66667 -0.66667,0.66666 0,-1.33333 z m 0,-4 0,-1.33333 0.66667,0.66666 0.66666,0.66667 -0.66666,0.66667 -0.66667,0.66666 0,-1.33333 z m 0,-4 0,-1.33333 0.66667,0.66666 0.66666,0.66667 -0.66666,0.66667 -0.66667,0.66666 0,-1.33333 z m 0,-4 0,-1.33333 0.66667,0.66666 0.66666,0.66667 -0.66666,0.66667 -0.66667,0.66666 0,-1.33333 z m 0,-4 0,-1.33333 0.66667,0.66666 0.66666,0.66667 -0.66666,0.66667 -0.66667,0.66666 0,-1.33333 z m 0,-4 0,-1.33333 0.66667,0.66666 0.66666,0.66667 -0.66666,0.66667 -0.66667,0.66666 0,-1.33333 z m 0,-4 0,-1.33333 0.66667,0.66666 0.66666,0.66667 -0.66666,0.66667 -0.66667,0.66666 0,-1.33333 z m 0,-4 0,-1.33333 0.66667,0.66666 0.66666,0.66667 -0.66666,0.66667 -0.66667,0.66666 0,-1.33333 z m 0,-4 0,-1.33333 0.66667,0.66666 0.66666,0.66667 -0.66666,0.66667 -0.66667,0.66666 0,-1.33333 z m 0,-4.000001 0,-1.33333 0.66667,0.66666 0.66666,0.66667 -0.66666,0.666671 -0.66667,0.66666 0,-1.333331 z m 0,-4 0,-1.33333 0.66667,0.66666 0.66666,0.66667 -0.66666,0.66667 -0.66667,0.66666 0,-1.33333 z m 0,-4 0,-1.33333 0.66667,0.66666 0.66666,0.66667 -0.66666,0.66667 -0.66667,0.66666 0,-1.33333 z m 0,-4 0,-1.33333 0.66667,0.66666 0.66666,0.66667 -0.66666,0.66667 -0.66667,0.66666 0,-1.33333 z m 5.48718,36.104351 0,-38.934111 0.63536,1.02803 0.63536,1.02804 0.37746,-1.13239 c 0.2076,-0.62281 0.37746,16.387971 0.37746,37.801731 l 0,38.93411 -0.63536,-1.02803 -0.63536,-1.02803 -0.37746,1.13238 c -0.2076,0.62281 -0.37746,-16.38797 -0.37746,-37.80173 z m 1.17949,33.22898 -0.66667,-0.66666 0,1.33333 0,1.33333 0.66667,-0.66666 0.66666,-0.66667 -0.66666,-0.66667 z m 0,-4 -0.66667,-0.66666 0,1.33333 0,1.33333 0.66667,-0.66666 0.66666,-0.66667 -0.66666,-0.66667 z m 0,-4 -0.66667,-0.66666 0,1.33333 0,1.33333 0.66667,-0.66666 0.66666,-0.66667 -0.66666,-0.66667 z m 0,-4 -0.66667,-0.66666 0,1.33333 0,1.33333 0.66667,-0.66666 0.66666,-0.66667 -0.66666,-0.66667 z m 0,-4 -0.66667,-0.66666 0,1.33333 0,1.33333 0.66667,-0.66666 0.66666,-0.66667 -0.66666,-0.66667 z m 0,-4 -0.66667,-0.66666 0,1.33333 0,1.33333 0.66667,-0.66666 0.66666,-0.66667 -0.66666,-0.66667 z m 0,-4 -0.66667,-0.66666 0,1.33333 0,1.33333 0.66667,-0.66666 0.66666,-0.66667 -0.66666,-0.66667 z m 0,-4 -0.66667,-0.66666 0,1.33333 0,1.33333 0.66667,-0.66666 0.66666,-0.66667 -0.66666,-0.66667 z m 0,-4 -0.66667,-0.66666 0,1.33333 0,1.33333 0.66667,-0.66666 0.66666,-0.66667 -0.66666,-0.66667 z m 0,-4 -0.66667,-0.66666 0,1.33333 0,1.33333 0.66667,-0.66666 0.66666,-0.66667 -0.66666,-0.66667 z m 0,-4 -0.66667,-0.66666 0,1.33333 0,1.33333 0.66667,-0.66666 0.66666,-0.66667 -0.66666,-0.66667 z m 0,-4 -0.66667,-0.66666 0,1.33333 0,1.33333 0.66667,-0.66666 0.66666,-0.66667 -0.66666,-0.66667 z m 0,-4 -0.66667,-0.66666 0,1.33333 0,1.33333 0.66667,-0.66666 0.66666,-0.66667 -0.66666,-0.66667 z m 0,-4 -0.66667,-0.66666 0,1.33333 0,1.33333 0.66667,-0.66666 0.66666,-0.66667 -0.66666,-0.66667 z m 0,-4 -0.66667,-0.66666 0,1.33333 0,1.33333 0.66667,-0.66666 0.66666,-0.66667 -0.66666,-0.66667 z m 0,-4.000001 -0.66667,-0.66666 0,1.33333 0,1.33333 0.66667,-0.66666 0.66666,-0.66667 -0.66666,-0.66667 z m 0,-4 -0.66667,-0.66666 0,1.33333 0,1.33333 0.66667,-0.66666 0.66666,-0.66667 -0.66666,-0.66667 z m 0,-4 -0.66667,-0.66666 0,1.33333 0,1.33333 0.66667,-0.66666 0.66666,-0.66667 -0.66666,-0.66667 z"
     style="fill:#006680;stroke:none" />
</svg>
