<?xml version="1.0" encoding="UTF-8" standalone="no"?>
<!-- Created with Inkscape (http://www.inkscape.org/) -->

<svg
   xmlns:dc="http://purl.org/dc/elements/1.1/"
   xmlns:cc="http://creativecommons.org/ns#"
   xmlns:rdf="http://www.w3.org/1999/02/22-rdf-syntax-ns#"
   xmlns:svg="http://www.w3.org/2000/svg"
   xmlns="http://www.w3.org/2000/svg"
   xmlns:sodipodi="http://sodipodi.sourceforge.net/DTD/sodipodi-0.dtd"
   xmlns:inkscape="http://www.inkscape.org/namespaces/inkscape"
   id="svg3071"
   version="1.1"
   inkscape:version="0.48.4 r9939"
   width="36"
   height="81"
   sodipodi:docname="VAvectorized3.svg">
  <metadata
     id="metadata3077">
    <rdf:RDF>
      <cc:Work
         rdf:about="">
        <dc:format>image/svg+xml</dc:format>
        <dc:type
           rdf:resource="http://purl.org/dc/dcmitype/StillImage" />
        <dc:title></dc:title>
      </cc:Work>
    </rdf:RDF>
  </metadata>
  <defs
     id="defs3075" />
  <sodipodi:namedview
     pagecolor="#ffffff"
     bordercolor="#666666"
     borderopacity="1"
     objecttolerance="10"
     gridtolerance="10"
     guidetolerance="10"
     inkscape:pageopacity="0"
     inkscape:pageshadow="2"
     inkscape:window-width="1266"
     inkscape:window-height="735"
     id="namedview3073"
     showgrid="false"
     inkscape:zoom="2.0645772"
     inkscape:cx="-671.32951"
     inkscape:cy="-275.12889"
     inkscape:window-x="12"
     inkscape:window-y="32"
     inkscape:window-maximized="0"
     inkscape:current-layer="svg3071" />
  <path
     inkscape:connector-curvature="0"
     id="path3019-4-3-2-1"
     d="m -606.01386,406.99595 0,-41 18,0 18,0 0,41 0,41 -18,0 -18,0 0,-41 z"
     style="fill:none;stroke:none" />
  <path
     inkscape:connector-curvature="0"
     id="path3017-4-7-8-8"
     d="m -598.49112,445.69978 -0.75559,-1.83385 -0.46691,1.25 -0.46691,1.25 -2.91666,0 -2.91667,0 0,-39.92903 0,-39.92903 9,-0.32097 c 4.95,-0.17653 13.05,-0.17653 18,0 l 9,0.32097 0,39.92903 0,39.92903 -2.34497,0 -2.34497,0 -0.65503,-13.65811 c -0.36027,-7.51196 -0.65503,-24.83696 -0.65503,-38.5 l 0,-24.84189 -1,0 -1,0 -0.125,28.5 c -0.0688,15.675 -0.2375,28.95 -0.375,29.5 -0.1375,0.55 -0.30625,5.2605 -0.375,10.46778 l -0.125,9.46777 -2.25,-0.82779 -2.25,-0.82778 -0.61836,-3.38999 -0.61836,-3.38999 -0.13164,4.25 -0.13164,4.25 -1.5,0 -1.5,0 0,-0.92718 0,-0.92718 -3.02342,0.38263 c -1.66288,0.21045 -3.46288,0.65424 -4,0.9862 l -0.97658,0.60356 -0.0153,-1.30901 -0.0153,-1.30902 -0.84552,1.33385 -0.84552,1.33384 -0.75559,-1.83384 z"
     style="fill:#ff0000;stroke:none" />
  <path
     inkscape:connector-curvature="0"
     id="path3015-1-8-5-8"
     d="m -598.49112,446.27483 -0.75559,-1.83385 -0.46691,1.25 -0.46691,1.25 -2.91666,0 -2.91667,0 0,-39.92903 0,-39.92903 9,-0.32097 c 4.95,-0.17653 13.05,-0.17653 18,0 l 9,0.32097 0,39.92903 0,39.92903 -2.34497,0 -2.34497,0 -0.65503,-13.65811 c -0.36027,-7.51196 -0.65854,-24.72446 -0.66283,-38.25 l -0.008,-24.59189 -2.50431,-1.16163 -2.50431,-1.16163 -0.85637,1.66163 -0.85638,1.66163 -0.66586,32 c -0.36622,17.6 -0.93755,34.8125 -1.26961,38.25 l -0.60375,6.25 -1.36191,0 -1.3619,0 0,-1.05902 0,-1.05901 -1.00706,0.62239 -1.00707,0.6224 -0.4376,-1.31338 c -0.24068,-0.72236 -0.66361,-4.01338 -0.93984,-7.31338 -0.27623,-3.3 -0.52613,-20.0625 -0.55533,-37.25 l -0.0531,-31.25 -1,0 -1,0 0,38.44098 0,38.44099 -1,0.61803 -1,0.61803 -0.0153,-1.30901 -0.0153,-1.30902 -0.84552,1.33385 -0.84552,1.33384 -0.75559,-1.83384 z"
     style="fill:#ff6600;stroke:none" />
  <path
     inkscape:connector-curvature="0"
     id="path3013-6-6-6-7"
     d="m -597.51384,405.09369 0,-38.70768 1,-0.5 1,-0.5 0.24155,39.5 0.24156,39.5 -0.87051,-1.36315 -0.8705,-1.36316 -0.37104,1.07083 c -0.20408,0.58896 -0.37105,-16.34762 -0.37105,-37.63684 z m 11.5,37.79232 0,-1.33333 0.66667,0.66666 0.66666,0.66667 -0.66666,0.66667 -0.66667,0.66666 0,-1.33333 z m -20,-38.83333 0,-38.83334 0.65799,-0.65799 0.658,-0.65799 1.36297,1.13116 1.36297,1.13117 -0.0656,38.36016 -0.0656,38.36016 -1.95539,0 -1.95538,0 0,-38.83333 z m 32.25,38.144 1.75,-0.45732 0,-36.86766 0,-36.86766 -1,-0.61803 c -0.55,-0.33992 -1,-1.04148 -1,-1.55902 l 0,-0.94098 2,0 2,0 0,39 0,39 -2.75,-0.116 -2.75,-0.116 1.75,-0.45733 z m -16.25,-29.31067 0,-1.33333 0.66667,0.66666 0.66666,0.66667 -0.66666,0.66667 -0.66667,0.66666 0,-1.33333 z m -0.45729,-3.9309 -0.57533,-0.9309 1.01631,-0.62812 1.01631,-0.62811 0,1.55901 c 0,0.85746 -0.19844,1.55902 -0.44098,1.55902 -0.24254,0 -0.69988,-0.41891 -1.01631,-0.9309 z m -0.54271,-4.5691 0,-1.5 1,0 1,0 0,1.5 0,1.5 -1,0 -1,0 0,-1.5 z m 0,-4 0,-1.5 1,0 1,0 0,1.5 0,1.5 -1,0 -1,0 0,-1.5 z m 0,-4 0,-1.5 1,0 1,0 0,1.5 0,1.5 -1,0 -1,0 0,-1.5 z m 0,-3.5 c 0,-0.55 0.45,-1 1,-1 0.55,0 1,0.45 1,1 0,0.55 -0.45,1 -1,1 -0.55,0 -1,-0.45 -1,-1 z m 0,-4.55902 0,-1.55901 1,0.61803 c 0.55,0.33992 1,1.04148 1,1.55902 0,0.51754 -0.45,0.94098 -1,0.94098 l -1,0 0,-1.55902 z m 0,-3.44098 c 0,-0.55 0.45,-1 1,-1 0.55,0 1,0.45 1,1 0,0.55 -0.45,1 -1,1 -0.55,0 -1,-0.45 -1,-1 z m 0,-4 c 0,-0.55 0.45,-1 1,-1 0.55,0 1,0.45 1,1 0,0.55 -0.45,1 -1,1 -0.55,0 -1,-0.45 -1,-1 z m 0,-4 c 0,-0.55 0.45,-1 1,-1 0.55,0 1,0.45 1,1 0,0.55 -0.45,1 -1,1 -0.55,0 -1,-0.45 -1,-1 z m 0,-4 c 0,-0.55 0.45,-1 1,-1 0.55,0 1,0.45 1,1 0,0.55 -0.45,1 -1,1 -0.55,0 -1,-0.45 -1,-1 z m 0.5,-5 c 0.33992,-0.55 0.84303,-1 1.11803,-1 0.275,0 0.22189,0.45 -0.11803,1 -0.33992,0.55 -0.84303,1 -1.11803,1 -0.275,0 -0.22189,-0.45 0.11803,-1 z"
     style="fill:#ffff00;stroke:none" />
</svg>
