<?xml version="1.0" encoding="UTF-8" standalone="no"?>
<!-- Created with Inkscape (http://www.inkscape.org/) -->

<svg
   xmlns:dc="http://purl.org/dc/elements/1.1/"
   xmlns:cc="http://creativecommons.org/ns#"
   xmlns:rdf="http://www.w3.org/1999/02/22-rdf-syntax-ns#"
   xmlns:svg="http://www.w3.org/2000/svg"
   xmlns="http://www.w3.org/2000/svg"
   xmlns:sodipodi="http://sodipodi.sourceforge.net/DTD/sodipodi-0.dtd"
   xmlns:inkscape="http://www.inkscape.org/namespaces/inkscape"
   width="210mm"
   height="297mm"
   id="svg4010"
   version="1.1"
   inkscape:version="0.48.3.1 r9886"
   sodipodi:docname="Nouveau document 14">
  <defs
     id="defs4012" />
  <sodipodi:namedview
     id="base"
     pagecolor="#ffffff"
     bordercolor="#666666"
     borderopacity="1.0"
     inkscape:pageopacity="0.0"
     inkscape:pageshadow="2"
     inkscape:zoom="0.35"
     inkscape:cx="375"
     inkscape:cy="520"
     inkscape:document-units="px"
     inkscape:current-layer="layer1"
     showgrid="false"
     inkscape:window-width="486"
     inkscape:window-height="383"
     inkscape:window-x="767"
     inkscape:window-y="172"
     inkscape:window-maximized="0" />
  <metadata
     id="metadata4015">
    <rdf:RDF>
      <cc:Work
         rdf:about="">
        <dc:format>image/svg+xml</dc:format>
        <dc:type
           rdf:resource="http://purl.org/dc/dcmitype/StillImage" />
        <dc:title></dc:title>
      </cc:Work>
    </rdf:RDF>
  </metadata>
  <g
     inkscape:label="Calque 1"
     inkscape:groupmode="layer"
     id="layer1">
    <path
       inkscape:connector-curvature="0"
       id="path3820"
       d="m 20.80613,1013.2795 -17.4557806,0 0,-27.5364 0,-27.53636 17.4557806,15.79726 17.455782,15.79731 0,11.73909 0,11.7391 -17.455781,0 z m 702.59522,0 -21.81973,0 0.27423,-10.9099 0.27423,-10.90981 21.54546,-15.68123 21.54554,-15.68132 0,26.59118 0,26.59108 -21.81973,0 z m -702.595219,-61.09522 -17.4557816,0 0,-27.53639 0,-27.53639 17.4557816,15.79727 17.455782,15.79726 0,11.73913 0,11.73912 -17.455782,0 z m 702.595219,0 -21.81973,0 0.27423,-10.90987 0.27423,-10.90986 21.54546,-15.68127 21.54554,-15.68127 0,26.59113 0,26.59114 -21.81973,0 z m -702.595219,-61.09524 -17.4557816,0 0,-27.53639 0,-27.53638 17.4557816,15.79726 17.455782,15.79727 0,11.73912 0,11.73912 -17.455782,0 z m 702.595219,0 -21.81973,0 0.27423,-10.90986 0.27423,-10.90987 21.54546,-15.68127 21.54554,-15.68127 0,26.59114 0,26.59113 -21.81973,0 z m -702.595219,-61.09523 -17.4557816,0 0,-27.53639 0,-27.53639 17.4557816,15.79727 17.455782,15.79726 0,11.73913 0,11.73912 -17.455782,0 z m 702.595219,0 -21.81973,0 0.27423,-10.90987 0.27423,-10.90986 21.54546,-15.68127 21.54554,-15.68127 0,26.59113 0,26.59114 -21.81973,0 z m -702.595219,-61.09524 -17.4557816,0 0,-27.53639 0,-27.53638 17.4557816,15.79726 17.455782,15.79727 0,11.73912 0,11.73912 -17.455782,0 z m 702.595219,0 -21.81973,0 0.27423,-10.90986 0.27423,-10.90987 21.54546,-15.68127 21.54554,-15.68127 0,26.59114 0,26.59113 -21.81973,0 z m -702.595219,-61.09523 -17.4557816,0 0,-27.5364 0,-27.53638 17.4557816,15.79727 17.455782,15.79726 0,11.73913 0,11.73912 -17.455782,0 z m 702.595219,0 -21.81973,0 0.27423,-10.90987 0.27423,-10.90986 21.54546,-15.68127 21.54554,-15.68127 0,26.59113 0,26.59114 -21.81973,0 z M 20.806131,646.7081 l -17.4557816,0 0,-27.53639 0,-27.53638 17.4557816,15.79726 17.455782,15.79727 0,11.73912 0,11.73912 -17.455782,0 z m 702.595219,0 -21.81973,0 0.27423,-10.90986 0.27423,-10.90987 21.54546,-15.68127 21.54554,-15.68127 0,26.59114 0,26.59113 -21.81973,0 z m -702.595219,-61.09524 -17.4557816,0 0,-27.53639 0,-27.53638 17.4557816,15.79727 17.455782,15.79726 0,11.73913 0,11.73911 -17.455782,0 z m 702.595219,0 -21.81973,0 0.27423,-10.90986 0.27423,-10.90986 21.54546,-15.68127 21.54554,-15.68127 0,26.59113 0,26.59113 -21.81973,0 z m -702.595219,-61.09523 -17.4557816,0 0,-27.53639 0,-27.53638 17.4557816,15.79726 17.455782,15.79726 0,11.73913 0,11.73912 -17.455782,0 z m 702.595219,0 -21.81973,0 0.27423,-10.90986 0.27423,-10.90987 21.54546,-15.68127 21.54554,-15.68127 0,26.59114 0,26.59113 -21.81973,0 z m -702.595219,-61.09524 -17.4557816,0 0,-27.53639 0,-27.53638 17.4557816,15.79727 17.455782,15.79726 0,11.73913 0,11.73911 -17.455782,0 z m 702.595219,0 -21.81973,0 0.27423,-10.90986 0.27423,-10.90986 21.54546,-15.68127 21.54554,-15.68127 0,26.59113 0,26.59113 -21.81973,0 z m -702.595219,-61.09523 -17.4557816,0 0,-27.53639 0,-27.53638 17.4557816,15.79726 17.455782,15.79726 0,11.73913 0,11.73912 -17.455782,0 z m 702.595219,0 -21.81973,0 0.27423,-10.90986 0.27423,-10.90987 21.54546,-15.68127 21.54554,-15.68127 0,26.59113 0,26.59114 -21.81973,0 z m -702.59522,-61.09524 -17.4557806,0 0,-27.53639 0,-27.53638 17.4557806,15.79726 17.455782,15.79727 0,11.73913 0,11.73911 -17.455781,0 z m 702.59522,0 -21.81973,0 0.27423,-10.90986 0.27423,-10.90986 21.54546,-15.68127 21.54554,-15.68127 0,26.59113 0,26.59113 -21.81973,0 z m -702.595219,-61.09523 -17.4557816,0 0,-27.53639 0,-27.53638 17.4557816,15.79726 17.455782,15.79726 0,11.73913 0,11.73912 -17.455782,0 z m 702.595219,0 -21.81973,0 0.27423,-10.90987 0.27423,-10.90986 21.54546,-15.68127 21.54554,-15.68127 0,26.59113 0,26.59114 -21.81973,0 z m -702.595219,-61.09524 -17.4557816,0 0,-27.5364 0,-27.53638 17.4557816,15.79726 17.455782,15.79727 0,11.73913 0,11.73912 -17.455782,0 z m 702.595219,0 -21.81973,0 0.27428,-10.90986 0.27427,-10.90987 21.54545,-15.68127 21.54546,-15.68128 0,26.59114 0,26.59114 -21.81973,0 z m -702.59522,-61.09524 -17.4557806,0 0,-27.53639 0,-27.53639 17.4557806,15.79727 17.455782,15.79726 0,11.73913 0,11.73912 -17.455781,0 z m 702.59522,0 -21.81973,0 0.27428,-10.90987 0.27427,-10.90986 21.54545,-15.68127 21.54546,-15.68127 0,26.59113 0,26.59114 -21.81973,0 z"
       style="fill:none;stroke:#cc0034;stroke-opacity:1;display:inline" />
  </g>
</svg>
