<?xml version="1.0" encoding="UTF-8" standalone="no"?>
<!-- Created with Inkscape (http://www.inkscape.org/) -->

<svg
   xmlns:dc="http://purl.org/dc/elements/1.1/"
   xmlns:cc="http://creativecommons.org/ns#"
   xmlns:rdf="http://www.w3.org/1999/02/22-rdf-syntax-ns#"
   xmlns:svg="http://www.w3.org/2000/svg"
   xmlns="http://www.w3.org/2000/svg"
   xmlns:sodipodi="http://sodipodi.sourceforge.net/DTD/sodipodi-0.dtd"
   xmlns:inkscape="http://www.inkscape.org/namespaces/inkscape"
   width="744.09448"
   height="1052.3622"
   id="svg2"
   version="1.1"
   inkscape:version="0.48.3.1 r9886"
   sodipodi:docname="a4_reg-marks_h260.svg"
   style="display:inline">
  <sodipodi:namedview
     id="base"
     pagecolor="#ffffff"
     bordercolor="#666666"
     borderopacity="1.0"
     inkscape:pageopacity="0.0"
     inkscape:pageshadow="2"
     inkscape:zoom="0.47"
     inkscape:cx="5.2175429"
     inkscape:cy="480.86627"
     inkscape:document-units="mm"
     inkscape:current-layer="layer2"
     showgrid="true"
     units="mm"
     showguides="false"
     inkscape:window-width="1280"
     inkscape:window-height="655"
     inkscape:window-x="0"
     inkscape:window-y="24"
     inkscape:window-maximized="1"
     fit-margin-top="0"
     fit-margin-left="0"
     fit-margin-right="0"
     fit-margin-bottom="0">
    <inkscape:grid
       spacingy="1mm"
       spacingx="1mm"
       units="mm"
       snapvisiblegridlinesonly="true"
       enabled="true"
       visible="true"
       empspacing="5"
       id="grid3001"
       type="xygrid" />
  </sodipodi:namedview>
  <defs
     id="defs4">
    <marker
       inkscape:stockid="Arrow1Lstart"
       style="overflow:visible"
       refY="0"
       refX="0"
       orient="auto"
       id="Arrow1Lstart">
      <path
         inkscape:connector-curvature="0"
         id="path3969"
         style="fill-rule:evenodd;stroke:#000000;stroke-width:1pt;marker-start:none"
         transform="matrix(0.8,0,0,0.8,10,0)"
         d="M 0,0 5,-5 -12.5,0 5,5 0,0 z" />
    </marker>
    <marker
       inkscape:stockid="Arrow1Lend"
       style="overflow:visible"
       refY="0"
       refX="0"
       orient="auto"
       id="Arrow1Lend">
      <path
         inkscape:connector-curvature="0"
         id="path3972"
         style="fill-rule:evenodd;stroke:#000000;stroke-width:1pt;marker-start:none"
         transform="matrix(-0.8,0,0,-0.8,-10,0)"
         d="M 0,0 5,-5 -12.5,0 5,5 0,0 z" />
    </marker>
    <marker
       id="marker4651"
       orient="auto"
       refX="0"
       refY="0"
       style="overflow:visible"
       inkscape:stockid="Arrow1Lstart">
      <path
         inkscape:connector-curvature="0"
         d="M 0,0 5,-5 -12.5,0 5,5 0,0 z"
         transform="matrix(0.8,0,0,0.8,10,0)"
         style="fill-rule:evenodd;stroke:#000000;stroke-width:1pt;marker-start:none"
         id="path4653" />
    </marker>
    <marker
       id="marker4655"
       orient="auto"
       refX="0"
       refY="0"
       style="overflow:visible"
       inkscape:stockid="Arrow1Lend">
      <path
         inkscape:connector-curvature="0"
         d="M 0,0 5,-5 -12.5,0 5,5 0,0 z"
         transform="matrix(-0.8,0,0,-0.8,-10,0)"
         style="fill-rule:evenodd;stroke:#000000;stroke-width:1pt;marker-start:none"
         id="path4657" />
    </marker>
  </defs>
  <metadata
     id="metadata7">
    <rdf:RDF>
      <cc:Work
         rdf:about="">
        <dc:format>image/svg+xml</dc:format>
        <dc:type
           rdf:resource="http://purl.org/dc/dcmitype/StillImage" />
        <dc:title></dc:title>
        <cc:license
           rdf:resource="http://creativecommons.org/licenses/publicdomain/" />
        <dc:creator>
          <cc:Agent>
            <dc:title>Markus Schulz</dc:title>
          </cc:Agent>
        </dc:creator>
      </cc:Work>
      <cc:License
         rdf:about="http://creativecommons.org/licenses/publicdomain/">
        <cc:permits
           rdf:resource="http://creativecommons.org/ns#Reproduction" />
        <cc:permits
           rdf:resource="http://creativecommons.org/ns#Distribution" />
        <cc:permits
           rdf:resource="http://creativecommons.org/ns#DerivativeWorks" />
      </cc:License>
    </rdf:RDF>
  </metadata>
  <g
     sodipodi:insensitive="true"
     style="display:inline"
     transform="translate(0.34375,-0.35648928)"
     id="layer1"
     inkscape:groupmode="layer"
     inkscape:label="RegMarks">
    <path
       sodipodi:nodetypes="cc"
       inkscape:connector-curvature="0"
       id="path3005"
       d="m 52.805856,1017.3959 70.866144,0"
       style="fill:none;stroke:#000000;stroke-width:1.77165353;stroke-linecap:butt;stroke-linejoin:miter;stroke-miterlimit:4;stroke-opacity:1;stroke-dasharray:none" />
    <path
       sodipodi:nodetypes="cc"
       inkscape:connector-curvature="0"
       id="path3005-3"
       d="m 52.805856,946.52976 0,70.86614"
       style="fill:none;stroke:#000000;stroke-width:1.77165353;stroke-linecap:butt;stroke-linejoin:miter;stroke-miterlimit:4;stroke-opacity:1;stroke-dasharray:none" />
    <path
       inkscape:connector-curvature="0"
       id="path3005-2"
       d="m 690.08145,1017.3959 -70.62992,0"
       style="fill:none;stroke:#000000;stroke-width:1.77165353;stroke-linecap:butt;stroke-linejoin:miter;stroke-miterlimit:4;stroke-opacity:1;stroke-dasharray:none" />
    <path
       inkscape:connector-curvature="0"
       id="path3005-3-3"
       d="m 690.31767,946.52976 0,70.86614"
       style="fill:none;stroke:#000000;stroke-width:1.77165353;stroke-linecap:butt;stroke-linejoin:miter;stroke-miterlimit:4;stroke-opacity:1;stroke-dasharray:none" />
    <path
       inkscape:connector-curvature="0"
       id="path3867"
       d="m 52.805856,166.8919 0,-70.866141 70.866144,0"
       style="fill:none;stroke:#000000;stroke-width:1.77165353;stroke-linecap:butt;stroke-linejoin:miter;stroke-miterlimit:4;stroke-opacity:1;stroke-dasharray:none" />
    <path
       transform="translate(-0.34375,62.718738)"
       inkscape:connector-curvature="0"
       id="path4780"
       d="m 566.92913,936.85039 0,35.43307"
       style="fill:none;stroke:#000000;stroke-width:1px;stroke-linecap:butt;stroke-linejoin:miter;stroke-opacity:1" />
    <path
       transform="translate(-0.34375,62.718738)"
       inkscape:connector-curvature="0"
       id="path4782"
       d="M 584.64567,954.56693 566.92913,972.28346 549.2126,954.56693"
       style="fill:none;stroke:#000000;stroke-width:1px;stroke-linecap:butt;stroke-linejoin:miter;stroke-opacity:1" />
    <path
       transform="translate(-0.34375,62.718738)"
       inkscape:connector-curvature="0"
       id="path4784"
       d="m 177.16535,936.85039 0,35.43307 17.71654,-17.71653"
       style="fill:none;stroke:#000000;stroke-width:1px;stroke-linecap:butt;stroke-linejoin:miter;stroke-opacity:1" />
    <path
       transform="translate(-0.34375,62.718738)"
       inkscape:connector-curvature="0"
       id="path4786"
       d="M 177.16535,972.28346 159.44882,954.56693"
       style="fill:none;stroke:#000000;stroke-width:1px;stroke-linecap:butt;stroke-linejoin:miter;stroke-opacity:1" />
    <path
       transform="matrix(0.7570818,0,0,0.75708471,43.235358,291.4589)"
       sodipodi:open="true"
       sodipodi:end="8.2662751"
       sodipodi:start="1.9979057"
       d="m 93.771486,882.90503 c -4.452798,-2.02659 -6.419629,-7.27917 -4.39304,-11.73196 2.026588,-4.4528 7.279168,-6.41963 11.731964,-4.39304 4.4528,2.02658 6.41963,7.27916 4.39304,11.73196 -2.00539,4.40622 -7.176667,6.38641 -11.612113,4.44652"
       sodipodi:ry="8.8582678"
       sodipodi:rx="8.8582678"
       sodipodi:cy="874.84253"
       sodipodi:cx="97.440948"
       id="path3222"
       style="fill:#000000;fill-opacity:1;stroke:#000000;stroke-width:1;stroke-linecap:butt;stroke-linejoin:miter;stroke-miterlimit:4;stroke-opacity:1;stroke-dasharray:none;stroke-dashoffset:0;display:inline"
       sodipodi:type="arc" />
  </g>
  <g
     transform="translate(0,62.362249)"
     style="display:inline"
     inkscape:label="Print"
     id="layer4"
     inkscape:groupmode="layer"
     sodipodi:insensitive="true" />
  <g
     transform="translate(0,62.362249)"
     style="display:inline"
     inkscape:label="Cut"
     id="layer5"
     inkscape:groupmode="layer"
     sodipodi:insensitive="true" />
  <g
     inkscape:groupmode="layer"
     id="layer2"
     inkscape:label="WORK">
    <g
       transform="translate(-2,45.999996)"
       style="font-size:40px;font-style:normal;font-variant:normal;font-weight:bold;font-stretch:extra-condensed;text-align:start;line-height:125%;letter-spacing:0px;word-spacing:0px;writing-mode:lr-tb;text-anchor:start;fill:none;stroke:#000000;stroke-width:1.29999995;stroke-miterlimit:4;stroke-opacity:1;stroke-dasharray:none;font-family:Reglo;-inkscape-font-specification:Reglo Bold Ultra-Condensed"
       id="text3014">
      <path
         inkscape:connector-curvature="0"
         d="m 322.45063,324.63074 c -2e-5,2.61335 -0.94668,4.86668 -2.84,6.76 -1.86668,1.86668 -4.13334,2.80001 -6.8,2.8 l -3.96,0 0,11.6 -5.6,0 0,-11.6 0,-5.6 0,-9.2 0,-5.6 9.56,0 c 2.66666,3e-5 4.93332,0.9467 6.8,2.84 1.89332,1.86669 2.83998,4.13336 2.84,6.8 l 0,1.2 m -5.6,0 0,-1.2 c -0.0267,-1.11998 -0.44001,-2.06664 -1.24,-2.84 -0.77334,-0.79997 -1.70668,-1.19997 -2.8,-1.2 l -3.96,0 0,9.2 3.96,0 c 1.09332,-0.0266 2.03999,-0.42665 2.84,-1.2 0.79999,-0.77331 1.19999,-1.69331 1.2,-2.76"
         style="fill:none;stroke:#000000;stroke-width:1.29999995;stroke-miterlimit:4;stroke-opacity:1;stroke-dasharray:none"
         id="path3411" />
      <path
         inkscape:connector-curvature="0"
         d="m 326.01938,321.59074 0,24.2 5.6,0 0,-14.6 c 0,-1.25332 0.46666,-2.22665 1.4,-2.92 0.93333,-0.71998 1.86666,-1.07998 2.8,-1.08 l 2.4,0 0,-5.6 -2.4,0 c -1.60001,3e-5 -3,0.57336 -4.2,1.72 l 0,-1.72 -5.6,0"
         style="fill:none;stroke:#000000;stroke-width:1.29999995;stroke-miterlimit:4;stroke-opacity:1;stroke-dasharray:none"
         id="path3413" />
      <path
         inkscape:connector-curvature="0"
         d="m 356.24751,330.63074 0,4.24 -11.2,0 0,2.72 c -10e-6,0.93334 0.26666,1.66667 0.8,2.2 0.53332,0.53334 1.19999,0.80001 2,0.8 0.85332,1e-5 1.55999,-0.26666 2.12,-0.8 0.58665,-0.53333 0.87999,-1.26666 0.88,-2.2 l 5.4,0 c -2e-5,2.29334 -0.85335,4.26667 -2.56,5.92 -1.70668,1.65333 -3.73335,2.48 -6.08,2.48 -2.48001,0 -4.46667,-0.8 -5.96,-2.4 -1.46667,-1.6 -2.2,-3.59999 -2.2,-6 l 0,-7.8 c 0,-2.31998 0.81333,-4.29331 2.44,-5.92 1.65333,-1.65331 3.63999,-2.47997 5.96,-2.48 2.31999,3e-5 4.29332,0.82669 5.92,2.48 1.65332,1.62669 2.47998,3.60002 2.48,5.92 l 0,0.4 0,0.44 m -5.4,-0.44 0,-0.4 c -10e-6,-0.93332 -0.29335,-1.67998 -0.88,-2.24 -0.58668,-0.55998 -1.29334,-0.83998 -2.12,-0.84 -0.77334,2e-5 -1.44001,0.28002 -2,0.84 -0.53334,0.56002 -0.80001,1.30668 -0.8,2.24 l 0,0.4 5.8,0"
         style="fill:none;stroke:#000000;stroke-width:1.29999995;stroke-miterlimit:4;stroke-opacity:1;stroke-dasharray:none"
         id="path3415" />
      <path
         inkscape:connector-curvature="0"
         d="m 369.59813,336.35074 c -0.42667,1e-5 -0.74667,0.0133 -0.96,0.04 -0.21334,1e-5 -0.56001,0.0133 -1.04,0.04 -0.45334,0.0267 -0.81334,0.0933 -1.08,0.2 -0.26667,0.10668 -0.56,0.24001 -0.88,0.4 -0.29334,0.16001 -0.52,0.38668 -0.68,0.68 -0.13334,0.26668 -0.2,0.58668 -0.2,0.96 0,0.69334 0.2,1.24001 0.6,1.64 0.42666,0.37334 0.98666,0.56001 1.68,0.56 0.93333,10e-6 1.75999,-0.30666 2.48,-0.92 0.74666,-0.63999 1.11999,-1.42666 1.12,-2.36 l 0,-1.24 -1.04,0 m 6.64,-6.76 0,0.2 0,16 -5.6,0 0,-1.84 c -1.38667,1.36 -2.98667,2.04 -4.8,2.04 -2.02667,0 -3.66667,-0.61333 -4.92,-1.84 -1.25333,-1.25333 -1.88,-2.94666 -1.88,-5.08 0,-2.42666 0.77334,-4.26665 2.32,-5.52 1.57333,-1.25332 3.8,-1.87998 6.68,-1.88 l 2.6,0 0,-1.88 c -10e-6,-0.77332 -0.28001,-1.42665 -0.84,-1.96 -0.56001,-0.55998 -1.21334,-0.83998 -1.96,-0.84 -0.77334,2e-5 -1.44,0.28002 -2,0.84 -0.53334,0.53335 -0.8,1.18668 -0.8,1.96 l -5.6,0 c 0,-2.31998 0.81334,-4.29331 2.44,-5.92 1.65333,-1.65331 3.64,-2.47997 5.96,-2.48 2.29333,3e-5 4.25332,0.80002 5.88,2.4 1.62665,1.60002 2.46665,3.53335 2.52,5.8"
         style="fill:none;stroke:#000000;stroke-width:1.29999995;stroke-miterlimit:4;stroke-opacity:1;stroke-dasharray:none"
         id="path3417" />
      <path
         inkscape:connector-curvature="0"
         d="m 380.70688,321.55074 0,24.24 5.6,0 0,-16 c 0,-0.77332 0.30666,-1.42665 0.92,-1.96 0.61333,-0.55998 1.30666,-0.83998 2.08,-0.84 0.82666,2e-5 1.53333,0.28002 2.12,0.84 0.58666,0.53335 0.87999,1.18668 0.88,1.96 l 0,16 5.6,0 0,-16 c -10e-6,-0.0267 -10e-6,-0.0533 0,-0.08 0.0267,-0.74665 0.33332,-1.38665 0.92,-1.92 0.61332,-0.53331 1.30665,-0.79998 2.08,-0.8 0.82665,2e-5 1.53331,0.28002 2.12,0.84 0.58665,0.53335 0.87998,1.18668 0.88,1.96 l 0,16 5.6,0 0,-16 c 0.0533,-2.50665 -0.68003,-4.53331 -2.2,-6.08 -1.49336,-1.54664 -3.36002,-2.31997 -5.6,-2.32 -0.98668,3e-5 -1.98668,0.22669 -3,0.68 -1.01335,0.45336 -1.90668,1.09336 -2.68,1.92 -1.44001,-1.73331 -3.28001,-2.59997 -5.52,-2.6 -1.60001,3e-5 -3,0.57336 -4.2,1.72 l 0,-1.56 -5.6,0"
         style="fill:none;stroke:#000000;stroke-width:1.29999995;stroke-miterlimit:4;stroke-opacity:1;stroke-dasharray:none"
         id="path3419" />
      <path
         inkscape:connector-curvature="0"
         d="m 414.06626,312.63074 0,33.16 5.6,0 0,-1.4 c 1.11999,1.06667 2.45332,1.6 4,1.6 2.05332,0 3.77332,-0.77333 5.16,-2.32 1.41331,-1.54666 2.09331,-3.57333 2.04,-6.08 l 0,-7.8 c 0.0533,-2.50665 -0.62669,-4.53331 -2.04,-6.08 -1.38668,-1.54664 -3.10668,-2.31997 -5.16,-2.32 -1.54668,3e-5 -2.88001,0.53336 -4,1.6 l 0,-10.36 -5.6,0 m 11.2,17.16 0,7.8 c -10e-6,0.77334 -0.28001,1.44001 -0.84,2 -0.56001,0.53334 -1.21335,0.80001 -1.96,0.8 -0.77334,1e-5 -1.44001,-0.26666 -2,-0.8 -0.53334,-0.55999 -0.80001,-1.22666 -0.8,-2 l 0,-7.8 c -1e-5,-0.77332 0.26666,-1.42665 0.8,-1.96 0.55999,-0.55998 1.22666,-0.83998 2,-0.84 0.74665,2e-5 1.39999,0.28002 1.96,0.84 0.55999,0.53335 0.83999,1.18668 0.84,1.96"
         style="fill:none;stroke:#000000;stroke-width:1.29999995;stroke-miterlimit:4;stroke-opacity:1;stroke-dasharray:none"
         id="path3421" />
      <path
         inkscape:connector-curvature="0"
         d="m 435.31626,312.63074 0,33.16 5.6,0 0,-33.16 -5.6,0"
         style="fill:none;stroke:#000000;stroke-width:1.29999995;stroke-miterlimit:4;stroke-opacity:1;stroke-dasharray:none"
         id="path3423" />
      <path
         inkscape:connector-curvature="0"
         d="m 462.10688,330.63074 0,4.24 -11.2,0 0,2.72 c 0,0.93334 0.26666,1.66667 0.8,2.2 0.53333,0.53334 1.2,0.80001 2,0.8 0.85333,1e-5 1.55999,-0.26666 2.12,-0.8 0.58666,-0.53333 0.87999,-1.26666 0.88,-2.2 l 5.4,0 c -10e-6,2.29334 -0.85335,4.26667 -2.56,5.92 -1.70668,1.65333 -3.73334,2.48 -6.08,2.48 -2.48,0 -4.46667,-0.8 -5.96,-2.4 -1.46666,-1.6 -2.2,-3.59999 -2.2,-6 l 0,-7.8 c 0,-2.31998 0.81334,-4.29331 2.44,-5.92 1.65333,-1.65331 3.64,-2.47997 5.96,-2.48 2.31999,3e-5 4.29332,0.82669 5.92,2.48 1.65332,1.62669 2.47999,3.60002 2.48,5.92 l 0,0.4 0,0.44 m -5.4,-0.44 0,-0.4 c -1e-5,-0.93332 -0.29334,-1.67998 -0.88,-2.24 -0.58667,-0.55998 -1.29334,-0.83998 -2.12,-0.84 -0.77334,2e-5 -1.44,0.28002 -2,0.84 -0.53334,0.56002 -0.8,1.30668 -0.8,2.24 l 0,0.4 5.8,0"
         style="fill:none;stroke:#000000;stroke-width:1.29999995;stroke-miterlimit:4;stroke-opacity:1;stroke-dasharray:none"
         id="path3425" />
    </g>
    <g
       transform="translate(-2,45.999996)"
       style="font-size:40px;font-style:normal;font-variant:normal;font-weight:bold;font-stretch:extra-condensed;text-align:start;line-height:125%;letter-spacing:0px;word-spacing:0px;writing-mode:lr-tb;text-anchor:start;fill:none;stroke:#000000;stroke-width:1.29999995;stroke-miterlimit:4;stroke-opacity:1;stroke-dasharray:none;font-family:Reglo;-inkscape-font-specification:Reglo Bold Ultra-Condensed"
       id="text3018">
      <path
         inkscape:connector-curvature="0"
         d="m 325.07128,636.79645 -7.8,32 5.6,0 1.96,-8 8.08,0 1.96,8 5.6,0 -7.8,-32 -2,0 -3.6,0 -2,0 m 1,18.84 2.8,-11.44 2.8,11.44 -5.6,0"
         style="fill:none;stroke:#000000;stroke-width:1.29999995;stroke-miterlimit:4;stroke-opacity:1;stroke-dasharray:none"
         id="path3394" />
      <path
         inkscape:connector-curvature="0"
         d="m 343.25565,644.59645 0,24.2 5.6,0 0,-14.6 c -1e-5,-1.25332 0.46666,-2.22665 1.4,-2.92 0.93332,-0.71998 1.86666,-1.07998 2.8,-1.08 l 2.4,0 0,-5.6 -2.4,0 c -1.60001,2e-5 -3.00001,0.57335 -4.2,1.72 l 0,-1.72 -5.6,0"
         style="fill:none;stroke:#000000;stroke-width:1.29999995;stroke-miterlimit:4;stroke-opacity:1;stroke-dasharray:none"
         id="path3396" />
      <path
         inkscape:connector-curvature="0"
         d="m 363.4744,649.67645 4.8,0 0,-5.08 -4.8,0 0,-6.2 -5.6,0 0,6.2 -2.4,0 0,5.08 2.4,0 0,11.96 c 0,2.29334 0.68,4.06667 2.04,5.32 1.36,1.25333 3.21333,1.88 5.56,1.88 l 3.6,0 0,-5.6 -2.8,0 c -0.74668,0 -1.40001,-0.26666 -1.96,-0.8 -0.56001,-0.56 -0.84001,-1.22666 -0.84,-2 l 0,-10.76"
         style="fill:none;stroke:#000000;stroke-width:1.29999995;stroke-miterlimit:4;stroke-opacity:1;stroke-dasharray:none"
         id="path3398" />
      <path
         inkscape:connector-curvature="0"
         d="m 372.48378,636.19645 c -0.66667,0.6667 -1,1.4667 -1,2.4 0,0.93336 0.33333,1.73336 1,2.4 0.66666,0.66669 1.46666,1.00002 2.4,1 0.93332,2e-5 1.73332,-0.33331 2.4,-1 0.69332,-0.66664 1.03999,-1.46664 1.04,-2.4 -10e-6,-0.9333 -0.34668,-1.7333 -1.04,-2.4 -0.66668,-0.6933 -1.46668,-1.03997 -2.4,-1.04 -0.93334,3e-5 -1.73334,0.3467 -2.4,1.04 m -0.4,8.4 0,24.2 5.6,0 0,-24.2 -5.6,0"
         style="fill:none;stroke:#000000;stroke-width:1.29999995;stroke-miterlimit:4;stroke-opacity:1;stroke-dasharray:none"
         id="path3400" />
      <path
         inkscape:connector-curvature="0"
         d="m 398.8744,652.79645 0,0.84 -5.6,0 0,-0.84 c -1e-5,-0.77332 -0.28001,-1.42665 -0.84,-1.96 -0.53334,-0.55998 -1.18668,-0.83998 -1.96,-0.84 -0.74667,2e-5 -1.40001,0.28002 -1.96,0.84 -0.56001,0.53335 -0.84001,1.18668 -0.84,1.96 l 0,7.8 c -10e-6,0.77334 0.26666,1.44 0.8,2 0.55999,0.53334 1.22666,0.8 2,0.8 0.79999,0 1.46666,-0.26666 2,-0.8 0.53332,-0.56 0.79999,-1.22666 0.8,-2 l 0,-0.84 5.6,0 0,0.84 c -2e-5,2.32 -0.82668,4.30667 -2.48,5.96 -1.62668,1.62667 -3.60001,2.44 -5.92,2.44 -2.29334,0 -4.25334,-0.8 -5.88,-2.4 -1.62667,-1.6 -2.46667,-3.53333 -2.52,-5.8 l 0,-0.2 0,-7.8 0,-0.2 c 0.0533,-2.26665 0.89333,-4.19998 2.52,-5.8 1.62666,-1.59998 3.58666,-2.39998 5.88,-2.4 2.31999,2e-5 4.29332,0.82669 5.92,2.48 1.65332,1.62668 2.47998,3.60002 2.48,5.92"
         style="fill:none;stroke:#000000;stroke-width:1.29999995;stroke-miterlimit:4;stroke-opacity:1;stroke-dasharray:none"
         id="path3402" />
      <path
         inkscape:connector-curvature="0"
         d="m 402.86503,635.63645 0,33.16 5.6,0 0,-33.16 -5.6,0"
         style="fill:none;stroke:#000000;stroke-width:1.29999995;stroke-miterlimit:4;stroke-opacity:1;stroke-dasharray:none"
         id="path3404" />
      <path
         inkscape:connector-curvature="0"
         d="m 429.65565,653.63645 0,4.24 -11.2,0 0,2.72 c -10e-6,0.93334 0.26666,1.66667 0.8,2.2 0.53333,0.53334 1.19999,0.8 2,0.8 0.85332,0 1.55999,-0.26666 2.12,-0.8 0.58666,-0.53333 0.87999,-1.26666 0.88,-2.2 l 5.4,0 c -2e-5,2.29334 -0.85335,4.26667 -2.56,5.92 -1.70668,1.65333 -3.73334,2.48 -6.08,2.48 -2.48001,0 -4.46667,-0.8 -5.96,-2.4 -1.46667,-1.6 -2.2,-3.6 -2.2,-6 l 0,-7.8 c 0,-2.31998 0.81333,-4.29332 2.44,-5.92 1.65333,-1.65331 3.63999,-2.47998 5.96,-2.48 2.31999,2e-5 4.29332,0.82669 5.92,2.48 1.65332,1.62668 2.47998,3.60002 2.48,5.92 l 0,0.4 0,0.44 m -5.4,-0.44 0,-0.4 c -10e-6,-0.93332 -0.29334,-1.67998 -0.88,-2.24 -0.58668,-0.55998 -1.29334,-0.83998 -2.12,-0.84 -0.77334,2e-5 -1.44001,0.28002 -2,0.84 -0.53334,0.56002 -0.80001,1.30668 -0.8,2.24 l 0,0.4 5.8,0"
         style="fill:none;stroke:#000000;stroke-width:1.29999995;stroke-miterlimit:4;stroke-opacity:1;stroke-dasharray:none"
         id="path3406" />
      <path
         inkscape:connector-curvature="0"
         d="m 442.48628,652.39645 5.6,0 0,-0.6 c -2e-5,-2.05332 -0.73335,-3.79998 -2.2,-5.24 -1.44002,-1.43998 -3.17335,-2.15998 -5.2,-2.16 l -0.64,0 c -2.02668,2e-5 -3.77334,0.73335 -5.24,2.2 -1.44001,1.46669 -2.16,3.22668 -2.16,5.28 0,2.82668 1.33333,4.82668 4,6 2.10666,0.96001 3.57332,1.69334 4.4,2.2 0.85332,0.50667 1.27999,0.98667 1.28,1.44 -10e-6,0.53334 -0.16001,1.01334 -0.48,1.44 -0.29335,0.42667 -0.68001,0.64 -1.16,0.64 l -0.64,0 c -0.48001,0 -0.90668,-0.22666 -1.28,-0.68 -0.34668,-0.48 -0.52001,-0.98666 -0.52,-1.52 l 0,-0.6 -5.6,0 0,0.6 c 0,2.05334 0.71999,3.8 2.16,5.24 1.46666,1.44 3.21332,2.16 5.24,2.16 l 0.64,0 c 2.02665,0 3.75998,-0.73333 5.2,-2.2 1.46665,-1.46667 2.19998,-3.22666 2.2,-5.28 -2e-5,-0.95999 -0.16002,-1.82666 -0.48,-2.6 -0.29335,-0.77332 -0.72002,-1.42666 -1.28,-1.96 -0.53335,-0.53332 -1.01335,-0.93332 -1.44,-1.2 -0.40002,-0.29332 -0.89335,-0.58666 -1.48,-0.88 -0.45335,-0.23999 -0.98668,-0.49332 -1.6,-0.76 -0.58668,-0.26665 -1.05335,-0.47999 -1.4,-0.64 -0.32001,-0.15999 -0.65334,-0.33332 -1,-0.52 -0.32001,-0.21332 -0.56001,-0.39999 -0.72,-0.56 -0.13334,-0.18665 -0.20001,-0.37332 -0.2,-0.56 -1e-5,-0.53332 0.13332,-0.99998 0.4,-1.4 0.29332,-0.42665 0.67999,-0.63998 1.16,-0.64 l 0.64,0 c 0.47999,2e-5 0.89332,0.24002 1.24,0.72 0.37332,0.45335 0.55999,0.94668 0.56,1.48 l 0,0.6"
         style="fill:none;stroke:#000000;stroke-width:1.29999995;stroke-miterlimit:4;stroke-opacity:1;stroke-dasharray:none"
         id="path3408" />
    </g>
    <g
       transform="translate(-2,45.999996)"
       style="font-size:62.00020599px;font-style:normal;font-variant:normal;font-weight:bold;font-stretch:extra-condensed;text-align:start;line-height:125%;letter-spacing:0px;word-spacing:0px;writing-mode:lr-tb;text-anchor:start;fill:none;stroke:#000000;stroke-width:1.29999995;stroke-miterlimit:4;stroke-opacity:1;stroke-dasharray:none;font-family:Reglo;-inkscape-font-specification:Reglo Bold Ultra-Condensed"
       id="text3047">
      <path
         inkscape:connector-curvature="0"
         d="m 90.768329,130.97188 -8.680029,0 0,-49.600167 8.680029,0 0,49.600167"
         style="text-align:center;text-anchor:middle;fill:none;stroke:#000000;stroke-width:1.29999995;stroke-miterlimit:4;stroke-opacity:1;stroke-dasharray:none"
         id="path3331" />
      <path
         inkscape:connector-curvature="0"
         d="m 108.9557,93.461753 7.44003,0 0,7.874027 -7.44003,0 0,29.6981 -8.68003,0 0,-29.6981 -3.720009,0 0,-7.874027 3.720009,0 0,-0.930003 c 0,-3.59597 1.26067,-6.654643 3.78202,-9.17603 2.56266,-2.562625 5.642,-3.843961 9.23803,-3.844013 l 4.34001,0 0,8.680029 -4.34001,0 c -1.15736,4.3e-5 -2.17003,0.434044 -3.03801,1.302004 -0.86802,0.82671 -1.30202,1.839379 -1.30201,3.03801 l 0,0.930003"
         style="text-align:center;text-anchor:middle;fill:none;stroke:#000000;stroke-width:1.29999995;stroke-miterlimit:4;stroke-opacity:1;stroke-dasharray:none"
         id="path3333" />
      <path
         inkscape:connector-curvature="0"
         d="m 166.55874,93.461753 8.49403,0 -13.64005,52.948177 -8.06003,0 3.84402,-15.43805 -0.186,0 -10.54004,-37.510127 8.68003,0 5.89002,22.196077 5.51802,-22.196077"
         style="text-align:center;text-anchor:middle;fill:none;stroke:#000000;stroke-width:1.29999995;stroke-miterlimit:4;stroke-opacity:1;stroke-dasharray:none"
         id="path3335" />
      <path
         inkscape:connector-curvature="0"
         d="m 195.75114,106.1718 c -2e-5,-1.19865 -0.43402,-2.21132 -1.302,-3.03801 -0.82669,-0.86798 -1.83936,-1.30198 -3.03801,-1.30201 -1.15735,3e-5 -2.17002,0.43403 -3.03801,1.30201 -0.86802,0.82669 -1.30202,1.83936 -1.30201,3.03801 l 0,11.78003 c -1e-5,1.19869 0.41333,2.23202 1.24001,3.10002 0.86799,0.82667 1.90132,1.24001 3.10001,1.24 1.23999,1e-5 2.27332,-0.41333 3.10001,-1.24 0.82665,-0.868 1.23998,-1.90133 1.24,-3.10002 l 0.062,0 0,-11.78003 -0.062,0 m 8.68003,0 0.062,0 0,11.78003 -0.062,0 c -3e-5,3.59603 -1.28136,6.67537 -3.84401,9.23804 -2.52137,2.52134 -5.58004,3.78201 -9.17603,3.78201 -3.59603,0 -6.67537,-1.26067 -9.23803,-3.78201 -2.52135,-2.56267 -3.78202,-5.64201 -3.78201,-9.23804 l 0,-11.78003 c -1e-5,-3.59599 1.26066,-6.654662 3.78201,-9.176035 2.56266,-2.562638 5.642,-3.843975 9.23803,-3.844013 3.59599,3.8e-5 6.65466,1.281375 9.17603,3.844013 2.56265,2.521373 3.84398,5.580045 3.84401,9.176035"
         style="text-align:center;text-anchor:middle;fill:none;stroke:#000000;stroke-width:1.29999995;stroke-miterlimit:4;stroke-opacity:1;stroke-dasharray:none"
         id="path3337" />
      <path
         inkscape:connector-curvature="0"
         d="m 237.32131,130.97188 0,-37.510127 -8.68003,0 0,24.800087 c -2e-5,1.19868 -0.47535,2.23201 -1.426,3.10001 -0.95069,0.82667 -2.02536,1.24001 -3.22401,1.24 -1.28136,1e-5 -2.37669,-0.41333 -3.28601,-1.24 -0.90935,-0.868 -1.36402,-1.90133 -1.36401,-3.10001 l 0,-24.800087 -8.68003,0 0,24.800087 c -0.0827,3.84402 1.01267,6.98536 3.28601,9.42403 2.27334,2.39734 5.00134,3.59601 8.18403,3.59601 2.47999,0 4.65,-0.88867 6.51002,-2.66601 l 0,2.35601 8.68003,0"
         style="text-align:center;text-anchor:middle;fill:none;stroke:#000000;stroke-width:1.29999995;stroke-miterlimit:4;stroke-opacity:1;stroke-dasharray:none"
         id="path3339" />
      <path
         inkscape:connector-curvature="0"
         d="m 244.76522,93.461753 0,37.510127 8.68003,0 0,-22.63008 c -10e-6,-1.94265 0.72332,-3.45132 2.17001,-4.52601 1.44665,-1.11598 2.89332,-1.67398 4.34001,-1.67401 l 3.72002,0 0,-8.680027 -3.72002,0 c -2.48002,3.8e-5 -4.65003,0.888707 -6.51002,2.666009 l 0,-2.666009 -8.68003,0"
         style="text-align:center;text-anchor:middle;fill:none;stroke:#000000;stroke-width:1.29999995;stroke-miterlimit:4;stroke-opacity:1;stroke-dasharray:none"
         id="path3341" />
      <path
         inkscape:connector-curvature="0"
         d="m 296.59352,79.573707 0,51.398173 8.68002,0 0,-2.17001 c 1.736,1.65334 3.80267,2.48001 6.20002,2.48001 3.18266,0 5.84867,-1.19867 7.99803,-3.59601 2.19065,-2.39734 3.24465,-5.53868 3.16201,-9.42403 l 0,-12.09004 c 0.0826,-3.88532 -0.97136,-7.026663 -3.16201,-9.424036 -2.14936,-2.397304 -4.81537,-3.595974 -7.99803,-3.596012 -2.39735,3.8e-5 -4.46402,0.826707 -6.20002,2.480009 l 0,-16.058054 -8.68002,0 m 17.36005,26.598093 0,12.09004 c -2e-5,1.19868 -0.43402,2.23201 -1.302,3.10001 -0.86802,0.82667 -1.88069,1.24001 -3.03801,1.24 -1.19869,1e-5 -2.23202,-0.41333 -3.10001,-1.24 -0.82668,-0.868 -1.24002,-1.90133 -1.24001,-3.10001 l 0,-12.09004 c -1e-5,-1.19865 0.41333,-2.21132 1.24001,-3.03801 0.86799,-0.86798 1.90132,-1.30198 3.10001,-1.30201 1.15732,3e-5 2.16999,0.43403 3.03801,1.30201 0.86798,0.82669 1.30198,1.83936 1.302,3.03801"
         style="text-align:center;text-anchor:middle;fill:none;stroke:#000000;stroke-width:1.29999995;stroke-miterlimit:4;stroke-opacity:1;stroke-dasharray:none"
         id="path3343" />
      <path
         inkscape:connector-curvature="0"
         d="m 346.27118,106.1718 c -2e-5,-1.19865 -0.43402,-2.21132 -1.30201,-3.03801 -0.82668,-0.86798 -1.83935,-1.30198 -3.03801,-1.30201 -1.15735,3e-5 -2.17002,0.43403 -3.03801,1.30201 -0.86801,0.82669 -1.30201,1.83936 -1.302,3.03801 l 0,11.78003 c -1e-5,1.19869 0.41332,2.23202 1.24,3.10002 0.86799,0.82667 1.90133,1.24001 3.10001,1.24 1.23999,1e-5 2.27333,-0.41333 3.10001,-1.24 0.82665,-0.868 1.23999,-1.90133 1.24001,-3.10002 l 0.062,0 0,-11.78003 -0.062,0 m 8.68003,0 0.062,0 0,11.78003 -0.062,0 c -3e-5,3.59603 -1.28137,6.67537 -3.84402,9.23804 -2.52136,2.52134 -5.58003,3.78201 -9.17603,3.78201 -3.59602,0 -6.67536,-1.26067 -9.23803,-3.78201 -2.52134,-2.56267 -3.78201,-5.64201 -3.78201,-9.23804 l 0,-11.78003 c 0,-3.59599 1.26067,-6.654662 3.78201,-9.176035 2.56267,-2.562638 5.64201,-3.843975 9.23803,-3.844013 3.596,3.8e-5 6.65467,1.281375 9.17603,3.844013 2.56265,2.521373 3.84399,5.580045 3.84402,9.176035"
         style="text-align:center;text-anchor:middle;fill:none;stroke:#000000;stroke-width:1.29999995;stroke-miterlimit:4;stroke-opacity:1;stroke-dasharray:none"
         id="path3345" />
      <path
         inkscape:connector-curvature="0"
         d="m 387.96533,79.573707 0,51.398173 -8.68003,0 0,-2.35601 c -1.86002,1.77734 -4.03003,2.66601 -6.51002,2.66601 -3.18269,0 -5.91069,-1.19867 -8.18403,-3.59601 -2.27334,-2.43867 -3.36868,-5.58001 -3.28601,-9.42403 l 0,-12.09004 c -0.0827,-3.88532 1.09534,-7.026663 3.53401,-9.424036 2.48,-2.397304 5.53868,-3.595974 9.17604,-3.596012 1.90132,3.8e-5 3.65799,0.537373 5.27001,1.612006 l 0,-15.190051 8.68003,0 m -17.98006,26.598093 0,12.09004 c -1e-5,1.19868 0.45466,2.23201 1.36401,3.10001 0.95065,0.82667 2.04599,1.24001 3.28601,1.24 1.23998,1e-5 2.31465,-0.41333 3.22401,-1.24 0.95065,-0.868 1.42598,-1.90133 1.426,-3.10001 l 0,-12.09004 c -2e-5,-1.19865 -0.47535,-2.21132 -1.426,-3.03801 -0.90936,-0.86798 -1.98403,-1.30198 -3.22401,-1.30201 -1.24002,3e-5 -2.33536,0.43403 -3.28601,1.30201 -0.90935,0.82669 -1.36402,1.83936 -1.36401,3.03801"
         style="text-align:center;text-anchor:middle;fill:none;stroke:#000000;stroke-width:1.29999995;stroke-miterlimit:4;stroke-opacity:1;stroke-dasharray:none"
         id="path3347" />
      <path
         inkscape:connector-curvature="0"
         d="m 411.77439,93.461753 8.49403,0 -13.64005,52.948177 -8.06002,0 3.84401,-15.43805 -0.186,0 -10.54004,-37.510127 8.68003,0 5.89002,22.196077 5.51802,-22.196077"
         style="text-align:center;text-anchor:middle;fill:none;stroke:#000000;stroke-width:1.29999995;stroke-miterlimit:4;stroke-opacity:1;stroke-dasharray:none"
         id="path3349" />
      <path
         inkscape:connector-curvature="0"
         d="m 490.04383,93.461753 8.68003,0 -8.68003,37.510127 -1.86001,0 -6.82002,0 -1.24001,0 -5.58001,-24.11808 -5.58002,24.11808 -1.24001,0 -6.82002,0 -1.86001,0 -8.68003,-37.510127 8.68003,0 5.27002,22.754077 5.27002,-22.754077 1.86001,0 6.20002,0 1.86,0 5.27002,22.754077 5.27002,-22.754077"
         style="text-align:center;text-anchor:middle;fill:none;stroke:#000000;stroke-width:1.29999995;stroke-miterlimit:4;stroke-opacity:1;stroke-dasharray:none"
         id="path3351" />
      <path
         inkscape:connector-curvature="0"
         d="m 516.84053,116.33983 c -0.66135,10e-6 -1.15735,0.0207 -1.488,0.062 -0.33069,1e-5 -0.86802,0.0207 -1.61201,0.062 -0.70268,0.0413 -1.26068,0.14468 -1.674,0.31 -0.41335,0.16535 -0.86802,0.37202 -1.36401,0.62 -0.45468,0.24802 -0.80601,0.59935 -1.054,1.05401 -0.20668,0.41334 -0.31001,0.90934 -0.31,1.488 -10e-6,1.07468 0.30999,1.92202 0.93,2.54201 0.66132,0.57868 1.52932,0.86801 2.60401,0.868 1.44665,1e-5 2.72799,-0.47532 3.84401,-1.426 1.15732,-0.992 1.73599,-2.21133 1.73601,-3.65801 l 0,-1.92201 -1.61201,0 m 10.29204,-10.47804 0,0.31001 0,24.80008 -8.68003,0 0,-2.85201 c -2.14936,2.10801 -4.62937,3.16201 -7.44003,3.16201 -3.14135,0 -5.68336,-0.95067 -7.62602,-2.85201 -1.94268,-1.94267 -2.91401,-4.56734 -2.91401,-7.87403 0,-3.76133 1.19866,-6.61333 3.59601,-8.55602 2.43867,-1.94266 5.89001,-2.91399 10.35403,-2.91401 l 4.03002,0 0,-2.91401 c -2e-5,-1.19865 -0.43402,-2.21132 -1.30201,-3.03801 -0.86802,-0.86798 -1.88069,-1.30198 -3.03801,-1.30201 -1.19868,3e-5 -2.23202,0.43403 -3.10001,1.30201 -0.82668,0.82669 -1.24001,1.83936 -1.24,3.03801 l -8.68003,0 c 0,-3.59599 1.26067,-6.654662 3.78201,-9.176035 2.56267,-2.562638 5.64201,-3.843975 9.23803,-3.844013 3.55466,3.8e-5 6.59267,1.240041 9.11403,3.720013 2.52132,2.48004 3.82332,5.476715 3.90602,8.990025"
         style="text-align:center;text-anchor:middle;fill:none;stroke:#000000;stroke-width:1.29999995;stroke-miterlimit:4;stroke-opacity:1;stroke-dasharray:none"
         id="path3353" />
      <path
         inkscape:connector-curvature="0"
         d="m 547.76118,105.55179 8.68003,0 0,-0.93 c -2e-5,-3.18265 -1.13669,-5.889987 -3.41001,-8.122026 -2.23203,-2.231971 -4.9187,-3.347974 -8.06003,-3.348012 l -0.992,0 c -3.14135,3.8e-5 -5.84869,1.136708 -8.12203,3.410012 -2.23201,2.273373 -3.34801,5.001376 -3.34801,8.184026 0,4.38137 2.06667,7.48138 6.20002,9.30003 3.26534,1.48802 5.53867,2.62469 6.82003,3.41001 1.32265,0.78535 1.98398,1.52935 1.984,2.23201 -2e-5,0.82668 -0.24802,1.57068 -0.744,2.23201 -0.45468,0.66134 -1.05402,0.99201 -1.79801,0.992 l -0.992,0 c -0.74402,1e-5 -1.40535,-0.35132 -1.98401,-1.054 -0.53734,-0.74399 -0.80601,-1.52933 -0.806,-2.35601 l 0,-0.93 -8.68003,0 0,0.93 c 0,3.18269 1.116,5.89003 3.34801,8.12203 2.27334,2.23201 4.98068,3.34801 8.12203,3.34801 l 0.992,0 c 3.14133,0 5.828,-1.13667 8.06003,-3.41001 2.27332,-2.27334 3.40999,-5.00134 3.41001,-8.18403 -2e-5,-1.48799 -0.24803,-2.83133 -0.744,-4.03001 -0.45469,-1.19866 -1.11603,-2.21133 -1.98401,-3.03801 -0.82669,-0.82665 -1.57069,-1.44666 -2.232,-1.86001 -0.62003,-0.45465 -1.3847,-0.90932 -2.29401,-1.364 -0.70269,-0.37198 -1.52936,-0.76465 -2.48001,-1.17801 -0.90935,-0.41331 -1.63269,-0.74398 -2.17001,-0.992 -0.49601,-0.24798 -1.01268,-0.51665 -1.55,-0.806 -0.49602,-0.33065 -0.86802,-0.61998 -1.11601,-0.86801 -0.20668,-0.28931 -0.31001,-0.57864 -0.31,-0.868 -10e-6,-0.82664 0.20666,-1.54998 0.62,-2.17001 0.45466,-0.6613 1.05399,-0.99197 1.79801,-0.992 l 0.992,0 c 0.74399,3e-5 1.38466,0.37203 1.92201,1.116 0.57865,0.7027 0.86799,1.46737 0.868,2.29401 l 0,0.93"
         style="text-align:center;text-anchor:middle;fill:none;stroke:#000000;stroke-width:1.29999995;stroke-miterlimit:4;stroke-opacity:1;stroke-dasharray:none"
         id="path3355" />
      <path
         inkscape:connector-curvature="0"
         d="m 600.75779,101.33578 7.44002,0 0,-7.874027 -7.44002,0 0,-9.610032 -8.68003,0 0,9.610032 -3.72001,0 0,7.874027 3.72001,0 0,18.53806 c 0,3.55469 1.054,6.30336 3.16201,8.24603 2.108,1.94267 4.98067,2.91401 8.61803,2.91401 l 5.58002,0 0,-8.68003 -4.34002,0 c -1.15735,1e-5 -2.17002,-0.41333 -3.03801,-1.24 -0.86801,-0.868 -1.30201,-1.90133 -1.302,-3.10002 l 0,-16.67805"
         style="text-align:center;text-anchor:middle;fill:none;stroke:#000000;stroke-width:1.29999995;stroke-miterlimit:4;stroke-opacity:1;stroke-dasharray:none"
         id="path3357" />
      <path
         inkscape:connector-curvature="0"
         d="m 614.10238,79.573707 0,51.398173 8.68003,0 0,-24.80008 c -10e-6,-1.19865 0.47532,-2.21132 1.426,-3.03801 0.95066,-0.86798 2.02533,-1.30198 3.22401,-1.30201 1.28132,3e-5 2.37666,0.43403 3.28602,1.30201 0.90931,0.82669 1.36398,1.83936 1.364,3.03801 l 0,24.80008 8.68003,0 0,-24.80008 c 0.0826,-3.84399 -1.0127,-6.964662 -3.28601,-9.362035 -2.27337,-2.438639 -5.00137,-3.657975 -8.18403,-3.658013 -2.48002,3.8e-5 -4.65003,0.888707 -6.51002,2.666009 l 0,-16.244054 -8.68003,0"
         style="text-align:center;text-anchor:middle;fill:none;stroke:#000000;stroke-width:1.29999995;stroke-miterlimit:4;stroke-opacity:1;stroke-dasharray:none"
         id="path3359" />
      <path
         inkscape:connector-curvature="0"
         d="m 673.42884,107.4738 0,6.57202 -17.36006,0 0,4.21602 c -10e-6,1.44668 0.41332,2.58335 1.24,3.41001 0.82666,0.82668 1.85999,1.24001 3.10001,1.24 1.32266,1e-5 2.41799,-0.41332 3.28601,-1.24 0.90932,-0.82666 1.36399,-1.96333 1.36401,-3.41001 l 8.37003,0 c -3e-5,3.55468 -1.3227,6.61336 -3.96802,9.17603 -2.64536,2.56267 -5.7867,3.84401 -9.42403,3.84401 -3.84402,0 -6.92336,-1.24 -9.23803,-3.72001 -2.27334,-2.48001 -3.41001,-5.58001 -3.41001,-9.30003 l 0,-12.09004 c 0,-3.59599 1.26067,-6.654662 3.78201,-9.176035 2.56267,-2.562638 5.64201,-3.843975 9.23803,-3.844013 3.596,3.8e-5 6.65467,1.281375 9.17603,3.844013 2.56265,2.521373 3.84399,5.580045 3.84402,9.176035 l 0,0.62 0,0.682 m -8.37003,-0.682 0,-0.62 c -2e-5,-1.44665 -0.45469,-2.60399 -1.36401,-3.47202 -0.90935,-0.86797 -2.00469,-1.30197 -3.28601,-1.302 -1.19868,3e-5 -2.23202,0.43403 -3.10001,1.302 -0.82668,0.86803 -1.24001,2.02537 -1.24,3.47202 l 0,0.62 8.99003,0"
         style="text-align:center;text-anchor:middle;fill:none;stroke:#000000;stroke-width:1.29999995;stroke-miterlimit:4;stroke-opacity:1;stroke-dasharray:none"
         id="path3361" />
      <path
         inkscape:connector-curvature="0"
         d="m 148.82716,158.87197 -12.09004,49.60017 8.68003,0 3.03801,-12.40005 12.52404,0 3.03801,12.40005 8.68003,0 -12.09004,-49.60017 -3.10001,0 -5.58002,0 -3.10001,0 m 1.55001,29.2021 4.34001,-17.73206 4.34002,17.73206 -8.68003,0"
         style="text-align:center;text-anchor:middle;fill:none;stroke:#000000;stroke-width:1.29999995;stroke-miterlimit:4;stroke-opacity:1;stroke-dasharray:none"
         id="path3363" />
      <path
         inkscape:connector-curvature="0"
         d="m 177.01304,170.96201 0,37.51013 8.68002,0 0,-22.63008 c -1e-5,-1.94265 0.72333,-3.45132 2.17001,-4.52601 1.44666,-1.11598 2.89333,-1.67398 4.34002,-1.67401 l 3.72001,0 0,-8.68003 -3.72001,0 c -2.48003,4e-5 -4.65003,0.88871 -6.51003,2.66601 l 0,-2.66601 -8.68002,0"
         style="text-align:center;text-anchor:middle;fill:none;stroke:#000000;stroke-width:1.29999995;stroke-miterlimit:4;stroke-opacity:1;stroke-dasharray:none"
         id="path3365" />
      <path
         inkscape:connector-curvature="0"
         d="m 208.3522,178.83604 7.44003,0 0,-7.87403 -7.44003,0 0,-9.61003 -8.68003,0 0,9.61003 -3.72001,0 0,7.87403 3.72001,0 0,18.53806 c 0,3.55468 1.054,6.30336 3.16201,8.24603 2.108,1.94267 4.98067,2.91401 8.61803,2.91401 l 5.58002,0 0,-8.68003 -4.34001,0 c -1.15736,1e-5 -2.17003,-0.41333 -3.03801,-1.24001 -0.86802,-0.86799 -1.30202,-1.90133 -1.30201,-3.10001 l 0,-16.67805"
         style="text-align:center;text-anchor:middle;fill:none;stroke:#000000;stroke-width:1.29999995;stroke-miterlimit:4;stroke-opacity:1;stroke-dasharray:none"
         id="path3367" />
      <path
         inkscape:connector-curvature="0"
         d="m 259.8705,199.79211 16.74005,0 0,8.68003 -16.74005,0 -8.68003,0 0,-8.68003 0,-40.92014 8.68003,0 0,40.92014"
         style="text-align:center;text-anchor:middle;fill:none;stroke:#000000;stroke-width:1.29999995;stroke-miterlimit:4;stroke-opacity:1;stroke-dasharray:none"
         id="path3369" />
      <path
         inkscape:connector-curvature="0"
         d="m 282.98495,157.94197 c -1.03334,1.03338 -1.55001,2.27339 -1.55,3.72001 -1e-5,1.44672 0.51666,2.68672 1.55,3.72001 1.03333,1.03338 2.27334,1.55005 3.72001,1.55001 1.44667,4e-5 2.68667,-0.51663 3.72002,-1.55001 1.07465,-1.03329 1.61199,-2.27329 1.612,-3.72001 -1e-5,-1.44662 -0.53735,-2.68663 -1.612,-3.72001 -1.03335,-1.07462 -2.27335,-1.61196 -3.72002,-1.61201 -1.44667,5e-5 -2.68668,0.53739 -3.72001,1.61201 m -0.62,13.02004 0,37.51013 8.68003,0 0,-37.51013 -8.68003,0"
         style="text-align:center;text-anchor:middle;fill:none;stroke:#000000;stroke-width:1.29999995;stroke-miterlimit:4;stroke-opacity:1;stroke-dasharray:none"
         id="path3371" />
      <path
         inkscape:connector-curvature="0"
         d="m 298.47046,157.07396 0,51.39818 8.68003,0 0,-2.17001 c 1.73599,1.65334 3.80267,2.48001 6.20002,2.48001 3.18266,0 5.84866,-1.19867 7.99803,-3.59602 2.19064,-2.39733 3.24465,-5.53867 3.16201,-9.42403 l 0,-12.09004 c 0.0826,-3.88531 -0.97137,-7.02666 -3.16201,-9.42403 -2.14937,-2.3973 -4.81537,-3.59597 -7.99803,-3.59601 -2.39735,4e-5 -4.46403,0.82671 -6.20002,2.48001 l 0,-16.05806 -8.68003,0 m 17.36006,26.59809 0,12.09004 c -2e-5,1.19869 -0.43402,2.23202 -1.302,3.10001 -0.86802,0.82668 -1.88069,1.24002 -3.03801,1.24001 -1.19869,1e-5 -2.23202,-0.41333 -3.10001,-1.24001 -0.82669,-0.86799 -1.24002,-1.90132 -1.24001,-3.10001 l 0,-12.09004 c -10e-6,-1.19864 0.41332,-2.21131 1.24001,-3.03801 0.86799,-0.86797 1.90132,-1.30197 3.10001,-1.302 1.15732,3e-5 2.16999,0.43403 3.03801,1.302 0.86798,0.8267 1.30198,1.83937 1.302,3.03801"
         style="text-align:center;text-anchor:middle;fill:none;stroke:#000000;stroke-width:1.29999995;stroke-miterlimit:4;stroke-opacity:1;stroke-dasharray:none"
         id="path3373" />
      <path
         inkscape:connector-curvature="0"
         d="m 331.40809,170.96201 0,37.51013 8.68002,0 0,-22.63008 c -10e-6,-1.94265 0.72333,-3.45132 2.17001,-4.52601 1.44666,-1.11598 2.89333,-1.67398 4.34002,-1.67401 l 3.72001,0 0,-8.68003 -3.72001,0 c -2.48003,4e-5 -4.65003,0.88871 -6.51003,2.66601 l 0,-2.66601 -8.68002,0"
         style="text-align:center;text-anchor:middle;fill:none;stroke:#000000;stroke-width:1.29999995;stroke-miterlimit:4;stroke-opacity:1;stroke-dasharray:none"
         id="path3375" />
      <path
         inkscape:connector-curvature="0"
         d="m 378.26183,184.97406 0,6.57202 -17.36006,0 0,4.21601 c -10e-6,1.44669 0.41332,2.58336 1.24,3.41001 0.82666,0.82668 1.85999,1.24002 3.10001,1.24001 1.32266,10e-6 2.41799,-0.41333 3.28601,-1.24001 0.90932,-0.82665 1.36399,-1.96332 1.36401,-3.41001 l 8.37003,0 c -3e-5,3.55469 -1.3227,6.61336 -3.96802,9.17603 -2.64536,2.56268 -5.7867,3.84402 -9.42403,3.84402 -3.84402,0 -6.92336,-1.24001 -9.23803,-3.72002 -2.27335,-2.48 -3.41001,-5.58001 -3.41001,-9.30003 l 0,-12.09004 c 0,-3.59598 1.26067,-6.65465 3.78201,-9.17603 2.56267,-2.56264 5.64201,-3.84397 9.23803,-3.84401 3.59599,4e-5 6.65467,1.28137 9.17603,3.84401 2.56265,2.52138 3.84399,5.58005 3.84402,9.17603 l 0,0.62001 0,0.682 m -8.37003,-0.682 0,-0.62001 c -2e-5,-1.44664 -0.45469,-2.60398 -1.36401,-3.47201 -0.90935,-0.86797 -2.00469,-1.30197 -3.28601,-1.302 -1.19868,3e-5 -2.23202,0.43403 -3.10001,1.302 -0.82668,0.86803 -1.24001,2.02537 -1.24,3.47201 l 0,0.62001 8.99003,0"
         style="text-align:center;text-anchor:middle;fill:none;stroke:#000000;stroke-width:1.29999995;stroke-miterlimit:4;stroke-opacity:1;stroke-dasharray:none"
         id="path3377" />
      <path
         inkscape:connector-curvature="0"
         d="m 422.62105,199.79211 16.74005,0 0,8.68003 -16.74005,0 -8.68003,0 0,-8.68003 0,-40.92014 8.68003,0 0,40.92014"
         style="text-align:center;text-anchor:middle;fill:none;stroke:#000000;stroke-width:1.29999995;stroke-miterlimit:4;stroke-opacity:1;stroke-dasharray:none"
         id="path3379" />
      <path
         inkscape:connector-curvature="0"
         d="m 445.73549,157.94197 c -1.03334,1.03338 -1.55001,2.27339 -1.55001,3.72001 0,1.44672 0.51667,2.68672 1.55001,3.72001 1.03333,1.03338 2.27333,1.55005 3.72001,1.55001 1.44666,4e-5 2.68666,-0.51663 3.72001,-1.55001 1.07466,-1.03329 1.61199,-2.27329 1.61201,-3.72001 -2e-5,-1.44662 -0.53735,-2.68663 -1.61201,-3.72001 -1.03335,-1.07462 -2.27335,-1.61196 -3.72001,-1.61201 -1.44668,5e-5 -2.68668,0.53739 -3.72001,1.61201 m -0.62001,13.02004 0,37.51013 8.68003,0 0,-37.51013 -8.68003,0"
         style="text-align:center;text-anchor:middle;fill:none;stroke:#000000;stroke-width:1.29999995;stroke-miterlimit:4;stroke-opacity:1;stroke-dasharray:none"
         id="path3381" />
      <path
         inkscape:connector-curvature="0"
         d="m 486.6411,183.67205 0,1.30201 -8.68003,0 0,-1.30201 c -2e-5,-1.19864 -0.43402,-2.21131 -1.30201,-3.03801 -0.82668,-0.86797 -1.83935,-1.30197 -3.03801,-1.302 -1.15735,3e-5 -2.17002,0.43403 -3.03801,1.302 -0.86801,0.8267 -1.30201,1.83937 -1.302,3.03801 l 0,12.09004 c -1e-5,1.19869 0.41332,2.23202 1.24,3.10001 0.86799,0.82668 1.90133,1.24002 3.10001,1.24001 1.23999,1e-5 2.27333,-0.41333 3.10001,-1.24001 0.82665,-0.86799 1.23999,-1.90132 1.24001,-3.10001 l 0,-1.302 8.68003,0 0,1.302 c -3e-5,3.59602 -1.28137,6.67536 -3.84402,9.23803 -2.52136,2.52135 -5.58003,3.78202 -9.17603,3.78202 -3.55469,0 -6.59269,-1.24001 -9.11403,-3.72002 -2.52134,-2.48 -3.82335,-5.47667 -3.90601,-8.99003 l 0,-0.31 0,-12.09004 0,-0.31 c 0.0827,-3.51331 1.38467,-6.50999 3.90601,-8.99003 2.52134,-2.47997 5.55934,-3.71997 9.11403,-3.72001 3.596,4e-5 6.65467,1.28137 9.17603,3.84401 2.56265,2.52138 3.84399,5.58005 3.84402,9.17603"
         style="text-align:center;text-anchor:middle;fill:none;stroke:#000000;stroke-width:1.29999995;stroke-miterlimit:4;stroke-opacity:1;stroke-dasharray:none"
         id="path3383" />
      <path
         inkscape:connector-curvature="0"
         d="m 518.24666,184.97406 0,6.57202 -17.36006,0 0,4.21601 c -10e-6,1.44669 0.41332,2.58336 1.24,3.41001 0.82666,0.82668 1.86,1.24002 3.10001,1.24001 1.32266,10e-6 2.41799,-0.41333 3.28602,-1.24001 0.90931,-0.82665 1.36398,-1.96332 1.364,-3.41001 l 8.37003,0 c -3e-5,3.55469 -1.3227,6.61336 -3.96802,9.17603 -2.64536,2.56268 -5.7867,3.84402 -9.42403,3.84402 -3.84402,0 -6.92336,-1.24001 -9.23803,-3.72002 -2.27334,-2.48 -3.41001,-5.58001 -3.41001,-9.30003 l 0,-12.09004 c 0,-3.59598 1.26067,-6.65465 3.78201,-9.17603 2.56267,-2.56264 5.64201,-3.84397 9.23803,-3.84401 3.596,4e-5 6.65467,1.28137 9.17604,3.84401 2.56264,2.52138 3.84398,5.58005 3.84401,9.17603 l 0,0.62001 0,0.682 m -8.37003,-0.682 0,-0.62001 c -2e-5,-1.44664 -0.45469,-2.60398 -1.364,-3.47201 -0.90936,-0.86797 -2.0047,-1.30197 -3.28602,-1.302 -1.19868,3e-5 -2.23202,0.43403 -3.10001,1.302 -0.82668,0.86803 -1.24001,2.02537 -1.24,3.47201 l 0,0.62001 8.99003,0"
         style="text-align:center;text-anchor:middle;fill:none;stroke:#000000;stroke-width:1.29999995;stroke-miterlimit:4;stroke-opacity:1;stroke-dasharray:none"
         id="path3385" />
      <path
         inkscape:connector-curvature="0"
         d="m 524.43216,170.96201 0,37.51013 8.68003,0 0,-24.80009 c -1e-5,-1.19864 0.47533,-2.21131 1.42601,-3.03801 0.95065,-0.86797 2.02532,-1.30197 3.22401,-1.302 1.28132,3e-5 2.37665,0.43403 3.28601,1.302 0.90931,0.8267 1.36398,1.83937 1.364,3.03801 l 0,24.80009 8.68003,0 0,-24.80009 c 0.0826,-3.84398 -1.0127,-6.96465 -3.28601,-9.36203 -2.27336,-2.43864 -5.00137,-3.65797 -8.18403,-3.65801 -2.48002,4e-5 -4.65003,0.88871 -6.51002,2.66601 l 0,-2.35601 -8.68003,0"
         style="text-align:center;text-anchor:middle;fill:none;stroke:#000000;stroke-width:1.29999995;stroke-miterlimit:4;stroke-opacity:1;stroke-dasharray:none"
         id="path3387" />
      <path
         inkscape:connector-curvature="0"
         d="m 583.5164,183.67205 0,1.30201 -8.68003,0 0,-1.30201 c -2e-5,-1.19864 -0.43402,-2.21131 -1.302,-3.03801 -0.82669,-0.86797 -1.83936,-1.30197 -3.03801,-1.302 -1.15735,3e-5 -2.17002,0.43403 -3.03801,1.302 -0.86802,0.8267 -1.30202,1.83937 -1.302,3.03801 l 0,12.09004 c -2e-5,1.19869 0.41332,2.23202 1.24,3.10001 0.86799,0.82668 1.90132,1.24002 3.10001,1.24001 1.23999,1e-5 2.27332,-0.41333 3.10001,-1.24001 0.82665,-0.86799 1.23998,-1.90132 1.24,-3.10001 l 0,-1.302 8.68003,0 0,1.302 c -3e-5,3.59602 -1.28136,6.67536 -3.84401,9.23803 -2.52136,2.52135 -5.58004,3.78202 -9.17603,3.78202 -3.55469,0 -6.5927,-1.24001 -9.11403,-3.72002 -2.52135,-2.48 -3.82335,-5.47667 -3.90601,-8.99003 l 0,-0.31 0,-12.09004 0,-0.31 c 0.0827,-3.51331 1.38466,-6.50999 3.90601,-8.99003 2.52133,-2.47997 5.55934,-3.71997 9.11403,-3.72001 3.59599,4e-5 6.65467,1.28137 9.17603,3.84401 2.56265,2.52138 3.84398,5.58005 3.84401,9.17603"
         style="text-align:center;text-anchor:middle;fill:none;stroke:#000000;stroke-width:1.29999995;stroke-miterlimit:4;stroke-opacity:1;stroke-dasharray:none"
         id="path3389" />
      <path
         inkscape:connector-curvature="0"
         d="m 615.12199,184.97406 0,6.57202 -17.36005,0 0,4.21601 c -2e-5,1.44669 0.41332,2.58336 1.24,3.41001 0.82666,0.82668 1.85999,1.24002 3.10001,1.24001 1.32265,10e-6 2.41799,-0.41333 3.28601,-1.24001 0.90932,-0.82665 1.36398,-1.96332 1.36401,-3.41001 l 8.37002,0 c -3e-5,3.55469 -1.3227,6.61336 -3.96801,9.17603 -2.64536,2.56268 -5.7867,3.84402 -9.42403,3.84402 -3.84403,0 -6.92337,-1.24001 -9.23803,-3.72002 -2.27335,-2.48 -3.41002,-5.58001 -3.41001,-9.30003 l 0,-12.09004 c -10e-6,-3.59598 1.26066,-6.65465 3.78201,-9.17603 2.56267,-2.56264 5.64201,-3.84397 9.23803,-3.84401 3.59599,4e-5 6.65467,1.28137 9.17603,3.84401 2.56265,2.52138 3.84398,5.58005 3.84401,9.17603 l 0,0.62001 0,0.682 m -8.37002,-0.682 0,-0.62001 c -3e-5,-1.44664 -0.45469,-2.60398 -1.36401,-3.47201 -0.90935,-0.86797 -2.00469,-1.30197 -3.28601,-1.302 -1.19869,3e-5 -2.23202,0.43403 -3.10001,1.302 -0.82668,0.86803 -1.24002,2.02537 -1.24,3.47201 l 0,0.62001 8.99003,0"
         style="text-align:center;text-anchor:middle;fill:none;stroke:#000000;stroke-width:1.29999995;stroke-miterlimit:4;stroke-opacity:1;stroke-dasharray:none"
         id="path3391" />
    </g>
    <path
       style="font-size:medium;font-style:normal;font-variant:normal;font-weight:normal;font-stretch:normal;text-indent:0;text-align:start;text-decoration:none;line-height:normal;letter-spacing:normal;word-spacing:normal;text-transform:none;direction:ltr;block-progression:tb;writing-mode:lr-tb;text-anchor:start;baseline-shift:baseline;color:#000000;fill:none;stroke:#000000;stroke-width:1.29999995;stroke-miterlimit:4;stroke-opacity:1;stroke-dasharray:none;marker:none;visibility:visible;display:inline;overflow:visible;enable-background:accumulate;font-family:Sans;-inkscape-font-specification:Sans"
       d="m 123.28125,344.18749 a 3.3971009,3.3971009 0 0 0 0.34375,6.78125 l 480,0 a 3.3971009,3.3971009 0 1 0 0,-6.78125 l -480,0 a 3.3971009,3.3971009 0 0 0 -0.34375,0 z"
       id="path14"
       inkscape:connector-curvature="0" />
    <path
       style="font-size:medium;font-style:normal;font-variant:normal;font-weight:normal;font-stretch:normal;text-indent:0;text-align:start;text-decoration:none;line-height:normal;letter-spacing:normal;word-spacing:normal;text-transform:none;direction:ltr;block-progression:tb;writing-mode:lr-tb;text-anchor:start;baseline-shift:baseline;color:#000000;fill:none;stroke:#000000;stroke-width:1.29999995;stroke-miterlimit:4;stroke-opacity:1;stroke-dasharray:none;marker:none;visibility:visible;display:inline;overflow:visible;enable-background:accumulate;font-family:Sans;-inkscape-font-specification:Sans"
       d="m 123.625,400.65624 a 3.40625,3.40625 0 1 0 0,6.8125 l 480,0 a 3.40625,3.40625 0 0 0 0,-6.8125 l -480,0 z"
       id="path16"
       inkscape:connector-curvature="0" />
    <path
       style="font-size:medium;font-style:normal;font-variant:normal;font-weight:normal;font-stretch:normal;text-indent:0;text-align:start;text-decoration:none;line-height:normal;letter-spacing:normal;word-spacing:normal;text-transform:none;direction:ltr;block-progression:tb;writing-mode:lr-tb;text-anchor:start;baseline-shift:baseline;color:#000000;fill:none;stroke:#000000;stroke-width:1.29999995;stroke-miterlimit:4;stroke-opacity:1;stroke-dasharray:none;marker:none;visibility:visible;display:inline;overflow:visible;enable-background:accumulate;font-family:Sans;-inkscape-font-specification:Sans"
       d="m 123.28125,977.18749 a 3.3971009,3.3971009 0 0 0 0.34375,6.78125 l 480,0 a 3.3971009,3.3971009 0 1 0 0,-6.78125 l -480,0 a 3.3971009,3.3971009 0 0 0 -0.34375,0 z"
       id="path18"
       inkscape:connector-curvature="0" />
    <g
       transform="translate(-2,45.999996)"
       style="font-size:40px;font-style:normal;font-variant:normal;font-weight:bold;font-stretch:extra-condensed;text-align:start;line-height:125%;letter-spacing:0px;word-spacing:0px;writing-mode:lr-tb;text-anchor:start;fill:none;stroke:#000000;stroke-width:1.29999995;stroke-miterlimit:4;stroke-opacity:1;stroke-dasharray:none;font-family:Reglo;-inkscape-font-specification:Reglo Bold Ultra-Condensed"
       id="text3091">
      <path
         inkscape:connector-curvature="0"
         d="m 119.7207,345.79074 -5.6,0 0,-13.2 -8,0 0,13.2 -5.6,0 0,-32 5.6,0 0,13.2 8,0 0,-13.2 5.6,0 0,32"
         style="fill:none;stroke:#000000;stroke-width:1.29999995;stroke-miterlimit:4;stroke-opacity:1;stroke-dasharray:none"
         id="path3322" />
      <path
         inkscape:connector-curvature="0"
         d="m 141.0957,330.63074 0,4.24 -11.2,0 0,2.72 c -1e-5,0.93334 0.26666,1.66667 0.8,2.2 0.53332,0.53334 1.19999,0.80001 2,0.8 0.85332,1e-5 1.55999,-0.26666 2.12,-0.8 0.58665,-0.53333 0.87999,-1.26666 0.88,-2.2 l 5.4,0 c -2e-5,2.29334 -0.85335,4.26667 -2.56,5.92 -1.70668,1.65333 -3.73335,2.48 -6.08,2.48 -2.48001,0 -4.46667,-0.8 -5.96,-2.4 -1.46667,-1.6 -2.2,-3.59999 -2.2,-6 l 0,-7.8 c 0,-2.31998 0.81333,-4.29331 2.44,-5.92 1.65333,-1.65331 3.63999,-2.47997 5.96,-2.48 2.31999,3e-5 4.29332,0.82669 5.92,2.48 1.65332,1.62669 2.47998,3.60002 2.48,5.92 l 0,0.4 0,0.44 m -5.4,-0.44 0,-0.4 c -10e-6,-0.93332 -0.29335,-1.67998 -0.88,-2.24 -0.58668,-0.55998 -1.29334,-0.83998 -2.12,-0.84 -0.77334,2e-5 -1.44001,0.28002 -2,0.84 -0.53334,0.56002 -0.80001,1.30668 -0.8,2.24 l 0,0.4 5.8,0"
         style="fill:none;stroke:#000000;stroke-width:1.29999995;stroke-miterlimit:4;stroke-opacity:1;stroke-dasharray:none"
         id="path3324" />
      <path
         inkscape:connector-curvature="0"
         d="m 154.44633,336.35074 c -0.42668,1e-5 -0.74668,0.0133 -0.96,0.04 -0.21335,1e-5 -0.56002,0.0133 -1.04,0.04 -0.45335,0.0267 -0.81335,0.0933 -1.08,0.2 -0.26668,0.10668 -0.56001,0.24001 -0.88,0.4 -0.29335,0.16001 -0.52001,0.38668 -0.68,0.68 -0.13335,0.26668 -0.20001,0.58668 -0.2,0.96 -1e-5,0.69334 0.19999,1.24001 0.6,1.64 0.42665,0.37334 0.98665,0.56001 1.68,0.56 0.93332,10e-6 1.75998,-0.30666 2.48,-0.92 0.74665,-0.63999 1.11998,-1.42666 1.12,-2.36 l 0,-1.24 -1.04,0 m 6.64,-6.76 0,0.2 0,16 -5.6,0 0,-1.84 c -1.38668,1.36 -2.98668,2.04 -4.8,2.04 -2.02668,0 -3.66668,-0.61333 -4.92,-1.84 -1.25334,-1.25333 -1.88001,-2.94666 -1.88,-5.08 -10e-6,-2.42666 0.77333,-4.26665 2.32,-5.52 1.57332,-1.25332 3.79999,-1.87998 6.68,-1.88 l 2.6,0 0,-1.88 c -2e-5,-0.77332 -0.28002,-1.42665 -0.84,-1.96 -0.56002,-0.55998 -1.21335,-0.83998 -1.96,-0.84 -0.77335,2e-5 -1.44001,0.28002 -2,0.84 -0.53335,0.53335 -0.80001,1.18668 -0.8,1.96 l -5.6,0 c -1e-5,-2.31998 0.81333,-4.29331 2.44,-5.92 1.65332,-1.65331 3.63999,-2.47997 5.96,-2.48 2.29332,3e-5 4.25331,0.80002 5.88,2.4 1.62664,1.60002 2.46664,3.53335 2.52,5.8"
         style="fill:none;stroke:#000000;stroke-width:1.29999995;stroke-miterlimit:4;stroke-opacity:1;stroke-dasharray:none"
         id="path3326" />
      <path
         inkscape:connector-curvature="0"
         d="m 182.39508,312.63074 0,33.16 -5.6,0 0,-1.52 c -1.20002,1.14667 -2.60002,1.72 -4.2,1.72 -2.05335,0 -3.81334,-0.77333 -5.28,-2.32 -1.46667,-1.57333 -2.17334,-3.59999 -2.12,-6.08 l 0,-7.8 c -0.0533,-2.50665 0.70666,-4.53331 2.28,-6.08 1.59999,-1.54664 3.57332,-2.31997 5.92,-2.32 1.22665,3e-5 2.35998,0.34669 3.4,1.04 l 0,-9.8 5.6,0 m -11.6,17.16 0,7.8 c -1e-5,0.77334 0.29332,1.44001 0.88,2 0.61332,0.53334 1.31999,0.80001 2.12,0.8 0.79998,1e-5 1.49332,-0.26666 2.08,-0.8 0.61332,-0.55999 0.91998,-1.22666 0.92,-2 l 0,-7.8 c -2e-5,-0.77332 -0.30668,-1.42665 -0.92,-1.96 -0.58668,-0.55998 -1.28002,-0.83998 -2.08,-0.84 -0.80001,2e-5 -1.50668,0.28002 -2.12,0.84 -0.58668,0.53335 -0.88001,1.18668 -0.88,1.96"
         style="fill:none;stroke:#000000;stroke-width:1.29999995;stroke-miterlimit:4;stroke-opacity:1;stroke-dasharray:none"
         id="path3328" />
    </g>
    <g
       transform="translate(-2,45.999996)"
       style="font-size:40px;font-style:normal;font-variant:normal;font-weight:bold;font-stretch:extra-condensed;text-align:start;line-height:125%;letter-spacing:0px;word-spacing:0px;writing-mode:lr-tb;text-anchor:start;fill:none;stroke:#000000;stroke-width:1.29999995;stroke-miterlimit:4;stroke-opacity:1;stroke-dasharray:none;font-family:Reglo;-inkscape-font-specification:Reglo Bold Ultra-Condensed"
       id="text3095">
      <path
         inkscape:connector-curvature="0"
         d="m 106.7472,664.27582 0,-32 0.4,0 5.2,0 3.96,0 c 2.66665,3e-5 4.93332,0.9467 6.8,2.84 1.89331,1.86669 2.83998,4.13336 2.84,6.8 -2e-5,2.58668 -0.94669,4.70668 -2.84,6.36 1.89331,1.68001 2.83998,3.82668 2.84,6.44 -2e-5,2.61334 -0.94669,4.86667 -2.84,6.76 -1.86668,1.86667 -4.13335,2.8 -6.8,2.8 l -3.96,0 -5.2,0 -0.4,0 m 5.6,-26.4 0,8 3.96,0 c 1.09332,2e-5 2.03999,-0.38665 2.84,-1.16 0.79999,-0.79998 1.19999,-1.73331 1.2,-2.8 -1e-5,-1.09331 -0.40001,-2.03998 -1.2,-2.84 -0.80001,-0.79998 -1.74668,-1.19998 -2.84,-1.2 l -3.96,0 m 0,12.8 0,8 3.96,0 c 1.09332,0 2.03999,-0.38666 2.84,-1.16 0.79999,-0.79999 1.19999,-1.73333 1.2,-2.8 -1e-5,-1.09332 -0.40001,-2.03999 -1.2,-2.84 -0.80001,-0.79999 -1.74668,-1.19999 -2.84,-1.2 l -3.96,0"
         style="fill:none;stroke:#000000;stroke-width:1.29999995;stroke-miterlimit:4;stroke-opacity:1;stroke-dasharray:none"
         id="path3313" />
      <path
         inkscape:connector-curvature="0"
         d="m 140.55033,648.27582 c -2e-5,-0.77332 -0.28002,-1.42665 -0.84,-1.96 -0.53335,-0.55998 -1.18668,-0.83998 -1.96,-0.84 -0.74668,2e-5 -1.40001,0.28002 -1.96,0.84 -0.56001,0.53335 -0.84001,1.18668 -0.84,1.96 l 0,7.6 c -1e-5,0.77334 0.26666,1.44 0.8,2 0.55999,0.53334 1.22665,0.8 2,0.8 0.79999,0 1.46665,-0.26666 2,-0.8 0.53332,-0.56 0.79998,-1.22666 0.8,-2 l 0.04,0 0,-7.6 -0.04,0 m 5.6,0 0.04,0 0,7.6 -0.04,0 c -2e-5,2.32 -0.82669,4.30667 -2.48,5.96 -1.62668,1.62667 -3.60002,2.44 -5.92,2.44 -2.32001,0 -4.30668,-0.81333 -5.96,-2.44 -1.62667,-1.65333 -2.44001,-3.64 -2.44,-5.96 l 0,-7.6 c -1e-5,-2.31998 0.81333,-4.29332 2.44,-5.92 1.65332,-1.65331 3.63999,-2.47998 5.96,-2.48 2.31998,2e-5 4.29332,0.82669 5.92,2.48 1.65331,1.62668 2.47998,3.60002 2.48,5.92"
         style="fill:none;stroke:#000000;stroke-width:1.29999995;stroke-miterlimit:4;stroke-opacity:1;stroke-dasharray:none"
         id="path3315" />
      <path
         inkscape:connector-curvature="0"
         d="m 167.4497,631.11582 0,33.16 -5.6,0 0,-1.52 c -1.20001,1.14666 -2.60001,1.72 -4.2,1.72 -2.05334,0 -3.81334,-0.77333 -5.28,-2.32 -1.46667,-1.57333 -2.17333,-3.6 -2.12,-6.08 l 0,-7.8 c -0.0533,-2.50665 0.70667,-4.53331 2.28,-6.08 1.6,-1.54665 3.57333,-2.31998 5.92,-2.32 1.22666,2e-5 2.35999,0.34669 3.4,1.04 l 0,-9.8 5.6,0 m -11.6,17.16 0,7.8 c -1e-5,0.77334 0.29333,1.44 0.88,2 0.61333,0.53334 1.31999,0.8 2.12,0.8 0.79999,0 1.49332,-0.26666 2.08,-0.8 0.61332,-0.56 0.91999,-1.22666 0.92,-2 l 0,-7.8 c -1e-5,-0.77332 -0.30668,-1.42665 -0.92,-1.96 -0.58668,-0.55998 -1.28001,-0.83998 -2.08,-0.84 -0.80001,2e-5 -1.50667,0.28002 -2.12,0.84 -0.58667,0.53335 -0.88001,1.18668 -0.88,1.96"
         style="fill:none;stroke:#000000;stroke-width:1.29999995;stroke-miterlimit:4;stroke-opacity:1;stroke-dasharray:none"
         id="path3317" />
      <path
         inkscape:connector-curvature="0"
         d="m 182.81033,640.07582 5.48,0 -8.8,34.16 -5.2,0 2.48,-9.96 -0.12,0 -6.8,-24.2 5.6,0 3.8,14.32 3.56,-14.32"
         style="fill:none;stroke:#000000;stroke-width:1.29999995;stroke-miterlimit:4;stroke-opacity:1;stroke-dasharray:none"
         id="path3319" />
    </g>
    <g
       transform="translate(-2,45.999996)"
       style="font-size:40px;font-style:normal;font-variant:normal;font-weight:bold;font-stretch:extra-condensed;text-align:start;line-height:125%;letter-spacing:0px;word-spacing:0px;writing-mode:lr-tb;text-anchor:start;fill:none;stroke:#000000;stroke-width:1.29999995;stroke-miterlimit:4;stroke-opacity:1;stroke-dasharray:none;font-family:Reglo;-inkscape-font-specification:Reglo Bold Ultra-Condensed"
       id="text3014-8">
      <path
         inkscape:connector-curvature="0"
         d="m 587.58031,313.79074 -7.8,32 5.6,0 1.96,-8 8.08,0 1.96,8 5.6,0 -7.8,-32 -2,0 -3.6,0 -2,0 m 1,18.84 2.8,-11.44 2.8,11.44 -5.6,0"
         style="fill:none;stroke:#000000;stroke-width:1.29999995;stroke-miterlimit:4;stroke-opacity:1;stroke-dasharray:none"
         id="path3306" />
      <path
         inkscape:connector-curvature="0"
         d="m 606.16469,313.19074 c -0.66667,0.6667 -1.00001,1.4667 -1,2.4 -10e-6,0.93336 0.33333,1.73336 1,2.4 0.66666,0.66669 1.46666,1.00003 2.4,1 0.93332,3e-5 1.73332,-0.33331 2.4,-1 0.69332,-0.66664 1.03999,-1.46664 1.04,-2.4 -10e-6,-0.9333 -0.34668,-1.7333 -1.04,-2.4 -0.66668,-0.6933 -1.46668,-1.03997 -2.4,-1.04 -0.93334,3e-5 -1.73334,0.3467 -2.4,1.04 m -0.4,8.4 0,24.2 5.6,0 0,-24.2 -5.6,0"
         style="fill:none;stroke:#000000;stroke-width:1.29999995;stroke-miterlimit:4;stroke-opacity:1;stroke-dasharray:none"
         id="path3308" />
      <path
         inkscape:connector-curvature="0"
         d="m 616.15531,321.55074 0,24.24 5.6,0 0,-16 c -10e-6,-0.77332 0.30666,-1.42665 0.92,-1.96 0.61332,-0.55998 1.30666,-0.83998 2.08,-0.84 0.82665,2e-5 1.53332,0.28002 2.12,0.84 0.58665,0.53335 0.87999,1.18668 0.88,1.96 l 0,16 5.6,0 0,-16 c -2e-5,-0.0267 -2e-5,-0.0533 0,-0.08 0.0267,-0.74665 0.33331,-1.38665 0.92,-1.92 0.61331,-0.53331 1.30664,-0.79998 2.08,-0.8 0.82664,2e-5 1.53331,0.28002 2.12,0.84 0.58664,0.53335 0.87997,1.18668 0.88,1.96 l 0,16 5.6,0 0,-16 c 0.0533,-2.50665 -0.68003,-4.53331 -2.2,-6.08 -1.49336,-1.54664 -3.36003,-2.31997 -5.6,-2.32 -0.98669,3e-5 -1.98669,0.22669 -3,0.68 -1.01335,0.45336 -1.90669,1.09336 -2.68,1.92 -1.44002,-1.73331 -3.28001,-2.59997 -5.52,-2.6 -1.60001,3e-5 -3.00001,0.57336 -4.2,1.72 l 0,-1.56 -5.6,0"
         style="fill:none;stroke:#000000;stroke-width:1.29999995;stroke-miterlimit:4;stroke-opacity:1;stroke-dasharray:none"
         id="path3310" />
    </g>
    <g
       transform="translate(-2,45.999996)"
       style="font-size:40px;font-style:normal;font-variant:normal;font-weight:bold;font-stretch:extra-condensed;text-align:start;line-height:125%;letter-spacing:0px;word-spacing:0px;writing-mode:lr-tb;text-anchor:start;fill:none;stroke:#000000;stroke-width:1.29999995;stroke-miterlimit:4;stroke-opacity:1;stroke-dasharray:none;font-family:Reglo;-inkscape-font-specification:Reglo Bold Ultra-Condensed"
       id="text3018-2">
      <path
         inkscape:connector-curvature="0"
         d="m 566.86095,668.79645 -5.6,0 0,-26.4 -6.8,0 0,-5.6 19.2,0 0,5.6 -6.8,0 0,26.4"
         style="fill:none;stroke:#000000;stroke-width:1.29999995;stroke-miterlimit:4;stroke-opacity:1;stroke-dasharray:none"
         id="path3295" />
      <path
         inkscape:connector-curvature="0"
         d="m 585.61095,652.79645 c -10e-6,-0.77332 -0.28001,-1.42665 -0.84,-1.96 -0.53335,-0.55998 -1.18668,-0.83998 -1.96,-0.84 -0.74668,2e-5 -1.40001,0.28002 -1.96,0.84 -0.56001,0.53335 -0.84001,1.18668 -0.84,1.96 l 0,7.6 c -10e-6,0.77334 0.26666,1.44 0.8,2 0.55999,0.53334 1.22666,0.8 2,0.8 0.79999,0 1.46665,-0.26666 2,-0.8 0.53332,-0.56 0.79999,-1.22666 0.8,-2 l 0.04,0 0,-7.6 -0.04,0 m 5.6,0 0.04,0 0,7.6 -0.04,0 c -2e-5,2.32 -0.82668,4.30667 -2.48,5.96 -1.62668,1.62667 -3.60001,2.44 -5.92,2.44 -2.32001,0 -4.30667,-0.81333 -5.96,-2.44 -1.62667,-1.65333 -2.44,-3.64 -2.44,-5.96 l 0,-7.6 c 0,-2.31998 0.81333,-4.29332 2.44,-5.92 1.65333,-1.65331 3.63999,-2.47998 5.96,-2.48 2.31999,2e-5 4.29332,0.82669 5.92,2.48 1.65332,1.62668 2.47998,3.60002 2.48,5.92"
         style="fill:none;stroke:#000000;stroke-width:1.29999995;stroke-miterlimit:4;stroke-opacity:1;stroke-dasharray:none"
         id="path3297" />
      <path
         inkscape:connector-curvature="0"
         d="m 606.47032,652.79645 c -10e-6,-0.77332 -0.28001,-1.42665 -0.84,-1.96 -0.53334,-0.55998 -1.18667,-0.83998 -1.96,-0.84 -0.74667,2e-5 -1.4,0.28002 -1.96,0.84 -0.56,0.53335 -0.84,1.18668 -0.84,1.96 l 0,7.6 c 0,0.77334 0.26666,1.44 0.8,2 0.56,0.53334 1.22666,0.8 2,0.8 0.79999,0 1.46666,-0.26666 2,-0.8 0.53333,-0.56 0.79999,-1.22666 0.8,-2 l 0.04,0 0,-7.6 -0.04,0 m 5.6,0 0.04,0 0,7.6 -0.04,0 c -1e-5,2.32 -0.82668,4.30667 -2.48,5.96 -1.62668,1.62667 -3.60001,2.44 -5.92,2.44 -2.32,0 -4.30667,-0.81333 -5.96,-2.44 -1.62666,-1.65333 -2.44,-3.64 -2.44,-5.96 l 0,-7.6 c 0,-2.31998 0.81334,-4.29332 2.44,-5.92 1.65333,-1.65331 3.64,-2.47998 5.96,-2.48 2.31999,2e-5 4.29332,0.82669 5.92,2.48 1.65332,1.62668 2.47999,3.60002 2.48,5.92"
         style="fill:none;stroke:#000000;stroke-width:1.29999995;stroke-miterlimit:4;stroke-opacity:1;stroke-dasharray:none"
         id="path3299" />
      <path
         inkscape:connector-curvature="0"
         d="m 616.5297,635.63645 0,33.16 5.6,0 0,-33.16 -5.6,0"
         style="fill:none;stroke:#000000;stroke-width:1.29999995;stroke-miterlimit:4;stroke-opacity:1;stroke-dasharray:none"
         id="path3301" />
      <path
         inkscape:connector-curvature="0"
         d="m 635.76032,652.39645 5.6,0 0,-0.6 c -10e-6,-2.05332 -0.73334,-3.79998 -2.2,-5.24 -1.44001,-1.43998 -3.17334,-2.15998 -5.2,-2.16 l -0.64,0 c -2.02667,2e-5 -3.77333,0.73335 -5.24,2.2 -1.44,1.46669 -2.16,3.22668 -2.16,5.28 0,2.82668 1.33334,4.82668 4,6 2.10666,0.96001 3.57333,1.69334 4.4,2.2 0.85333,0.50667 1.27999,0.98667 1.28,1.44 -10e-6,0.53334 -0.16001,1.01334 -0.48,1.44 -0.29334,0.42667 -0.68001,0.64 -1.16,0.64 l -0.64,0 c -0.48,0 -0.90667,-0.22666 -1.28,-0.68 -0.34667,-0.48 -0.52,-0.98666 -0.52,-1.52 l 0,-0.6 -5.6,0 0,0.6 c 0,2.05334 0.72,3.8 2.16,5.24 1.46667,1.44 3.21333,2.16 5.24,2.16 l 0.64,0 c 2.02666,0 3.75999,-0.73333 5.2,-2.2 1.46666,-1.46667 2.19999,-3.22666 2.2,-5.28 -10e-6,-0.95999 -0.16001,-1.82666 -0.48,-2.6 -0.29334,-0.77332 -0.72001,-1.42666 -1.28,-1.96 -0.53334,-0.53332 -1.01334,-0.93332 -1.44,-1.2 -0.40001,-0.29332 -0.89334,-0.58666 -1.48,-0.88 -0.45334,-0.23999 -0.98667,-0.49332 -1.6,-0.76 -0.58667,-0.26665 -1.05334,-0.47999 -1.4,-0.64 -0.32,-0.15999 -0.65334,-0.33332 -1,-0.52 -0.32,-0.21332 -0.56,-0.39999 -0.72,-0.56 -0.13334,-0.18665 -0.2,-0.37332 -0.2,-0.56 0,-0.53332 0.13333,-0.99998 0.4,-1.4 0.29333,-0.42665 0.68,-0.63998 1.16,-0.64 l 0.64,0 c 0.47999,2e-5 0.89333,0.24002 1.24,0.72 0.37333,0.45335 0.55999,0.94668 0.56,1.48 l 0,0.6"
         style="fill:none;stroke:#000000;stroke-width:1.29999995;stroke-miterlimit:4;stroke-opacity:1;stroke-dasharray:none"
         id="path3303" />
    </g>
    <path
       inkscape:connector-curvature="0"
       d="m 225.46197,423.09425 0,541.26859"
       style="fill:none;stroke:#000000;stroke-width:0.92901045;stroke-linecap:round;stroke-linejoin:round;stroke-miterlimit:10;stroke-opacity:1;stroke-dasharray:none;display:inline"
       id="path16-6" />
    <path
       style="fill:none;stroke:#000000;stroke-width:1;stroke-linecap:butt;stroke-linejoin:miter;stroke-miterlimit:4;stroke-opacity:1;stroke-dasharray:none;display:inline"
       d="m 226.24317,351.62362 -6.05016,12.82065 11.00028,-0.48394 z"
       id="path4228"
       inkscape:connector-curvature="0"
       sodipodi:nodetypes="cccc" />
    <path
       style="fill:none;stroke:#000000;stroke-width:1;stroke-linecap:butt;stroke-linejoin:miter;stroke-miterlimit:4;stroke-opacity:1;stroke-dasharray:none;display:inline"
       d="m 226.24317,409.62362 -6.05016,12.82065 11.00028,-0.48394 z"
       id="path4228-0"
       inkscape:connector-curvature="0"
       sodipodi:nodetypes="cccc" />
    <path
       style="fill:none;stroke:#000000;stroke-width:1;stroke-linecap:butt;stroke-linejoin:miter;stroke-miterlimit:4;stroke-opacity:1;stroke-dasharray:none;display:inline"
       d="m 226.24317,398.44427 -6.05016,-12.82065 11.00028,0.48394 z"
       id="path4228-1"
       inkscape:connector-curvature="0"
       sodipodi:nodetypes="cccc" />
    <path
       inkscape:connector-curvature="0"
       d="m 225.46197,364.0456 0,21.07653"
       style="fill:none;stroke:#000000;stroke-width:1.09111679;stroke-linecap:round;stroke-linejoin:round;stroke-miterlimit:10;stroke-opacity:1;stroke-dasharray:none;display:inline"
       id="path16-6-8" />
    <path
       style="fill:none;stroke:#000000;stroke-width:1;stroke-linecap:butt;stroke-linejoin:miter;stroke-miterlimit:4;stroke-opacity:1;stroke-dasharray:none;display:inline"
       d="m 226.24317,976.44427 -6.05016,-12.82065 11.00028,0.48394 z"
       id="path4228-1-6"
       inkscape:connector-curvature="0"
       sodipodi:nodetypes="cccc" />
    <path
       inkscape:connector-curvature="0"
       d="m 513.46197,423.09425 0,541.26859"
       style="fill:none;stroke:#000000;stroke-width:0.92901045;stroke-linecap:round;stroke-linejoin:round;stroke-miterlimit:10;stroke-opacity:1;stroke-dasharray:none;display:inline"
       id="path16-6-2" />
    <path
       style="fill:none;stroke:#000000;stroke-width:1;stroke-linecap:butt;stroke-linejoin:miter;stroke-miterlimit:4;stroke-opacity:1;stroke-dasharray:none;display:inline"
       d="m 514.24317,351.62362 -6.05016,12.82065 11.00028,-0.48394 z"
       id="path4228-03"
       inkscape:connector-curvature="0"
       sodipodi:nodetypes="cccc" />
    <path
       style="fill:none;stroke:#000000;stroke-width:1;stroke-linecap:butt;stroke-linejoin:miter;stroke-miterlimit:4;stroke-opacity:1;stroke-dasharray:none;display:inline"
       d="m 514.24317,409.62362 -6.05016,12.82065 11.00028,-0.48394 z"
       id="path4228-0-7"
       inkscape:connector-curvature="0"
       sodipodi:nodetypes="cccc" />
    <path
       style="fill:none;stroke:#000000;stroke-width:1;stroke-linecap:butt;stroke-linejoin:miter;stroke-miterlimit:4;stroke-opacity:1;stroke-dasharray:none;display:inline"
       d="m 514.24317,398.44427 -6.05016,-12.82065 11.00028,0.48394 z"
       id="path4228-1-2"
       inkscape:connector-curvature="0"
       sodipodi:nodetypes="cccc" />
    <path
       inkscape:connector-curvature="0"
       d="m 513.46197,364.0456 0,21.07653"
       style="fill:none;stroke:#000000;stroke-width:1.09111679;stroke-linecap:round;stroke-linejoin:round;stroke-miterlimit:10;stroke-opacity:1;stroke-dasharray:none;display:inline"
       id="path16-6-8-1" />
    <path
       style="fill:none;stroke:#000000;stroke-width:1;stroke-linecap:butt;stroke-linejoin:miter;stroke-miterlimit:4;stroke-opacity:1;stroke-dasharray:none;display:inline"
       d="m 514.24317,976.44427 -6.05016,-12.82065 11.00028,0.48394 z"
       id="path4228-1-6-7"
       inkscape:connector-curvature="0"
       sodipodi:nodetypes="cccc" />
  </g>
</svg>
