/* XPM */
static char * VA_xpm[] = {
"36 81 10 1",
"V 	c #F1F1F1",
"A 	c #000100",
"/ 	c #C2C3C2",
"\ 	c #ffff00",
". 	c #555555",
": 	c #0DFEF0", 
"a 	c #997a00", 
"b 	c #0000FF", 
"c 	c #800080", 
"  	c #FF0000", 
"AVAVAV\AVAVA::VAV..VAVA::VAVAV//AVAV",
"abc                                 ",
"VAVAV//AVAVA::VAVAV..VAVA::VAV\AVAVA",
"VAVAVA\VAVAV::AVAV..AVA::VAVAV//AVAV",
"AVAVA//VAVAV::AVAV..AVAVA::VAV\AVAVA",
"AVAVAV\AVAVA::VAV..VAVA::VAVAV//AVAV",
"VAVAV//AVAVA::VAVAV..VAVA::VAV\AVAVA",
"VAVAVA\VAVAV::AVAV..AVA::VAVAV//AVAV",
"AVAVA//VAVAV::AVAV..AVAVA::VAV\AVAVA",
"AVAVAV\AVAVA::VAV..VAVA::VAVAV//AVAV",
"VAVAV//AVAVA::VAVAV..VAVA::VAV\AVAVA",
"VAVAVA\VAVAV::AVAV..AVA::VAVAV//AVAV",
"AVAVA//VAVAV::AVAV..AVAVA::VAV\AVAVA",
"AVAVAV\AVAVA::VAV..VAVA::VAVAV//AVAV",
"VAVAV//AVAVA::VAVAV..VAVA::VAV\AVAVA",
"VAVAVA\VAVAV::AVAV..AVA::VAVAV//AVAV",
"AVAVA//VAVAV::AVAV..AVAVA::VAV\AVAVA",
"AVAVAV\AVAVA::VAV..VAVA::VAVAV//AVAV",
"VAVAV//AVAVA::VAVAV..VAVA::VAV\AVAVA",
"VAVAVA\VAVAV::AVAV..AVA::VAVAV//AVAV",
"AVAVA//VAVAV::AVAV..AVAVA::VAV\AVAVA",
"AVAVAV\AVAVA::VAV..VAVA::VAVAV//AVAV",
"VAVAV//AVAVA::VAVAV..VAVA::VAV\AVAVA",
"VAVAVA\VAVAV::AVAV..AVA::VAVAV//AVAV",
"AVAVA//VAVAV::AVAV..AVAVA::VAV\AVAVA",
"AVAVAV\AVAVA::VAV..VAVA::VAVAV//AVAV",
"VAVAV//AVAVA::VAVAV..VAVA::VAV\AVAVA",
"VAVAVA\VAVAV::AVAV..AVA::VAVAV//AVAV",
"AVAVA//VAVAV::AVAV..AVAVA::VAV\AVAVA",
"AVAVAV\AVAVA::VAV..VAVA::VAVAV//AVAV",
"VAVAV//AVAVA::VAVAV..VAVA::VAV\AVAVA",
"VAVAVA\VAVAV::AVAV..AVA::VAVAV//AVAV",
"AVAVA//VAVAV::AVAV..AVAVA::VAV\AVAVA",
"AVAVAV\AVAVA::VAV..VAVA::VAVAV//AVAV",
"VAVAV//AVAVA::VAVAV..VAVA::VAV\AVAVA",
"VAVAVA\VAVAV::AVAV..AVA::VAVAV//AVAV",
"AVAVA//VAVAV::AVAV..AVAVA::VAV\AVAVA",
"AVAVAV\AVAVA::VAV..VAVA::VAVAV//AVAV",
"VAVAV//AVAVA::VAVAV..VAVA::VAV\AVAVA",
"VAVAVA\VAVAV::AVAV..AVA::VAVAV//AVAV",
"AVAVA//VAVAV::AVAV..AVAVA::VAV\AVAVA",
"AVAVAV\AVAVA::VAV..VAVA::VAVAV//AVAV",
"VAVAV//AVAVA::VAVAV..VAVA::VAV\AVAVA",
"VAVAVA\VAVAV::AVAV..AVA::VAVAV//AVAV",
"AVAVA//VAVAV::AVAV..AVAVA::VAV\AVAVA",
"AVAVAV\AVAVA::VAV..VAVA::VAVAV//AVAV",
"VAVAV//AVAVA::VAVAV..VAVA::VAV\AVAVA",
"VAVAVA\VAVAV::AVAV..AVA::VAVAV//AVAV",
"AVAVA//VAVAV::AVAV..AVAVA::VAV\AVAVA",
"AVAVAV\AVAVA::VAV..VAVA::VAVAV//AVAV",
"VAVAV//AVAVA::VAVAV..VAVA::VAV\AVAVA",
"VAVAVA\VAVAV::AVAV..AVA::VAVAV//AVAV",
"AVAVA//VAVAV::AVAV..AVAVA::VAV\AVAVA",
"AVAVAV\AVAVA::VAV..VAVA::VAVAV//AVAV",
"VAVAV//AVAVA::VAVAV..VAVA::VAV\AVAVA",
"VAVAVA\VAVAV::AVAV..AVA::VAVAV//AVAV",
"AVAVA//VAVAV::AVAV..AVAVA::VAV\AVAVA",
"AVAVAV\AVAVA::VAV..VAVA::VAVAV//AVAV",
"VAVAV//AVAVA::VAVAV..VAVA::VAV\AVAVA",
"VAVAVA\VAVAV::AVAV..AVA::VAVAV//AVAV",
"AVAVA//VAVAV::AVAV..AVAVA::VAV\AVAVA",
"AVAVAV\AVAVA::VAV..VAVA::VAVAV//AVAV",
"VAVAV//AVAVA::VAVAV..VAVA::VAV\AVAVA",
"VAVAVA\VAVAV::AVAV..AVA::VAVAV//AVAV",
"AVAVA//VAVAV::AVAV..AVAVA::VAV\AVAVA",
"AVAVAV\AVAVA::VAV..VAVA::VAVAV//AVAV",
"VAVAV//AVAVA::VAVAV..VAVA::VAV\AVAVA",
"VAVAVA\VAVAV::AVAV..AVA::VAVAV//AVAV",
"AVAVA//VAVAV::AVAV..AVAVA::VAV\AVAVA",
"AVAVAV\AVAVA::VAV..VAVA::VAVAV//AVAV",
"VAVAV//AVAVA::VAVAV..VAVA::VAV\AVAVA",
"VAVAVA\VAVAV::AVAV..AVA::VAVAV//AVAV",
"AVAVA//VAVAV::AVAV..AVAVA::VAV\AVAVA",
"AVAVAV\AVAVA::VAV..VAVA::VAVAV//AVAV",
"VAVAV//AVAVA::VAVAV..VAVA::VAV\AVAVA",
"VAVAVA\VAVAV::AVAV..AVA::VAVAV//AVAV",
"AVAVA//VAVAV::AVAV..AVAVA::VAV\AVAVA",
"AVAVAV\AVAVA::VAV..VAVA::VAVAV//AVAV",
"VAVAV//AVAVA::VAVAV..VAVA::VAV\AVAVA",
"VAVAVA\VAVAV::AVAV..AVA::VAVAV//AVAV",
"AVAVA//VAVAV::AVAV..AVAVA::VAV\AVAVA"};