<?xml version="1.0" encoding="UTF-8" standalone="no"?>
<!-- Created with Inkscape (http://www.inkscape.org/) -->

<svg
   xmlns:dc="http://purl.org/dc/elements/1.1/"
   xmlns:cc="http://creativecommons.org/ns#"
   xmlns:rdf="http://www.w3.org/1999/02/22-rdf-syntax-ns#"
   xmlns:svg="http://www.w3.org/2000/svg"
   xmlns="http://www.w3.org/2000/svg"
   xmlns:sodipodi="http://sodipodi.sourceforge.net/DTD/sodipodi-0.dtd"
   xmlns:inkscape="http://www.inkscape.org/namespaces/inkscape"
   width="744.09448"
   height="1052.3622"
   id="svg2"
   version="1.1"
   inkscape:version="0.48.3.1 r9886"
   sodipodi:docname="LayersRecR.svg"
   style="display:inline">
  <sodipodi:namedview
     id="base"
     pagecolor="#ffffff"
     bordercolor="#666666"
     borderopacity="1.0"
     inkscape:pageopacity="0.0"
     inkscape:pageshadow="2"
     inkscape:zoom="0.35000001"
     inkscape:cx="-131.75568"
     inkscape:cy="600.86877"
     inkscape:document-units="mm"
     inkscape:current-layer="layer2"
     showgrid="false"
     units="mm"
     showguides="false"
     inkscape:window-width="1366"
     inkscape:window-height="744"
     inkscape:window-x="0"
     inkscape:window-y="24"
     inkscape:window-maximized="1"
     fit-margin-top="0"
     fit-margin-left="0"
     fit-margin-right="0"
     fit-margin-bottom="0">
    <inkscape:grid
       spacingy="1mm"
       spacingx="1mm"
       units="mm"
       snapvisiblegridlinesonly="true"
       enabled="true"
       visible="true"
       empspacing="5"
       id="grid3001"
       type="xygrid" />
  </sodipodi:namedview>
  <defs
     id="defs4">
    <marker
       inkscape:stockid="Arrow1Lstart"
       style="overflow:visible"
       refY="0"
       refX="0"
       orient="auto"
       id="Arrow1Lstart">
      <path
         inkscape:connector-curvature="0"
         id="path3969"
         style="fill-rule:evenodd;stroke:#000000;stroke-width:1pt;marker-start:none"
         transform="matrix(0.8,0,0,0.8,10,0)"
         d="M 0,0 5,-5 -12.5,0 5,5 0,0 z" />
    </marker>
    <marker
       inkscape:stockid="Arrow1Lend"
       style="overflow:visible"
       refY="0"
       refX="0"
       orient="auto"
       id="Arrow1Lend">
      <path
         inkscape:connector-curvature="0"
         id="path3972"
         style="fill-rule:evenodd;stroke:#000000;stroke-width:1pt;marker-start:none"
         transform="matrix(-0.8,0,0,-0.8,-10,0)"
         d="M 0,0 5,-5 -12.5,0 5,5 0,0 z" />
    </marker>
    <marker
       id="marker4651"
       orient="auto"
       refX="0"
       refY="0"
       style="overflow:visible"
       inkscape:stockid="Arrow1Lstart">
      <path
         inkscape:connector-curvature="0"
         d="M 0,0 5,-5 -12.5,0 5,5 0,0 z"
         transform="matrix(0.8,0,0,0.8,10,0)"
         style="fill-rule:evenodd;stroke:#000000;stroke-width:1pt;marker-start:none"
         id="path4653" />
    </marker>
    <marker
       id="marker4655"
       orient="auto"
       refX="0"
       refY="0"
       style="overflow:visible"
       inkscape:stockid="Arrow1Lend">
      <path
         inkscape:connector-curvature="0"
         d="M 0,0 5,-5 -12.5,0 5,5 0,0 z"
         transform="matrix(-0.8,0,0,-0.8,-10,0)"
         style="fill-rule:evenodd;stroke:#000000;stroke-width:1pt;marker-start:none"
         id="path4657" />
    </marker>
  </defs>
  <metadata
     id="metadata7">
    <rdf:RDF>
      <cc:Work
         rdf:about="">
        <dc:format>image/svg+xml</dc:format>
        <dc:type
           rdf:resource="http://purl.org/dc/dcmitype/StillImage" />
        <dc:title></dc:title>
        <cc:license
           rdf:resource="http://creativecommons.org/licenses/publicdomain/" />
        <dc:creator>
          <cc:Agent>
            <dc:title>Markus Schulz</dc:title>
          </cc:Agent>
        </dc:creator>
      </cc:Work>
      <cc:License
         rdf:about="http://creativecommons.org/licenses/publicdomain/">
        <cc:permits
           rdf:resource="http://creativecommons.org/ns#Reproduction" />
        <cc:permits
           rdf:resource="http://creativecommons.org/ns#Distribution" />
        <cc:permits
           rdf:resource="http://creativecommons.org/ns#DerivativeWorks" />
      </cc:License>
    </rdf:RDF>
  </metadata>
  <g
     sodipodi:insensitive="true"
     style="display:inline"
     transform="translate(0.34375,-0.35648928)"
     id="layer1"
     inkscape:groupmode="layer"
     inkscape:label="RegMarks">
    <path
       sodipodi:nodetypes="cc"
       inkscape:connector-curvature="0"
       id="path3005"
       d="m 52.805856,1017.3959 70.866144,0"
       style="fill:none;stroke:#000000;stroke-width:1.77165353;stroke-linecap:butt;stroke-linejoin:miter;stroke-miterlimit:4;stroke-opacity:1;stroke-dasharray:none" />
    <path
       sodipodi:nodetypes="cc"
       inkscape:connector-curvature="0"
       id="path3005-3"
       d="m 52.805856,946.52976 0,70.86614"
       style="fill:none;stroke:#000000;stroke-width:1.77165353;stroke-linecap:butt;stroke-linejoin:miter;stroke-miterlimit:4;stroke-opacity:1;stroke-dasharray:none" />
    <path
       inkscape:connector-curvature="0"
       id="path3005-2"
       d="m 690.08145,1017.3959 -70.62992,0"
       style="fill:none;stroke:#000000;stroke-width:1.77165353;stroke-linecap:butt;stroke-linejoin:miter;stroke-miterlimit:4;stroke-opacity:1;stroke-dasharray:none" />
    <path
       inkscape:connector-curvature="0"
       id="path3005-3-3"
       d="m 690.31767,946.52976 0,70.86614"
       style="fill:none;stroke:#000000;stroke-width:1.77165353;stroke-linecap:butt;stroke-linejoin:miter;stroke-miterlimit:4;stroke-opacity:1;stroke-dasharray:none" />
    <path
       inkscape:connector-curvature="0"
       id="path3867"
       d="m 52.805856,166.8919 0,-70.866141 70.866144,0"
       style="fill:none;stroke:#000000;stroke-width:1.77165353;stroke-linecap:butt;stroke-linejoin:miter;stroke-miterlimit:4;stroke-opacity:1;stroke-dasharray:none" />
    <path
       transform="translate(-0.34375,62.718738)"
       inkscape:connector-curvature="0"
       id="path4780"
       d="m 566.92913,936.85039 0,35.43307"
       style="fill:none;stroke:#000000;stroke-width:1px;stroke-linecap:butt;stroke-linejoin:miter;stroke-opacity:1" />
    <path
       transform="translate(-0.34375,62.718738)"
       inkscape:connector-curvature="0"
       id="path4782"
       d="M 584.64567,954.56693 566.92913,972.28346 549.2126,954.56693"
       style="fill:none;stroke:#000000;stroke-width:1px;stroke-linecap:butt;stroke-linejoin:miter;stroke-opacity:1" />
    <path
       transform="translate(-0.34375,62.718738)"
       inkscape:connector-curvature="0"
       id="path4784"
       d="m 177.16535,936.85039 0,35.43307 17.71654,-17.71653"
       style="fill:none;stroke:#000000;stroke-width:1px;stroke-linecap:butt;stroke-linejoin:miter;stroke-opacity:1" />
    <path
       transform="translate(-0.34375,62.718738)"
       inkscape:connector-curvature="0"
       id="path4786"
       d="M 177.16535,972.28346 159.44882,954.56693"
       style="fill:none;stroke:#000000;stroke-width:1px;stroke-linecap:butt;stroke-linejoin:miter;stroke-opacity:1" />
    <path
       transform="matrix(0.7570818,0,0,0.75708471,43.235358,291.4589)"
       sodipodi:open="true"
       sodipodi:end="8.2662751"
       sodipodi:start="1.9979057"
       d="m 93.771486,882.90503 a 8.8582678,8.8582678 0 1 1 0.119851,0.0535"
       sodipodi:ry="8.8582678"
       sodipodi:rx="8.8582678"
       sodipodi:cy="874.84253"
       sodipodi:cx="97.440948"
       id="path3222"
       style="fill:#000000;fill-opacity:1;stroke:#000000;stroke-width:1;stroke-linecap:butt;stroke-linejoin:miter;stroke-miterlimit:4;stroke-opacity:1;stroke-dasharray:none;stroke-dashoffset:0;display:inline"
       sodipodi:type="arc" />
  </g>
  <g
     transform="translate(0,62.362249)"
     style="display:inline"
     inkscape:label="Print"
     id="layer4"
     inkscape:groupmode="layer"
     sodipodi:insensitive="true" />
  <g
     transform="translate(0,62.362249)"
     style="display:inline"
     inkscape:label="Cut"
     id="layer5"
     inkscape:groupmode="layer"
     sodipodi:insensitive="true" />
  <g
     inkscape:groupmode="layer"
     id="layer2"
     inkscape:label="triangle"
     style="display:none"
     sodipodi:insensitive="true">
    <path
       inkscape:connector-curvature="0"
       id="path3818"
       d="m 97.471247,878.80278 c -0.72981,0 -7.014527,-6.28472 -13.966028,-13.96602 l -12.639077,-13.96603 26.605105,0 26.605123,0 -12.63909,13.96603 c -6.95149,7.6813 -13.236203,13.96602 -13.966033,13.96602 z m 90.779193,0 c -0.72983,0 -7.01454,-6.28472 -13.96603,-13.96602 l -12.63909,-13.96603 26.60512,0 26.60509,0 -12.63908,13.96603 c -6.95149,7.6813 -13.2362,13.96602 -13.96601,13.96602 z m 90.77917,0 c -0.72983,0 -7.01454,-6.28472 -13.96603,-13.96602 l -12.63908,-13.96603 26.60511,0 26.6051,0 -12.63907,13.96603 c -6.95149,7.6813 -13.2362,13.96602 -13.96603,13.96602 z m 90.77917,0 c -0.72982,0 -7.01454,-6.28472 -13.96603,-13.96602 l -12.63908,-13.96603 26.60511,0 26.60512,0 -12.63909,13.96603 c -6.95149,7.6813 -13.2362,13.96602 -13.96603,13.96602 z m 90.77917,0 c -0.72982,0 -7.01453,-6.28472 -13.96602,-13.96602 l -12.63907,-13.96603 26.60509,0 26.60512,0 -12.63908,13.96603 c -6.9515,7.6813 -13.23621,13.96602 -13.96604,13.96602 z m 90.77918,0 c -0.72981,0 -7.01452,-6.28472 -13.96601,-13.96602 l -12.63909,-13.96603 26.6051,0 26.60511,0 -12.63908,13.96603 c -6.95149,7.6813 -13.2362,13.96602 -13.96603,13.96602 z m 90.77919,0 c -0.72983,0 -7.01454,-6.28472 -13.96603,-13.96602 l -12.63909,-13.96603 26.60512,0 26.6051,0 -12.63909,13.96603 c -6.95149,7.6813 -13.23619,13.96602 -13.96601,13.96602 z M 97.471247,829.92168 c -0.72981,0 -7.014527,-6.2847 -13.966028,-13.96602 l -12.639077,-13.96603 26.605105,0 26.605123,0 -12.63909,13.96603 c -6.95149,7.68132 -13.236203,13.96602 -13.966033,13.96602 z m 90.779193,0 c -0.72983,0 -7.01454,-6.2847 -13.96603,-13.96602 l -12.63909,-13.96603 26.60512,0 26.60509,0 -12.63908,13.96603 c -6.95149,7.68132 -13.2362,13.96602 -13.96601,13.96602 z m 90.77917,0 c -0.72983,0 -7.01454,-6.2847 -13.96603,-13.96602 l -12.63908,-13.96603 26.60511,0 26.6051,0 -12.63907,13.96603 c -6.95149,7.68132 -13.2362,13.96602 -13.96603,13.96602 z m 90.77917,0 c -0.72982,0 -7.01454,-6.2847 -13.96603,-13.96602 l -12.63908,-13.96603 26.60511,0 26.60512,0 -12.63909,13.96603 c -6.95149,7.68132 -13.2362,13.96602 -13.96603,13.96602 z m 90.77917,0 c -0.72982,0 -7.01453,-6.2847 -13.96602,-13.96602 l -12.63907,-13.96603 26.60509,0 26.60512,0 -12.63908,13.96603 c -6.9515,7.68132 -13.23621,13.96602 -13.96604,13.96602 z m 90.77918,0 c -0.72981,0 -7.01452,-6.2847 -13.96601,-13.96602 l -12.63909,-13.96603 26.6051,0 26.60511,0 -12.63908,13.96603 c -6.95149,7.68132 -13.2362,13.96602 -13.96603,13.96602 z m 90.77919,0 c -0.72983,0 -7.01454,-6.2847 -13.96603,-13.96602 l -12.63909,-13.96603 26.60512,0 26.6051,0 -12.63909,13.96603 c -6.95149,7.68132 -13.23619,13.96602 -13.96601,13.96602 z M 97.471247,781.04059 c -0.72981,0 -7.014527,-6.28471 -13.966028,-13.96603 l -12.639077,-13.96601 26.605105,0 26.605123,0 -12.63909,13.96601 c -6.95149,7.68132 -13.236203,13.96603 -13.966033,13.96603 z m 90.779193,0 c -0.72983,0 -7.01454,-6.28471 -13.96603,-13.96603 l -12.63909,-13.96601 26.60512,0 26.60509,0 -12.63908,13.96601 c -6.95149,7.68132 -13.2362,13.96603 -13.96601,13.96603 z m 90.77917,0 c -0.72983,0 -7.01454,-6.28471 -13.96603,-13.96603 l -12.63908,-13.96601 26.60511,0 26.6051,0 -12.63907,13.96601 c -6.95149,7.68132 -13.2362,13.96603 -13.96603,13.96603 z m 90.77917,0 c -0.72982,0 -7.01454,-6.28471 -13.96603,-13.96603 l -12.63908,-13.96601 26.60511,0 26.60512,0 -12.63909,13.96601 c -6.95149,7.68132 -13.2362,13.96603 -13.96603,13.96603 z m 90.77917,0 c -0.72982,0 -7.01453,-6.28471 -13.96602,-13.96603 l -12.63907,-13.96601 26.60509,0 26.60512,0 -12.63908,13.96601 c -6.9515,7.68132 -13.23621,13.96603 -13.96604,13.96603 z m 90.77918,0 c -0.72981,0 -7.01452,-6.28471 -13.96601,-13.96603 l -12.63909,-13.96601 26.6051,0 26.60511,0 -12.63908,13.96601 c -6.95149,7.68132 -13.2362,13.96603 -13.96603,13.96603 z m 90.77919,0 c -0.72983,0 -7.01454,-6.28471 -13.96603,-13.96603 l -12.63909,-13.96601 26.60512,0 26.6051,0 -12.63909,13.96601 c -6.95149,7.68132 -13.23619,13.96603 -13.96601,13.96603 z M 97.471247,732.15949 c -0.72981,0 -7.014527,-6.28471 -13.966028,-13.96603 l -12.639077,-13.96601 26.605105,0 26.605123,0 -12.63909,13.96601 c -6.95149,7.68132 -13.236203,13.96603 -13.966033,13.96603 z m 90.779193,0 c -0.72983,0 -7.01454,-6.28471 -13.96603,-13.96603 l -12.63909,-13.96601 26.60512,0 26.60509,0 -12.63908,13.96601 c -6.95149,7.68132 -13.2362,13.96603 -13.96601,13.96603 z m 90.77917,0 c -0.72983,0 -7.01454,-6.28471 -13.96603,-13.96603 l -12.63908,-13.96601 26.60511,0 26.6051,0 -12.63907,13.96601 c -6.95149,7.68132 -13.2362,13.96603 -13.96603,13.96603 z m 90.77917,0 c -0.72982,0 -7.01454,-6.28471 -13.96603,-13.96603 l -12.63908,-13.96601 26.60511,0 26.60512,0 -12.63909,13.96601 c -6.95149,7.68132 -13.2362,13.96603 -13.96603,13.96603 z m 90.77917,0 c -0.72982,0 -7.01453,-6.28471 -13.96602,-13.96603 l -12.63907,-13.96601 26.60509,0 26.60512,0 -12.63908,13.96601 c -6.9515,7.68132 -13.23621,13.96603 -13.96604,13.96603 z m 90.77918,0 c -0.72981,0 -7.01452,-6.28471 -13.96601,-13.96603 l -12.63909,-13.96601 26.6051,0 26.60511,0 -12.63908,13.96601 c -6.95149,7.68132 -13.2362,13.96603 -13.96603,13.96603 z m 90.77919,0 c -0.72983,0 -7.01454,-6.28471 -13.96603,-13.96603 l -12.63909,-13.96601 26.60512,0 26.6051,0 -12.63909,13.96601 c -6.95149,7.68132 -13.23619,13.96603 -13.96601,13.96603 z M 97.471247,683.27841 c -0.72981,0 -7.014527,-6.28472 -13.966028,-13.96603 l -12.639077,-13.96603 26.605105,0 26.605123,0 -12.63909,13.96603 c -6.95149,7.68131 -13.236203,13.96603 -13.966033,13.96603 z m 90.779193,0 c -0.72983,0 -7.01454,-6.28472 -13.96603,-13.96603 l -12.63909,-13.96603 26.60512,0 26.60509,0 -12.63908,13.96603 c -6.95149,7.68131 -13.2362,13.96603 -13.96601,13.96603 z m 90.77917,0 c -0.72983,0 -7.01454,-6.28472 -13.96603,-13.96603 l -12.63908,-13.96603 26.60511,0 26.6051,0 -12.63907,13.96603 c -6.95149,7.68131 -13.2362,13.96603 -13.96603,13.96603 z m 90.77917,0 c -0.72982,0 -7.01454,-6.28472 -13.96603,-13.96603 l -12.63908,-13.96603 26.60511,0 26.60512,0 -12.63909,13.96603 c -6.95149,7.68131 -13.2362,13.96603 -13.96603,13.96603 z m 90.77917,0 c -0.72982,0 -7.01453,-6.28472 -13.96602,-13.96603 l -12.63907,-13.96603 26.60509,0 26.60512,0 -12.63908,13.96603 c -6.9515,7.68131 -13.23621,13.96603 -13.96604,13.96603 z m 90.77918,0 c -0.72981,0 -7.01452,-6.28472 -13.96601,-13.96603 l -12.63909,-13.96603 26.6051,0 26.60511,0 -12.63908,13.96603 c -6.95149,7.68131 -13.2362,13.96603 -13.96603,13.96603 z m 90.77919,0 c -0.72983,0 -7.01454,-6.28472 -13.96603,-13.96603 l -12.63909,-13.96603 26.60512,0 26.6051,0 -12.63909,13.96603 c -6.95149,7.68131 -13.23619,13.96603 -13.96601,13.96603 z M 97.471247,634.39731 c -0.72981,0 -7.014527,-6.28471 -13.966028,-13.96603 l -12.639077,-13.96602 26.605105,0 26.605123,0 -12.63909,13.96602 c -6.95149,7.68132 -13.236203,13.96603 -13.966033,13.96603 z m 90.779193,0 c -0.72983,0 -7.01454,-6.28471 -13.96603,-13.96603 l -12.63909,-13.96602 26.60512,0 26.60509,0 -12.63908,13.96602 c -6.95149,7.68132 -13.2362,13.96603 -13.96601,13.96603 z m 90.77917,0 c -0.72983,0 -7.01454,-6.28471 -13.96603,-13.96603 l -12.63908,-13.96602 26.60511,0 26.6051,0 -12.63907,13.96602 c -6.95149,7.68132 -13.2362,13.96603 -13.96603,13.96603 z m 90.77917,0 c -0.72982,0 -7.01454,-6.28471 -13.96603,-13.96603 l -12.63908,-13.96602 26.60511,0 26.60512,0 -12.63909,13.96602 c -6.95149,7.68132 -13.2362,13.96603 -13.96603,13.96603 z m 90.77917,0 c -0.72982,0 -7.01453,-6.28471 -13.96602,-13.96603 l -12.63907,-13.96602 26.60509,0 26.60512,0 -12.63908,13.96602 c -6.9515,7.68132 -13.23621,13.96603 -13.96604,13.96603 z m 90.77918,0 c -0.72981,0 -7.01452,-6.28471 -13.96601,-13.96603 l -12.63909,-13.96602 26.6051,0 26.60511,0 -12.63908,13.96602 c -6.95149,7.68132 -13.2362,13.96603 -13.96603,13.96603 z m 90.77919,0 c -0.72983,0 -7.01454,-6.28471 -13.96603,-13.96603 l -12.63909,-13.96602 26.60512,0 26.6051,0 -12.63909,13.96602 c -6.95149,7.68132 -13.23619,13.96603 -13.96601,13.96603 z M 97.471247,585.51622 c -0.72981,0 -7.014527,-6.28471 -13.966028,-13.96603 l -12.639077,-13.96603 26.605105,0 26.605123,0 -12.63909,13.96603 c -6.95149,7.68132 -13.236203,13.96603 -13.966033,13.96603 z m 90.779193,0 c -0.72983,0 -7.01454,-6.28471 -13.96603,-13.96603 l -12.63909,-13.96603 26.60512,0 26.60509,0 -12.63908,13.96603 c -6.95149,7.68132 -13.2362,13.96603 -13.96601,13.96603 z m 90.77917,0 c -0.72983,0 -7.01454,-6.28471 -13.96603,-13.96603 l -12.63908,-13.96603 26.60511,0 26.6051,0 -12.63907,13.96603 c -6.95149,7.68132 -13.2362,13.96603 -13.96603,13.96603 z m 90.77917,0 c -0.72982,0 -7.01454,-6.28471 -13.96603,-13.96603 l -12.63908,-13.96603 26.60511,0 26.60512,0 -12.63909,13.96603 c -6.95149,7.68132 -13.2362,13.96603 -13.96603,13.96603 z m 90.77917,0 c -0.72982,0 -7.01453,-6.28471 -13.96602,-13.96603 l -12.63907,-13.96603 26.60509,0 26.60512,0 -12.63908,13.96603 c -6.9515,7.68132 -13.23621,13.96603 -13.96604,13.96603 z m 90.77918,0 c -0.72981,0 -7.01452,-6.28471 -13.96601,-13.96603 l -12.63909,-13.96603 26.6051,0 26.60511,0 -12.63908,13.96603 c -6.95149,7.68132 -13.2362,13.96603 -13.96603,13.96603 z m 90.77919,0 c -0.72983,0 -7.01454,-6.28471 -13.96603,-13.96603 l -12.63909,-13.96603 26.60512,0 26.6051,0 -12.63909,13.96603 c -6.95149,7.68132 -13.23619,13.96603 -13.96601,13.96603 z M 97.471247,536.63512 c -0.72981,0 -7.014527,-6.28471 -13.966028,-13.96603 l -12.639077,-13.96602 26.605105,0 26.605123,0 -12.63909,13.96602 c -6.95149,7.68132 -13.236203,13.96603 -13.966033,13.96603 z m 90.779193,0 c -0.72983,0 -7.01454,-6.28471 -13.96603,-13.96603 l -12.63909,-13.96602 26.60512,0 26.60509,0 -12.63908,13.96602 c -6.95149,7.68132 -13.2362,13.96603 -13.96601,13.96603 z m 90.77917,0 c -0.72983,0 -7.01454,-6.28471 -13.96603,-13.96603 l -12.63908,-13.96602 26.60511,0 26.6051,0 -12.63907,13.96602 c -6.95149,7.68132 -13.2362,13.96603 -13.96603,13.96603 z m 90.77917,0 c -0.72982,0 -7.01454,-6.28471 -13.96603,-13.96603 l -12.63908,-13.96602 26.60511,0 26.60512,0 -12.63909,13.96602 c -6.95149,7.68132 -13.2362,13.96603 -13.96603,13.96603 z m 90.77917,0 c -0.72982,0 -7.01453,-6.28471 -13.96602,-13.96603 l -12.63907,-13.96602 26.60509,0 26.60512,0 -12.63908,13.96602 c -6.9515,7.68132 -13.23621,13.96603 -13.96604,13.96603 z m 90.77918,0 c -0.72981,0 -7.01452,-6.28471 -13.96601,-13.96603 l -12.63909,-13.96602 26.6051,0 26.60511,0 -12.63908,13.96602 c -6.95149,7.68132 -13.2362,13.96603 -13.96603,13.96603 z m 90.77919,0 c -0.72983,0 -7.01454,-6.28471 -13.96603,-13.96603 l -12.63909,-13.96602 26.60512,0 26.6051,0 -12.63909,13.96602 c -6.95149,7.68132 -13.23619,13.96603 -13.96601,13.96603 z M 97.471247,487.75404 c -0.72981,0 -7.014527,-6.28472 -13.966028,-13.96603 l -12.639077,-13.96604 26.605105,0 26.605123,0 -12.63909,13.96604 c -6.95149,7.68131 -13.236203,13.96603 -13.966033,13.96603 z m 90.779193,0 c -0.72983,0 -7.01454,-6.28472 -13.96603,-13.96603 l -12.63909,-13.96604 26.60512,0 26.60509,0 -12.63908,13.96604 c -6.95149,7.68131 -13.2362,13.96603 -13.96601,13.96603 z m 90.77917,0 c -0.72983,0 -7.01454,-6.28472 -13.96603,-13.96603 l -12.63908,-13.96604 26.60511,0 26.6051,0 -12.63907,13.96604 c -6.95149,7.68131 -13.2362,13.96603 -13.96603,13.96603 z m 90.77917,0 c -0.72982,0 -7.01454,-6.28472 -13.96603,-13.96603 l -12.63908,-13.96604 26.60511,0 26.60512,0 -12.63909,13.96604 c -6.95149,7.68131 -13.2362,13.96603 -13.96603,13.96603 z m 90.77917,0 c -0.72982,0 -7.01453,-6.28472 -13.96602,-13.96603 l -12.63907,-13.96604 26.60509,0 26.60512,0 -12.63908,13.96604 c -6.9515,7.68131 -13.23621,13.96603 -13.96604,13.96603 z m 90.77918,0 c -0.72981,0 -7.01452,-6.28472 -13.96601,-13.96603 l -12.63909,-13.96604 26.6051,0 26.60511,0 -12.63908,13.96604 c -6.95149,7.68131 -13.2362,13.96603 -13.96603,13.96603 z m 90.77919,0 c -0.72983,0 -7.01454,-6.28472 -13.96603,-13.96603 l -12.63909,-13.96604 26.60512,0 26.6051,0 -12.63909,13.96604 c -6.95149,7.68131 -13.23619,13.96603 -13.96601,13.96603 z M 97.471247,438.87294 c -0.72981,0 -7.014527,-6.28471 -13.966028,-13.96603 l -12.639077,-13.96603 26.605105,0 26.605123,0 -12.63909,13.96603 c -6.95149,7.68132 -13.236203,13.96603 -13.966033,13.96603 z m 90.779193,0 c -0.72983,0 -7.01454,-6.28471 -13.96603,-13.96603 l -12.63909,-13.96603 26.60512,0 26.60509,0 -12.63908,13.96603 c -6.95149,7.68132 -13.2362,13.96603 -13.96601,13.96603 z m 90.77917,0 c -0.72983,0 -7.01454,-6.28471 -13.96603,-13.96603 l -12.63908,-13.96603 26.60511,0 26.6051,0 -12.63907,13.96603 c -6.95149,7.68132 -13.2362,13.96603 -13.96603,13.96603 z m 90.77917,0 c -0.72982,0 -7.01454,-6.28471 -13.96603,-13.96603 l -12.63908,-13.96603 26.60511,0 26.60512,0 -12.63909,13.96603 c -6.95149,7.68132 -13.2362,13.96603 -13.96603,13.96603 z m 90.77917,0 c -0.72982,0 -7.01453,-6.28471 -13.96602,-13.96603 l -12.63907,-13.96603 26.60509,0 26.60512,0 -12.63908,13.96603 c -6.9515,7.68132 -13.23621,13.96603 -13.96604,13.96603 z m 90.77918,0 c -0.72981,0 -7.01452,-6.28471 -13.96601,-13.96603 l -12.63909,-13.96603 26.6051,0 26.60511,0 -12.63908,13.96603 c -6.95149,7.68132 -13.2362,13.96603 -13.96603,13.96603 z m 90.77919,0 c -0.72983,0 -7.01454,-6.28471 -13.96603,-13.96603 l -12.63909,-13.96603 26.60512,0 26.6051,0 -12.63909,13.96603 c -6.95149,7.68132 -13.23619,13.96603 -13.96601,13.96603 z M 97.471247,389.99185 c -0.72981,0 -7.014527,-6.28472 -13.966028,-13.96604 l -12.639077,-13.96603 26.605105,0 26.605123,0 -12.63909,13.96603 c -6.95149,7.68132 -13.236203,13.96604 -13.966033,13.96604 z m 90.779193,0 c -0.72983,0 -7.01454,-6.28472 -13.96603,-13.96604 l -12.63909,-13.96603 26.60512,0 26.60509,0 -12.63908,13.96603 c -6.95149,7.68132 -13.2362,13.96604 -13.96601,13.96604 z m 90.77917,0 c -0.72983,0 -7.01454,-6.28472 -13.96603,-13.96604 l -12.63908,-13.96603 26.60511,0 26.6051,0 -12.63907,13.96603 c -6.95149,7.68132 -13.2362,13.96604 -13.96603,13.96604 z m 90.77917,0 c -0.72982,0 -7.01454,-6.28472 -13.96603,-13.96604 l -12.63908,-13.96603 26.60511,0 26.60512,0 -12.63909,13.96603 c -6.95149,7.68132 -13.2362,13.96604 -13.96603,13.96604 z m 90.77917,0 c -0.72982,0 -7.01453,-6.28472 -13.96602,-13.96604 l -12.63907,-13.96603 26.60509,0 26.60512,0 -12.63908,13.96603 c -6.9515,7.68132 -13.23621,13.96604 -13.96604,13.96604 z m 90.77918,0 c -0.72981,0 -7.01452,-6.28472 -13.96601,-13.96604 l -12.63909,-13.96603 26.6051,0 26.60511,0 -12.63908,13.96603 c -6.95149,7.68132 -13.2362,13.96604 -13.96603,13.96604 z m 90.77919,0 c -0.72983,0 -7.01454,-6.28472 -13.96603,-13.96604 l -12.63909,-13.96603 26.60512,0 26.6051,0 -12.63909,13.96603 c -6.95149,7.68132 -13.23619,13.96604 -13.96601,13.96604 z M 97.471247,341.11075 c -0.72981,0 -7.014527,-6.28471 -13.966028,-13.96603 l -12.639077,-13.96602 26.605105,0 26.605123,0 -12.63909,13.96602 c -6.95149,7.68132 -13.236203,13.96603 -13.966033,13.96603 z m 90.779193,0 c -0.72983,0 -7.01454,-6.28471 -13.96603,-13.96603 l -12.63909,-13.96602 26.60512,0 26.60509,0 -12.63908,13.96602 c -6.95149,7.68132 -13.2362,13.96603 -13.96601,13.96603 z m 90.77917,0 c -0.72983,0 -7.01454,-6.28471 -13.96603,-13.96603 l -12.63908,-13.96602 26.60511,0 26.6051,0 -12.63907,13.96602 c -6.95149,7.68132 -13.2362,13.96603 -13.96603,13.96603 z m 90.77917,0 c -0.72982,0 -7.01454,-6.28471 -13.96603,-13.96603 l -12.63908,-13.96602 26.60511,0 26.60512,0 -12.63909,13.96602 c -6.95149,7.68132 -13.2362,13.96603 -13.96603,13.96603 z m 90.77917,0 c -0.72982,0 -7.01453,-6.28471 -13.96602,-13.96603 l -12.63907,-13.96602 26.60509,0 26.60512,0 -12.63908,13.96602 c -6.9515,7.68132 -13.23621,13.96603 -13.96604,13.96603 z m 90.77918,0 c -0.72981,0 -7.01452,-6.28471 -13.96601,-13.96603 l -12.63909,-13.96602 26.6051,0 26.60511,0 -12.63908,13.96602 c -6.95149,7.68132 -13.2362,13.96603 -13.96603,13.96603 z m 90.77919,0 c -0.72983,0 -7.01454,-6.28471 -13.96603,-13.96603 l -12.63909,-13.96602 26.60512,0 26.6051,0 -12.63909,13.96602 c -6.95149,7.68132 -13.23619,13.96603 -13.96601,13.96603 z M 97.471247,292.22965 c -0.72981,0 -7.014527,-6.28471 -13.966028,-13.96602 l -12.639077,-13.96603 26.605105,0 26.605123,0 -12.63909,13.96603 c -6.95149,7.68131 -13.236203,13.96602 -13.966033,13.96602 z m 90.779193,0 c -0.72983,0 -7.01454,-6.28471 -13.96603,-13.96602 l -12.63909,-13.96603 26.60512,0 26.60509,0 -12.63908,13.96603 c -6.95149,7.68131 -13.2362,13.96602 -13.96601,13.96602 z m 90.77917,0 c -0.72983,0 -7.01454,-6.28471 -13.96603,-13.96602 l -12.63908,-13.96603 26.60511,0 26.6051,0 -12.63907,13.96603 c -6.95149,7.68131 -13.2362,13.96602 -13.96603,13.96602 z m 90.77917,0 c -0.72982,0 -7.01454,-6.28471 -13.96603,-13.96602 l -12.63908,-13.96603 26.60511,0 26.60512,0 -12.63909,13.96603 c -6.95149,7.68131 -13.2362,13.96602 -13.96603,13.96602 z m 90.77917,0 c -0.72982,0 -7.01453,-6.28471 -13.96602,-13.96602 l -12.63907,-13.96603 26.60509,0 26.60512,0 -12.63908,13.96603 c -6.9515,7.68131 -13.23621,13.96602 -13.96604,13.96602 z m 90.77918,0 c -0.72981,0 -7.01452,-6.28471 -13.96601,-13.96602 l -12.63909,-13.96603 26.6051,0 26.60511,0 -12.63908,13.96603 c -6.95149,7.68131 -13.2362,13.96602 -13.96603,13.96602 z m 90.77919,0 c -0.72983,0 -7.01454,-6.28471 -13.96603,-13.96602 l -12.63909,-13.96603 26.60512,0 26.6051,0 -12.63909,13.96603 c -6.95149,7.68131 -13.23619,13.96602 -13.96601,13.96602 z M 97.471247,243.34855 c -0.72981,0 -7.014527,-6.28471 -13.966028,-13.96601 l -12.639077,-13.96603 26.605105,0 26.605123,0 -12.63909,13.96603 c -6.95149,7.6813 -13.236203,13.96601 -13.966033,13.96601 z m 90.779193,0 c -0.72983,0 -7.01454,-6.28471 -13.96603,-13.96601 l -12.63909,-13.96603 26.60512,0 26.60509,0 -12.63908,13.96603 c -6.95149,7.6813 -13.2362,13.96601 -13.96601,13.96601 z m 90.77917,0 c -0.72983,0 -7.01454,-6.28471 -13.96603,-13.96601 l -12.63908,-13.96603 26.60511,0 26.6051,0 -12.63907,13.96603 c -6.95149,7.6813 -13.2362,13.96601 -13.96603,13.96601 z m 90.77917,0 c -0.72982,0 -7.01454,-6.28471 -13.96603,-13.96601 l -12.63908,-13.96603 26.60511,0 26.60512,0 -12.63909,13.96603 c -6.95149,7.6813 -13.2362,13.96601 -13.96603,13.96601 z m 90.77917,0 c -0.72982,0 -7.01453,-6.28471 -13.96602,-13.96601 l -12.63907,-13.96603 26.60509,0 26.60512,0 -12.63908,13.96603 c -6.9515,7.6813 -13.23621,13.96601 -13.96604,13.96601 z m 90.77918,0 c -0.72981,0 -7.01452,-6.28471 -13.96601,-13.96601 l -12.63909,-13.96603 26.6051,0 26.60511,0 -12.63908,13.96603 c -6.95149,7.6813 -13.2362,13.96601 -13.96603,13.96601 z m 90.77919,0 c -0.72983,0 -7.01454,-6.28471 -13.96603,-13.96601 l -12.63909,-13.96603 26.60512,0 26.6051,0 -12.63909,13.96603 c -6.95149,7.6813 -13.23619,13.96601 -13.96601,13.96601 z M 97.471247,194.46747 c -0.72981,0 -7.014527,-6.28473 -13.966028,-13.96603 l -12.639077,-13.96603 26.605105,0 26.605123,0 -12.63909,13.96603 c -6.95149,7.6813 -13.236203,13.96603 -13.966033,13.96603 z m 90.779193,0 c -0.72983,0 -7.01454,-6.28473 -13.96603,-13.96603 l -12.63909,-13.96603 26.60512,0 26.60509,0 -12.63908,13.96603 c -6.95149,7.6813 -13.2362,13.96603 -13.96601,13.96603 z m 90.77917,0 c -0.72983,0 -7.01454,-6.28473 -13.96603,-13.96603 l -12.63908,-13.96603 26.60511,0 26.6051,0 -12.63907,13.96603 c -6.95149,7.6813 -13.2362,13.96603 -13.96603,13.96603 z m 90.77917,0 c -0.72982,0 -7.01454,-6.28473 -13.96603,-13.96603 l -12.63908,-13.96603 26.60511,0 26.60512,0 -12.63909,13.96603 c -6.95149,7.6813 -13.2362,13.96603 -13.96603,13.96603 z m 90.77917,0 c -0.72982,0 -7.01453,-6.28473 -13.96602,-13.96603 l -12.63907,-13.96603 26.60509,0 26.60512,0 -12.63908,13.96603 c -6.9515,7.6813 -13.23621,13.96603 -13.96604,13.96603 z m 90.77918,0 c -0.72981,0 -7.01452,-6.28473 -13.96601,-13.96603 l -12.63909,-13.96603 26.6051,0 26.60511,0 -12.63908,13.96603 c -6.95149,7.6813 -13.2362,13.96603 -13.96603,13.96603 z m 90.77919,0 c -0.72983,0 -7.01454,-6.28473 -13.96603,-13.96603 l -12.63909,-13.96603 26.60512,0 26.6051,0 -12.63909,13.96603 c -6.95149,7.6813 -13.23619,13.96603 -13.96601,13.96603 z"
       style="fill:none;stroke:#330000;stroke-width:0.80008024;stroke-opacity:1;display:inline" />
  </g>
  <g
     inkscape:groupmode="layer"
     id="layer3"
     inkscape:label="recR"
     style="display:none"
     sodipodi:insensitive="true">
    <path
       style="fill:none;stroke:#ff0033;stroke-width:0.80008024;stroke-opacity:1;display:inline"
       d="m 121.91181,899.75182 -20.94905,0 0,-10.47452 0,-10.47452 20.94905,0 20.94904,0 0,10.47452 0,10.47452 -20.94904,0 z m 69.83013,0 -20.94904,0 0,-10.47452 0,-10.47452 20.94904,0 20.94904,0 0,10.47452 0,10.47452 -20.94904,0 z m 69.83013,0 -20.94903,0 0,-10.47452 0,-10.47452 20.94903,0 20.94905,0 0,10.47452 0,10.47452 -20.94905,0 z m 69.83014,0 -20.94904,0 0,-10.47452 0,-10.47452 20.94904,0 20.94904,0 0,10.47452 0,10.47452 -20.94904,0 z m 69.83014,0 -20.94904,0 0,-10.47452 0,-10.47452 20.94904,0 20.94903,0 0,10.47452 0,10.47452 -20.94903,0 z m 69.83013,0 -20.94905,0 0,-10.47452 0,-10.47452 20.94905,0 20.94904,0 0,10.47452 0,10.47452 -20.94904,0 z m 69.83014,0 -20.94904,0 0,-10.47452 0,-10.47452 20.94904,0 20.94903,0 0,10.47452 0,10.47452 -20.94903,0 z m 69.83013,0 -20.94903,0 0,-10.47452 0,-10.47452 20.94903,0 20.94904,0 0,10.47452 0,10.47452 -20.94904,0 z m -488.81094,-48.88109 -20.94905,0 0,-10.47453 0,-10.47452 20.94905,0 20.94904,0 0,10.47452 0,10.47453 -20.94904,0 z m 69.83013,0 -20.94904,0 0,-10.47453 0,-10.47452 20.94904,0 20.94904,0 0,10.47452 0,10.47453 -20.94904,0 z m 69.83013,0 -20.94903,0 0,-10.47453 0,-10.47452 20.94903,0 20.94905,0 0,10.47452 0,10.47453 -20.94905,0 z m 69.83014,0 -20.94904,0 0,-10.47453 0,-10.47452 20.94904,0 20.94904,0 0,10.47452 0,10.47453 -20.94904,0 z m 69.83014,0 -20.94904,0 0,-10.47453 0,-10.47452 20.94904,0 20.94903,0 0,10.47452 0,10.47453 -20.94903,0 z m 69.83013,0 -20.94905,0 0,-10.47453 0,-10.47452 20.94905,0 20.94904,0 0,10.47452 0,10.47453 -20.94904,0 z m 69.83014,0 -20.94904,0 0,-10.47453 0,-10.47452 20.94904,0 20.94903,0 0,10.47452 0,10.47453 -20.94903,0 z m 69.83013,0 -20.94903,0 0,-10.47453 0,-10.47452 20.94903,0 20.94904,0 0,10.47452 0,10.47453 -20.94904,0 z m -488.81094,-48.8811 -20.94905,0 0,-10.47451 0,-10.47453 20.94905,0 20.94904,0 0,10.47453 0,10.47451 -20.94904,0 z m 69.83013,0 -20.94904,0 0,-10.47451 0,-10.47453 20.94904,0 20.94904,0 0,10.47453 0,10.47451 -20.94904,0 z m 69.83013,0 -20.94903,0 0,-10.47451 0,-10.47453 20.94903,0 20.94905,0 0,10.47453 0,10.47451 -20.94905,0 z m 69.83014,0 -20.94904,0 0,-10.47451 0,-10.47453 20.94904,0 20.94904,0 0,10.47453 0,10.47451 -20.94904,0 z m 69.83014,0 -20.94904,0 0,-10.47451 0,-10.47453 20.94904,0 20.94903,0 0,10.47453 0,10.47451 -20.94903,0 z m 69.83013,0 -20.94905,0 0,-10.47451 0,-10.47453 20.94905,0 20.94904,0 0,10.47453 0,10.47451 -20.94904,0 z m 69.83014,0 -20.94904,0 0,-10.47451 0,-10.47453 20.94904,0 20.94903,0 0,10.47453 0,10.47451 -20.94903,0 z m 69.83013,0 -20.94903,0 0,-10.47451 0,-10.47453 20.94903,0 20.94904,0 0,10.47453 0,10.47451 -20.94904,0 z m -488.81094,-48.88108 -20.94905,0 0,-10.47453 0,-10.47453 20.94905,0 20.94904,0 0,10.47453 0,10.47453 -20.94904,0 z m 69.83013,0 -20.94904,0 0,-10.47453 0,-10.47453 20.94904,0 20.94904,0 0,10.47453 0,10.47453 -20.94904,0 z m 69.83013,0 -20.94903,0 0,-10.47453 0,-10.47453 20.94903,0 20.94905,0 0,10.47453 0,10.47453 -20.94905,0 z m 69.83014,0 -20.94904,0 0,-10.47453 0,-10.47453 20.94904,0 20.94904,0 0,10.47453 0,10.47453 -20.94904,0 z m 69.83014,0 -20.94904,0 0,-10.47453 0,-10.47453 20.94904,0 20.94903,0 0,10.47453 0,10.47453 -20.94903,0 z m 69.83013,0 -20.94905,0 0,-10.47453 0,-10.47453 20.94905,0 20.94904,0 0,10.47453 0,10.47453 -20.94904,0 z m 69.83014,0 -20.94904,0 0,-10.47453 0,-10.47453 20.94904,0 20.94903,0 0,10.47453 0,10.47453 -20.94903,0 z m 69.83013,0 -20.94903,0 0,-10.47453 0,-10.47453 20.94903,0 20.94904,0 0,10.47453 0,10.47453 -20.94904,0 z m -488.81094,-48.8811 -20.94905,0 0,-10.47453 0,-10.47451 20.94905,0 20.94904,0 0,10.47451 0,10.47453 -20.94904,0 z m 69.83013,0 -20.94904,0 0,-10.47453 0,-10.47451 20.94904,0 20.94904,0 0,10.47451 0,10.47453 -20.94904,0 z m 69.83013,0 -20.94903,0 0,-10.47453 0,-10.47451 20.94903,0 20.94905,0 0,10.47451 0,10.47453 -20.94905,0 z m 69.83014,0 -20.94904,0 0,-10.47453 0,-10.47451 20.94904,0 20.94904,0 0,10.47451 0,10.47453 -20.94904,0 z m 69.83014,0 -20.94904,0 0,-10.47453 0,-10.47451 20.94904,0 20.94903,0 0,10.47451 0,10.47453 -20.94903,0 z m 69.83013,0 -20.94905,0 0,-10.47453 0,-10.47451 20.94905,0 20.94904,0 0,10.47451 0,10.47453 -20.94904,0 z m 69.83014,0 -20.94904,0 0,-10.47453 0,-10.47451 20.94904,0 20.94903,0 0,10.47451 0,10.47453 -20.94903,0 z m 69.83013,0 -20.94903,0 0,-10.47453 0,-10.47451 20.94903,0 20.94904,0 0,10.47451 0,10.47453 -20.94904,0 z m -488.81094,-48.8811 -20.94905,0 0,-10.47452 0,-10.47452 20.94905,0 20.94904,0 0,10.47452 0,10.47452 -20.94904,0 z m 69.83013,0 -20.94904,0 0,-10.47452 0,-10.47452 20.94904,0 20.94904,0 0,10.47452 0,10.47452 -20.94904,0 z m 69.83013,0 -20.94903,0 0,-10.47452 0,-10.47452 20.94903,0 20.94905,0 0,10.47452 0,10.47452 -20.94905,0 z m 69.83014,0 -20.94904,0 0,-10.47452 0,-10.47452 20.94904,0 20.94904,0 0,10.47452 0,10.47452 -20.94904,0 z m 69.83014,0 -20.94904,0 0,-10.47452 0,-10.47452 20.94904,0 20.94903,0 0,10.47452 0,10.47452 -20.94903,0 z m 69.83013,0 -20.94905,0 0,-10.47452 0,-10.47452 20.94905,0 20.94904,0 0,10.47452 0,10.47452 -20.94904,0 z m 69.83014,0 -20.94904,0 0,-10.47452 0,-10.47452 20.94904,0 20.94903,0 0,10.47452 0,10.47452 -20.94903,0 z m 69.83013,0 -20.94903,0 0,-10.47452 0,-10.47452 20.94903,0 20.94904,0 0,10.47452 0,10.47452 -20.94904,0 z m -488.81094,-48.88109 -20.94905,0 0,-10.47452 0,-10.47452 20.94905,0 20.94904,0 0,10.47452 0,10.47452 -20.94904,0 z m 69.83013,0 -20.94904,0 0,-10.47452 0,-10.47452 20.94904,0 20.94904,0 0,10.47452 0,10.47452 -20.94904,0 z m 69.83013,0 -20.94903,0 0,-10.47452 0,-10.47452 20.94903,0 20.94905,0 0,10.47452 0,10.47452 -20.94905,0 z m 69.83014,0 -20.94904,0 0,-10.47452 0,-10.47452 20.94904,0 20.94904,0 0,10.47452 0,10.47452 -20.94904,0 z m 69.83014,0 -20.94904,0 0,-10.47452 0,-10.47452 20.94904,0 20.94903,0 0,10.47452 0,10.47452 -20.94903,0 z m 69.83013,0 -20.94905,0 0,-10.47452 0,-10.47452 20.94905,0 20.94904,0 0,10.47452 0,10.47452 -20.94904,0 z m 69.83014,0 -20.94904,0 0,-10.47452 0,-10.47452 20.94904,0 20.94903,0 0,10.47452 0,10.47452 -20.94903,0 z m 69.83013,0 -20.94903,0 0,-10.47452 0,-10.47452 20.94903,0 20.94904,0 0,10.47452 0,10.47452 -20.94904,0 z m -488.81094,-48.8811 -20.94905,0 0,-10.47451 0,-10.47453 20.94905,0 20.94904,0 0,10.47453 0,10.47451 -20.94904,0 z m 69.83013,0 -20.94904,0 0,-10.47451 0,-10.47453 20.94904,0 20.94904,0 0,10.47453 0,10.47451 -20.94904,0 z m 69.83013,0 -20.94903,0 0,-10.47451 0,-10.47453 20.94903,0 20.94905,0 0,10.47453 0,10.47451 -20.94905,0 z m 69.83014,0 -20.94904,0 0,-10.47451 0,-10.47453 20.94904,0 20.94904,0 0,10.47453 0,10.47451 -20.94904,0 z m 69.83014,0 -20.94904,0 0,-10.47451 0,-10.47453 20.94904,0 20.94903,0 0,10.47453 0,10.47451 -20.94903,0 z m 69.83013,0 -20.94905,0 0,-10.47451 0,-10.47453 20.94905,0 20.94904,0 0,10.47453 0,10.47451 -20.94904,0 z m 69.83014,0 -20.94904,0 0,-10.47451 0,-10.47453 20.94904,0 20.94903,0 0,10.47453 0,10.47451 -20.94903,0 z m 69.83013,0 -20.94903,0 0,-10.47451 0,-10.47453 20.94903,0 20.94904,0 0,10.47453 0,10.47451 -20.94904,0 z m -488.81094,-48.88109 -20.94905,0 0,-10.47452 0,-10.47451 20.94905,0 20.94904,0 0,10.47451 0,10.47452 -20.94904,0 z m 69.83013,0 -20.94904,0 0,-10.47452 0,-10.47451 20.94904,0 20.94904,0 0,10.47451 0,10.47452 -20.94904,0 z m 69.83013,0 -20.94903,0 0,-10.47452 0,-10.47451 20.94903,0 20.94905,0 0,10.47451 0,10.47452 -20.94905,0 z m 69.83014,0 -20.94904,0 0,-10.47452 0,-10.47451 20.94904,0 20.94904,0 0,10.47451 0,10.47452 -20.94904,0 z m 69.83014,0 -20.94904,0 0,-10.47452 0,-10.47451 20.94904,0 20.94903,0 0,10.47451 0,10.47452 -20.94903,0 z m 69.83013,0 -20.94905,0 0,-10.47452 0,-10.47451 20.94905,0 20.94904,0 0,10.47451 0,10.47452 -20.94904,0 z m 69.83014,0 -20.94904,0 0,-10.47452 0,-10.47451 20.94904,0 20.94903,0 0,10.47451 0,10.47452 -20.94903,0 z m 69.83013,0 -20.94903,0 0,-10.47452 0,-10.47451 20.94903,0 20.94904,0 0,10.47451 0,10.47452 -20.94904,0 z m -488.81094,-48.8811 -20.94905,0 0,-10.47452 0,-10.47451 20.94905,0 20.94904,0 0,10.47451 0,10.47452 -20.94904,0 z m 69.83013,0 -20.94904,0 0,-10.47452 0,-10.47451 20.94904,0 20.94904,0 0,10.47451 0,10.47452 -20.94904,0 z m 69.83013,0 -20.94903,0 0,-10.47452 0,-10.47451 20.94903,0 20.94905,0 0,10.47451 0,10.47452 -20.94905,0 z m 69.83014,0 -20.94904,0 0,-10.47452 0,-10.47451 20.94904,0 20.94904,0 0,10.47451 0,10.47452 -20.94904,0 z m 69.83014,0 -20.94904,0 0,-10.47452 0,-10.47451 20.94904,0 20.94903,0 0,10.47451 0,10.47452 -20.94903,0 z m 69.83013,0 -20.94905,0 0,-10.47452 0,-10.47451 20.94905,0 20.94904,0 0,10.47451 0,10.47452 -20.94904,0 z m 69.83014,0 -20.94904,0 0,-10.47452 0,-10.47451 20.94904,0 20.94903,0 0,10.47451 0,10.47452 -20.94903,0 z m 69.83013,0 -20.94903,0 0,-10.47452 0,-10.47451 20.94903,0 20.94904,0 0,10.47451 0,10.47452 -20.94904,0 z m -488.81094,-48.88109 -20.94905,0 0,-10.47451 0,-10.47452 20.94905,0 20.94904,0 0,10.47452 0,10.47451 -20.94904,0 z m 69.83013,0 -20.94904,0 0,-10.47451 0,-10.47452 20.94904,0 20.94904,0 0,10.47452 0,10.47451 -20.94904,0 z m 69.83013,0 -20.94903,0 0,-10.47451 0,-10.47452 20.94903,0 20.94905,0 0,10.47452 0,10.47451 -20.94905,0 z m 69.83014,0 -20.94904,0 0,-10.47451 0,-10.47452 20.94904,0 20.94904,0 0,10.47452 0,10.47451 -20.94904,0 z m 69.83014,0 -20.94904,0 0,-10.47451 0,-10.47452 20.94904,0 20.94903,0 0,10.47452 0,10.47451 -20.94903,0 z m 69.83013,0 -20.94905,0 0,-10.47451 0,-10.47452 20.94905,0 20.94904,0 0,10.47452 0,10.47451 -20.94904,0 z m 69.83014,0 -20.94904,0 0,-10.47451 0,-10.47452 20.94904,0 20.94903,0 0,10.47452 0,10.47451 -20.94903,0 z m 69.83013,0 -20.94903,0 0,-10.47451 0,-10.47452 20.94903,0 20.94904,0 0,10.47452 0,10.47451 -20.94904,0 z m -488.81094,-48.8811 -20.94905,0 0,-10.47451 0,-10.47452 20.94905,0 20.94904,0 0,10.47452 0,10.47451 -20.94904,0 z m 69.83013,0 -20.94904,0 0,-10.47451 0,-10.47452 20.94904,0 20.94904,0 0,10.47452 0,10.47451 -20.94904,0 z m 69.83013,0 -20.94903,0 0,-10.47451 0,-10.47452 20.94903,0 20.94905,0 0,10.47452 0,10.47451 -20.94905,0 z m 69.83014,0 -20.94904,0 0,-10.47451 0,-10.47452 20.94904,0 20.94904,0 0,10.47452 0,10.47451 -20.94904,0 z m 69.83014,0 -20.94904,0 0,-10.47451 0,-10.47452 20.94904,0 20.94903,0 0,10.47452 0,10.47451 -20.94903,0 z m 69.83013,0 -20.94905,0 0,-10.47451 0,-10.47452 20.94905,0 20.94904,0 0,10.47452 0,10.47451 -20.94904,0 z m 69.83014,0 -20.94904,0 0,-10.47451 0,-10.47452 20.94904,0 20.94903,0 0,10.47452 0,10.47451 -20.94903,0 z m 69.83013,0 -20.94903,0 0,-10.47451 0,-10.47452 20.94903,0 20.94904,0 0,10.47452 0,10.47451 -20.94904,0 z m -488.81094,-48.88108 -20.94905,0 0,-10.47453 0,-10.47452 20.94905,0 20.94904,0 0,10.47452 0,10.47453 -20.94904,0 z m 69.83013,0 -20.94904,0 0,-10.47453 0,-10.47452 20.94904,0 20.94904,0 0,10.47452 0,10.47453 -20.94904,0 z m 69.83013,0 -20.94903,0 0,-10.47453 0,-10.47452 20.94903,0 20.94905,0 0,10.47452 0,10.47453 -20.94905,0 z m 69.83014,0 -20.94904,0 0,-10.47453 0,-10.47452 20.94904,0 20.94904,0 0,10.47452 0,10.47453 -20.94904,0 z m 69.83014,0 -20.94904,0 0,-10.47453 0,-10.47452 20.94904,0 20.94903,0 0,10.47452 0,10.47453 -20.94903,0 z m 69.83013,0 -20.94905,0 0,-10.47453 0,-10.47452 20.94905,0 20.94904,0 0,10.47452 0,10.47453 -20.94904,0 z m 69.83014,0 -20.94904,0 0,-10.47453 0,-10.47452 20.94904,0 20.94903,0 0,10.47452 0,10.47453 -20.94903,0 z m 69.83013,0 -20.94903,0 0,-10.47453 0,-10.47452 20.94903,0 20.94904,0 0,10.47452 0,10.47453 -20.94904,0 z m -488.81094,-48.8811 -20.94905,0 0,-10.47452 0,-10.47453 20.94905,0 20.94904,0 0,10.47453 0,10.47452 -20.94904,0 z m 69.83013,0 -20.94904,0 0,-10.47452 0,-10.47453 20.94904,0 20.94904,0 0,10.47453 0,10.47452 -20.94904,0 z m 69.83013,0 -20.94903,0 0,-10.47452 0,-10.47453 20.94903,0 20.94905,0 0,10.47453 0,10.47452 -20.94905,0 z m 69.83014,0 -20.94904,0 0,-10.47452 0,-10.47453 20.94904,0 20.94904,0 0,10.47453 0,10.47452 -20.94904,0 z m 69.83014,0 -20.94904,0 0,-10.47452 0,-10.47453 20.94904,0 20.94903,0 0,10.47453 0,10.47452 -20.94903,0 z m 69.83013,0 -20.94905,0 0,-10.47452 0,-10.47453 20.94905,0 20.94904,0 0,10.47453 0,10.47452 -20.94904,0 z m 69.83014,0 -20.94904,0 0,-10.47452 0,-10.47453 20.94904,0 20.94903,0 0,10.47453 0,10.47452 -20.94903,0 z m 69.83013,0 -20.94903,0 0,-10.47452 0,-10.47453 20.94903,0 20.94904,0 0,10.47453 0,10.47452 -20.94904,0 z m -488.81094,-48.88109 -20.94905,0 0,-10.47453 0,-10.47451 20.94905,0 20.94904,0 0,10.47451 0,10.47453 -20.94904,0 z m 69.83013,0 -20.94904,0 0,-10.47453 0,-10.47451 20.94904,0 20.94904,0 0,10.47451 0,10.47453 -20.94904,0 z m 69.83013,0 -20.94903,0 0,-10.47453 0,-10.47451 20.94903,0 20.94905,0 0,10.47451 0,10.47453 -20.94905,0 z m 69.83014,0 -20.94904,0 0,-10.47453 0,-10.47451 20.94904,0 20.94904,0 0,10.47451 0,10.47453 -20.94904,0 z m 69.83014,0 -20.94904,0 0,-10.47453 0,-10.47451 20.94904,0 20.94903,0 0,10.47451 0,10.47453 -20.94903,0 z m 69.83013,0 -20.94905,0 0,-10.47453 0,-10.47451 20.94905,0 20.94904,0 0,10.47451 0,10.47453 -20.94904,0 z m 69.83014,0 -20.94904,0 0,-10.47453 0,-10.47451 20.94904,0 20.94903,0 0,10.47451 0,10.47453 -20.94903,0 z m 69.83013,0 -20.94903,0 0,-10.47453 0,-10.47451 20.94903,0 20.94904,0 0,10.47451 0,10.47453 -20.94904,0 z"
       id="path3073"
       inkscape:connector-curvature="0" />
  </g>
  <g
     inkscape:groupmode="layer"
     id="layer6"
     inkscape:label="recB"
     style="display:inline">
    <path
       style="fill:none;stroke:#33cccc;stroke-width:0.80008024;stroke-opacity:1;display:inline"
       d="m 156.82687,899.75182 -13.96602,0 0,-10.47452 0,-10.47452 13.96602,0 13.96603,0 0,10.47452 0,10.47452 -13.96603,0 z m 69.83014,0 -13.96603,0 0,-10.47452 0,-10.47452 13.96603,0 13.96603,0 0,10.47452 0,10.47452 -13.96603,0 z m 69.83013,0 -13.96602,0 0,-10.47452 0,-10.47452 13.96602,0 13.96603,0 0,10.47452 0,10.47452 -13.96603,0 z m 69.83014,0 -13.96603,0 0,-10.47452 0,-10.47452 13.96603,0 13.96603,0 0,10.47452 0,10.47452 -13.96603,0 z m 69.83014,0 -13.96604,0 0,-10.47452 0,-10.47452 13.96604,0 13.96601,0 0,10.47452 0,10.47452 -13.96601,0 z m 69.83013,0 -13.96603,0 0,-10.47452 0,-10.47452 13.96603,0 13.96603,0 0,10.47452 0,10.47452 -13.96603,0 z m 69.83014,0 -13.96604,0 0,-10.47452 0,-10.47452 13.96604,0 13.96603,0 0,10.47452 0,10.47452 -13.96603,0 z m -418.98082,-48.88109 -13.96602,0 0,-10.47453 0,-10.47452 13.96602,0 13.96603,0 0,10.47452 0,10.47453 -13.96603,0 z m 69.83014,0 -13.96603,0 0,-10.47453 0,-10.47452 13.96603,0 13.96603,0 0,10.47452 0,10.47453 -13.96603,0 z m 69.83013,0 -13.96602,0 0,-10.47453 0,-10.47452 13.96602,0 13.96603,0 0,10.47452 0,10.47453 -13.96603,0 z m 69.83014,0 -13.96603,0 0,-10.47453 0,-10.47452 13.96603,0 13.96603,0 0,10.47452 0,10.47453 -13.96603,0 z m 69.83014,0 -13.96604,0 0,-10.47453 0,-10.47452 13.96604,0 13.96601,0 0,10.47452 0,10.47453 -13.96601,0 z m 69.83013,0 -13.96603,0 0,-10.47453 0,-10.47452 13.96603,0 13.96603,0 0,10.47452 0,10.47453 -13.96603,0 z m 69.83014,0 -13.96604,0 0,-10.47453 0,-10.47452 13.96604,0 13.96603,0 0,10.47452 0,10.47453 -13.96603,0 z m -418.98082,-48.8811 -13.96602,0 0,-10.47451 0,-10.47453 13.96602,0 13.96603,0 0,10.47453 0,10.47451 -13.96603,0 z m 69.83014,0 -13.96603,0 0,-10.47451 0,-10.47453 13.96603,0 13.96603,0 0,10.47453 0,10.47451 -13.96603,0 z m 69.83013,0 -13.96602,0 0,-10.47451 0,-10.47453 13.96602,0 13.96603,0 0,10.47453 0,10.47451 -13.96603,0 z m 69.83014,0 -13.96603,0 0,-10.47451 0,-10.47453 13.96603,0 13.96603,0 0,10.47453 0,10.47451 -13.96603,0 z m 69.83014,0 -13.96604,0 0,-10.47451 0,-10.47453 13.96604,0 13.96601,0 0,10.47453 0,10.47451 -13.96601,0 z m 69.83013,0 -13.96603,0 0,-10.47451 0,-10.47453 13.96603,0 13.96603,0 0,10.47453 0,10.47451 -13.96603,0 z m 69.83014,0 -13.96604,0 0,-10.47451 0,-10.47453 13.96604,0 13.96603,0 0,10.47453 0,10.47451 -13.96603,0 z m -418.98082,-48.88108 -13.96602,0 0,-10.47453 0,-10.47453 13.96602,0 13.96603,0 0,10.47453 0,10.47453 -13.96603,0 z m 69.83014,0 -13.96603,0 0,-10.47453 0,-10.47453 13.96603,0 13.96603,0 0,10.47453 0,10.47453 -13.96603,0 z m 69.83013,0 -13.96602,0 0,-10.47453 0,-10.47453 13.96602,0 13.96603,0 0,10.47453 0,10.47453 -13.96603,0 z m 69.83014,0 -13.96603,0 0,-10.47453 0,-10.47453 13.96603,0 13.96603,0 0,10.47453 0,10.47453 -13.96603,0 z m 69.83014,0 -13.96604,0 0,-10.47453 0,-10.47453 13.96604,0 13.96601,0 0,10.47453 0,10.47453 -13.96601,0 z m 69.83013,0 -13.96603,0 0,-10.47453 0,-10.47453 13.96603,0 13.96603,0 0,10.47453 0,10.47453 -13.96603,0 z m 69.83014,0 -13.96604,0 0,-10.47453 0,-10.47453 13.96604,0 13.96603,0 0,10.47453 0,10.47453 -13.96603,0 z m -418.98082,-48.8811 -13.96602,0 0,-10.47453 0,-10.47451 13.96602,0 13.96603,0 0,10.47451 0,10.47453 -13.96603,0 z m 69.83014,0 -13.96603,0 0,-10.47453 0,-10.47451 13.96603,0 13.96603,0 0,10.47451 0,10.47453 -13.96603,0 z m 69.83013,0 -13.96602,0 0,-10.47453 0,-10.47451 13.96602,0 13.96603,0 0,10.47451 0,10.47453 -13.96603,0 z m 69.83014,0 -13.96603,0 0,-10.47453 0,-10.47451 13.96603,0 13.96603,0 0,10.47451 0,10.47453 -13.96603,0 z m 69.83014,0 -13.96604,0 0,-10.47453 0,-10.47451 13.96604,0 13.96601,0 0,10.47451 0,10.47453 -13.96601,0 z m 69.83013,0 -13.96603,0 0,-10.47453 0,-10.47451 13.96603,0 13.96603,0 0,10.47451 0,10.47453 -13.96603,0 z m 69.83014,0 -13.96604,0 0,-10.47453 0,-10.47451 13.96604,0 13.96603,0 0,10.47451 0,10.47453 -13.96603,0 z m -418.98082,-48.8811 -13.96602,0 0,-10.47452 0,-10.47452 13.96602,0 13.96603,0 0,10.47452 0,10.47452 -13.96603,0 z m 69.83014,0 -13.96603,0 0,-10.47452 0,-10.47452 13.96603,0 13.96603,0 0,10.47452 0,10.47452 -13.96603,0 z m 69.83013,0 -13.96602,0 0,-10.47452 0,-10.47452 13.96602,0 13.96603,0 0,10.47452 0,10.47452 -13.96603,0 z m 69.83014,0 -13.96603,0 0,-10.47452 0,-10.47452 13.96603,0 13.96603,0 0,10.47452 0,10.47452 -13.96603,0 z m 69.83014,0 -13.96604,0 0,-10.47452 0,-10.47452 13.96604,0 13.96601,0 0,10.47452 0,10.47452 -13.96601,0 z m 69.83013,0 -13.96603,0 0,-10.47452 0,-10.47452 13.96603,0 13.96603,0 0,10.47452 0,10.47452 -13.96603,0 z m 69.83014,0 -13.96604,0 0,-10.47452 0,-10.47452 13.96604,0 13.96603,0 0,10.47452 0,10.47452 -13.96603,0 z m -418.98082,-48.88109 -13.96602,0 0,-10.47452 0,-10.47452 13.96602,0 13.96603,0 0,10.47452 0,10.47452 -13.96603,0 z m 69.83014,0 -13.96603,0 0,-10.47452 0,-10.47452 13.96603,0 13.96603,0 0,10.47452 0,10.47452 -13.96603,0 z m 69.83013,0 -13.96602,0 0,-10.47452 0,-10.47452 13.96602,0 13.96603,0 0,10.47452 0,10.47452 -13.96603,0 z m 69.83014,0 -13.96603,0 0,-10.47452 0,-10.47452 13.96603,0 13.96603,0 0,10.47452 0,10.47452 -13.96603,0 z m 69.83014,0 -13.96604,0 0,-10.47452 0,-10.47452 13.96604,0 13.96601,0 0,10.47452 0,10.47452 -13.96601,0 z m 69.83013,0 -13.96603,0 0,-10.47452 0,-10.47452 13.96603,0 13.96603,0 0,10.47452 0,10.47452 -13.96603,0 z m 69.83014,0 -13.96604,0 0,-10.47452 0,-10.47452 13.96604,0 13.96603,0 0,10.47452 0,10.47452 -13.96603,0 z m -418.98082,-48.8811 -13.96602,0 0,-10.47451 0,-10.47453 13.96602,0 13.96603,0 0,10.47453 0,10.47451 -13.96603,0 z m 69.83014,0 -13.96603,0 0,-10.47451 0,-10.47453 13.96603,0 13.96603,0 0,10.47453 0,10.47451 -13.96603,0 z m 69.83013,0 -13.96602,0 0,-10.47451 0,-10.47453 13.96602,0 13.96603,0 0,10.47453 0,10.47451 -13.96603,0 z m 69.83014,0 -13.96603,0 0,-10.47451 0,-10.47453 13.96603,0 13.96603,0 0,10.47453 0,10.47451 -13.96603,0 z m 69.83014,0 -13.96604,0 0,-10.47451 0,-10.47453 13.96604,0 13.96601,0 0,10.47453 0,10.47451 -13.96601,0 z m 69.83013,0 -13.96603,0 0,-10.47451 0,-10.47453 13.96603,0 13.96603,0 0,10.47453 0,10.47451 -13.96603,0 z m 69.83014,0 -13.96604,0 0,-10.47451 0,-10.47453 13.96604,0 13.96603,0 0,10.47453 0,10.47451 -13.96603,0 z m -418.98082,-48.88109 -13.96602,0 0,-10.47452 0,-10.47451 13.96602,0 13.96603,0 0,10.47451 0,10.47452 -13.96603,0 z m 69.83014,0 -13.96603,0 0,-10.47452 0,-10.47451 13.96603,0 13.96603,0 0,10.47451 0,10.47452 -13.96603,0 z m 69.83013,0 -13.96602,0 0,-10.47452 0,-10.47451 13.96602,0 13.96603,0 0,10.47451 0,10.47452 -13.96603,0 z m 69.83014,0 -13.96603,0 0,-10.47452 0,-10.47451 13.96603,0 13.96603,0 0,10.47451 0,10.47452 -13.96603,0 z m 69.83014,0 -13.96604,0 0,-10.47452 0,-10.47451 13.96604,0 13.96601,0 0,10.47451 0,10.47452 -13.96601,0 z m 69.83013,0 -13.96603,0 0,-10.47452 0,-10.47451 13.96603,0 13.96603,0 0,10.47451 0,10.47452 -13.96603,0 z m 69.83014,0 -13.96604,0 0,-10.47452 0,-10.47451 13.96604,0 13.96603,0 0,10.47451 0,10.47452 -13.96603,0 z m -418.98082,-48.8811 -13.96602,0 0,-10.47452 0,-10.47451 13.96602,0 13.96603,0 0,10.47451 0,10.47452 -13.96603,0 z m 69.83014,0 -13.96603,0 0,-10.47452 0,-10.47451 13.96603,0 13.96603,0 0,10.47451 0,10.47452 -13.96603,0 z m 69.83013,0 -13.96602,0 0,-10.47452 0,-10.47451 13.96602,0 13.96603,0 0,10.47451 0,10.47452 -13.96603,0 z m 69.83014,0 -13.96603,0 0,-10.47452 0,-10.47451 13.96603,0 13.96603,0 0,10.47451 0,10.47452 -13.96603,0 z m 69.83014,0 -13.96604,0 0,-10.47452 0,-10.47451 13.96604,0 13.96601,0 0,10.47451 0,10.47452 -13.96601,0 z m 69.83013,0 -13.96603,0 0,-10.47452 0,-10.47451 13.96603,0 13.96603,0 0,10.47451 0,10.47452 -13.96603,0 z m 69.83014,0 -13.96604,0 0,-10.47452 0,-10.47451 13.96604,0 13.96603,0 0,10.47451 0,10.47452 -13.96603,0 z m -418.98082,-48.88109 -13.96602,0 0,-10.47451 0,-10.47452 13.96602,0 13.96603,0 0,10.47452 0,10.47451 -13.96603,0 z m 69.83014,0 -13.96603,0 0,-10.47451 0,-10.47452 13.96603,0 13.96603,0 0,10.47452 0,10.47451 -13.96603,0 z m 69.83013,0 -13.96602,0 0,-10.47451 0,-10.47452 13.96602,0 13.96603,0 0,10.47452 0,10.47451 -13.96603,0 z m 69.83014,0 -13.96603,0 0,-10.47451 0,-10.47452 13.96603,0 13.96603,0 0,10.47452 0,10.47451 -13.96603,0 z m 69.83014,0 -13.96604,0 0,-10.47451 0,-10.47452 13.96604,0 13.96601,0 0,10.47452 0,10.47451 -13.96601,0 z m 69.83013,0 -13.96603,0 0,-10.47451 0,-10.47452 13.96603,0 13.96603,0 0,10.47452 0,10.47451 -13.96603,0 z m 69.83014,0 -13.96604,0 0,-10.47451 0,-10.47452 13.96604,0 13.96603,0 0,10.47452 0,10.47451 -13.96603,0 z m -418.98082,-48.8811 -13.96602,0 0,-10.47451 0,-10.47452 13.96602,0 13.96603,0 0,10.47452 0,10.47451 -13.96603,0 z m 69.83014,0 -13.96603,0 0,-10.47451 0,-10.47452 13.96603,0 13.96603,0 0,10.47452 0,10.47451 -13.96603,0 z m 69.83013,0 -13.96602,0 0,-10.47451 0,-10.47452 13.96602,0 13.96603,0 0,10.47452 0,10.47451 -13.96603,0 z m 69.83014,0 -13.96603,0 0,-10.47451 0,-10.47452 13.96603,0 13.96603,0 0,10.47452 0,10.47451 -13.96603,0 z m 69.83014,0 -13.96604,0 0,-10.47451 0,-10.47452 13.96604,0 13.96601,0 0,10.47452 0,10.47451 -13.96601,0 z m 69.83013,0 -13.96603,0 0,-10.47451 0,-10.47452 13.96603,0 13.96603,0 0,10.47452 0,10.47451 -13.96603,0 z m 69.83014,0 -13.96604,0 0,-10.47451 0,-10.47452 13.96604,0 13.96603,0 0,10.47452 0,10.47451 -13.96603,0 z m -418.98082,-48.88108 -13.96602,0 0,-10.47453 0,-10.47452 13.96602,0 13.96603,0 0,10.47452 0,10.47453 -13.96603,0 z m 69.83014,0 -13.96603,0 0,-10.47453 0,-10.47452 13.96603,0 13.96603,0 0,10.47452 0,10.47453 -13.96603,0 z m 69.83013,0 -13.96602,0 0,-10.47453 0,-10.47452 13.96602,0 13.96603,0 0,10.47452 0,10.47453 -13.96603,0 z m 69.83014,0 -13.96603,0 0,-10.47453 0,-10.47452 13.96603,0 13.96603,0 0,10.47452 0,10.47453 -13.96603,0 z m 69.83014,0 -13.96604,0 0,-10.47453 0,-10.47452 13.96604,0 13.96601,0 0,10.47452 0,10.47453 -13.96601,0 z m 69.83013,0 -13.96603,0 0,-10.47453 0,-10.47452 13.96603,0 13.96603,0 0,10.47452 0,10.47453 -13.96603,0 z m 69.83014,0 -13.96604,0 0,-10.47453 0,-10.47452 13.96604,0 13.96603,0 0,10.47452 0,10.47453 -13.96603,0 z m -418.98082,-48.8811 -13.96602,0 0,-10.47452 0,-10.47453 13.96602,0 13.96603,0 0,10.47453 0,10.47452 -13.96603,0 z m 69.83014,0 -13.96603,0 0,-10.47452 0,-10.47453 13.96603,0 13.96603,0 0,10.47453 0,10.47452 -13.96603,0 z m 69.83013,0 -13.96602,0 0,-10.47452 0,-10.47453 13.96602,0 13.96603,0 0,10.47453 0,10.47452 -13.96603,0 z m 69.83014,0 -13.96603,0 0,-10.47452 0,-10.47453 13.96603,0 13.96603,0 0,10.47453 0,10.47452 -13.96603,0 z m 69.83014,0 -13.96604,0 0,-10.47452 0,-10.47453 13.96604,0 13.96601,0 0,10.47453 0,10.47452 -13.96601,0 z m 69.83013,0 -13.96603,0 0,-10.47452 0,-10.47453 13.96603,0 13.96603,0 0,10.47453 0,10.47452 -13.96603,0 z m 69.83014,0 -13.96604,0 0,-10.47452 0,-10.47453 13.96604,0 13.96603,0 0,10.47453 0,10.47452 -13.96603,0 z m -418.98082,-48.88109 -13.96602,0 0,-10.47453 0,-10.47451 13.96602,0 13.96603,0 0,10.47451 0,10.47453 -13.96603,0 z m 69.83014,0 -13.96603,0 0,-10.47453 0,-10.47451 13.96603,0 13.96603,0 0,10.47451 0,10.47453 -13.96603,0 z m 69.83013,0 -13.96602,0 0,-10.47453 0,-10.47451 13.96602,0 13.96603,0 0,10.47451 0,10.47453 -13.96603,0 z m 69.83014,0 -13.96603,0 0,-10.47453 0,-10.47451 13.96603,0 13.96603,0 0,10.47451 0,10.47453 -13.96603,0 z m 69.83014,0 -13.96604,0 0,-10.47453 0,-10.47451 13.96604,0 13.96601,0 0,10.47451 0,10.47453 -13.96601,0 z m 69.83013,0 -13.96603,0 0,-10.47453 0,-10.47451 13.96603,0 13.96603,0 0,10.47451 0,10.47453 -13.96603,0 z m 69.83014,0 -13.96604,0 0,-10.47453 0,-10.47451 13.96604,0 13.96603,0 0,10.47451 0,10.47453 -13.96603,0 z"
       id="path3071-2"
       inkscape:connector-curvature="0" />
  </g>
  <g
     inkscape:groupmode="layer"
     id="layer7"
     inkscape:label="bords"
     style="display:none"
     sodipodi:insensitive="true">
    <path
       style="fill:none;stroke:#cc0034;stroke-width:0.80008024;stroke-opacity:1;display:inline"
       d="m 86.996732,899.75183 -13.96603,0 0,-22.0314 0,-22.0313 13.96603,12.6391 13.966028,12.6391 0,9.3923 0,9.3922 -13.966028,0 z m 562.132598,0 -17.45754,0 0.21941,-8.7288 0.2194,-8.7287 17.2381,-12.5463 17.23816,-12.5463 0,21.2751 0,21.275 -17.45753,0 z m -562.132598,-48.8811 -13.96603,0 0,-22.0313 0,-22.0313 13.96603,12.639 13.966028,12.6391 0,9.3923 0,9.3922 -13.966028,0 z m 562.132598,0 -17.45754,0 0.21941,-8.7288 0.2194,-8.7287 17.2381,-12.5463 17.23816,-12.5463 0,21.275 0,21.2751 -17.45753,0 z m -562.132598,-48.8811 -13.96603,0 0,-22.0313 0,-22.0313 13.96603,12.639 13.966028,12.6391 0,9.3923 0,9.3922 -13.966028,0 z m 562.132598,0 -17.45754,0 0.21941,-8.7288 0.2194,-8.7287 17.2381,-12.5463 17.23816,-12.5463 0,21.2751 0,21.275 -17.45753,0 z m -562.132598,-48.8811 -13.96603,0 0,-22.0313 0,-22.03133 13.96603,12.63903 13.966028,12.6391 0,9.3923 0,9.3922 -13.966028,0 z m 562.132598,0 -17.45754,0 0.21941,-8.7288 0.2194,-8.7287 17.2381,-12.5463 17.23816,-12.54627 0,21.27507 0,21.275 -17.45753,0 z m -562.132598,-48.88108 -13.96603,0 0,-22.03133 0,-22.03132 13.96603,12.63908 13.966028,12.63909 0,9.39223 0,9.39225 -13.966028,0 z m 562.132598,0 -17.45754,0 0.21941,-8.72877 0.2194,-8.72877 17.2381,-12.54628 17.23816,-12.54627 0,21.27505 0,21.27504 -17.45753,0 z m -562.132598,-48.8811 -13.96603,0 0,-22.03132 0,-22.03133 13.96603,12.63909 13.966028,12.63908 0,9.39225 0,9.39223 -13.966028,0 z m 562.132598,0 -17.45754,0 0.21941,-8.72877 0.2194,-8.72876 17.2381,-12.54628 17.23816,-12.54628 0,21.27505 0,21.27504 -17.45753,0 z m -562.132598,-48.88109 -13.96603,0 0,-22.03132 0,-22.03132 13.96603,12.63907 13.966028,12.63909 0,9.39224 0,9.39224 -13.966028,0 z m 562.132598,0 -17.45754,0 0.21941,-8.72876 0.2194,-8.72878 17.2381,-12.54628 17.23816,-12.54627 0,21.27505 0,21.27504 -17.45753,0 z m -562.132598,-48.8811 -13.96603,0 0,-22.03132 0,-22.03132 13.96603,12.63909 13.966028,12.63907 0,9.39225 0,9.39223 -13.966028,0 z m 562.132598,0 -17.45754,0 0.21941,-8.72876 0.2194,-8.72876 17.2381,-12.54628 17.23816,-12.54628 0,21.27504 0,21.27504 -17.45753,0 z m -562.132598,-48.88109 -13.96603,0 0,-22.03133 0,-22.03131 13.96603,12.63908 13.966028,12.63908 0,9.39224 0,9.39224 -13.966028,0 z m 562.132598,0 -17.45754,0 0.21941,-8.72877 0.2194,-8.72876 17.2381,-12.54628 17.23816,-12.54628 0,21.27506 0,21.27503 -17.45753,0 z m -562.132598,-48.8811 -13.96603,0 0,-22.03133 0,-22.03131 13.96603,12.63909 13.966028,12.63908 0,9.39225 0,9.39222 -13.966028,0 z m 562.132598,0 -17.45754,0 0.21941,-8.72876 0.2194,-8.72876 17.2381,-12.54628 17.23816,-12.54628 0,21.27505 0,21.27503 -17.45753,0 z m -562.132598,-48.88109 -13.96603,0 0,-22.03132 0,-22.03131 13.96603,12.63907 13.966028,12.63908 0,9.39225 0,9.39223 -13.966028,0 z m 562.132598,0 -17.45754,0 0.21941,-8.72876 0.2194,-8.72877 17.2381,-12.54628 17.23816,-12.54627 0,21.27504 0,21.27504 -17.45753,0 z m -562.132598,-48.8811 -13.96603,0 0,-22.03132 0,-22.03131 13.96603,12.63907 13.966028,12.63909 0,9.39225 0,9.39222 -13.966028,0 z m 562.132598,0 -17.45754,0 0.21941,-8.72876 0.2194,-8.72877 17.2381,-12.54626 17.23816,-12.54628 0,21.27504 0,21.27503 -17.45753,0 z M 86.996732,313.1787 l -13.96603,0 0,-22.03133 0,-22.03131 13.96603,12.63908 13.966028,12.63908 0,9.39224 0,9.39224 -13.966028,0 z m 562.132598,0 -17.45754,0 0.21941,-8.72878 0.2194,-8.72877 17.2381,-12.54626 17.23816,-12.54628 0,21.27504 0,21.27505 -17.45753,0 z m -562.132598,-48.8811 -13.96603,0 0,-22.03133 0,-22.03131 13.96603,12.63908 13.966028,12.63908 0,9.39224 0,9.39224 -13.966028,0 z m 562.132598,0 -17.45754,0 0.21944,-8.72877 0.21944,-8.72876 17.23809,-12.54628 17.2381,-12.54628 0,21.27504 0,21.27505 -17.45753,0 z m -562.132598,-48.88109 -13.96603,0 0,-22.03132 0,-22.03133 13.96603,12.63908 13.966028,12.63908 0,9.39224 0,9.39225 -13.966028,0 z m 562.132598,0 -17.45754,0 0.21944,-8.72878 0.21944,-8.72876 17.23809,-12.54628 17.2381,-12.54626 0,21.27503 0,21.27505 -17.45753,0 z"
       id="path3075-6"
       inkscape:connector-curvature="0" />
  </g>
  <g
     inkscape:groupmode="layer"
     id="layer8"
     inkscape:label="trapze"
     sodipodi:insensitive="true"
     style="display:none">
    <path
       style="fill:none;stroke:#00ffff;stroke-width:0.80008024;stroke-opacity:1;display:inline"
       d="m 142.86085,878.80275 -44.062648,0 12.639078,-13.96599 12.63909,-13.96603 18.78448,0 18.78447,0 12.63909,13.96603 12.63908,13.96599 -44.06264,0 z m 90.77917,0 -44.06264,0 12.63907,-13.96599 12.63908,-13.96603 18.78449,0 18.78448,0 12.63908,13.96603 12.63908,13.96599 -44.06264,0 z m 90.77917,0 -44.06263,0 12.63908,-13.96599 12.63907,-13.96603 18.78448,0 18.78448,0 12.63908,13.96603 12.63909,13.96599 -44.06265,0 z m 90.77917,0 -44.06263,0 12.63908,-13.96599 12.63909,-13.96603 18.78446,0 18.7845,0 12.63907,13.96603 12.63908,13.96599 -44.06265,0 z m 90.77919,0 -44.06265,0 12.63909,-13.96599 12.63908,-13.96603 18.78448,0 18.78448,0 12.63909,13.96603 12.63907,13.96599 -44.06264,0 z m 90.77918,0 -44.06265,0 12.63908,-13.96599 12.63908,-13.96603 18.78449,0 18.78447,0 12.63909,13.96603 12.63907,13.96599 -44.06263,0 z m -453.89588,-48.88107 -44.062648,0 12.639078,-13.96602 12.63909,-13.96603 18.78448,0 18.78447,0 12.63909,13.96603 12.63908,13.96602 -44.06264,0 z m 90.77917,0 -44.06264,0 12.63907,-13.96602 12.63908,-13.96603 18.78449,0 18.78448,0 12.63908,13.96603 12.63908,13.96602 -44.06264,0 z m 90.77917,0 -44.06263,0 12.63908,-13.96602 12.63907,-13.96603 18.78448,0 18.78448,0 12.63908,13.96603 12.63909,13.96602 -44.06265,0 z m 90.77917,0 -44.06263,0 12.63908,-13.96602 12.63909,-13.96603 18.78446,0 18.7845,0 12.63907,13.96603 12.63908,13.96602 -44.06265,0 z m 90.77919,0 -44.06265,0 12.63909,-13.96602 12.63908,-13.96603 18.78448,0 18.78448,0 12.63909,13.96603 12.63907,13.96602 -44.06264,0 z m 90.77918,0 -44.06265,0 12.63908,-13.96602 12.63908,-13.96603 18.78449,0 18.78447,0 12.63909,13.96603 12.63907,13.96602 -44.06263,0 z m -453.89588,-48.88109 -44.062648,0 12.639078,-13.96603 12.63909,-13.96601 18.78448,0 18.78447,0 12.63909,13.96601 12.63908,13.96603 -44.06264,0 z m 90.77917,0 -44.06264,0 12.63907,-13.96603 12.63908,-13.96601 18.78449,0 18.78448,0 12.63908,13.96601 12.63908,13.96603 -44.06264,0 z m 90.77917,0 -44.06263,0 12.63908,-13.96603 12.63907,-13.96601 18.78448,0 18.78448,0 12.63908,13.96601 12.63909,13.96603 -44.06265,0 z m 90.77917,0 -44.06263,0 12.63908,-13.96603 12.63909,-13.96601 18.78446,0 18.7845,0 12.63907,13.96601 12.63908,13.96603 -44.06265,0 z m 90.77919,0 -44.06265,0 12.63909,-13.96603 12.63908,-13.96601 18.78448,0 18.78448,0 12.63909,13.96601 12.63907,13.96603 -44.06264,0 z m 90.77918,0 -44.06265,0 12.63908,-13.96603 12.63908,-13.96601 18.78449,0 18.78447,0 12.63909,13.96601 12.63907,13.96603 -44.06263,0 z m -453.89588,-48.8811 -44.062648,0 12.639078,-13.96603 12.63909,-13.96601 18.78448,0 18.78447,0 12.63909,13.96601 12.63908,13.96603 -44.06264,0 z m 90.77917,0 -44.06264,0 12.63907,-13.96603 12.63908,-13.96601 18.78449,0 18.78448,0 12.63908,13.96601 12.63908,13.96603 -44.06264,0 z m 90.77917,0 -44.06263,0 12.63908,-13.96603 12.63907,-13.96601 18.78448,0 18.78448,0 12.63908,13.96601 12.63909,13.96603 -44.06265,0 z m 90.77917,0 -44.06263,0 12.63908,-13.96603 12.63909,-13.96601 18.78446,0 18.7845,0 12.63907,13.96601 12.63908,13.96603 -44.06265,0 z m 90.77919,0 -44.06265,0 12.63909,-13.96603 12.63908,-13.96601 18.78448,0 18.78448,0 12.63909,13.96601 12.63907,13.96603 -44.06264,0 z m 90.77918,0 -44.06265,0 12.63908,-13.96603 12.63908,-13.96601 18.78449,0 18.78447,0 12.63909,13.96601 12.63907,13.96603 -44.06263,0 z m -453.89588,-48.88108 -44.062648,0 12.639078,-13.96603 12.63909,-13.96603 18.78448,0 18.78447,0 12.63909,13.96603 12.63908,13.96603 -44.06264,0 z m 90.77917,0 -44.06264,0 12.63907,-13.96603 12.63908,-13.96603 18.78449,0 18.78448,0 12.63908,13.96603 12.63908,13.96603 -44.06264,0 z m 90.77917,0 -44.06263,0 12.63908,-13.96603 12.63907,-13.96603 18.78448,0 18.78448,0 12.63908,13.96603 12.63909,13.96603 -44.06265,0 z m 90.77917,0 -44.06263,0 12.63908,-13.96603 12.63909,-13.96603 18.78446,0 18.7845,0 12.63907,13.96603 12.63908,13.96603 -44.06265,0 z m 90.77919,0 -44.06265,0 12.63909,-13.96603 12.63908,-13.96603 18.78448,0 18.78448,0 12.63909,13.96603 12.63907,13.96603 -44.06264,0 z m 90.77918,0 -44.06265,0 12.63908,-13.96603 12.63908,-13.96603 18.78449,0 18.78447,0 12.63909,13.96603 12.63907,13.96603 -44.06263,0 z m -453.89588,-48.8811 -44.062648,0 12.639078,-13.96603 12.63909,-13.96602 18.78448,0 18.78447,0 12.63909,13.96602 12.63908,13.96603 -44.06264,0 z m 90.77917,0 -44.06264,0 12.63907,-13.96603 12.63908,-13.96602 18.78449,0 18.78448,0 12.63908,13.96602 12.63908,13.96603 -44.06264,0 z m 90.77917,0 -44.06263,0 12.63908,-13.96603 12.63907,-13.96602 18.78448,0 18.78448,0 12.63908,13.96602 12.63909,13.96603 -44.06265,0 z m 90.77917,0 -44.06263,0 12.63908,-13.96603 12.63909,-13.96602 18.78446,0 18.7845,0 12.63907,13.96602 12.63908,13.96603 -44.06265,0 z m 90.77919,0 -44.06265,0 12.63909,-13.96603 12.63908,-13.96602 18.78448,0 18.78448,0 12.63909,13.96602 12.63907,13.96603 -44.06264,0 z m 90.77918,0 -44.06265,0 12.63908,-13.96603 12.63908,-13.96602 18.78449,0 18.78447,0 12.63909,13.96602 12.63907,13.96603 -44.06263,0 z m -453.89588,-48.88109 -44.062648,0 12.639078,-13.96603 12.63909,-13.96603 18.78448,0 18.78447,0 12.63909,13.96603 12.63908,13.96603 -44.06264,0 z m 90.77917,0 -44.06264,0 12.63907,-13.96603 12.63908,-13.96603 18.78449,0 18.78448,0 12.63908,13.96603 12.63908,13.96603 -44.06264,0 z m 90.77917,0 -44.06263,0 12.63908,-13.96603 12.63907,-13.96603 18.78448,0 18.78448,0 12.63908,13.96603 12.63909,13.96603 -44.06265,0 z m 90.77917,0 -44.06263,0 12.63908,-13.96603 12.63909,-13.96603 18.78446,0 18.7845,0 12.63907,13.96603 12.63908,13.96603 -44.06265,0 z m 90.77919,0 -44.06265,0 12.63909,-13.96603 12.63908,-13.96603 18.78448,0 18.78448,0 12.63909,13.96603 12.63907,13.96603 -44.06264,0 z m 90.77918,0 -44.06265,0 12.63908,-13.96603 12.63908,-13.96603 18.78449,0 18.78447,0 12.63909,13.96603 12.63907,13.96603 -44.06263,0 z m -453.89588,-48.8811 -44.062648,0 12.639078,-13.96603 12.63909,-13.96602 18.78448,0 18.78447,0 12.63909,13.96602 12.63908,13.96603 -44.06264,0 z m 90.77917,0 -44.06264,0 12.63907,-13.96603 12.63908,-13.96602 18.78449,0 18.78448,0 12.63908,13.96602 12.63908,13.96603 -44.06264,0 z m 90.77917,0 -44.06263,0 12.63908,-13.96603 12.63907,-13.96602 18.78448,0 18.78448,0 12.63908,13.96602 12.63909,13.96603 -44.06265,0 z m 90.77917,0 -44.06263,0 12.63908,-13.96603 12.63909,-13.96602 18.78446,0 18.7845,0 12.63907,13.96602 12.63908,13.96603 -44.06265,0 z m 90.77919,0 -44.06265,0 12.63909,-13.96603 12.63908,-13.96602 18.78448,0 18.78448,0 12.63909,13.96602 12.63907,13.96603 -44.06264,0 z m 90.77918,0 -44.06265,0 12.63908,-13.96603 12.63908,-13.96602 18.78449,0 18.78447,0 12.63909,13.96602 12.63907,13.96603 -44.06263,0 z m -453.89588,-48.88108 -44.062648,0 12.639078,-13.96603 12.63909,-13.96604 18.78448,0 18.78447,0 12.63909,13.96604 12.63908,13.96603 -44.06264,0 z m 90.77917,0 -44.06264,0 12.63907,-13.96603 12.63908,-13.96604 18.78449,0 18.78448,0 12.63908,13.96604 12.63908,13.96603 -44.06264,0 z m 90.77917,0 -44.06263,0 12.63908,-13.96603 12.63907,-13.96604 18.78448,0 18.78448,0 12.63908,13.96604 12.63909,13.96603 -44.06265,0 z m 90.77917,0 -44.06263,0 12.63908,-13.96603 12.63909,-13.96604 18.78446,0 18.7845,0 12.63907,13.96604 12.63908,13.96603 -44.06265,0 z m 90.77919,0 -44.06265,0 12.63909,-13.96603 12.63908,-13.96604 18.78448,0 18.78448,0 12.63909,13.96604 12.63907,13.96603 -44.06264,0 z m 90.77918,0 -44.06265,0 12.63908,-13.96603 12.63908,-13.96604 18.78449,0 18.78447,0 12.63909,13.96604 12.63907,13.96603 -44.06263,0 z m -453.89588,-48.8811 -44.062648,0 12.639078,-13.96603 12.63909,-13.96603 18.78448,0 18.78447,0 12.63909,13.96603 12.63908,13.96603 -44.06264,0 z m 90.77917,0 -44.06264,0 12.63907,-13.96603 12.63908,-13.96603 18.78449,0 18.78448,0 12.63908,13.96603 12.63908,13.96603 -44.06264,0 z m 90.77917,0 -44.06263,0 12.63908,-13.96603 12.63907,-13.96603 18.78448,0 18.78448,0 12.63908,13.96603 12.63909,13.96603 -44.06265,0 z m 90.77917,0 -44.06263,0 12.63908,-13.96603 12.63909,-13.96603 18.78446,0 18.7845,0 12.63907,13.96603 12.63908,13.96603 -44.06265,0 z m 90.77919,0 -44.06265,0 12.63909,-13.96603 12.63908,-13.96603 18.78448,0 18.78448,0 12.63909,13.96603 12.63907,13.96603 -44.06264,0 z m 90.77918,0 -44.06265,0 12.63908,-13.96603 12.63908,-13.96603 18.78449,0 18.78447,0 12.63909,13.96603 12.63907,13.96603 -44.06263,0 z m -453.89588,-48.88109 -44.062648,0 12.639078,-13.96604 12.63909,-13.96603 18.78448,0 18.78447,0 12.63909,13.96603 12.63908,13.96604 -44.06264,0 z m 90.77917,0 -44.06264,0 12.63907,-13.96604 12.63908,-13.96603 18.78449,0 18.78448,0 12.63908,13.96603 12.63908,13.96604 -44.06264,0 z m 90.77917,0 -44.06263,0 12.63908,-13.96604 12.63907,-13.96603 18.78448,0 18.78448,0 12.63908,13.96603 12.63909,13.96604 -44.06265,0 z m 90.77917,0 -44.06263,0 12.63908,-13.96604 12.63909,-13.96603 18.78446,0 18.7845,0 12.63907,13.96603 12.63908,13.96604 -44.06265,0 z m 90.77919,0 -44.06265,0 12.63909,-13.96604 12.63908,-13.96603 18.78448,0 18.78448,0 12.63909,13.96603 12.63907,13.96604 -44.06264,0 z m 90.77918,0 -44.06265,0 12.63908,-13.96604 12.63908,-13.96603 18.78449,0 18.78447,0 12.63909,13.96603 12.63907,13.96604 -44.06263,0 z m -453.89588,-48.8811 -44.062648,0 12.639078,-13.96603 12.63909,-13.96602 18.78448,0 18.78447,0 12.63909,13.96602 12.63908,13.96603 -44.06264,0 z m 90.77917,0 -44.06264,0 12.63907,-13.96603 12.63908,-13.96602 18.78449,0 18.78448,0 12.63908,13.96602 12.63908,13.96603 -44.06264,0 z m 90.77917,0 -44.06263,0 12.63908,-13.96603 12.63907,-13.96602 18.78448,0 18.78448,0 12.63908,13.96602 12.63909,13.96603 -44.06265,0 z m 90.77917,0 -44.06263,0 12.63908,-13.96603 12.63909,-13.96602 18.78446,0 18.7845,0 12.63907,13.96602 12.63908,13.96603 -44.06265,0 z m 90.77919,0 -44.06265,0 12.63909,-13.96603 12.63908,-13.96602 18.78448,0 18.78448,0 12.63909,13.96602 12.63907,13.96603 -44.06264,0 z m 90.77918,0 -44.06265,0 12.63908,-13.96603 12.63908,-13.96602 18.78449,0 18.78447,0 12.63909,13.96602 12.63907,13.96603 -44.06263,0 z m -453.89588,-48.8811 -44.062648,0 12.639078,-13.96602 12.63909,-13.96603 18.78448,0 18.78447,0 12.63909,13.96603 12.63908,13.96602 -44.06264,0 z m 90.77917,0 -44.06264,0 12.63907,-13.96602 12.63908,-13.96603 18.78449,0 18.78448,0 12.63908,13.96603 12.63908,13.96602 -44.06264,0 z m 90.77917,0 -44.06263,0 12.63908,-13.96602 12.63907,-13.96603 18.78448,0 18.78448,0 12.63908,13.96603 12.63909,13.96602 -44.06265,0 z m 90.77917,0 -44.06263,0 12.63908,-13.96602 12.63909,-13.96603 18.78446,0 18.7845,0 12.63907,13.96603 12.63908,13.96602 -44.06265,0 z m 90.77919,0 -44.06265,0 12.63909,-13.96602 12.63908,-13.96603 18.78448,0 18.78448,0 12.63909,13.96603 12.63907,13.96602 -44.06264,0 z m 90.77918,0 -44.06265,0 12.63908,-13.96602 12.63908,-13.96603 18.78449,0 18.78447,0 12.63909,13.96603 12.63907,13.96602 -44.06263,0 z m -453.89588,-48.8811 -44.062648,0 12.639078,-13.96601 12.63909,-13.96603 18.78448,0 18.78447,0 12.63909,13.96603 12.63908,13.96601 -44.06264,0 z m 90.77917,0 -44.06264,0 12.63907,-13.96601 12.63908,-13.96603 18.78449,0 18.78448,0 12.63908,13.96603 12.63908,13.96601 -44.06264,0 z m 90.77917,0 -44.06263,0 12.63908,-13.96601 12.63907,-13.96603 18.78448,0 18.78448,0 12.63908,13.96603 12.63909,13.96601 -44.06265,0 z m 90.77917,0 -44.06263,0 12.63908,-13.96601 12.63909,-13.96603 18.78446,0 18.7845,0 12.63907,13.96603 12.63908,13.96601 -44.06265,0 z m 90.77919,0 -44.06265,0 12.63909,-13.96601 12.63908,-13.96603 18.78448,0 18.78448,0 12.63909,13.96603 12.63907,13.96601 -44.06264,0 z m 90.77918,0 -44.06265,0 12.63908,-13.96601 12.63908,-13.96603 18.78449,0 18.78447,0 12.63909,13.96603 12.63907,13.96601 -44.06263,0 z m -453.89588,-48.88108 -44.062648,0 12.639078,-13.96603 12.63909,-13.96603 18.78448,0 18.78447,0 12.63909,13.96603 12.63908,13.96603 -44.06264,0 z m 90.77917,0 -44.06264,0 12.63907,-13.96603 12.63908,-13.96603 18.78449,0 18.78448,0 12.63908,13.96603 12.63908,13.96603 -44.06264,0 z m 90.77917,0 -44.06263,0 12.63908,-13.96603 12.63907,-13.96603 18.78448,0 18.78448,0 12.63908,13.96603 12.63909,13.96603 -44.06265,0 z m 90.77917,0 -44.06263,0 12.63908,-13.96603 12.63909,-13.96603 18.78446,0 18.7845,0 12.63907,13.96603 12.63908,13.96603 -44.06265,0 z m 90.77919,0 -44.06265,0 12.63909,-13.96603 12.63908,-13.96603 18.78448,0 18.78448,0 12.63909,13.96603 12.63907,13.96603 -44.06264,0 z m 90.77918,0 -44.06265,0 12.63908,-13.96603 12.63908,-13.96603 18.78449,0 18.78447,0 12.63909,13.96603 12.63907,13.96603 -44.06263,0 z"
       id="path3069-10"
       inkscape:connector-curvature="0" />
  </g>
</svg>
