<?xml version="1.0" encoding="UTF-8" standalone="no"?>
<!-- Created with Inkscape (http://www.inkscape.org/) -->

<svg
   xmlns:dc="http://purl.org/dc/elements/1.1/"
   xmlns:cc="http://creativecommons.org/ns#"
   xmlns:rdf="http://www.w3.org/1999/02/22-rdf-syntax-ns#"
   xmlns:svg="http://www.w3.org/2000/svg"
   xmlns="http://www.w3.org/2000/svg"
   xmlns:sodipodi="http://sodipodi.sourceforge.net/DTD/sodipodi-0.dtd"
   xmlns:inkscape="http://www.inkscape.org/namespaces/inkscape"
   width="210mm"
   height="297mm"
   id="svg4118"
   version="1.1"
   inkscape:version="0.48.3.1 r9886"
   sodipodi:docname="Nouveau document 21">
  <defs
     id="defs4120" />
  <sodipodi:namedview
     id="base"
     pagecolor="#ffffff"
     bordercolor="#666666"
     borderopacity="1.0"
     inkscape:pageopacity="0.0"
     inkscape:pageshadow="2"
     inkscape:zoom="0.35"
     inkscape:cx="375"
     inkscape:cy="520"
     inkscape:document-units="px"
     inkscape:current-layer="layer1"
     showgrid="false"
     inkscape:window-width="486"
     inkscape:window-height="383"
     inkscape:window-x="0"
     inkscape:window-y="24"
     inkscape:window-maximized="0" />
  <metadata
     id="metadata4123">
    <rdf:RDF>
      <cc:Work
         rdf:about="">
        <dc:format>image/svg+xml</dc:format>
        <dc:type
           rdf:resource="http://purl.org/dc/dcmitype/StillImage" />
        <dc:title></dc:title>
      </cc:Work>
    </rdf:RDF>
  </metadata>
  <g
     inkscape:label="Calque 1"
     inkscape:groupmode="layer"
     id="layer1">
    <path
       inkscape:connector-curvature="0"
       id="path3824"
       d="m 101.02042,955.97781 -17.455784,0 0,-13.09183 0,-13.09184 17.455784,0 17.45578,0 0,13.09184 0,13.09183 -17.45578,0 z m 87.27891,0 -17.45578,0 0,-13.09183 0,-13.09184 17.45578,0 17.45578,0 0,13.09184 0,13.09183 -17.45578,0 z m 87.27891,0 -17.45578,0 0,-13.09183 0,-13.09184 17.45578,0 17.45578,0 0,13.09184 0,13.09183 -17.45578,0 z m 87.27891,0 -17.45578,0 0,-13.09183 0,-13.09184 17.45578,0 17.45578,0 0,13.09184 0,13.09183 -17.45578,0 z m 87.27891,0 -17.45579,0 0,-13.09183 0,-13.09184 17.45579,0 17.45578,0 0,13.09184 0,13.09183 -17.45578,0 z m 87.27891,0 -17.45579,0 0,-13.09183 0,-13.09184 17.45579,0 17.45578,0 0,13.09184 0,13.09183 -17.45578,0 z m 87.27891,0 -17.45579,0 0,-13.09183 0,-13.09184 17.45579,0 17.45578,0 0,13.09184 0,13.09183 -17.45578,0 z m -523.67346,-61.09523 -17.455784,0 0,-13.09184 0,-13.09184 17.455784,0 17.45578,0 0,13.09184 0,13.09184 -17.45578,0 z m 87.27891,0 -17.45578,0 0,-13.09184 0,-13.09184 17.45578,0 17.45578,0 0,13.09184 0,13.09184 -17.45578,0 z m 87.27891,0 -17.45578,0 0,-13.09184 0,-13.09184 17.45578,0 17.45578,0 0,13.09184 0,13.09184 -17.45578,0 z m 87.27891,0 -17.45578,0 0,-13.09184 0,-13.09184 17.45578,0 17.45578,0 0,13.09184 0,13.09184 -17.45578,0 z m 87.27891,0 -17.45579,0 0,-13.09184 0,-13.09184 17.45579,0 17.45578,0 0,13.09184 0,13.09184 -17.45578,0 z m 87.27891,0 -17.45579,0 0,-13.09184 0,-13.09184 17.45579,0 17.45578,0 0,13.09184 0,13.09184 -17.45578,0 z m 87.27891,0 -17.45579,0 0,-13.09184 0,-13.09184 17.45579,0 17.45578,0 0,13.09184 0,13.09184 -17.45578,0 z m -523.67346,-61.09524 -17.455784,0 0,-13.09183 0,-13.09184 17.455784,0 17.45578,0 0,13.09184 0,13.09183 -17.45578,0 z m 87.27891,0 -17.45578,0 0,-13.09183 0,-13.09184 17.45578,0 17.45578,0 0,13.09184 0,13.09183 -17.45578,0 z m 87.27891,0 -17.45578,0 0,-13.09183 0,-13.09184 17.45578,0 17.45578,0 0,13.09184 0,13.09183 -17.45578,0 z m 87.27891,0 -17.45578,0 0,-13.09183 0,-13.09184 17.45578,0 17.45578,0 0,13.09184 0,13.09183 -17.45578,0 z m 87.27891,0 -17.45579,0 0,-13.09183 0,-13.09184 17.45579,0 17.45578,0 0,13.09184 0,13.09183 -17.45578,0 z m 87.27891,0 -17.45579,0 0,-13.09183 0,-13.09184 17.45579,0 17.45578,0 0,13.09184 0,13.09183 -17.45578,0 z m 87.27891,0 -17.45579,0 0,-13.09183 0,-13.09184 17.45579,0 17.45578,0 0,13.09184 0,13.09183 -17.45578,0 z m -523.67346,-61.09523 -17.455784,0 0,-13.09184 0,-13.09184 17.455784,0 17.45578,0 0,13.09184 0,13.09184 -17.45578,0 z m 87.27891,0 -17.45578,0 0,-13.09184 0,-13.09184 17.45578,0 17.45578,0 0,13.09184 0,13.09184 -17.45578,0 z m 87.27891,0 -17.45578,0 0,-13.09184 0,-13.09184 17.45578,0 17.45578,0 0,13.09184 0,13.09184 -17.45578,0 z m 87.27891,0 -17.45578,0 0,-13.09184 0,-13.09184 17.45578,0 17.45578,0 0,13.09184 0,13.09184 -17.45578,0 z m 87.27891,0 -17.45579,0 0,-13.09184 0,-13.09184 17.45579,0 17.45578,0 0,13.09184 0,13.09184 -17.45578,0 z m 87.27891,0 -17.45579,0 0,-13.09184 0,-13.09184 17.45579,0 17.45578,0 0,13.09184 0,13.09184 -17.45578,0 z m 87.27891,0 -17.45579,0 0,-13.09184 0,-13.09184 17.45579,0 17.45578,0 0,13.09184 0,13.09184 -17.45578,0 z m -523.67346,-61.09524 -17.455784,0 0,-13.09184 0,-13.09183 17.455784,0 17.45578,0 0,13.09183 0,13.09184 -17.45578,0 z m 87.27891,0 -17.45578,0 0,-13.09184 0,-13.09183 17.45578,0 17.45578,0 0,13.09183 0,13.09184 -17.45578,0 z m 87.27891,0 -17.45578,0 0,-13.09184 0,-13.09183 17.45578,0 17.45578,0 0,13.09183 0,13.09184 -17.45578,0 z m 87.27891,0 -17.45578,0 0,-13.09184 0,-13.09183 17.45578,0 17.45578,0 0,13.09183 0,13.09184 -17.45578,0 z m 87.27891,0 -17.45579,0 0,-13.09184 0,-13.09183 17.45579,0 17.45578,0 0,13.09183 0,13.09184 -17.45578,0 z m 87.27891,0 -17.45579,0 0,-13.09184 0,-13.09183 17.45579,0 17.45578,0 0,13.09183 0,13.09184 -17.45578,0 z m 87.27891,0 -17.45579,0 0,-13.09184 0,-13.09183 17.45579,0 17.45578,0 0,13.09183 0,13.09184 -17.45578,0 z m -523.67346,-61.09523 -17.455784,0 0,-13.09184 0,-13.09184 17.455784,0 17.45578,0 0,13.09184 0,13.09184 -17.45578,0 z m 87.27891,0 -17.45578,0 0,-13.09184 0,-13.09184 17.45578,0 17.45578,0 0,13.09184 0,13.09184 -17.45578,0 z m 87.27891,0 -17.45578,0 0,-13.09184 0,-13.09184 17.45578,0 17.45578,0 0,13.09184 0,13.09184 -17.45578,0 z m 87.27891,0 -17.45578,0 0,-13.09184 0,-13.09184 17.45578,0 17.45578,0 0,13.09184 0,13.09184 -17.45578,0 z m 87.27891,0 -17.45579,0 0,-13.09184 0,-13.09184 17.45579,0 17.45578,0 0,13.09184 0,13.09184 -17.45578,0 z m 87.27891,0 -17.45579,0 0,-13.09184 0,-13.09184 17.45579,0 17.45578,0 0,13.09184 0,13.09184 -17.45578,0 z m 87.27891,0 -17.45579,0 0,-13.09184 0,-13.09184 17.45579,0 17.45578,0 0,13.09184 0,13.09184 -17.45578,0 z m -523.67346,-61.09524 -17.455784,0 0,-13.09184 0,-13.09183 17.455784,0 17.45578,0 0,13.09183 0,13.09184 -17.45578,0 z m 87.27891,0 -17.45578,0 0,-13.09184 0,-13.09183 17.45578,0 17.45578,0 0,13.09183 0,13.09184 -17.45578,0 z m 87.27891,0 -17.45578,0 0,-13.09184 0,-13.09183 17.45578,0 17.45578,0 0,13.09183 0,13.09184 -17.45578,0 z m 87.27891,0 -17.45578,0 0,-13.09184 0,-13.09183 17.45578,0 17.45578,0 0,13.09183 0,13.09184 -17.45578,0 z m 87.27891,0 -17.45579,0 0,-13.09184 0,-13.09183 17.45579,0 17.45578,0 0,13.09183 0,13.09184 -17.45578,0 z m 87.27891,0 -17.45579,0 0,-13.09184 0,-13.09183 17.45579,0 17.45578,0 0,13.09183 0,13.09184 -17.45578,0 z m 87.27891,0 -17.45579,0 0,-13.09184 0,-13.09183 17.45579,0 17.45578,0 0,13.09183 0,13.09184 -17.45578,0 z m -523.67346,-61.09524 -17.455784,0 0,-13.09183 0,-13.09184 17.455784,0 17.45578,0 0,13.09184 0,13.09183 -17.45578,0 z m 87.27891,0 -17.45578,0 0,-13.09183 0,-13.09184 17.45578,0 17.45578,0 0,13.09184 0,13.09183 -17.45578,0 z m 87.27891,0 -17.45578,0 0,-13.09183 0,-13.09184 17.45578,0 17.45578,0 0,13.09184 0,13.09183 -17.45578,0 z m 87.27891,0 -17.45578,0 0,-13.09183 0,-13.09184 17.45578,0 17.45578,0 0,13.09184 0,13.09183 -17.45578,0 z m 87.27891,0 -17.45579,0 0,-13.09183 0,-13.09184 17.45579,0 17.45578,0 0,13.09184 0,13.09183 -17.45578,0 z m 87.27891,0 -17.45579,0 0,-13.09183 0,-13.09184 17.45579,0 17.45578,0 0,13.09184 0,13.09183 -17.45578,0 z m 87.27891,0 -17.45579,0 0,-13.09183 0,-13.09184 17.45579,0 17.45578,0 0,13.09184 0,13.09183 -17.45578,0 z m -523.67346,-61.09523 -17.455784,0 0,-13.09184 0,-13.09183 17.455784,0 17.45578,0 0,13.09183 0,13.09184 -17.45578,0 z m 87.27891,0 -17.45578,0 0,-13.09184 0,-13.09183 17.45578,0 17.45578,0 0,13.09183 0,13.09184 -17.45578,0 z m 87.27891,0 -17.45578,0 0,-13.09184 0,-13.09183 17.45578,0 17.45578,0 0,13.09183 0,13.09184 -17.45578,0 z m 87.27891,0 -17.45578,0 0,-13.09184 0,-13.09183 17.45578,0 17.45578,0 0,13.09183 0,13.09184 -17.45578,0 z m 87.27891,0 -17.45579,0 0,-13.09184 0,-13.09183 17.45579,0 17.45578,0 0,13.09183 0,13.09184 -17.45578,0 z m 87.27891,0 -17.45579,0 0,-13.09184 0,-13.09183 17.45579,0 17.45578,0 0,13.09183 0,13.09184 -17.45578,0 z m 87.27891,0 -17.45579,0 0,-13.09184 0,-13.09183 17.45579,0 17.45578,0 0,13.09183 0,13.09184 -17.45578,0 z m -523.67346,-61.09524 -17.455784,0 0,-13.09183 0,-13.09184 17.455784,0 17.45578,0 0,13.09184 0,13.09183 -17.45578,0 z m 87.27891,0 -17.45578,0 0,-13.09183 0,-13.09184 17.45578,0 17.45578,0 0,13.09184 0,13.09183 -17.45578,0 z m 87.27891,0 -17.45578,0 0,-13.09183 0,-13.09184 17.45578,0 17.45578,0 0,13.09184 0,13.09183 -17.45578,0 z m 87.27891,0 -17.45578,0 0,-13.09183 0,-13.09184 17.45578,0 17.45578,0 0,13.09184 0,13.09183 -17.45578,0 z m 87.27891,0 -17.45579,0 0,-13.09183 0,-13.09184 17.45579,0 17.45578,0 0,13.09184 0,13.09183 -17.45578,0 z m 87.27891,0 -17.45579,0 0,-13.09183 0,-13.09184 17.45579,0 17.45578,0 0,13.09184 0,13.09183 -17.45578,0 z m 87.27891,0 -17.45579,0 0,-13.09183 0,-13.09184 17.45579,0 17.45578,0 0,13.09184 0,13.09183 -17.45578,0 z m -523.67346,-61.09523 -17.455784,0 0,-13.09184 0,-13.09183 17.455784,0 17.45578,0 0,13.09183 0,13.09184 -17.45578,0 z m 87.27891,0 -17.45578,0 0,-13.09184 0,-13.09183 17.45578,0 17.45578,0 0,13.09183 0,13.09184 -17.45578,0 z m 87.27891,0 -17.45578,0 0,-13.09184 0,-13.09183 17.45578,0 17.45578,0 0,13.09183 0,13.09184 -17.45578,0 z m 87.27891,0 -17.45578,0 0,-13.09184 0,-13.09183 17.45578,0 17.45578,0 0,13.09183 0,13.09184 -17.45578,0 z m 87.27891,0 -17.45579,0 0,-13.09184 0,-13.09183 17.45579,0 17.45578,0 0,13.09183 0,13.09184 -17.45578,0 z m 87.27891,0 -17.45579,0 0,-13.09184 0,-13.09183 17.45579,0 17.45578,0 0,13.09183 0,13.09184 -17.45578,0 z m 87.27891,0 -17.45579,0 0,-13.09184 0,-13.09183 17.45579,0 17.45578,0 0,13.09183 0,13.09184 -17.45578,0 z m -523.67346,-61.09524 -17.455784,0 0,-13.09183 0,-13.09184 17.455784,0 17.45578,0 0,13.09184 0,13.09183 -17.45578,0 z m 87.27891,0 -17.45578,0 0,-13.09183 0,-13.09184 17.45578,0 17.45578,0 0,13.09184 0,13.09183 -17.45578,0 z m 87.27891,0 -17.45578,0 0,-13.09183 0,-13.09184 17.45578,0 17.45578,0 0,13.09184 0,13.09183 -17.45578,0 z m 87.27891,0 -17.45578,0 0,-13.09183 0,-13.09184 17.45578,0 17.45578,0 0,13.09184 0,13.09183 -17.45578,0 z m 87.27891,0 -17.45579,0 0,-13.09183 0,-13.09184 17.45579,0 17.45578,0 0,13.09184 0,13.09183 -17.45578,0 z m 87.27891,0 -17.45579,0 0,-13.09183 0,-13.09184 17.45579,0 17.45578,0 0,13.09184 0,13.09183 -17.45578,0 z m 87.27891,0 -17.45579,0 0,-13.09183 0,-13.09184 17.45579,0 17.45578,0 0,13.09184 0,13.09183 -17.45578,0 z m -523.67346,-61.09523 -17.455784,0 0,-13.09184 0,-13.09183 17.455784,0 17.45578,0 0,13.09183 0,13.09184 -17.45578,0 z m 87.27891,0 -17.45578,0 0,-13.09184 0,-13.09183 17.45578,0 17.45578,0 0,13.09183 0,13.09184 -17.45578,0 z m 87.27891,0 -17.45578,0 0,-13.09184 0,-13.09183 17.45578,0 17.45578,0 0,13.09183 0,13.09184 -17.45578,0 z m 87.27891,0 -17.45578,0 0,-13.09184 0,-13.09183 17.45578,0 17.45578,0 0,13.09183 0,13.09184 -17.45578,0 z m 87.27891,0 -17.45579,0 0,-13.09184 0,-13.09183 17.45579,0 17.45578,0 0,13.09183 0,13.09184 -17.45578,0 z m 87.27891,0 -17.45579,0 0,-13.09184 0,-13.09183 17.45579,0 17.45578,0 0,13.09183 0,13.09184 -17.45578,0 z m 87.27891,0 -17.45579,0 0,-13.09184 0,-13.09183 17.45579,0 17.45578,0 0,13.09183 0,13.09184 -17.45578,0 z m -523.67346,-61.09524 -17.455784,0 0,-13.09183 0,-13.09184 17.455784,0 17.45578,0 0,13.09184 0,13.09183 -17.45578,0 z m 87.27891,0 -17.45578,0 0,-13.09183 0,-13.09184 17.45578,0 17.45578,0 0,13.09184 0,13.09183 -17.45578,0 z m 87.27891,0 -17.45578,0 0,-13.09183 0,-13.09184 17.45578,0 17.45578,0 0,13.09184 0,13.09183 -17.45578,0 z m 87.27891,0 -17.45578,0 0,-13.09183 0,-13.09184 17.45578,0 17.45578,0 0,13.09184 0,13.09183 -17.45578,0 z m 87.27891,0 -17.45579,0 0,-13.09183 0,-13.09184 17.45579,0 17.45578,0 0,13.09184 0,13.09183 -17.45578,0 z m 87.27891,0 -17.45579,0 0,-13.09183 0,-13.09184 17.45579,0 17.45578,0 0,13.09184 0,13.09183 -17.45578,0 z m 87.27891,0 -17.45579,0 0,-13.09183 0,-13.09184 17.45579,0 17.45578,0 0,13.09184 0,13.09183 -17.45578,0 z m -523.67346,-61.09523 -17.455784,0 0,-13.091844 0,-13.09183 17.455784,0 17.45578,0 0,13.09183 0,13.091844 -17.45578,0 z m 87.27891,0 -17.45578,0 0,-13.091844 0,-13.09183 17.45578,0 17.45578,0 0,13.09183 0,13.091844 -17.45578,0 z m 87.27891,0 -17.45578,0 0,-13.091844 0,-13.09183 17.45578,0 17.45578,0 0,13.09183 0,13.091844 -17.45578,0 z m 87.27891,0 -17.45578,0 0,-13.091844 0,-13.09183 17.45578,0 17.45578,0 0,13.09183 0,13.091844 -17.45578,0 z m 87.27891,0 -17.45579,0 0,-13.091844 0,-13.09183 17.45579,0 17.45578,0 0,13.09183 0,13.091844 -17.45578,0 z m 87.27891,0 -17.45579,0 0,-13.091844 0,-13.09183 17.45579,0 17.45578,0 0,13.09183 0,13.091844 -17.45578,0 z m 87.27891,0 -17.45579,0 0,-13.091844 0,-13.09183 17.45579,0 17.45578,0 0,13.09183 0,13.091844 -17.45578,0 z"
       style="fill:none;stroke:#33cccc;stroke-opacity:1;display:inline" />
  </g>
</svg>
