<?xml version="1.0" encoding="UTF-8" standalone="no"?>
<!-- Created with Inkscape (http://www.inkscape.org/) -->

<svg
   xmlns:dc="http://purl.org/dc/elements/1.1/"
   xmlns:cc="http://creativecommons.org/ns#"
   xmlns:rdf="http://www.w3.org/1999/02/22-rdf-syntax-ns#"
   xmlns:svg="http://www.w3.org/2000/svg"
   xmlns="http://www.w3.org/2000/svg"
   xmlns:sodipodi="http://sodipodi.sourceforge.net/DTD/sodipodi-0.dtd"
   xmlns:inkscape="http://www.inkscape.org/namespaces/inkscape"
   width="210mm"
   height="297mm"
   id="svg4055"
   version="1.1"
   inkscape:version="0.48.3.1 r9886"
   sodipodi:docname="Nouveau document 17">
  <defs
     id="defs4057" />
  <sodipodi:namedview
     id="base"
     pagecolor="#ffffff"
     bordercolor="#666666"
     borderopacity="1.0"
     inkscape:pageopacity="0.0"
     inkscape:pageshadow="2"
     inkscape:zoom="0.175"
     inkscape:cx="375"
     inkscape:cy="520"
     inkscape:document-units="px"
     inkscape:current-layer="layer1"
     showgrid="false"
     inkscape:window-width="486"
     inkscape:window-height="383"
     inkscape:window-x="788"
     inkscape:window-y="266"
     inkscape:window-maximized="0" />
  <metadata
     id="metadata4060">
    <rdf:RDF>
      <cc:Work
         rdf:about="">
        <dc:format>image/svg+xml</dc:format>
        <dc:type
           rdf:resource="http://purl.org/dc/dcmitype/StillImage" />
        <dc:title></dc:title>
      </cc:Work>
    </rdf:RDF>
  </metadata>
  <g
     inkscape:label="Calque 1"
     inkscape:groupmode="layer"
     id="layer1">
    <path
       inkscape:connector-curvature="0"
       id="path3822"
       d="m 71.666675,978.83495 -26.183673,0 0,-13.09183 0,-13.09184 26.183673,0 26.183673,0 0,13.09184 0,13.09183 -26.183673,0 z m 87.278905,0 -26.18367,0 0,-13.09183 0,-13.09184 26.18367,0 26.18368,0 0,13.09184 0,13.09183 -26.18368,0 z m 87.27891,0 -26.18367,0 0,-13.09183 0,-13.09184 26.18367,0 26.18368,0 0,13.09184 0,13.09183 -26.18368,0 z m 87.27891,0 -26.18367,0 0,-13.09183 0,-13.09184 26.18367,0 26.18368,0 0,13.09184 0,13.09183 -26.18368,0 z m 87.27891,0 -26.18367,0 0,-13.09183 0,-13.09184 26.18367,0 26.18367,0 0,13.09184 0,13.09183 -26.18367,0 z m 87.27891,0 -26.18367,0 0,-13.09183 0,-13.09184 26.18367,0 26.18367,0 0,13.09184 0,13.09183 -26.18367,0 z m 87.27891,0 -26.18367,0 0,-13.09183 0,-13.09184 26.18367,0 26.18367,0 0,13.09184 0,13.09183 -26.18367,0 z m 87.27891,0 -26.18367,0 0,-13.09183 0,-13.09184 26.18367,0 26.18367,0 0,13.09184 0,13.09183 -26.18367,0 z m -610.952365,-61.09523 -26.183673,0 0,-13.09184 0,-13.09184 26.183673,0 26.183673,0 0,13.09184 0,13.09184 -26.183673,0 z m 87.278905,0 -26.18367,0 0,-13.09184 0,-13.09184 26.18367,0 26.18368,0 0,13.09184 0,13.09184 -26.18368,0 z m 87.27891,0 -26.18367,0 0,-13.09184 0,-13.09184 26.18367,0 26.18368,0 0,13.09184 0,13.09184 -26.18368,0 z m 87.27891,0 -26.18367,0 0,-13.09184 0,-13.09184 26.18367,0 26.18368,0 0,13.09184 0,13.09184 -26.18368,0 z m 87.27891,0 -26.18367,0 0,-13.09184 0,-13.09184 26.18367,0 26.18367,0 0,13.09184 0,13.09184 -26.18367,0 z m 87.27891,0 -26.18367,0 0,-13.09184 0,-13.09184 26.18367,0 26.18367,0 0,13.09184 0,13.09184 -26.18367,0 z m 87.27891,0 -26.18367,0 0,-13.09184 0,-13.09184 26.18367,0 26.18367,0 0,13.09184 0,13.09184 -26.18367,0 z m 87.27891,0 -26.18367,0 0,-13.09184 0,-13.09184 26.18367,0 26.18367,0 0,13.09184 0,13.09184 -26.18367,0 z m -610.952365,-61.09524 -26.183673,0 0,-13.09183 0,-13.09184 26.183673,0 26.183673,0 0,13.09184 0,13.09183 -26.183673,0 z m 87.278905,0 -26.18367,0 0,-13.09183 0,-13.09184 26.18367,0 26.18368,0 0,13.09184 0,13.09183 -26.18368,0 z m 87.27891,0 -26.18367,0 0,-13.09183 0,-13.09184 26.18367,0 26.18368,0 0,13.09184 0,13.09183 -26.18368,0 z m 87.27891,0 -26.18367,0 0,-13.09183 0,-13.09184 26.18367,0 26.18368,0 0,13.09184 0,13.09183 -26.18368,0 z m 87.27891,0 -26.18367,0 0,-13.09183 0,-13.09184 26.18367,0 26.18367,0 0,13.09184 0,13.09183 -26.18367,0 z m 87.27891,0 -26.18367,0 0,-13.09183 0,-13.09184 26.18367,0 26.18367,0 0,13.09184 0,13.09183 -26.18367,0 z m 87.27891,0 -26.18367,0 0,-13.09183 0,-13.09184 26.18367,0 26.18367,0 0,13.09184 0,13.09183 -26.18367,0 z m 87.27891,0 -26.18367,0 0,-13.09183 0,-13.09184 26.18367,0 26.18367,0 0,13.09184 0,13.09183 -26.18367,0 z m -610.952365,-61.09523 -26.183673,0 0,-13.09184 0,-13.09184 26.183673,0 26.183673,0 0,13.09184 0,13.09184 -26.183673,0 z m 87.278905,0 -26.18367,0 0,-13.09184 0,-13.09184 26.18367,0 26.18368,0 0,13.09184 0,13.09184 -26.18368,0 z m 87.27891,0 -26.18367,0 0,-13.09184 0,-13.09184 26.18367,0 26.18368,0 0,13.09184 0,13.09184 -26.18368,0 z m 87.27891,0 -26.18367,0 0,-13.09184 0,-13.09184 26.18367,0 26.18368,0 0,13.09184 0,13.09184 -26.18368,0 z m 87.27891,0 -26.18367,0 0,-13.09184 0,-13.09184 26.18367,0 26.18367,0 0,13.09184 0,13.09184 -26.18367,0 z m 87.27891,0 -26.18367,0 0,-13.09184 0,-13.09184 26.18367,0 26.18367,0 0,13.09184 0,13.09184 -26.18367,0 z m 87.27891,0 -26.18367,0 0,-13.09184 0,-13.09184 26.18367,0 26.18367,0 0,13.09184 0,13.09184 -26.18367,0 z m 87.27891,0 -26.18367,0 0,-13.09184 0,-13.09184 26.18367,0 26.18367,0 0,13.09184 0,13.09184 -26.18367,0 z m -610.952365,-61.09524 -26.183673,0 0,-13.09184 0,-13.09183 26.183673,0 26.183673,0 0,13.09183 0,13.09184 -26.183673,0 z m 87.278905,0 -26.18367,0 0,-13.09184 0,-13.09183 26.18367,0 26.18368,0 0,13.09183 0,13.09184 -26.18368,0 z m 87.27891,0 -26.18367,0 0,-13.09184 0,-13.09183 26.18367,0 26.18368,0 0,13.09183 0,13.09184 -26.18368,0 z m 87.27891,0 -26.18367,0 0,-13.09184 0,-13.09183 26.18367,0 26.18368,0 0,13.09183 0,13.09184 -26.18368,0 z m 87.27891,0 -26.18367,0 0,-13.09184 0,-13.09183 26.18367,0 26.18367,0 0,13.09183 0,13.09184 -26.18367,0 z m 87.27891,0 -26.18367,0 0,-13.09184 0,-13.09183 26.18367,0 26.18367,0 0,13.09183 0,13.09184 -26.18367,0 z m 87.27891,0 -26.18367,0 0,-13.09184 0,-13.09183 26.18367,0 26.18367,0 0,13.09183 0,13.09184 -26.18367,0 z m 87.27891,0 -26.18367,0 0,-13.09184 0,-13.09183 26.18367,0 26.18367,0 0,13.09183 0,13.09184 -26.18367,0 z m -610.952365,-61.09523 -26.183673,0 0,-13.09184 0,-13.09184 26.183673,0 26.183673,0 0,13.09184 0,13.09184 -26.183673,0 z m 87.278905,0 -26.18367,0 0,-13.09184 0,-13.09184 26.18367,0 26.18368,0 0,13.09184 0,13.09184 -26.18368,0 z m 87.27891,0 -26.18367,0 0,-13.09184 0,-13.09184 26.18367,0 26.18368,0 0,13.09184 0,13.09184 -26.18368,0 z m 87.27891,0 -26.18367,0 0,-13.09184 0,-13.09184 26.18367,0 26.18368,0 0,13.09184 0,13.09184 -26.18368,0 z m 87.27891,0 -26.18367,0 0,-13.09184 0,-13.09184 26.18367,0 26.18367,0 0,13.09184 0,13.09184 -26.18367,0 z m 87.27891,0 -26.18367,0 0,-13.09184 0,-13.09184 26.18367,0 26.18367,0 0,13.09184 0,13.09184 -26.18367,0 z m 87.27891,0 -26.18367,0 0,-13.09184 0,-13.09184 26.18367,0 26.18367,0 0,13.09184 0,13.09184 -26.18367,0 z m 87.27891,0 -26.18367,0 0,-13.09184 0,-13.09184 26.18367,0 26.18367,0 0,13.09184 0,13.09184 -26.18367,0 z m -610.952365,-61.09524 -26.183673,0 0,-13.09184 0,-13.09183 26.183673,0 26.183673,0 0,13.09183 0,13.09184 -26.183673,0 z m 87.278905,0 -26.18367,0 0,-13.09184 0,-13.09183 26.18367,0 26.18368,0 0,13.09183 0,13.09184 -26.18368,0 z m 87.27891,0 -26.18367,0 0,-13.09184 0,-13.09183 26.18367,0 26.18368,0 0,13.09183 0,13.09184 -26.18368,0 z m 87.27891,0 -26.18367,0 0,-13.09184 0,-13.09183 26.18367,0 26.18368,0 0,13.09183 0,13.09184 -26.18368,0 z m 87.27891,0 -26.18367,0 0,-13.09184 0,-13.09183 26.18367,0 26.18367,0 0,13.09183 0,13.09184 -26.18367,0 z m 87.27891,0 -26.18367,0 0,-13.09184 0,-13.09183 26.18367,0 26.18367,0 0,13.09183 0,13.09184 -26.18367,0 z m 87.27891,0 -26.18367,0 0,-13.09184 0,-13.09183 26.18367,0 26.18367,0 0,13.09183 0,13.09184 -26.18367,0 z m 87.27891,0 -26.18367,0 0,-13.09184 0,-13.09183 26.18367,0 26.18367,0 0,13.09183 0,13.09184 -26.18367,0 z M 71.666675,551.1683 l -26.183673,0 0,-13.09183 0,-13.09184 26.183673,0 26.183673,0 0,13.09184 0,13.09183 -26.183673,0 z m 87.278905,0 -26.18367,0 0,-13.09183 0,-13.09184 26.18367,0 26.18368,0 0,13.09184 0,13.09183 -26.18368,0 z m 87.27891,0 -26.18367,0 0,-13.09183 0,-13.09184 26.18367,0 26.18368,0 0,13.09184 0,13.09183 -26.18368,0 z m 87.27891,0 -26.18367,0 0,-13.09183 0,-13.09184 26.18367,0 26.18368,0 0,13.09184 0,13.09183 -26.18368,0 z m 87.27891,0 -26.18367,0 0,-13.09183 0,-13.09184 26.18367,0 26.18367,0 0,13.09184 0,13.09183 -26.18367,0 z m 87.27891,0 -26.18367,0 0,-13.09183 0,-13.09184 26.18367,0 26.18367,0 0,13.09184 0,13.09183 -26.18367,0 z m 87.27891,0 -26.18367,0 0,-13.09183 0,-13.09184 26.18367,0 26.18367,0 0,13.09184 0,13.09183 -26.18367,0 z m 87.27891,0 -26.18367,0 0,-13.09183 0,-13.09184 26.18367,0 26.18367,0 0,13.09184 0,13.09183 -26.18367,0 z m -610.952365,-61.09523 -26.183673,0 0,-13.09184 0,-13.09183 26.183673,0 26.183673,0 0,13.09183 0,13.09184 -26.183673,0 z m 87.278905,0 -26.18367,0 0,-13.09184 0,-13.09183 26.18367,0 26.18368,0 0,13.09183 0,13.09184 -26.18368,0 z m 87.27891,0 -26.18367,0 0,-13.09184 0,-13.09183 26.18367,0 26.18368,0 0,13.09183 0,13.09184 -26.18368,0 z m 87.27891,0 -26.18367,0 0,-13.09184 0,-13.09183 26.18367,0 26.18368,0 0,13.09183 0,13.09184 -26.18368,0 z m 87.27891,0 -26.18367,0 0,-13.09184 0,-13.09183 26.18367,0 26.18367,0 0,13.09183 0,13.09184 -26.18367,0 z m 87.27891,0 -26.18367,0 0,-13.09184 0,-13.09183 26.18367,0 26.18367,0 0,13.09183 0,13.09184 -26.18367,0 z m 87.27891,0 -26.18367,0 0,-13.09184 0,-13.09183 26.18367,0 26.18367,0 0,13.09183 0,13.09184 -26.18367,0 z m 87.27891,0 -26.18367,0 0,-13.09184 0,-13.09183 26.18367,0 26.18367,0 0,13.09183 0,13.09184 -26.18367,0 z m -610.952365,-61.09524 -26.183673,0 0,-13.09183 0,-13.09184 26.183673,0 26.183673,0 0,13.09184 0,13.09183 -26.183673,0 z m 87.278905,0 -26.18367,0 0,-13.09183 0,-13.09184 26.18367,0 26.18368,0 0,13.09184 0,13.09183 -26.18368,0 z m 87.27891,0 -26.18367,0 0,-13.09183 0,-13.09184 26.18367,0 26.18368,0 0,13.09184 0,13.09183 -26.18368,0 z m 87.27891,0 -26.18367,0 0,-13.09183 0,-13.09184 26.18367,0 26.18368,0 0,13.09184 0,13.09183 -26.18368,0 z m 87.27891,0 -26.18367,0 0,-13.09183 0,-13.09184 26.18367,0 26.18367,0 0,13.09184 0,13.09183 -26.18367,0 z m 87.27891,0 -26.18367,0 0,-13.09183 0,-13.09184 26.18367,0 26.18367,0 0,13.09184 0,13.09183 -26.18367,0 z m 87.27891,0 -26.18367,0 0,-13.09183 0,-13.09184 26.18367,0 26.18367,0 0,13.09184 0,13.09183 -26.18367,0 z m 87.27891,0 -26.18367,0 0,-13.09183 0,-13.09184 26.18367,0 26.18367,0 0,13.09184 0,13.09183 -26.18367,0 z M 71.666675,367.8826 l -26.183673,0 0,-13.09184 0,-13.09183 26.183673,0 26.183673,0 0,13.09183 0,13.09184 -26.183673,0 z m 87.278905,0 -26.18367,0 0,-13.09184 0,-13.09183 26.18367,0 26.18368,0 0,13.09183 0,13.09184 -26.18368,0 z m 87.27891,0 -26.18367,0 0,-13.09184 0,-13.09183 26.18367,0 26.18368,0 0,13.09183 0,13.09184 -26.18368,0 z m 87.27891,0 -26.18367,0 0,-13.09184 0,-13.09183 26.18367,0 26.18368,0 0,13.09183 0,13.09184 -26.18368,0 z m 87.27891,0 -26.18367,0 0,-13.09184 0,-13.09183 26.18367,0 26.18367,0 0,13.09183 0,13.09184 -26.18367,0 z m 87.27891,0 -26.18367,0 0,-13.09184 0,-13.09183 26.18367,0 26.18367,0 0,13.09183 0,13.09184 -26.18367,0 z m 87.27891,0 -26.18367,0 0,-13.09184 0,-13.09183 26.18367,0 26.18367,0 0,13.09183 0,13.09184 -26.18367,0 z m 87.27891,0 -26.18367,0 0,-13.09184 0,-13.09183 26.18367,0 26.18367,0 0,13.09183 0,13.09184 -26.18367,0 z m -610.952365,-61.09524 -26.183673,0 0,-13.09183 0,-13.09184 26.183673,0 26.183673,0 0,13.09184 0,13.09183 -26.183673,0 z m 87.278905,0 -26.18367,0 0,-13.09183 0,-13.09184 26.18367,0 26.18368,0 0,13.09184 0,13.09183 -26.18368,0 z m 87.27891,0 -26.18367,0 0,-13.09183 0,-13.09184 26.18367,0 26.18368,0 0,13.09184 0,13.09183 -26.18368,0 z m 87.27891,0 -26.18367,0 0,-13.09183 0,-13.09184 26.18367,0 26.18368,0 0,13.09184 0,13.09183 -26.18368,0 z m 87.27891,0 -26.18367,0 0,-13.09183 0,-13.09184 26.18367,0 26.18367,0 0,13.09184 0,13.09183 -26.18367,0 z m 87.27891,0 -26.18367,0 0,-13.09183 0,-13.09184 26.18367,0 26.18367,0 0,13.09184 0,13.09183 -26.18367,0 z m 87.27891,0 -26.18367,0 0,-13.09183 0,-13.09184 26.18367,0 26.18367,0 0,13.09184 0,13.09183 -26.18367,0 z m 87.27891,0 -26.18367,0 0,-13.09183 0,-13.09184 26.18367,0 26.18367,0 0,13.09184 0,13.09183 -26.18367,0 z m -610.952365,-61.09523 -26.183673,0 0,-13.09184 0,-13.09183 26.183673,0 26.183673,0 0,13.09183 0,13.09184 -26.183673,0 z m 87.278905,0 -26.18367,0 0,-13.09184 0,-13.09183 26.18367,0 26.18368,0 0,13.09183 0,13.09184 -26.18368,0 z m 87.27891,0 -26.18367,0 0,-13.09184 0,-13.09183 26.18367,0 26.18368,0 0,13.09183 0,13.09184 -26.18368,0 z m 87.27891,0 -26.18367,0 0,-13.09184 0,-13.09183 26.18367,0 26.18368,0 0,13.09183 0,13.09184 -26.18368,0 z m 87.27891,0 -26.18367,0 0,-13.09184 0,-13.09183 26.18367,0 26.18367,0 0,13.09183 0,13.09184 -26.18367,0 z m 87.27891,0 -26.18367,0 0,-13.09184 0,-13.09183 26.18367,0 26.18367,0 0,13.09183 0,13.09184 -26.18367,0 z m 87.27891,0 -26.18367,0 0,-13.09184 0,-13.09183 26.18367,0 26.18367,0 0,13.09183 0,13.09184 -26.18367,0 z m 87.27891,0 -26.18367,0 0,-13.09184 0,-13.09183 26.18367,0 26.18367,0 0,13.09183 0,13.09184 -26.18367,0 z m -610.952365,-61.09524 -26.183673,0 0,-13.09183 0,-13.09184 26.183673,0 26.183673,0 0,13.09184 0,13.09183 -26.183673,0 z m 87.278905,0 -26.18367,0 0,-13.09183 0,-13.09184 26.18367,0 26.18368,0 0,13.09184 0,13.09183 -26.18368,0 z m 87.27891,0 -26.18367,0 0,-13.09183 0,-13.09184 26.18367,0 26.18368,0 0,13.09184 0,13.09183 -26.18368,0 z m 87.27891,0 -26.18367,0 0,-13.09183 0,-13.09184 26.18367,0 26.18368,0 0,13.09184 0,13.09183 -26.18368,0 z m 87.27891,0 -26.18367,0 0,-13.09183 0,-13.09184 26.18367,0 26.18367,0 0,13.09184 0,13.09183 -26.18367,0 z m 87.27891,0 -26.18367,0 0,-13.09183 0,-13.09184 26.18367,0 26.18367,0 0,13.09184 0,13.09183 -26.18367,0 z m 87.27891,0 -26.18367,0 0,-13.09183 0,-13.09184 26.18367,0 26.18367,0 0,13.09184 0,13.09183 -26.18367,0 z m 87.27891,0 -26.18367,0 0,-13.09183 0,-13.09184 26.18367,0 26.18367,0 0,13.09184 0,13.09183 -26.18367,0 z m -610.952365,-61.09523 -26.183673,0 0,-13.09184 0,-13.091832 26.183673,0 26.183673,0 0,13.091832 0,13.09184 -26.183673,0 z m 87.278905,0 -26.18367,0 0,-13.09184 0,-13.091832 26.18367,0 26.18368,0 0,13.091832 0,13.09184 -26.18368,0 z m 87.27891,0 -26.18367,0 0,-13.09184 0,-13.091832 26.18367,0 26.18368,0 0,13.091832 0,13.09184 -26.18368,0 z m 87.27891,0 -26.18367,0 0,-13.09184 0,-13.091832 26.18367,0 26.18368,0 0,13.091832 0,13.09184 -26.18368,0 z m 87.27891,0 -26.18367,0 0,-13.09184 0,-13.091832 26.18367,0 26.18367,0 0,13.091832 0,13.09184 -26.18367,0 z m 87.27891,0 -26.18367,0 0,-13.09184 0,-13.091832 26.18367,0 26.18367,0 0,13.091832 0,13.09184 -26.18367,0 z m 87.27891,0 -26.18367,0 0,-13.09184 0,-13.091832 26.18367,0 26.18367,0 0,13.091832 0,13.09184 -26.18367,0 z m 87.27891,0 -26.18367,0 0,-13.09184 0,-13.091832 26.18367,0 26.18367,0 0,13.091832 0,13.09184 -26.18367,0 z"
       style="fill:none;stroke:#ff0033;stroke-opacity:1;display:inline" />
  </g>
</svg>
