<?xml version="1.0" encoding="UTF-8" standalone="no"?>
<!-- Created with Inkscape (http://www.inkscape.org/) -->

<svg
   xmlns:dc="http://purl.org/dc/elements/1.1/"
   xmlns:cc="http://creativecommons.org/ns#"
   xmlns:rdf="http://www.w3.org/1999/02/22-rdf-syntax-ns#"
   xmlns:svg="http://www.w3.org/2000/svg"
   xmlns="http://www.w3.org/2000/svg"
   xmlns:sodipodi="http://sodipodi.sourceforge.net/DTD/sodipodi-0.dtd"
   xmlns:inkscape="http://www.inkscape.org/namespaces/inkscape"
   width="210mm"
   height="297mm"
   id="svg3947"
   version="1.1"
   inkscape:version="0.48.3.1 r9886"
   sodipodi:docname="trapèzelayer.svg">
  <defs
     id="defs3949" />
  <sodipodi:namedview
     id="base"
     pagecolor="#ffffff"
     bordercolor="#666666"
     borderopacity="1.0"
     inkscape:pageopacity="0.0"
     inkscape:pageshadow="2"
     inkscape:zoom="0.175"
     inkscape:cx="-733.57143"
     inkscape:cy="520"
     inkscape:document-units="px"
     inkscape:current-layer="layer1"
     showgrid="false"
     inkscape:window-width="1366"
     inkscape:window-height="744"
     inkscape:window-x="0"
     inkscape:window-y="24"
     inkscape:window-maximized="1" />
  <metadata
     id="metadata3952">
    <rdf:RDF>
      <cc:Work
         rdf:about="">
        <dc:format>image/svg+xml</dc:format>
        <dc:type
           rdf:resource="http://purl.org/dc/dcmitype/StillImage" />
        <dc:title></dc:title>
      </cc:Work>
    </rdf:RDF>
  </metadata>
  <g
     inkscape:label="Calque 1"
     inkscape:groupmode="layer"
     id="layer1">
    <path
       inkscape:connector-curvature="0"
       id="path3826"
       d="m 87.772113,971.77033 -55.072772,0 15.797266,-17.45578 15.797265,-17.45578 23.478241,0 23.478237,0 15.79727,17.45578 15.79727,17.45578 -55.072777,0 z m 113.462577,0 -55.07277,0 15.79726,-17.45578 15.79726,-17.45578 23.47825,0 23.47824,0 15.79727,17.45578 15.79726,17.45578 -55.07277,0 z m 113.46258,0 -55.07277,0 15.79726,-17.45578 15.79728,-17.45578 23.47824,0 23.47825,0 15.79726,17.45578 15.79727,17.45578 -55.07278,0 z m 113.46258,0 -55.07277,0 15.79726,-17.45578 15.79728,-17.45578 23.47824,0 23.47825,0 15.79726,17.45578 15.79727,17.45578 -55.07278,0 z m 113.4626,0 -55.07279,0 15.79728,-17.45578 15.79726,-17.45578 23.47825,0 23.47824,0 15.79727,17.45578 15.79726,17.45578 -55.07277,0 z m 113.46258,0 -55.07278,0 15.79727,-17.45578 15.79726,-17.45578 23.47825,0 23.47824,0 15.79727,17.45578 15.79726,17.45578 -55.07277,0 z m -567.312917,-61.09524 -55.072772,0 15.797266,-17.45578 15.797265,-17.45578 23.478241,0 23.478237,0 15.79727,17.45578 15.79727,17.45578 -55.072777,0 z m 113.462587,0 -55.07277,0 15.79726,-17.45578 15.79726,-17.45578 23.47825,0 23.47824,0 15.79727,17.45578 15.79726,17.45578 -55.07277,0 z m 113.46258,0 -55.07277,0 15.79726,-17.45578 15.79727,-17.45578 23.47824,0 23.47825,0 15.79726,17.45578 15.79727,17.45578 -55.07278,0 z m 113.46258,0 -55.07277,0 15.79726,-17.45578 15.79727,-17.45578 23.47824,0 23.47825,0 15.79726,17.45578 15.79727,17.45578 -55.07278,0 z m 113.46259,0 -55.07279,0 15.79728,-17.45578 15.79726,-17.45578 23.47825,0 23.47824,0 15.79727,17.45578 15.79726,17.45578 -55.07277,0 z m 113.46258,0 -55.07278,0 15.79727,-17.45578 15.79726,-17.45578 23.47825,0 23.47824,0 15.79727,17.45578 15.79726,17.45578 -55.07277,0 z m -567.312917,-61.09523 -55.072772,0 15.797266,-17.45578 15.797265,-17.45578 23.478241,0 23.478237,0 15.79727,17.45578 15.79727,17.45578 -55.072777,0 z m 113.462587,0 -55.07277,0 15.79726,-17.45578 15.79726,-17.45578 23.47825,0 23.47824,0 15.79727,17.45578 15.79726,17.45578 -55.07277,0 z m 113.46258,0 -55.07277,0 15.79726,-17.45578 15.79727,-17.45578 23.47824,0 23.47825,0 15.79726,17.45578 15.79727,17.45578 -55.07278,0 z m 113.46258,0 -55.07277,0 15.79726,-17.45578 15.79727,-17.45578 23.47824,0 23.47825,0 15.79726,17.45578 15.79727,17.45578 -55.07278,0 z m 113.46259,0 -55.07279,0 15.79728,-17.45578 15.79726,-17.45578 23.47825,0 23.47824,0 15.79727,17.45578 15.79726,17.45578 -55.07277,0 z m 113.46258,0 -55.07278,0 15.79727,-17.45578 15.79726,-17.45578 23.47825,0 23.47824,0 15.79727,17.45578 15.79726,17.45578 -55.07277,0 z m -567.312917,-61.09524 -55.072772,0 15.797266,-17.45578 15.797265,-17.45578 23.478241,0 23.478237,0 15.79727,17.45578 15.79727,17.45578 -55.072777,0 z m 113.462587,0 -55.07277,0 15.79726,-17.45578 15.79726,-17.45578 23.47825,0 23.47824,0 15.79727,17.45578 15.79726,17.45578 -55.07277,0 z m 113.46258,0 -55.07277,0 15.79726,-17.45578 15.79727,-17.45578 23.47824,0 23.47825,0 15.79726,17.45578 15.79727,17.45578 -55.07278,0 z m 113.46258,0 -55.07277,0 15.79726,-17.45578 15.79727,-17.45578 23.47824,0 23.47825,0 15.79726,17.45578 15.79727,17.45578 -55.07278,0 z m 113.46259,0 -55.07279,0 15.79728,-17.45578 15.79726,-17.45578 23.47825,0 23.47824,0 15.79727,17.45578 15.79726,17.45578 -55.07277,0 z m 113.46258,0 -55.07278,0 15.79727,-17.45578 15.79726,-17.45578 23.47825,0 23.47824,0 15.79727,17.45578 15.79726,17.45578 -55.07277,0 z m -567.312917,-61.09523 -55.072772,0 15.797266,-17.45578 15.797265,-17.45578 23.478241,0 23.478237,0 15.79727,17.45578 15.79727,17.45578 -55.072777,0 z m 113.462587,0 -55.07277,0 15.79726,-17.45578 15.79726,-17.45578 23.47825,0 23.47824,0 15.79727,17.45578 15.79726,17.45578 -55.07277,0 z m 113.46258,0 -55.07277,0 15.79726,-17.45578 15.79727,-17.45578 23.47824,0 23.47825,0 15.79726,17.45578 15.79727,17.45578 -55.07278,0 z m 113.46258,0 -55.07277,0 15.79726,-17.45578 15.79727,-17.45578 23.47824,0 23.47825,0 15.79726,17.45578 15.79727,17.45578 -55.07278,0 z m 113.46259,0 -55.07279,0 15.79728,-17.45578 15.79726,-17.45578 23.47825,0 23.47824,0 15.79727,17.45578 15.79726,17.45578 -55.07277,0 z m 113.46258,0 -55.07278,0 15.79727,-17.45578 15.79726,-17.45578 23.47825,0 23.47824,0 15.79727,17.45578 15.79726,17.45578 -55.07277,0 z m -567.312917,-61.09524 -55.072772,0 15.797266,-17.45578 15.797265,-17.45578 23.478241,0 23.478237,0 15.79727,17.45578 15.79727,17.45578 -55.072777,0 z m 113.462587,0 -55.07277,0 15.79726,-17.45578 15.79726,-17.45578 23.47825,0 23.47824,0 15.79727,17.45578 15.79726,17.45578 -55.07277,0 z m 113.46258,0 -55.07277,0 15.79726,-17.45578 15.79727,-17.45578 23.47824,0 23.47825,0 15.79726,17.45578 15.79727,17.45578 -55.07278,0 z m 113.46258,0 -55.07277,0 15.79726,-17.45578 15.79727,-17.45578 23.47824,0 23.47825,0 15.79726,17.45578 15.79727,17.45578 -55.07278,0 z m 113.46259,0 -55.07279,0 15.79728,-17.45578 15.79726,-17.45578 23.47825,0 23.47824,0 15.79727,17.45578 15.79726,17.45578 -55.07277,0 z m 113.46258,0 -55.07278,0 15.79727,-17.45578 15.79726,-17.45578 23.47825,0 23.47824,0 15.79727,17.45578 15.79726,17.45578 -55.07277,0 z m -567.312917,-61.09523 -55.072772,0 15.797266,-17.45578 15.797265,-17.45579 23.478241,0 23.478237,0 15.79727,17.45579 15.79727,17.45578 -55.072777,0 z m 113.462587,0 -55.07277,0 15.79726,-17.45578 15.79726,-17.45579 23.47825,0 23.47824,0 15.79727,17.45579 15.79726,17.45578 -55.07277,0 z m 113.46258,0 -55.07277,0 15.79726,-17.45578 15.79727,-17.45579 23.47824,0 23.47825,0 15.79726,17.45579 15.79727,17.45578 -55.07278,0 z m 113.46258,0 -55.07277,0 15.79726,-17.45578 15.79727,-17.45579 23.47824,0 23.47825,0 15.79726,17.45579 15.79727,17.45578 -55.07278,0 z m 113.46259,0 -55.07279,0 15.79728,-17.45578 15.79726,-17.45579 23.47825,0 23.47824,0 15.79727,17.45579 15.79726,17.45578 -55.07277,0 z m 113.46258,0 -55.07278,0 15.79727,-17.45578 15.79726,-17.45579 23.47825,0 23.47824,0 15.79727,17.45579 15.79726,17.45578 -55.07277,0 z m -567.312917,-61.09524 -55.072772,0 15.797266,-17.45578 15.797265,-17.45578 23.478241,0 23.478237,0 15.79727,17.45578 15.79727,17.45578 -55.072777,0 z m 113.462587,0 -55.07277,0 15.79726,-17.45578 15.79726,-17.45578 23.47825,0 23.47824,0 15.79727,17.45578 15.79726,17.45578 -55.07277,0 z m 113.46258,0 -55.07277,0 15.79726,-17.45578 15.79727,-17.45578 23.47824,0 23.47825,0 15.79726,17.45578 15.79727,17.45578 -55.07278,0 z m 113.46258,0 -55.07277,0 15.79726,-17.45578 15.79727,-17.45578 23.47824,0 23.47825,0 15.79726,17.45578 15.79727,17.45578 -55.07278,0 z m 113.46259,0 -55.07279,0 15.79728,-17.45578 15.79726,-17.45578 23.47825,0 23.47824,0 15.79727,17.45578 15.79726,17.45578 -55.07277,0 z m 113.46258,0 -55.07278,0 15.79727,-17.45578 15.79726,-17.45578 23.47825,0 23.47824,0 15.79727,17.45578 15.79726,17.45578 -55.07277,0 z m -567.312917,-61.09523 -55.072772,0 15.797266,-17.45578 15.797265,-17.45579 23.478241,0 23.478237,0 15.79727,17.45579 15.79727,17.45578 -55.072777,0 z m 113.462587,0 -55.07277,0 15.79726,-17.45578 15.79726,-17.45579 23.47825,0 23.47824,0 15.79727,17.45579 15.79726,17.45578 -55.07277,0 z m 113.46258,0 -55.07277,0 15.79726,-17.45578 15.79727,-17.45579 23.47824,0 23.47825,0 15.79726,17.45579 15.79727,17.45578 -55.07278,0 z m 113.46258,0 -55.07277,0 15.79726,-17.45578 15.79727,-17.45579 23.47824,0 23.47825,0 15.79726,17.45579 15.79727,17.45578 -55.07278,0 z m 113.46259,0 -55.07279,0 15.79728,-17.45578 15.79726,-17.45579 23.47825,0 23.47824,0 15.79727,17.45579 15.79726,17.45578 -55.07277,0 z m 113.46258,0 -55.07278,0 15.79727,-17.45578 15.79726,-17.45579 23.47825,0 23.47824,0 15.79727,17.45579 15.79726,17.45578 -55.07277,0 z m -567.312917,-61.09524 -55.072772,0 15.797266,-17.45578 15.797265,-17.45578 23.478241,0 23.478237,0 15.79727,17.45578 15.79727,17.45578 -55.072777,0 z m 113.462577,0 -55.07277,0 15.79726,-17.45578 15.79726,-17.45578 23.47825,0 23.47824,0 15.79727,17.45578 15.79726,17.45578 -55.07277,0 z m 113.46258,0 -55.07277,0 15.79726,-17.45578 15.79728,-17.45578 23.47824,0 23.47825,0 15.79726,17.45578 15.79727,17.45578 -55.07278,0 z m 113.46258,0 -55.07277,0 15.79726,-17.45578 15.79728,-17.45578 23.47824,0 23.47825,0 15.79726,17.45578 15.79727,17.45578 -55.07278,0 z m 113.4626,0 -55.07279,0 15.79728,-17.45578 15.79726,-17.45578 23.47825,0 23.47824,0 15.79727,17.45578 15.79726,17.45578 -55.07277,0 z m 113.46258,0 -55.07278,0 15.79727,-17.45578 15.79726,-17.45578 23.47825,0 23.47824,0 15.79727,17.45578 15.79726,17.45578 -55.07277,0 z m -567.312917,-61.09523 -55.072772,0 15.797266,-17.45579 15.797265,-17.45578 23.478241,0 23.478237,0 15.79727,17.45578 15.79727,17.45579 -55.072777,0 z m 113.462587,0 -55.07277,0 15.79726,-17.45579 15.79726,-17.45578 23.47825,0 23.47824,0 15.79727,17.45578 15.79726,17.45579 -55.07277,0 z m 113.46258,0 -55.07277,0 15.79726,-17.45579 15.79727,-17.45578 23.47824,0 23.47825,0 15.79726,17.45578 15.79727,17.45579 -55.07278,0 z m 113.46258,0 -55.07277,0 15.79726,-17.45579 15.79727,-17.45578 23.47824,0 23.47825,0 15.79726,17.45578 15.79727,17.45579 -55.07278,0 z m 113.46259,0 -55.07279,0 15.79728,-17.45579 15.79726,-17.45578 23.47825,0 23.47824,0 15.79727,17.45578 15.79726,17.45579 -55.07277,0 z m 113.46258,0 -55.07278,0 15.79727,-17.45579 15.79726,-17.45578 23.47825,0 23.47824,0 15.79727,17.45578 15.79726,17.45579 -55.07277,0 z m -567.312917,-61.09524 -55.072772,0 15.797266,-17.45578 15.797265,-17.45578 23.478241,0 23.478237,0 15.79727,17.45578 15.79727,17.45578 -55.072777,0 z m 113.462587,0 -55.07277,0 15.79726,-17.45578 15.79726,-17.45578 23.47825,0 23.47824,0 15.79727,17.45578 15.79726,17.45578 -55.07277,0 z m 113.46258,0 -55.07277,0 15.79726,-17.45578 15.79727,-17.45578 23.47824,0 23.47825,0 15.79726,17.45578 15.79727,17.45578 -55.07278,0 z m 113.46258,0 -55.07277,0 15.79726,-17.45578 15.79727,-17.45578 23.47824,0 23.47825,0 15.79726,17.45578 15.79727,17.45578 -55.07278,0 z m 113.46259,0 -55.07279,0 15.79728,-17.45578 15.79726,-17.45578 23.47825,0 23.47824,0 15.79727,17.45578 15.79726,17.45578 -55.07277,0 z m 113.46258,0 -55.07278,0 15.79727,-17.45578 15.79726,-17.45578 23.47825,0 23.47824,0 15.79727,17.45578 15.79726,17.45578 -55.07277,0 z m -567.312917,-61.09523 -55.072772,0 15.797266,-17.45579 15.797265,-17.45578 23.478241,0 23.478237,0 15.79727,17.45578 15.79727,17.45579 -55.072777,0 z m 113.462577,0 -55.07277,0 15.79726,-17.45579 15.79726,-17.45578 23.47825,0 23.47824,0 15.79727,17.45578 15.79726,17.45579 -55.07277,0 z m 113.46258,0 -55.07277,0 15.79726,-17.45579 15.79728,-17.45578 23.47824,0 23.47825,0 15.79726,17.45578 15.79727,17.45579 -55.07278,0 z m 113.46258,0 -55.07277,0 15.79726,-17.45579 15.79728,-17.45578 23.47824,0 23.47825,0 15.79726,17.45578 15.79727,17.45579 -55.07278,0 z m 113.4626,0 -55.07279,0 15.79728,-17.45579 15.79726,-17.45578 23.47825,0 23.47824,0 15.79727,17.45578 15.79726,17.45579 -55.07277,0 z m 113.46258,0 -55.07278,0 15.79727,-17.45579 15.79726,-17.45578 23.47825,0 23.47824,0 15.79727,17.45578 15.79726,17.45579 -55.07277,0 z m -567.312917,-61.09525 -55.072772,0 15.797266,-17.45578 15.797265,-17.45578 23.478241,0 23.478237,0 15.79727,17.45578 15.79727,17.45578 -55.072777,0 z m 113.462587,0 -55.07277,0 15.79726,-17.45578 15.79726,-17.45578 23.47825,0 23.47824,0 15.79727,17.45578 15.79726,17.45578 -55.07277,0 z m 113.46258,0 -55.07277,0 15.79726,-17.45578 15.79727,-17.45578 23.47824,0 23.47825,0 15.79726,17.45578 15.79727,17.45578 -55.07278,0 z m 113.46258,0 -55.07277,0 15.79726,-17.45578 15.79727,-17.45578 23.47824,0 23.47825,0 15.79726,17.45578 15.79727,17.45578 -55.07278,0 z m 113.46259,0 -55.07279,0 15.79728,-17.45578 15.79726,-17.45578 23.47825,0 23.47824,0 15.79727,17.45578 15.79726,17.45578 -55.07277,0 z m 113.46258,0 -55.07278,0 15.79727,-17.45578 15.79726,-17.45578 23.47825,0 23.47824,0 15.79727,17.45578 15.79726,17.45578 -55.07277,0 z m -567.312917,-61.09523 -55.072772,0 15.797266,-17.455781 15.797265,-17.455782 23.478241,0 23.478237,0 15.79727,17.455782 15.79727,17.455781 -55.072777,0 z m 113.462587,0 -55.07277,0 15.79726,-17.455781 15.79726,-17.455782 23.47825,0 23.47824,0 15.79727,17.455782 15.79726,17.455781 -55.07277,0 z m 113.46258,0 -55.07277,0 15.79726,-17.455781 15.79727,-17.455782 23.47824,0 23.47825,0 15.79726,17.455782 15.79727,17.455781 -55.07278,0 z m 113.46258,0 -55.07277,0 15.79726,-17.455781 15.79727,-17.455782 23.47824,0 23.47825,0 15.79726,17.455782 15.79727,17.455781 -55.07278,0 z m 113.46259,0 -55.07279,0 15.79728,-17.455781 15.79726,-17.455782 23.47825,0 23.47824,0 15.79727,17.455782 15.79726,17.455781 -55.07277,0 z m 113.46258,0 -55.07278,0 15.79727,-17.455781 15.79726,-17.455782 23.47825,0 23.47824,0 15.79727,17.455782 15.79726,17.455781 -55.07277,0 z"
       style="fill:none;stroke:#000000;stroke-opacity:1;display:inline" />
  </g>
</svg>
