<?xml version="1.0" encoding="UTF-8" standalone="no"?>
<!-- Created with Inkscape (http://www.inkscape.org/) -->

<svg
   xmlns:dc="http://purl.org/dc/elements/1.1/"
   xmlns:cc="http://creativecommons.org/ns#"
   xmlns:rdf="http://www.w3.org/1999/02/22-rdf-syntax-ns#"
   xmlns:svg="http://www.w3.org/2000/svg"
   xmlns="http://www.w3.org/2000/svg"
   xmlns:sodipodi="http://sodipodi.sourceforge.net/DTD/sodipodi-0.dtd"
   xmlns:inkscape="http://www.inkscape.org/namespaces/inkscape"
   width="210mm"
   height="297mm"
   id="svg3893"
   version="1.1"
   inkscape:version="0.48.3.1 r9886"
   sodipodi:docname="Nouveau document 7">
  <defs
     id="defs3895" />
  <sodipodi:namedview
     id="base"
     pagecolor="#ffffff"
     bordercolor="#666666"
     borderopacity="1.0"
     inkscape:pageopacity="0.0"
     inkscape:pageshadow="2"
     inkscape:zoom="0.35"
     inkscape:cx="375"
     inkscape:cy="520"
     inkscape:document-units="px"
     inkscape:current-layer="layer1"
     showgrid="true"
     inkscape:window-width="893"
     inkscape:window-height="652"
     inkscape:window-x="534"
     inkscape:window-y="24"
     inkscape:window-maximized="0">
    <inkscape:grid
       type="xygrid"
       id="grid3919" />
  </sodipodi:namedview>
  <metadata
     id="metadata3898">
    <rdf:RDF>
      <cc:Work
         rdf:about="">
        <dc:format>image/svg+xml</dc:format>
        <dc:type
           rdf:resource="http://purl.org/dc/dcmitype/StillImage" />
        <dc:title></dc:title>
      </cc:Work>
    </rdf:RDF>
  </metadata>
  <g
     inkscape:label="Calque 1"
     inkscape:groupmode="layer"
     id="layer1">
    <path
       inkscape:connector-curvature="0"
       id="path3818"
       d="m 33.253048,982.60704 c -0.912184,0 -8.767284,-7.8551 -17.455778,-17.45578 L 0,947.69548 l 33.253048,0 33.253048,0 -15.797266,17.45578 c -8.688495,9.60068 -16.543597,17.45578 -17.455782,17.45578 z m 113.462582,0 c -0.91219,0 -8.76729,-7.8551 -17.45578,-17.45578 l -15.79727,-17.45578 33.25305,0 33.25304,0 -15.79726,17.45578 c -8.68849,9.60068 -16.5436,17.45578 -17.45578,17.45578 z m 113.46258,0 c -0.91219,0 -8.76729,-7.8551 -17.45578,-17.45578 l -15.79727,-17.45578 33.25305,0 33.25305,0 -15.79727,17.45578 c -8.68849,9.60068 -16.54359,17.45578 -17.45578,17.45578 z m 113.46258,0 c -0.91218,0 -8.76729,-7.8551 -17.45578,-17.45578 l -15.79726,-17.45578 33.25304,0 33.25305,0 -15.79727,17.45578 c -8.68849,9.60068 -16.54359,17.45578 -17.45578,17.45578 z m 113.46258,0 c -0.91218,0 -8.76728,-7.8551 -17.45578,-17.45578 l -15.79726,-17.45578 33.25304,0 33.25305,0 -15.79726,17.45578 c -8.6885,9.60068 -16.5436,17.45578 -17.45579,17.45578 z m 113.46259,0 c -0.91219,0 -8.76729,-7.8551 -17.45578,-17.45578 l -15.79727,-17.45578 33.25305,0 33.25304,0 -15.79726,17.45578 c -8.68849,9.60068 -16.5436,17.45578 -17.45578,17.45578 z m 113.46258,0 c -0.91219,0 -8.76729,-7.8551 -17.45578,-17.45578 l -15.79727,-17.45578 33.25305,0 33.25305,0 -15.79727,17.45578 c -8.68849,9.60068 -16.54359,17.45578 -17.45578,17.45578 z M 33.253048,921.5118 c -0.912184,0 -8.767284,-7.8551 -17.455778,-17.45578 L 0,886.60024 l 33.253048,0 33.253048,0 -15.797266,17.45578 C 42.020335,913.6567 34.165233,921.5118 33.253048,921.5118 z m 113.462582,0 c -0.91219,0 -8.76729,-7.8551 -17.45578,-17.45578 l -15.79727,-17.45578 33.25305,0 33.25304,0 -15.79726,17.45578 c -8.68849,9.60068 -16.5436,17.45578 -17.45578,17.45578 z m 113.46258,0 c -0.91219,0 -8.76729,-7.8551 -17.45578,-17.45578 l -15.79727,-17.45578 33.25305,0 33.25305,0 -15.79727,17.45578 c -8.68849,9.60068 -16.54359,17.45578 -17.45578,17.45578 z m 113.46258,0 c -0.91218,0 -8.76729,-7.8551 -17.45578,-17.45578 l -15.79726,-17.45578 33.25304,0 33.25305,0 -15.79727,17.45578 c -8.68849,9.60068 -16.54359,17.45578 -17.45578,17.45578 z m 113.46258,0 c -0.91218,0 -8.76728,-7.8551 -17.45578,-17.45578 l -15.79726,-17.45578 33.25304,0 33.25305,0 -15.79726,17.45578 c -8.6885,9.60068 -16.5436,17.45578 -17.45579,17.45578 z m 113.46259,0 c -0.91219,0 -8.76729,-7.8551 -17.45578,-17.45578 l -15.79727,-17.45578 33.25305,0 33.25304,0 -15.79726,17.45578 c -8.68849,9.60068 -16.5436,17.45578 -17.45578,17.45578 z m 113.46258,0 c -0.91219,0 -8.76729,-7.8551 -17.45578,-17.45578 l -15.79727,-17.45578 33.25305,0 33.25305,0 -15.79727,17.45578 c -8.68849,9.60068 -16.54359,17.45578 -17.45578,17.45578 z M 33.253048,860.41657 c -0.912184,0 -8.767284,-7.8551 -17.455778,-17.45578 L 0,825.50501 l 33.253048,0 33.253048,0 -15.797266,17.45578 c -8.688495,9.60068 -16.543597,17.45578 -17.455782,17.45578 z m 113.462582,0 c -0.91219,0 -8.76729,-7.8551 -17.45578,-17.45578 l -15.79727,-17.45578 33.25305,0 33.25304,0 -15.79726,17.45578 c -8.68849,9.60068 -16.5436,17.45578 -17.45578,17.45578 z m 113.46258,0 c -0.91219,0 -8.76729,-7.8551 -17.45578,-17.45578 l -15.79727,-17.45578 33.25305,0 33.25305,0 -15.79727,17.45578 c -8.68849,9.60068 -16.54359,17.45578 -17.45578,17.45578 z m 113.46258,0 c -0.91218,0 -8.76729,-7.8551 -17.45578,-17.45578 l -15.79726,-17.45578 33.25304,0 33.25305,0 -15.79727,17.45578 c -8.68849,9.60068 -16.54359,17.45578 -17.45578,17.45578 z m 113.46258,0 c -0.91218,0 -8.76728,-7.8551 -17.45578,-17.45578 l -15.79726,-17.45578 33.25304,0 33.25305,0 -15.79726,17.45578 c -8.6885,9.60068 -16.5436,17.45578 -17.45579,17.45578 z m 113.46259,0 c -0.91219,0 -8.76729,-7.8551 -17.45578,-17.45578 l -15.79727,-17.45578 33.25305,0 33.25304,0 -15.79726,17.45578 c -8.68849,9.60068 -16.5436,17.45578 -17.45578,17.45578 z m 113.46258,0 c -0.91219,0 -8.76729,-7.8551 -17.45578,-17.45578 l -15.79727,-17.45578 33.25305,0 33.25305,0 -15.79727,17.45578 c -8.68849,9.60068 -16.54359,17.45578 -17.45578,17.45578 z M 33.253048,799.32133 c -0.912184,0 -8.767284,-7.8551 -17.455778,-17.45578 L 0,764.40977 l 33.253048,0 33.253048,0 -15.797266,17.45578 c -8.688495,9.60068 -16.543597,17.45578 -17.455782,17.45578 z m 113.462582,0 c -0.91219,0 -8.76729,-7.8551 -17.45578,-17.45578 l -15.79727,-17.45578 33.25305,0 33.25304,0 -15.79726,17.45578 c -8.68849,9.60068 -16.5436,17.45578 -17.45578,17.45578 z m 113.46258,0 c -0.91219,0 -8.76729,-7.8551 -17.45578,-17.45578 l -15.79727,-17.45578 33.25305,0 33.25305,0 -15.79727,17.45578 c -8.68849,9.60068 -16.54359,17.45578 -17.45578,17.45578 z m 113.46258,0 c -0.91218,0 -8.76729,-7.8551 -17.45578,-17.45578 l -15.79726,-17.45578 33.25304,0 33.25305,0 -15.79727,17.45578 c -8.68849,9.60068 -16.54359,17.45578 -17.45578,17.45578 z m 113.46258,0 c -0.91218,0 -8.76728,-7.8551 -17.45578,-17.45578 l -15.79726,-17.45578 33.25304,0 33.25305,0 -15.79726,17.45578 c -8.6885,9.60068 -16.5436,17.45578 -17.45579,17.45578 z m 113.46259,0 c -0.91219,0 -8.76729,-7.8551 -17.45578,-17.45578 l -15.79727,-17.45578 33.25305,0 33.25304,0 -15.79726,17.45578 c -8.68849,9.60068 -16.5436,17.45578 -17.45578,17.45578 z m 113.46258,0 c -0.91219,0 -8.76729,-7.8551 -17.45578,-17.45578 l -15.79727,-17.45578 33.25305,0 33.25305,0 -15.79727,17.45578 c -8.68849,9.60068 -16.54359,17.45578 -17.45578,17.45578 z M 33.253048,738.2261 c -0.912184,0 -8.767284,-7.8551 -17.455778,-17.45578 L 0,703.31454 l 33.253048,0 33.253048,0 -15.797266,17.45578 C 42.020335,730.371 34.165233,738.2261 33.253048,738.2261 z m 113.462582,0 c -0.91219,0 -8.76729,-7.8551 -17.45578,-17.45578 l -15.79727,-17.45578 33.25305,0 33.25304,0 -15.79726,17.45578 c -8.68849,9.60068 -16.5436,17.45578 -17.45578,17.45578 z m 113.46258,0 c -0.91219,0 -8.76729,-7.8551 -17.45578,-17.45578 l -15.79727,-17.45578 33.25305,0 33.25305,0 -15.79727,17.45578 C 268.9455,730.371 261.0904,738.2261 260.17821,738.2261 z m 113.46258,0 c -0.91218,0 -8.76729,-7.8551 -17.45578,-17.45578 l -15.79726,-17.45578 33.25304,0 33.25305,0 -15.79727,17.45578 c -8.68849,9.60068 -16.54359,17.45578 -17.45578,17.45578 z m 113.46258,0 c -0.91218,0 -8.76728,-7.8551 -17.45578,-17.45578 l -15.79726,-17.45578 33.25304,0 33.25305,0 -15.79726,17.45578 c -8.6885,9.60068 -16.5436,17.45578 -17.45579,17.45578 z m 113.46259,0 c -0.91219,0 -8.76729,-7.8551 -17.45578,-17.45578 l -15.79727,-17.45578 33.25305,0 33.25304,0 -15.79726,17.45578 c -8.68849,9.60068 -16.5436,17.45578 -17.45578,17.45578 z m 113.46258,0 c -0.91219,0 -8.76729,-7.8551 -17.45578,-17.45578 l -15.79727,-17.45578 33.25305,0 33.25305,0 -15.79727,17.45578 c -8.68849,9.60068 -16.54359,17.45578 -17.45578,17.45578 z M 33.253048,677.13086 c -0.912184,0 -8.767284,-7.8551 -17.455778,-17.45578 L 0,642.2193 l 33.253048,0 33.253048,0 -15.797266,17.45578 c -8.688495,9.60068 -16.543597,17.45578 -17.455782,17.45578 z m 113.462582,0 c -0.91219,0 -8.76729,-7.8551 -17.45578,-17.45578 l -15.79727,-17.45578 33.25305,0 33.25304,0 -15.79726,17.45578 c -8.68849,9.60068 -16.5436,17.45578 -17.45578,17.45578 z m 113.46258,0 c -0.91219,0 -8.76729,-7.8551 -17.45578,-17.45578 l -15.79727,-17.45578 33.25305,0 33.25305,0 -15.79727,17.45578 c -8.68849,9.60068 -16.54359,17.45578 -17.45578,17.45578 z m 113.46258,0 c -0.91218,0 -8.76729,-7.8551 -17.45578,-17.45578 l -15.79726,-17.45578 33.25304,0 33.25305,0 -15.79727,17.45578 c -8.68849,9.60068 -16.54359,17.45578 -17.45578,17.45578 z m 113.46258,0 c -0.91218,0 -8.76728,-7.8551 -17.45578,-17.45578 l -15.79726,-17.45578 33.25304,0 33.25305,0 -15.79726,17.45578 c -8.6885,9.60068 -16.5436,17.45578 -17.45579,17.45578 z m 113.46259,0 c -0.91219,0 -8.76729,-7.8551 -17.45578,-17.45578 l -15.79727,-17.45578 33.25305,0 33.25304,0 -15.79726,17.45578 c -8.68849,9.60068 -16.5436,17.45578 -17.45578,17.45578 z m 113.46258,0 c -0.91219,0 -8.76729,-7.8551 -17.45578,-17.45578 l -15.79727,-17.45578 33.25305,0 33.25305,0 -15.79727,17.45578 c -8.68849,9.60068 -16.54359,17.45578 -17.45578,17.45578 z M 33.253048,616.03563 c -0.912184,0 -8.767284,-7.8551 -17.455778,-17.45578 L 0,581.12406 l 33.253048,0 33.253048,0 -15.797266,17.45579 c -8.688495,9.60068 -16.543597,17.45578 -17.455782,17.45578 z m 113.462582,0 c -0.91219,0 -8.76729,-7.8551 -17.45578,-17.45578 l -15.79727,-17.45579 33.25305,0 33.25304,0 -15.79726,17.45579 c -8.68849,9.60068 -16.5436,17.45578 -17.45578,17.45578 z m 113.46258,0 c -0.91219,0 -8.76729,-7.8551 -17.45578,-17.45578 l -15.79727,-17.45579 33.25305,0 33.25305,0 -15.79727,17.45579 c -8.68849,9.60068 -16.54359,17.45578 -17.45578,17.45578 z m 113.46258,0 c -0.91218,0 -8.76729,-7.8551 -17.45578,-17.45578 l -15.79726,-17.45579 33.25304,0 33.25305,0 -15.79727,17.45579 c -8.68849,9.60068 -16.54359,17.45578 -17.45578,17.45578 z m 113.46258,0 c -0.91218,0 -8.76728,-7.8551 -17.45578,-17.45578 l -15.79726,-17.45579 33.25304,0 33.25305,0 -15.79726,17.45579 c -8.6885,9.60068 -16.5436,17.45578 -17.45579,17.45578 z m 113.46259,0 c -0.91219,0 -8.76729,-7.8551 -17.45578,-17.45578 l -15.79727,-17.45579 33.25305,0 33.25304,0 -15.79726,17.45579 c -8.68849,9.60068 -16.5436,17.45578 -17.45578,17.45578 z m 113.46258,0 c -0.91219,0 -8.76729,-7.8551 -17.45578,-17.45578 l -15.79727,-17.45579 33.25305,0 33.25305,0 -15.79727,17.45579 c -8.68849,9.60068 -16.54359,17.45578 -17.45578,17.45578 z M 33.253048,554.94039 c -0.912184,0 -8.767284,-7.8551 -17.455778,-17.45578 L 0,520.02883 l 33.253048,0 33.253048,0 -15.797266,17.45578 c -8.688495,9.60068 -16.543597,17.45578 -17.455782,17.45578 z m 113.462582,0 c -0.91219,0 -8.76729,-7.8551 -17.45578,-17.45578 l -15.79727,-17.45578 33.25305,0 33.25304,0 -15.79726,17.45578 c -8.68849,9.60068 -16.5436,17.45578 -17.45578,17.45578 z m 113.46258,0 c -0.91219,0 -8.76729,-7.8551 -17.45578,-17.45578 l -15.79727,-17.45578 33.25305,0 33.25305,0 -15.79727,17.45578 c -8.68849,9.60068 -16.54359,17.45578 -17.45578,17.45578 z m 113.46258,0 c -0.91218,0 -8.76729,-7.8551 -17.45578,-17.45578 l -15.79726,-17.45578 33.25304,0 33.25305,0 -15.79727,17.45578 c -8.68849,9.60068 -16.54359,17.45578 -17.45578,17.45578 z m 113.46258,0 c -0.91218,0 -8.76728,-7.8551 -17.45578,-17.45578 l -15.79726,-17.45578 33.25304,0 33.25305,0 -15.79726,17.45578 c -8.6885,9.60068 -16.5436,17.45578 -17.45579,17.45578 z m 113.46259,0 c -0.91219,0 -8.76729,-7.8551 -17.45578,-17.45578 l -15.79727,-17.45578 33.25305,0 33.25304,0 -15.79726,17.45578 c -8.68849,9.60068 -16.5436,17.45578 -17.45578,17.45578 z m 113.46258,0 c -0.91219,0 -8.76729,-7.8551 -17.45578,-17.45578 l -15.79727,-17.45578 33.25305,0 33.25305,0 -15.79727,17.45578 c -8.68849,9.60068 -16.54359,17.45578 -17.45578,17.45578 z M 33.253048,493.84516 c -0.912184,0 -8.767284,-7.8551 -17.455778,-17.45578 L 0,458.93359 l 33.253048,0 33.253048,0 -15.797266,17.45579 c -8.688495,9.60068 -16.543597,17.45578 -17.455782,17.45578 z m 113.462582,0 c -0.91219,0 -8.76729,-7.8551 -17.45578,-17.45578 l -15.79727,-17.45579 33.25305,0 33.25304,0 -15.79726,17.45579 c -8.68849,9.60068 -16.5436,17.45578 -17.45578,17.45578 z m 113.46258,0 c -0.91219,0 -8.76729,-7.8551 -17.45578,-17.45578 l -15.79727,-17.45579 33.25305,0 33.25305,0 -15.79727,17.45579 c -8.68849,9.60068 -16.54359,17.45578 -17.45578,17.45578 z m 113.46258,0 c -0.91218,0 -8.76729,-7.8551 -17.45578,-17.45578 l -15.79726,-17.45579 33.25304,0 33.25305,0 -15.79727,17.45579 c -8.68849,9.60068 -16.54359,17.45578 -17.45578,17.45578 z m 113.46258,0 c -0.91218,0 -8.76728,-7.8551 -17.45578,-17.45578 l -15.79726,-17.45579 33.25304,0 33.25305,0 -15.79726,17.45579 c -8.6885,9.60068 -16.5436,17.45578 -17.45579,17.45578 z m 113.46259,0 c -0.91219,0 -8.76729,-7.8551 -17.45578,-17.45578 l -15.79727,-17.45579 33.25305,0 33.25304,0 -15.79726,17.45579 c -8.68849,9.60068 -16.5436,17.45578 -17.45578,17.45578 z m 113.46258,0 c -0.91219,0 -8.76729,-7.8551 -17.45578,-17.45578 l -15.79727,-17.45579 33.25305,0 33.25305,0 -15.79727,17.45579 c -8.68849,9.60068 -16.54359,17.45578 -17.45578,17.45578 z M 33.253048,432.74992 c -0.912184,0 -8.767284,-7.8551 -17.455778,-17.45578 L 0,397.83836 l 33.253048,0 33.253048,0 -15.797266,17.45578 c -8.688495,9.60068 -16.543597,17.45578 -17.455782,17.45578 z m 113.462582,0 c -0.91219,0 -8.76729,-7.8551 -17.45578,-17.45578 l -15.79727,-17.45578 33.25305,0 33.25304,0 -15.79726,17.45578 c -8.68849,9.60068 -16.5436,17.45578 -17.45578,17.45578 z m 113.46258,0 c -0.91219,0 -8.76729,-7.8551 -17.45578,-17.45578 l -15.79727,-17.45578 33.25305,0 33.25305,0 -15.79727,17.45578 c -8.68849,9.60068 -16.54359,17.45578 -17.45578,17.45578 z m 113.46258,0 c -0.91218,0 -8.76729,-7.8551 -17.45578,-17.45578 l -15.79726,-17.45578 33.25304,0 33.25305,0 -15.79727,17.45578 c -8.68849,9.60068 -16.54359,17.45578 -17.45578,17.45578 z m 113.46258,0 c -0.91218,0 -8.76728,-7.8551 -17.45578,-17.45578 l -15.79726,-17.45578 33.25304,0 33.25305,0 -15.79726,17.45578 c -8.6885,9.60068 -16.5436,17.45578 -17.45579,17.45578 z m 113.46259,0 c -0.91219,0 -8.76729,-7.8551 -17.45578,-17.45578 l -15.79727,-17.45578 33.25305,0 33.25304,0 -15.79726,17.45578 c -8.68849,9.60068 -16.5436,17.45578 -17.45578,17.45578 z m 113.46258,0 c -0.91219,0 -8.76729,-7.8551 -17.45578,-17.45578 l -15.79727,-17.45578 33.25305,0 33.25305,0 -15.79727,17.45578 c -8.68849,9.60068 -16.54359,17.45578 -17.45578,17.45578 z M 33.253048,371.65469 c -0.912184,0 -8.767284,-7.85511 -17.455778,-17.45579 L 0,336.74312 l 33.253048,0 33.253048,0 -15.797266,17.45578 c -8.688495,9.60068 -16.543597,17.45579 -17.455782,17.45579 z m 113.462582,0 c -0.91219,0 -8.76729,-7.85511 -17.45578,-17.45579 l -15.79727,-17.45578 33.25305,0 33.25304,0 -15.79726,17.45578 c -8.68849,9.60068 -16.5436,17.45579 -17.45578,17.45579 z m 113.46258,0 c -0.91219,0 -8.76729,-7.85511 -17.45578,-17.45579 l -15.79727,-17.45578 33.25305,0 33.25305,0 -15.79727,17.45578 c -8.68849,9.60068 -16.54359,17.45579 -17.45578,17.45579 z m 113.46258,0 c -0.91218,0 -8.76729,-7.85511 -17.45578,-17.45579 l -15.79726,-17.45578 33.25304,0 33.25305,0 -15.79727,17.45578 c -8.68849,9.60068 -16.54359,17.45579 -17.45578,17.45579 z m 113.46258,0 c -0.91218,0 -8.76728,-7.85511 -17.45578,-17.45579 l -15.79726,-17.45578 33.25304,0 33.25305,0 -15.79726,17.45578 c -8.6885,9.60068 -16.5436,17.45579 -17.45579,17.45579 z m 113.46259,0 c -0.91219,0 -8.76729,-7.85511 -17.45578,-17.45579 l -15.79727,-17.45578 33.25305,0 33.25304,0 -15.79726,17.45578 c -8.68849,9.60068 -16.5436,17.45579 -17.45578,17.45579 z m 113.46258,0 c -0.91219,0 -8.76729,-7.85511 -17.45578,-17.45579 l -15.79727,-17.45578 33.25305,0 33.25305,0 -15.79727,17.45578 c -8.68849,9.60068 -16.54359,17.45579 -17.45578,17.45579 z M 33.253048,310.55945 c -0.912184,0 -8.767284,-7.8551 -17.455778,-17.45578 L 0,275.64789 l 33.253048,0 33.253048,0 -15.797266,17.45578 c -8.688495,9.60068 -16.543597,17.45578 -17.455782,17.45578 z m 113.462582,0 c -0.91219,0 -8.76729,-7.8551 -17.45578,-17.45578 l -15.79727,-17.45578 33.25305,0 33.25304,0 -15.79726,17.45578 c -8.68849,9.60068 -16.5436,17.45578 -17.45578,17.45578 z m 113.46258,0 c -0.91219,0 -8.76729,-7.8551 -17.45578,-17.45578 l -15.79727,-17.45578 33.25305,0 33.25305,0 -15.79727,17.45578 c -8.68849,9.60068 -16.54359,17.45578 -17.45578,17.45578 z m 113.46258,0 c -0.91218,0 -8.76729,-7.8551 -17.45578,-17.45578 l -15.79726,-17.45578 33.25304,0 33.25305,0 -15.79727,17.45578 c -8.68849,9.60068 -16.54359,17.45578 -17.45578,17.45578 z m 113.46258,0 c -0.91218,0 -8.76728,-7.8551 -17.45578,-17.45578 l -15.79726,-17.45578 33.25304,0 33.25305,0 -15.79726,17.45578 c -8.6885,9.60068 -16.5436,17.45578 -17.45579,17.45578 z m 113.46259,0 c -0.91219,0 -8.76729,-7.8551 -17.45578,-17.45578 l -15.79727,-17.45578 33.25305,0 33.25304,0 -15.79726,17.45578 c -8.68849,9.60068 -16.5436,17.45578 -17.45578,17.45578 z m 113.46258,0 c -0.91219,0 -8.76729,-7.8551 -17.45578,-17.45578 l -15.79727,-17.45578 33.25305,0 33.25305,0 -15.79727,17.45578 c -8.68849,9.60068 -16.54359,17.45578 -17.45578,17.45578 z M 33.253048,249.46422 c -0.912184,0 -8.767284,-7.85511 -17.455778,-17.45579 L 0,214.55265 l 33.253048,0 33.253048,0 -15.797266,17.45578 c -8.688495,9.60068 -16.543597,17.45579 -17.455782,17.45579 z m 113.462582,0 c -0.91219,0 -8.76729,-7.85511 -17.45578,-17.45579 l -15.79727,-17.45578 33.25305,0 33.25304,0 -15.79726,17.45578 c -8.68849,9.60068 -16.5436,17.45579 -17.45578,17.45579 z m 113.46258,0 c -0.91219,0 -8.76729,-7.85511 -17.45578,-17.45579 l -15.79727,-17.45578 33.25305,0 33.25305,0 -15.79727,17.45578 c -8.68849,9.60068 -16.54359,17.45579 -17.45578,17.45579 z m 113.46258,0 c -0.91218,0 -8.76729,-7.85511 -17.45578,-17.45579 l -15.79726,-17.45578 33.25304,0 33.25305,0 -15.79727,17.45578 c -8.68849,9.60068 -16.54359,17.45579 -17.45578,17.45579 z m 113.46258,0 c -0.91218,0 -8.76728,-7.85511 -17.45578,-17.45579 l -15.79726,-17.45578 33.25304,0 33.25305,0 -15.79726,17.45578 c -8.6885,9.60068 -16.5436,17.45579 -17.45579,17.45579 z m 113.46259,0 c -0.91219,0 -8.76729,-7.85511 -17.45578,-17.45579 l -15.79727,-17.45578 33.25305,0 33.25304,0 -15.79726,17.45578 c -8.68849,9.60068 -16.5436,17.45579 -17.45578,17.45579 z m 113.46258,0 c -0.91219,0 -8.76729,-7.85511 -17.45578,-17.45579 l -15.79727,-17.45578 33.25305,0 33.25305,0 -15.79727,17.45578 c -8.68849,9.60068 -16.54359,17.45579 -17.45578,17.45579 z M 33.253048,188.36898 c -0.912184,0 -8.767284,-7.8551 -17.455778,-17.45578 L 0,153.45742 l 33.253048,0 33.253048,0 -15.797266,17.45578 c -8.688495,9.60068 -16.543597,17.45578 -17.455782,17.45578 z m 113.462582,0 c -0.91219,0 -8.76729,-7.8551 -17.45578,-17.45578 l -15.79727,-17.45578 33.25305,0 33.25304,0 -15.79726,17.45578 c -8.68849,9.60068 -16.5436,17.45578 -17.45578,17.45578 z m 113.46258,0 c -0.91219,0 -8.76729,-7.8551 -17.45578,-17.45578 l -15.79727,-17.45578 33.25305,0 33.25305,0 -15.79727,17.45578 c -8.68849,9.60068 -16.54359,17.45578 -17.45578,17.45578 z m 113.46258,0 c -0.91218,0 -8.76729,-7.8551 -17.45578,-17.45578 l -15.79726,-17.45578 33.25304,0 33.25305,0 -15.79727,17.45578 c -8.68849,9.60068 -16.54359,17.45578 -17.45578,17.45578 z m 113.46258,0 c -0.91218,0 -8.76728,-7.8551 -17.45578,-17.45578 l -15.79726,-17.45578 33.25304,0 33.25305,0 -15.79726,17.45578 c -8.6885,9.60068 -16.5436,17.45578 -17.45579,17.45578 z m 113.46259,0 c -0.91219,0 -8.76729,-7.8551 -17.45578,-17.45578 l -15.79727,-17.45578 33.25305,0 33.25304,0 -15.79726,17.45578 c -8.68849,9.60068 -16.5436,17.45578 -17.45578,17.45578 z m 113.46258,0 c -0.91219,0 -8.76729,-7.8551 -17.45578,-17.45578 l -15.79727,-17.45578 33.25305,0 33.25305,0 -15.79727,17.45578 c -8.68849,9.60068 -16.54359,17.45578 -17.45578,17.45578 z M 33.253048,127.27375 c -0.912184,0 -8.767284,-7.85511 -17.455778,-17.45579 L 0,92.362183 l 33.253048,0 33.253048,0 -15.797266,17.455777 c -8.688495,9.60068 -16.543598,17.45579 -17.455782,17.45579 z m 113.462582,0 c -0.91219,0 -8.76729,-7.85511 -17.45578,-17.45579 l -15.79727,-17.455777 33.25305,0 33.25304,0 -15.79726,17.455777 c -8.68849,9.60068 -16.5436,17.45579 -17.45578,17.45579 z m 113.46258,0 c -0.91219,0 -8.76729,-7.85511 -17.45578,-17.45579 l -15.79727,-17.455777 33.25305,0 33.25305,0 -15.79727,17.455777 c -8.68849,9.60068 -16.54359,17.45579 -17.45578,17.45579 z m 113.46258,0 c -0.91218,0 -8.76729,-7.85511 -17.45578,-17.45579 l -15.79726,-17.455777 33.25304,0 33.25305,0 -15.79727,17.455777 c -8.68849,9.60068 -16.54359,17.45579 -17.45578,17.45579 z m 113.46258,0 c -0.91218,0 -8.76728,-7.85511 -17.45578,-17.45579 l -15.79726,-17.455777 33.25304,0 33.25305,0 -15.79726,17.455777 c -8.6885,9.60068 -16.5436,17.45579 -17.45579,17.45579 z m 113.46259,0 c -0.91219,0 -8.76729,-7.85511 -17.45578,-17.45579 l -15.79727,-17.455777 33.25305,0 33.25304,0 -15.79726,17.455777 c -8.68849,9.60068 -16.5436,17.45579 -17.45578,17.45579 z m 113.46258,0 c -0.91219,0 -8.76729,-7.85511 -17.45578,-17.45579 l -15.79727,-17.455777 33.25305,0 33.25305,0 -15.79727,17.455777 c -8.68849,9.60068 -16.54359,17.45579 -17.45578,17.45579 z"
       style="fill:none;stroke:#330000;stroke-opacity:1;display:inline" />
  </g>
</svg>
